<?xml version="1.0" standalone="no"?>
<!DOCTYPE svg PUBLIC "-//W3C//DTD SVG 20010904//EN"
 "http://www.w3.org/TR/2001/REC-SVG-20010904/DTD/svg10.dtd">
<svg version="1.0" xmlns="http://www.w3.org/2000/svg"
 width="136.000000pt" height="136.000000pt" viewBox="0 0 136.000000 136.000000"
 preserveAspectRatio="xMidYMid meet">
<metadata>
Created by potrace 1.11, written by Peter Selinger 2001-2013
</metadata>
<g transform="translate(0.000000,136.000000) scale(0.100000,-0.100000)"
fill="#000000" stroke="none">
<path d="M690 1282 c-117 -64 -157 -107 -185 -197 -28 -94 -19 -144 54 -313
23 -51 41 -101 41 -112 0 -37 -19 -30 -42 16 -26 53 -79 99 -155 138 -41 20
-53 23 -53 12 0 -8 4 -17 9 -20 15 -10 21 -97 11 -162 -6 -34 -22 -95 -36
-136 -55 -158 -60 -184 -40 -242 30 -89 68 -137 154 -196 41 -28 51 -20 27 24
-27 50 -16 66 45 66 27 0 50 -4 50 -10 0 -5 10 -18 22 -30 35 -33 128 -22 128
15 0 17 -50 45 -79 45 -41 0 -131 41 -151 70 -43 60 -13 146 63 180 86 40 205
13 247 -55 26 -43 25 -63 -4 -71 -32 -8 -64 3 -99 32 -33 27 -74 31 -103 9
-19 -15 -19 -15 4 -35 13 -11 40 -22 60 -25 59 -10 141 -46 157 -69 8 -11 15
-31 15 -43 0 -31 21 -29 62 5 98 81 158 215 158 354 0 122 -42 227 -151 380
-119 168 -138 195 -158 232 -25 43 -27 103 -6 133 22 31 6 33 -45 5z"/>
</g>
</svg>
