<svg id="txt_копия" data-name="txt копия" xmlns="http://www.w3.org/2000/svg" xmlns:xlink="http://www.w3.org/1999/xlink" width="235.97" height="182.66" viewBox="0 0 235.97 182.66">
  <defs>
    <style>
      .cls-1, .cls-5 {
        fill: #28282e;
      }

      .cls-1, .cls-4 {
        fill-rule: evenodd;
      }

      .cls-2 {
        filter: url(#filter);
      }

      .cls-3 {
        fill: #29282e;
      }

      .cls-4 {
        fill: #ed1c24;
      }
    </style>
    <filter id="filter" filterUnits="userSpaceOnUse">
      <feFlood result="flood" flood-color="#ed1c24"/>
      <feComposite result="composite" operator="in" in2="SourceGraphic"/>
      <feBlend result="blend" in2="SourceGraphic"/>
    </filter>
  </defs>
  <path id="EASY" class="cls-1" d="M1190.13,992.394l2.63-12.994h-41.47l-10.21,51.1h42.42l2.63-12.99h-25.59l1.31-6.72h21.65l2.48-12.41h-21.57l1.16-5.986h24.56Zm44.32,38.106h17.13l-12.1-51.1h-16.91l-32.51,51.1h18.15l5.1-8.91h19.46Zm-14.07-21.32,7.51-13.063,2.48,13.063h-9.99Zm59.69,22.49a36.3,36.3,0,0,0,13.71-2.37,20.217,20.217,0,0,0,8.96-6.68,16.564,16.564,0,0,0,3.14-10.01,10.545,10.545,0,0,0-2.48-7.29,15.016,15.016,0,0,0-5.87-4.09,63.736,63.736,0,0,0-8.34-2.485,34.753,34.753,0,0,1-5.87-1.752,2.475,2.475,0,0,1-1.79-2.19c0-.924.66-1.727,1.97-2.409a12.226,12.226,0,0,1,5.54-1.022,29.014,29.014,0,0,1,7.4.949,23.262,23.262,0,0,1,6.59,2.847l6.2-12.556a29.583,29.583,0,0,0-8.49-3.248,47.32,47.32,0,0,0-10.61-1.132,36.435,36.435,0,0,0-13.77,2.372,19.742,19.742,0,0,0-8.93,6.716,16.936,16.936,0,0,0-3.1,10.111,10.668,10.668,0,0,0,2.52,7.409,15.645,15.645,0,0,0,5.86,4.16,70.7,70.7,0,0,0,8.46,2.67,35.192,35.192,0,0,1,5.65,1.75c1.19,0.53,1.78,1.24,1.78,2.11a2.467,2.467,0,0,1-1.75,2.2,12.514,12.514,0,0,1-5.03.8,33.929,33.929,0,0,1-17.2-4.75l-6.63,12.71a33.46,33.46,0,0,0,9.62,3.75,52.367,52.367,0,0,0,12.46,1.43h0Zm91.77-52.27h-17.28l-14.21,17.666-6.92-17.666h-17.28l12.76,32.34-3.72,18.76h17.2l3.65-18.54Z" transform="translate(-1138.03 -849)"/>
  <g id="elipses" class="cls-2">
    <circle id="elipse_копия" data-name="elipse копия" class="cls-3" cx="2.97" cy="104" r="2"/>
    <circle id="elipse_копия_2" data-name="elipse копия 2" class="cls-3" cx="18.985" cy="104" r="1.985"/>
    <circle id="elipse_копия-2" data-name="elipse копия" class="cls-3" cx="35" cy="104" r="2"/>
    <circle id="elipse_копия_11" data-name="elipse копия 11" class="cls-3" cx="50.985" cy="104" r="2.015"/>
    <circle id="elipse_копия_12" data-name="elipse копия 12" class="cls-3" cx="66.97" cy="104" r="2"/>
    <circle id="elipse_копия_9" data-name="elipse копия 9" class="cls-3" cx="185.97" cy="104" r="2"/>
    <circle id="elipse_копия_13" data-name="elipse копия 13" class="cls-3" cx="169.97" cy="104" r="2"/>
    <circle id="elipse_копия_8" data-name="elipse копия 8" class="cls-3" cx="201.97" cy="104" r="2"/>
    <circle id="elipse_копия_7" data-name="elipse копия 7" class="cls-3" cx="217.97" cy="104" r="2"/>
    <circle id="elipse_копия_6" data-name="elipse копия 6" class="cls-3" cx="233.97" cy="104" r="2"/>
  </g>
  <path id="SIMPLE" class="cls-4" d="M1156.29,928.46a27.046,27.046,0,0,0,10.69-1.89,14.912,14.912,0,0,0,6.62-5.1,12.315,12.315,0,0,0,2.22-7.17,10.225,10.225,0,0,0-2.43-7.2,14.058,14.058,0,0,0-5.72-3.81,54.747,54.747,0,0,0-8.09-2.07,34.421,34.421,0,0,1-5.33-1.35,2.074,2.074,0,0,1-1.62-1.89q0-2.64,5.46-2.64a26.008,26.008,0,0,1,11.68,3.12l4.25-10.26a26.558,26.558,0,0,0-7.34-2.73,38.7,38.7,0,0,0-8.47-.93,27.5,27.5,0,0,0-10.7,1.86,14.689,14.689,0,0,0-6.62,5.1,12.446,12.446,0,0,0-2.21,7.2,10.408,10.408,0,0,0,2.39,7.23,13.838,13.838,0,0,0,5.63,3.84,61.82,61.82,0,0,0,8.09,2.19,35.28,35.28,0,0,1,5.42,1.44,2.16,2.16,0,0,1,1.65,1.98,1.831,1.831,0,0,1-1.26,1.71,11.022,11.022,0,0,1-4.19.57,26.142,26.142,0,0,1-7.13-1.05,28.908,28.908,0,0,1-6.71-2.79l-4.55,10.32a27.125,27.125,0,0,0,8.11,3.15,43.976,43.976,0,0,0,10.16,1.17h0Zm23.72-.96h14.14v-42h-14.14v42Zm71.29,0-0.12-42h-11.62l-13.3,22.38L1212.6,885.5h-11.62v42h12.88V909.02l9.1,14.7h6.23l9.11-15.36,0.12,19.14h12.88Zm27.02-42h-20.19v42h14.14V917.18h6.05a24.677,24.677,0,0,0,10.12-1.92,14.914,14.914,0,0,0,6.65-5.52,15.134,15.134,0,0,0-6.65-22.32,24.693,24.693,0,0,0-10.12-1.92h0Zm-0.9,20.76h-5.15v-9.84h5.15a6.272,6.272,0,0,1,4.31,1.29,5.3,5.3,0,0,1,0,7.26,6.267,6.267,0,0,1-4.31,1.29h0Zm24.62,21.24h33.07V916.52h-18.93V885.5h-14.14v42Zm50.86-10.68V911.3h17.73V901.1H1352.9v-4.92h20.19V885.5H1339v42h34.87V916.82H1352.9Z" transform="translate(-1138.03 -849)"/>
  <rect id="rectangle" class="cls-5" x="0.97" y="8" width="46" height="4"/>
  <rect id="rectangle-2" data-name="rectangle" class="cls-5" x="188.97" y="8" width="47" height="4"/>
  <path id="THEY_RE" data-name="THEY’RE" class="cls-1" d="M1204.63,868.5h4.2V853.732h5.82V850.3h-15.84v3.432h5.82V868.5Zm24.74-18.2v7.176h-8.26V850.3h-4.2v18.2h4.2v-7.462h8.26V868.5h4.2V850.3h-4.2Zm12.69,14.82v-4.212h8.44v-3.276h-8.44V853.68h9.55V850.3h-13.73v18.2h14.07v-3.38h-9.89Zm28.84-14.82h-4.13l-4.85,8.086-4.85-8.086h-4.47l7.04,11.7v6.5h4.2v-6.448Zm3.66-1.3a2.486,2.486,0,0,0-1.8.689,2.387,2.387,0,0,0-.72,1.807,2.455,2.455,0,0,0,.37,1.378,2.236,2.236,0,0,0,1.01.858l-1.12,4.108h2.57l1.51-3.744a11.616,11.616,0,0,0,.54-1.56,4.117,4.117,0,0,0,.13-1.04,2.381,2.381,0,0,0-2.49-2.5h0Zm21.63,19.5-4.08-5.85a5.914,5.914,0,0,0,3.74-5.746,6.02,6.02,0,0,0-3.7-5.8,10.088,10.088,0,0,0-4.19-.806h-7.87v18.2h4.21v-5.07h3.86l3.51,5.07h4.52Zm-4.6-11.6a2.889,2.889,0,0,1-.99,2.34,4.331,4.331,0,0,1-2.88.832h-3.42v-6.344h3.42a4.381,4.381,0,0,1,2.88.819,2.88,2.88,0,0,1,.99,2.353h0Zm11.76,8.216v-4.212h8.44v-3.276h-8.44V853.68h9.55V850.3h-13.73v18.2h14.07v-3.38h-9.89Z" transform="translate(-1138.03 -849)"/>
  <path id="not" class="cls-1" d="M1239.9,943.3v11.05l-9.03-11.05h-3.48v18.2h4.16V950.45l9.06,11.05h3.45V943.3h-4.16Zm17.27,18.512a10.552,10.552,0,0,0,5.09-1.222,9.3,9.3,0,0,0,0-16.38,11.233,11.233,0,0,0-10.19,0,9.058,9.058,0,0,0-3.56,3.367,9.726,9.726,0,0,0,0,9.646,9.058,9.058,0,0,0,3.56,3.367,10.563,10.563,0,0,0,5.1,1.222h0Zm0-3.588a5.763,5.763,0,0,1-2.91-.741,5.333,5.333,0,0,1-2.04-2.067,6.516,6.516,0,0,1,0-6.032,5.333,5.333,0,0,1,2.04-2.067,6.084,6.084,0,0,1,5.82,0,5.308,5.308,0,0,1,2.03,2.067,6.516,6.516,0,0,1,0,6.032,5.308,5.308,0,0,1-2.03,2.067,5.789,5.789,0,0,1-2.91.741h0Zm16.61,3.276h4.21V946.732h5.81V943.3h-15.83v3.432h5.81V961.5Z" transform="translate(-1138.03 -849)"/>
</svg>
