<svg id="lettering_копия" data-name="lettering копия" xmlns="http://www.w3.org/2000/svg" xmlns:xlink="http://www.w3.org/1999/xlink" width="430" height="235.629" viewBox="0 0 430 235.629">
  <defs>
    <style>
      .cls-1 {
        fill: #29282e;
      }

      .cls-1, .cls-2 {
        fill-rule: evenodd;
      }

      .cls-2, .cls-5 {
        fill: #ed1c24;
      }

      .cls-3 {
        filter: url(#filter);
      }

      .cls-4 {
        fill: #fff;
      }
    </style>
    <filter id="filter" filterUnits="userSpaceOnUse">
      <feFlood result="flood" flood-color="#29282e"/>
      <feComposite result="composite" operator="in" in2="SourceGraphic"/>
      <feBlend result="blend" in2="SourceGraphic"/>
    </filter>
  </defs>
  <path id="Looking_Good" data-name="Looking Good" class="cls-1" d="M411.1,957.577H438.67v-9.15H422.885v-25.85H411.1v35Zm49.154,0.8a21.552,21.552,0,0,0,10.14-2.35,17.948,17.948,0,0,0,0-31.9,23.054,23.054,0,0,0-20.281,0,17.949,17.949,0,0,0,0,31.9,21.556,21.556,0,0,0,10.141,2.35h0Zm0-9.55a7.5,7.5,0,0,1-3.971-1.075,7.688,7.688,0,0,1-2.823-3.05,10.72,10.72,0,0,1,0-9.25,7.7,7.7,0,0,1,2.823-3.05,7.872,7.872,0,0,1,7.942,0,7.709,7.709,0,0,1,2.823,3.05,10.72,10.72,0,0,1,0,9.25,7.7,7.7,0,0,1-2.823,3.05,7.506,7.506,0,0,1-3.971,1.075h0Zm42.86,9.55a21.555,21.555,0,0,0,10.14-2.35,17.949,17.949,0,0,0,0-31.9,23.054,23.054,0,0,0-20.281,0,17.949,17.949,0,0,0,0,31.9,21.553,21.553,0,0,0,10.141,2.35h0Zm0-9.55a7.507,7.507,0,0,1-3.972-1.075,7.686,7.686,0,0,1-2.822-3.05,10.72,10.72,0,0,1,0-9.25,7.7,7.7,0,0,1,2.822-3.05,7.874,7.874,0,0,1,7.943,0,7.7,7.7,0,0,1,2.822,3.05,10.72,10.72,0,0,1,0,9.25,7.686,7.686,0,0,1-2.822,3.05,7.509,7.509,0,0,1-3.971,1.075h0Zm47.505,8.75h13.637l-14.686-19.6,13.987-15.4H550.715l-11.49,12.7v-12.7H527.636v35h11.589v-8.65l2.648-2.95Zm15.735,0h11.789v-35H566.35v35Zm40.961-35v15.9l-13.287-15.9h-9.691v35h11.489v-15.9l13.288,15.9H618.8v-35h-11.49Zm40.811,25.4a11.092,11.092,0,0,1-4.3.85,7.964,7.964,0,0,1-6.069-2.4,8.851,8.851,0,0,1-2.273-6.35,8.761,8.761,0,0,1,2.3-6.4,8.268,8.268,0,0,1,6.194-2.35,10.021,10.021,0,0,1,7.843,3.85l7.543-6.65a17.313,17.313,0,0,0-6.769-5.025,23.423,23.423,0,0,0-9.216-1.725,22.011,22.011,0,0,0-10.216,2.325,17.252,17.252,0,0,0-7.043,6.5,19.053,19.053,0,0,0,0,18.95,17.36,17.36,0,0,0,6.968,6.5,21.34,21.34,0,0,0,10.041,2.325,29.671,29.671,0,0,0,8.043-1.15,23.747,23.747,0,0,0,7.193-3.3v-14.8H648.122v8.85Zm54.4,0a11.1,11.1,0,0,1-4.3.85,7.967,7.967,0,0,1-6.07-2.4,8.855,8.855,0,0,1-2.272-6.35,8.76,8.76,0,0,1,2.3-6.4,8.27,8.27,0,0,1,6.2-2.35,10.019,10.019,0,0,1,7.842,3.85l7.543-6.65a17.317,17.317,0,0,0-6.768-5.025,23.428,23.428,0,0,0-9.217-1.725A22.007,22.007,0,0,0,687.56,924.1a17.255,17.255,0,0,0-7.044,6.5,19.059,19.059,0,0,0,0,18.95,17.363,17.363,0,0,0,6.969,6.5,21.333,21.333,0,0,0,10.04,2.325,29.66,29.66,0,0,0,8.043-1.15,23.747,23.747,0,0,0,7.193-3.3v-14.8h-10.24v8.85Zm34.118,10.4a21.552,21.552,0,0,0,10.14-2.35,17.948,17.948,0,0,0,0-31.9,23.054,23.054,0,0,0-20.281,0,17.949,17.949,0,0,0,0,31.9,21.553,21.553,0,0,0,10.141,2.35h0Zm0-9.55a7.5,7.5,0,0,1-3.971-1.075,7.681,7.681,0,0,1-2.823-3.05,10.72,10.72,0,0,1,0-9.25,7.7,7.7,0,0,1,2.823-3.05,7.872,7.872,0,0,1,7.942,0,7.7,7.7,0,0,1,2.822,3.05,10.72,10.72,0,0,1,0,9.25,7.686,7.686,0,0,1-2.822,3.05,7.506,7.506,0,0,1-3.971,1.075h0Zm42.859,9.55a21.556,21.556,0,0,0,10.141-2.35,17.949,17.949,0,0,0,0-31.9,23.054,23.054,0,0,0-20.281,0,17.948,17.948,0,0,0,0,31.9,21.552,21.552,0,0,0,10.14,2.35h0Zm0-9.55a7.506,7.506,0,0,1-3.971-1.075,7.686,7.686,0,0,1-2.822-3.05,10.72,10.72,0,0,1,0-9.25,7.7,7.7,0,0,1,2.822-3.05,7.874,7.874,0,0,1,7.943,0,7.707,7.707,0,0,1,2.822,3.05,10.72,10.72,0,0,1,0,9.25,7.693,7.693,0,0,1-2.822,3.05,7.512,7.512,0,0,1-3.972,1.075h0Zm24.527,8.75h17.234a23.763,23.763,0,0,0,10.315-2.125,16.157,16.157,0,0,0,6.944-6.075,18.73,18.73,0,0,0,0-18.6,16.17,16.17,0,0,0-6.944-6.075,23.778,23.778,0,0,0-10.315-2.125H804.025v35Zm11.789-9.2v-16.6h4.945a8.415,8.415,0,0,1,6.07,2.175,9.389,9.389,0,0,1,0,12.25,8.415,8.415,0,0,1-6.07,2.175h-4.945Z" transform="translate(-411 -921.781)"/>
  <path id="_What_Makes_Us_Better" data-name=" What Makes Us Better" class="cls-2" d="M524.055,1088.84l-9.511,18.12-2-18.12h-7.313l-9.432,17.88-2.158-17.88h-7.792l3.436,28H497.8l8.912-16.88,2.038,16.88h8.472l14.667-28h-7.833Zm29.332,0-2.078,10.48h-10.75l2.078-10.48h-7.912l-5.6,28h7.912l2.158-10.88h10.75l-2.158,10.88h7.913l5.595-28h-7.913Zm29.213,28h7.873l-6.754-28h-7.793l-17.943,28h8.352l3.237-5.44h11.909Zm-9.551-11.28,5.355-9.08,1.878,9.08h-7.233Zm24.217,11.28h7.913l4.356-21.72h8.552l1.279-6.28H594.309l-1.279,6.28h8.592Zm62.381-28-12.708,16.2-6.554-16.2h-6.434l-5.594,28h7.273l2.957-14.76,5.075,12h3.477l9.311-12-2.877,14.76h7.313l5.515-28h-6.754Zm28.094,28h7.872l-6.753-28h-7.793l-17.943,28h8.352l3.237-5.44h11.909Zm-9.551-11.28,5.355-9.08,1.878,9.08H678.19Zm52.75-16.72h-9.311L709,1100.28l2.278-11.44h-7.793l-5.6,28h7.793l1.359-6.8,3.636-3.28,6.434,10.08h8.832l-9.391-15.12Zm23.258,6.12,1.239-6.12h-21.9l-5.6,28h22.419l1.279-6.12H736.975l1-5.12h12.468l1.159-5.92H739.173l0.919-4.72H754.2Zm11.03,22.44a18.9,18.9,0,0,0,7.093-1.24,10.694,10.694,0,0,0,4.716-3.5,8.608,8.608,0,0,0,1.658-5.22,5.715,5.715,0,0,0-1.278-3.88,7.892,7.892,0,0,0-3.057-2.2,34.2,34.2,0,0,0-4.5-1.4,21.937,21.937,0,0,1-3.6-1.2,1.754,1.754,0,0,1-1.159-1.6,2.23,2.23,0,0,1,1.339-1.96,7.485,7.485,0,0,1,3.7-.76,15.342,15.342,0,0,1,4.057.54,12.984,12.984,0,0,1,3.616,1.58l2.878-5.88a14.925,14.925,0,0,0-4.476-1.78,23.708,23.708,0,0,0-5.595-.62,18.67,18.67,0,0,0-7.113,1.24,10.421,10.421,0,0,0-4.676,3.5,8.706,8.706,0,0,0-1.638,5.26,5.962,5.962,0,0,0,1.3,4,8.177,8.177,0,0,0,3.1,2.26,37.625,37.625,0,0,0,4.516,1.46,19.562,19.562,0,0,1,3.537,1.2,1.714,1.714,0,0,1,1.139,1.56,2.017,2.017,0,0,1-1.259,1.82,7.735,7.735,0,0,1-3.537.66,17.28,17.28,0,0,1-4.795-.7,17.605,17.605,0,0,1-4.516-2.06l-3.117,5.92a16.987,16.987,0,0,0,5.075,2.16,25.242,25.242,0,0,0,6.594.84h0Zm-243.74,40q12.267,0,14.826-12.68l3.157-15.88h-7.793l-3.077,15.4a10.413,10.413,0,0,1-2.178,5.06,5.24,5.24,0,0,1-3.976,1.54q-4.636,0-4.636-4.4a11.262,11.262,0,0,1,.24-2.2l3.077-15.4h-7.912l-3.118,15.52a16.018,16.018,0,0,0-.319,2.96,10.057,10.057,0,0,0,1.4,5.36,9.089,9.089,0,0,0,4.037,3.5,14.886,14.886,0,0,0,6.274,1.22h0Zm28.213,0a18.909,18.909,0,0,0,7.094-1.24,10.7,10.7,0,0,0,4.715-3.5,8.608,8.608,0,0,0,1.659-5.22,5.715,5.715,0,0,0-1.279-3.88,7.892,7.892,0,0,0-3.057-2.2,34.2,34.2,0,0,0-4.5-1.4,21.971,21.971,0,0,1-3.6-1.2,1.754,1.754,0,0,1-1.159-1.6,2.23,2.23,0,0,1,1.339-1.96,7.487,7.487,0,0,1,3.7-.76,15.335,15.335,0,0,1,4.056.54,12.99,12.99,0,0,1,3.617,1.58l2.877-5.88a14.914,14.914,0,0,0-4.476-1.78,23.708,23.708,0,0,0-5.6-.62,18.67,18.67,0,0,0-7.113,1.24,10.421,10.421,0,0,0-4.676,3.5,8.712,8.712,0,0,0-1.638,5.26,5.962,5.962,0,0,0,1.3,4,8.161,8.161,0,0,0,3.1,2.26,37.6,37.6,0,0,0,4.515,1.46,19.562,19.562,0,0,1,3.537,1.2,1.714,1.714,0,0,1,1.139,1.56,2.017,2.017,0,0,1-1.259,1.82,7.733,7.733,0,0,1-3.536.66,17.287,17.287,0,0,1-4.8-.7,17.621,17.621,0,0,1-4.516-2.06l-3.117,5.92a16.987,16.987,0,0,0,5.075,2.16,25.248,25.248,0,0,0,6.594.84h0Zm51.511-15a8.736,8.736,0,0,0,3.677-2.78,6.913,6.913,0,0,0,1.318-4.22,5.522,5.522,0,0,0-2.5-4.86c-1.666-1.14-4.07-1.7-7.214-1.7H582.35l-5.6,28h15.386a17.113,17.113,0,0,0,9.271-2.26,7.369,7.369,0,0,0,3.557-6.62,5.722,5.722,0,0,0-.98-3.34,6.416,6.416,0,0,0-2.777-2.22h0Zm-6.594-7.84c2.211,0,3.317.73,3.317,2.2a2.79,2.79,0,0,1-1.1,2.38,5.375,5.375,0,0,1-3.217.82h-5.675l1.079-5.4h5.6Zm-2.038,16.56h-6.873l1.119-5.68h6.993a4.287,4.287,0,0,1,2.4.58,1.979,1.979,0,0,1,.879,1.78,2.838,2.838,0,0,1-1.2,2.48,5.7,5.7,0,0,1-3.317.84h0Zm41.162-16.16,1.238-6.12h-21.9l-5.6,28h22.419l1.279-6.12H616.518l1-5.12h12.468l1.159-5.92H618.716l0.919-4.72h14.107Zm6.513,21.88h7.913l4.356-21.72h8.552l1.279-6.28H637.3l-1.279,6.28h8.592Zm25.776,0h7.912l4.356-21.72h8.552l1.279-6.28H663.074l-1.279,6.28h8.592Zm45.717-21.88,1.239-6.12h-21.9l-5.6,28h22.419l1.279-6.12H694.524l1-5.12h12.468l1.159-5.92H696.722l0.919-4.72h14.107Zm29.412,2.8a7.921,7.921,0,0,0-2.957-6.56c-1.972-1.58-4.742-2.36-8.312-2.36H717.942l-5.6,28h7.913l1.478-7.44h4l4.156,7.44h8.272l-4.756-8.4a11.638,11.638,0,0,0,5.715-4.06,10.9,10.9,0,0,0,2.038-6.62h0Zm-7.992.76a4.4,4.4,0,0,1-1.439,3.52,6.092,6.092,0,0,1-4.076,1.24h-4.716l1.679-8.2h4.156a5.3,5.3,0,0,1,3.237.86,3,3,0,0,1,1.159,2.58h0Z" transform="translate(-411 -921.781)"/>
  <path id="Feeling_Good" data-name="Feeling Good" class="cls-1" d="M440.77,1014.6v-9.25H411.21v36.4h12.261V1030.1H438.64v-9.26H423.471v-6.24h17.3Zm16.729,17.89v-4.78h15.377v-8.84H457.5v-4.27h17.507v-9.25h-29.56v36.4h30.236v-9.26H457.5Zm35.742,0v-4.78h15.377v-8.84H493.241v-4.27h17.507v-9.25h-29.56v36.4h30.236v-9.26H493.241Zm23.689,9.26h28.677v-9.52H529.191v-26.88H516.93v36.4Zm32.833,0h12.26v-36.4h-12.26v36.4Zm42.859-36.4v16.53L578.8,1005.35H568.725v36.4h11.948v-16.54l13.819,16.54h10.079v-36.4H592.622Zm42.7,26.41a11.541,11.541,0,0,1-4.468.89,8.3,8.3,0,0,1-6.312-2.5,10.435,10.435,0,0,1,.026-13.26,8.59,8.59,0,0,1,6.442-2.44,10.412,10.412,0,0,1,8.156,4l7.845-6.92a18.017,18.017,0,0,0-7.04-5.22,24.289,24.289,0,0,0-9.585-1.8,22.915,22.915,0,0,0-10.624,2.42,17.954,17.954,0,0,0-7.325,6.76,19.818,19.818,0,0,0,0,19.71,18.006,18.006,0,0,0,7.247,6.76,22.215,22.215,0,0,0,10.442,2.42,30.771,30.771,0,0,0,8.365-1.2,24.576,24.576,0,0,0,7.481-3.43v-15.39h-10.65v9.2Zm57.093,0a11.533,11.533,0,0,1-4.467.89,8.3,8.3,0,0,1-6.313-2.5,10.438,10.438,0,0,1,.026-13.26,8.593,8.593,0,0,1,6.442-2.44,10.413,10.413,0,0,1,8.157,4l7.845-6.92a18.024,18.024,0,0,0-7.04-5.22,24.289,24.289,0,0,0-9.585-1.8,22.915,22.915,0,0,0-10.624,2.42,17.954,17.954,0,0,0-7.325,6.76,19.818,19.818,0,0,0,0,19.71,18.006,18.006,0,0,0,7.247,6.76,22.215,22.215,0,0,0,10.442,2.42,30.759,30.759,0,0,0,8.364-1.2,24.554,24.554,0,0,0,7.481-3.43v-15.39h-10.65v9.2Zm35.743,10.82a22.417,22.417,0,0,0,10.546-2.45,18.215,18.215,0,0,0,9.975-16.58,18.216,18.216,0,0,0-9.975-16.59,23.923,23.923,0,0,0-21.092,0,18.66,18.66,0,0,0,0,33.17,22.414,22.414,0,0,0,10.546,2.45h0Zm0-9.93a7.856,7.856,0,0,1-4.13-1.12,8.026,8.026,0,0,1-2.936-3.17,11.149,11.149,0,0,1,0-9.62,8.055,8.055,0,0,1,2.936-3.18,8.238,8.238,0,0,1,8.26,0,8.053,8.053,0,0,1,2.935,3.18,11.149,11.149,0,0,1,0,9.62,8.024,8.024,0,0,1-2.935,3.17,7.864,7.864,0,0,1-4.13,1.12h0ZM773,1042.58a22.417,22.417,0,0,0,10.546-2.45,18.212,18.212,0,0,0,9.974-16.58,18.213,18.213,0,0,0-9.974-16.59,23.925,23.925,0,0,0-21.093,0,18.66,18.66,0,0,0,0,33.17A22.415,22.415,0,0,0,773,1042.58h0Zm0-9.93a7.86,7.86,0,0,1-4.131-1.12,8.024,8.024,0,0,1-2.935-3.17,11.149,11.149,0,0,1,0-9.62,8.053,8.053,0,0,1,2.935-3.18,8.24,8.24,0,0,1,8.261,0,8.053,8.053,0,0,1,2.935,3.18,11.149,11.149,0,0,1,0,9.62,8.024,8.024,0,0,1-2.935,3.17,7.864,7.864,0,0,1-4.13,1.12h0Zm25.767,9.1h17.923a24.764,24.764,0,0,0,10.728-2.21,16.847,16.847,0,0,0,7.222-6.32,19.49,19.49,0,0,0,0-19.35,16.826,16.826,0,0,0-7.222-6.31,24.621,24.621,0,0,0-10.728-2.21H798.763v36.4Zm12.261-9.57v-17.27h5.143a8.746,8.746,0,0,1,6.312,2.27,9.764,9.764,0,0,1,0,12.74,8.783,8.783,0,0,1-6.312,2.26h-5.143Z" transform="translate(-411 -921.781)"/>
  <path id="AND" class="cls-1" d="M605.987,989.658h2.031l-8.333-18.246h-1.9l-8.333,18.246h2l2.188-4.874H603.8Zm-11.64-6.438,4.375-9.8,4.375,9.8h-8.75Zm31.327-11.808v14.806L613.93,971.412h-1.589v18.246h1.927V974.853l11.719,14.805h1.589V971.412h-1.9Zm9.141,18.246h7.422a10.83,10.83,0,0,0,5.1-1.16,8.456,8.456,0,0,0,3.437-3.232,9.755,9.755,0,0,0,0-9.462,8.469,8.469,0,0,0-3.437-3.232,10.841,10.841,0,0,0-5.1-1.16h-7.422v18.246Zm1.927-1.668V973.08h5.39a8.838,8.838,0,0,1,4.193.952,6.912,6.912,0,0,1,2.787,2.632,8.07,8.07,0,0,1,0,7.742,6.914,6.914,0,0,1-2.787,2.633,8.838,8.838,0,0,1-4.193.951h-5.39Z" transform="translate(-411 -921.781)"/>
  <path id="Is" class="cls-1" d="M614.36,1073.83h1.927v-18.25H614.36v18.25Zm14.192,0.15a9.572,9.572,0,0,0,3.776-.66,4.941,4.941,0,0,0,2.278-1.8,4.466,4.466,0,0,0,.743-2.51,3.86,3.86,0,0,0-.86-2.65,5.328,5.328,0,0,0-2.1-1.46,27.349,27.349,0,0,0-3.242-.98,26.51,26.51,0,0,1-2.7-.77,4.322,4.322,0,0,1-1.666-1.01,2.39,2.39,0,0,1-.664-1.76,2.874,2.874,0,0,1,1.211-2.39,5.933,5.933,0,0,1,3.606-.92,8.855,8.855,0,0,1,2.553.38,9.014,9.014,0,0,1,2.447,1.13l0.651-1.54a8.713,8.713,0,0,0-2.591-1.18,10.907,10.907,0,0,0-3.06-.43,9.2,9.2,0,0,0-3.75.67,5.084,5.084,0,0,0-2.239,1.81,4.582,4.582,0,0,0-.729,2.52,3.9,3.9,0,0,0,.872,2.68,5.293,5.293,0,0,0,2.1,1.48,29.039,29.039,0,0,0,3.282,1c1.146,0.28,2.039.54,2.682,0.77a4.48,4.48,0,0,1,1.628,1,2.355,2.355,0,0,1,.664,1.75,2.761,2.761,0,0,1-1.224,2.33,6.185,6.185,0,0,1-3.672.9,9.569,9.569,0,0,1-3.386-.61,7.26,7.26,0,0,1-2.63-1.6l-0.755,1.48a7.127,7.127,0,0,0,2.878,1.72,11.557,11.557,0,0,0,3.893.65h0Z" transform="translate(-411 -921.781)"/>
  <g id="elipses" class="cls-3">
    <circle id="Ellipse_3_copy_копия" data-name="Ellipse 3 copy копия" class="cls-4" cx="247" cy="143.219" r="2"/>
    <circle id="Ellipse_3_copy" data-name="Ellipse 3 copy" class="cls-4" cx="265" cy="143.219" r="2"/>
    <circle id="Ellipse_3_copy_3" data-name="Ellipse 3 copy 3" class="cls-4" cx="283" cy="143.219" r="2"/>
    <circle id="Ellipse_3_copy_5" data-name="Ellipse 3 copy 5" class="cls-4" cx="301" cy="143.219" r="2"/>
    <circle id="Ellipse_3_copy_7" data-name="Ellipse 3 copy 7" class="cls-4" cx="319" cy="143.219" r="2"/>
    <circle id="Ellipse_3_copy_9" data-name="Ellipse 3 copy 9" class="cls-4" cx="337" cy="143.219" r="2"/>
    <circle id="Ellipse_3_copy_9_копия" data-name="Ellipse 3 copy 9 копия" class="cls-4" cx="355" cy="143.219" r="2"/>
  </g>
  <g id="elipses_копия" data-name="elipses копия" class="cls-3">
    <circle id="Ellipse_3_copy_копия-2" data-name="Ellipse 3 copy копия" class="cls-4" cx="90" cy="143.219" r="2"/>
    <circle id="Ellipse_3_copy_копия_2" data-name="Ellipse 3 copy копия 2" class="cls-4" cx="72" cy="143.219" r="2"/>
    <circle id="Ellipse_3_copy-2" data-name="Ellipse 3 copy" class="cls-4" cx="108" cy="143.219" r="2"/>
    <circle id="Ellipse_3_copy_3-2" data-name="Ellipse 3 copy 3" class="cls-4" cx="126" cy="143.219" r="2"/>
    <circle id="Ellipse_3_copy_5-2" data-name="Ellipse 3 copy 5" class="cls-4" cx="144" cy="143.219" r="2"/>
    <circle id="Ellipse_3_copy_7-2" data-name="Ellipse 3 copy 7" class="cls-4" cx="162" cy="143.219" r="2"/>
    <circle id="Ellipse_3_copy_9-2" data-name="Ellipse 3 copy 9" class="cls-4" cx="180" cy="143.219" r="2"/>
  </g>
  <rect id="rectangle" class="cls-5" x="254" y="58.219" width="175" height="4"/>
  <rect id="rectangle-2" data-name="rectangle" class="cls-5" y="57.219" width="170" height="4"/>
</svg>
