<svg id="txt_копия" data-name="txt копия" xmlns="http://www.w3.org/2000/svg" width="270.84" height="171.375" viewBox="0 0 270.84 171.375">
  <defs>
    <style>
      .cls-1 {
        fill: #ed1c24;
      }

      .cls-1, .cls-3 {
        fill-rule: evenodd;
      }

      .cls-2 {
        fill: #29282e;
      }

      .cls-3 {
        fill: #28282e;
      }
    </style>
  </defs>
  <path id="HYDRATED" class="cls-1" d="M1098.36,1028l-2.25,11.16h-9.79l2.24-11.16h-10.6l-6.29,31.5h10.6l2.34-11.61h9.8l-2.34,11.61h10.6l6.29-31.5h-10.6Zm46.28,0h-10.65l-8.76,10.89-4.27-10.89h-10.65l7.86,19.93-2.29,11.57h10.61l2.24-11.43Zm-4.95,31.5h16.85a22.447,22.447,0,0,0,10.18-2.23,16.768,16.768,0,0,0,6.99-6.34,18.048,18.048,0,0,0,2.51-9.57,12.92,12.92,0,0,0-1.93-7.11,12.487,12.487,0,0,0-5.55-4.63,20.787,20.787,0,0,0-8.56-1.62h-14.2Zm12.27-8.28,2.97-14.94h4.04a7.127,7.127,0,0,1,4.87,1.48,5.335,5.335,0,0,1,1.69,4.23,9.71,9.71,0,0,1-2.27,6.64,7.99,7.99,0,0,1-6.36,2.59h-4.94Zm58.32-12.87a9.2,9.2,0,0,0-3.44-7.63q-3.435-2.715-9.64-2.72h-14.1l-6.29,31.5h10.6l1.57-7.92h2.61l4.45,7.92h11l-5.25-9.18a13.126,13.126,0,0,0,6.26-4.66,12.227,12.227,0,0,0,2.23-7.31h0Zm-10.74,1.03a3.957,3.957,0,0,1-1.21,3.09,4.932,4.932,0,0,1-3.42,1.1h-4.36l1.49-7.38h3.55c2.63,0,3.95,1.07,3.95,3.19h0Zm34.69,20.12h10.55l-7.45-31.5H1226.9l-20.04,31.5h11.19l3.15-5.49h11.99Zm-8.68-13.14,4.63-8.06,1.53,8.06h-6.16Zm26.2,13.14h10.6l4.63-23.27h9.21l1.66-8.23h-29.02l-1.66,8.23h9.21Zm52.79-23.49,1.62-8.01h-25.57l-6.29,31.5h26.15l1.62-8.01H1286.3l0.81-4.14h13.34l1.53-7.65h-13.3l0.72-3.69h15.14Zm0,23.49h16.85a22.476,22.476,0,0,0,10.18-2.23,16.742,16.742,0,0,0,6.98-6.34,17.963,17.963,0,0,0,2.52-9.57,13,13,0,0,0-1.93-7.11,12.487,12.487,0,0,0-5.55-4.63,20.82,20.82,0,0,0-8.56-1.62h-14.2Zm12.27-8.28,2.96-14.94h4.05a7.144,7.144,0,0,1,4.87,1.48,5.368,5.368,0,0,1,1.69,4.23,9.71,9.71,0,0,1-2.27,6.64,8.018,8.018,0,0,1-6.36,2.59h-4.94Z" transform="translate(-1071.66 -888.125)"/>
  <g id="elipses">
    <circle id="elipse_копия" data-name="elipse копия" class="cls-2" cx="3.25" cy="59.188" r="2"/>
    <circle id="elipse_копия_2" data-name="elipse копия 2" class="cls-2" cx="19.235" cy="59.188" r="1.985"/>
    <circle id="elipse_копия-2" data-name="elipse копия" class="cls-2" cx="35.22" cy="59.188" r="2"/>
    <circle id="elipse_копия_11" data-name="elipse копия 11" class="cls-2" cx="51.18" cy="59.188" r="2"/>
    <circle id="elipse_копия_12" data-name="elipse копия 12" class="cls-2" cx="67.15" cy="59.188" r="2"/>
    <circle id="elipse_копия_9" data-name="elipse копия 9" class="cls-2" cx="220.915" cy="59.188" r="1.985"/>
    <circle id="elipse_копия_13" data-name="elipse копия 13" class="cls-2" cx="204.93" cy="59.188" r="2"/>
    <circle id="elipse_копия_8" data-name="elipse копия 8" class="cls-2" cx="236.9" cy="59.188" r="2"/>
    <circle id="elipse_копия_7" data-name="elipse копия 7" class="cls-2" cx="252.87" cy="59.188" r="2"/>
    <circle id="elipse_копия_6" data-name="elipse копия 6" class="cls-2" cx="268.84" cy="59.188" r="2"/>
  </g>
  <path id="STAYING" class="cls-3" d="M1091.06,1013.43a26.081,26.081,0,0,0,10.33-1.83,14.429,14.429,0,0,0,6.4-4.93,11.92,11.92,0,0,0,2.15-6.93,9.911,9.911,0,0,0-2.35-6.96,13.6,13.6,0,0,0-5.53-3.683,52.808,52.808,0,0,0-7.82-2,33.029,33.029,0,0,1-5.15-1.3,2.014,2.014,0,0,1-1.57-1.827q0-2.552,5.27-2.552a25.124,25.124,0,0,1,11.3,3.016l4.11-9.918a25.671,25.671,0,0,0-7.1-2.639,37.433,37.433,0,0,0-8.19-.9,26.592,26.592,0,0,0-10.34,1.8,14.213,14.213,0,0,0-6.4,4.93,12.113,12.113,0,0,0-2.14,6.96,10.05,10.05,0,0,0,2.32,6.989,13.311,13.311,0,0,0,5.44,3.712,59.454,59.454,0,0,0,7.82,2.117,34.286,34.286,0,0,1,5.24,1.392,2.086,2.086,0,0,1,1.59,1.91,1.77,1.77,0,0,1-1.21,1.66,10.863,10.863,0,0,1-4.06.55,25.174,25.174,0,0,1-6.89-1.02,27.645,27.645,0,0,1-6.48-2.694l-4.41,9.974a26.459,26.459,0,0,0,7.85,3.05,42.743,42.743,0,0,0,9.82,1.13h0Zm31.15-.93h13.67V982.514h11.87V971.9h-37.41v10.614h11.87V1012.5Zm57.39,0h14.13l-17.72-40.6h-13.43l-17.72,40.6h13.89l2.73-7.08h15.4Zm-14.36-16.936,3.94-10.208,3.94,10.208h-7.88ZM1232.7,971.9h-13.2l-8.34,14.036-8.28-14.036h-14.42l15.29,25.694V1012.5h13.67V997.768Zm1.74,40.6h13.67V971.9h-13.67v40.6Zm46.91-40.6v18.444L1265.94,971.9h-11.23v40.6h13.32V994.056l15.4,18.444h11.24V971.9h-13.32Zm46.73,29.46a12.792,12.792,0,0,1-4.98.99,9.259,9.259,0,0,1-7.04-2.784,10.3,10.3,0,0,1-2.63-7.366,10.189,10.189,0,0,1,2.66-7.424,9.588,9.588,0,0,1,7.18-2.726,11.62,11.62,0,0,1,9.1,4.466l8.74-7.714a20.1,20.1,0,0,0-7.85-5.829,27.115,27.115,0,0,0-10.68-2,25.484,25.484,0,0,0-11.84,2.7,19.991,19.991,0,0,0-8.17,7.54,22.143,22.143,0,0,0,0,21.981,20.129,20.129,0,0,0,8.08,7.54,24.668,24.668,0,0,0,11.64,2.7,34.3,34.3,0,0,0,9.32-1.34,27.533,27.533,0,0,0,8.34-3.82V991.1h-11.87v10.262Z" transform="translate(-1071.66 -888.125)"/>
  <path id="OUT_OF" data-name="OUT OF" class="cls-3" d="M1165.24,956.708a10.113,10.113,0,0,0,4.94-1.209,8.857,8.857,0,0,0,3.45-3.328,9.73,9.73,0,0,0,0-9.542,8.857,8.857,0,0,0-3.45-3.328,10.717,10.717,0,0,0-9.89,0,8.887,8.887,0,0,0-3.47,3.341,9.614,9.614,0,0,0,0,9.516,8.887,8.887,0,0,0,3.47,3.341,10.124,10.124,0,0,0,4.95,1.209h0Zm0-2.314a7.268,7.268,0,0,1-3.62-.91,6.592,6.592,0,0,1-2.54-2.509,7.406,7.406,0,0,1,0-7.15,6.592,6.592,0,0,1,2.54-2.509,7.268,7.268,0,0,1,3.62-.91,7.113,7.113,0,0,1,3.6.91,6.75,6.75,0,0,1,2.52,2.509,7.406,7.406,0,0,1,0,7.15,6.75,6.75,0,0,1-2.52,2.509,7.113,7.113,0,0,1-3.6.91h0Zm21.14,2.314a7.543,7.543,0,0,0,5.65-2.067,8.22,8.22,0,0,0,2.03-5.993V938.3h-2.52v10.244a6.354,6.354,0,0,1-1.32,4.407,4.941,4.941,0,0,1-3.82,1.443q-5.115,0-5.11-5.85V938.3h-2.6v10.348a8.228,8.228,0,0,0,2.03,5.98,7.523,7.523,0,0,0,5.66,2.08h0Zm16.27-.208h2.57V940.562h6.23V938.3h-15.03v2.262h6.23V956.5Zm26.82,0.208a10.1,10.1,0,0,0,4.93-1.209,8.857,8.857,0,0,0,3.45-3.328,9.73,9.73,0,0,0,0-9.542,8.857,8.857,0,0,0-3.45-3.328,10.717,10.717,0,0,0-9.89,0,8.954,8.954,0,0,0-3.47,3.341,9.614,9.614,0,0,0,0,9.516,8.954,8.954,0,0,0,3.47,3.341,10.135,10.135,0,0,0,4.96,1.209h0Zm0-2.314a7.241,7.241,0,0,1-3.62-.91,6.618,6.618,0,0,1-2.55-2.509,7.406,7.406,0,0,1,0-7.15,6.618,6.618,0,0,1,2.55-2.509,7.241,7.241,0,0,1,3.62-.91,7.1,7.1,0,0,1,3.59.91,6.608,6.608,0,0,1,2.52,2.509,7.406,7.406,0,0,1,0,7.15,6.608,6.608,0,0,1-2.52,2.509,7.1,7.1,0,0,1-3.59.91h0Zm26.42-13.832V938.3h-12.82v18.2h2.6v-7.358h9.11v-2.236h-9.11v-6.344h10.22Z" transform="translate(-1071.66 -888.125)"/>
  <path id="GET_MORE" data-name="GET MORE" class="cls-1" d="M1095.92,913.284a10.626,10.626,0,0,1-4.12.816,7.625,7.625,0,0,1-5.82-2.3,9.646,9.646,0,0,1,.02-12.24,7.926,7.926,0,0,1,5.94-2.256,9.618,9.618,0,0,1,7.53,3.7l7.23-6.384a16.589,16.589,0,0,0-6.49-4.824,22.436,22.436,0,0,0-8.84-1.656,21.105,21.105,0,0,0-9.8,2.232,16.492,16.492,0,0,0-6.76,6.24,18.3,18.3,0,0,0,0,18.192,16.619,16.619,0,0,0,6.69,6.24,20.435,20.435,0,0,0,9.63,2.232,28.428,28.428,0,0,0,7.71-1.1,22.951,22.951,0,0,0,6.91-3.168V904.788h-9.83v8.5Zm25.78,0.672V909.54h14.19v-8.16H1121.7v-3.936h16.16V888.9h-27.27v33.6h27.89v-8.544H1121.7Zm28.42,8.544h11.31V897.684h9.83V888.9H1140.3v8.784h9.82V922.5Zm78.7,0-0.1-33.6h-9.3l-10.64,17.9-10.92-17.9h-9.3v33.6h10.3V907.716l7.29,11.76h4.98l7.29-12.288,0.09,15.312h10.31Zm23.05,0.768a20.691,20.691,0,0,0,9.73-2.256,17.243,17.243,0,0,0,0-30.624,22.11,22.11,0,0,0-19.46,0,17.233,17.233,0,0,0,0,30.624,20.663,20.663,0,0,0,9.73,2.256h0Zm0-9.168a7.172,7.172,0,0,1-3.81-1.032,7.336,7.336,0,0,1-2.71-2.928,10.264,10.264,0,0,1,0-8.88,7.349,7.349,0,0,1,2.71-2.928,7.549,7.549,0,0,1,7.62,0,7.492,7.492,0,0,1,2.71,2.928,10.357,10.357,0,0,1,0,8.88,7.479,7.479,0,0,1-2.71,2.928,7.222,7.222,0,0,1-3.81,1.032h0Zm43.13,8.4h12.08l-7.05-10.368a11.506,11.506,0,0,0,4.7-4.272,11.95,11.95,0,0,0,1.63-6.288,12.117,12.117,0,0,0-1.87-6.72,11.964,11.964,0,0,0-5.32-4.416,19.774,19.774,0,0,0-8.1-1.536h-16.15v33.6h11.31v-8.448h3.07Zm-0.05-20.928a3.689,3.689,0,0,1-1.15,2.9,5.037,5.037,0,0,1-3.45,1.032h-4.12v-7.872h4.12a5.037,5.037,0,0,1,3.45,1.032,3.691,3.691,0,0,1,1.15,2.9h0Zm26.79,12.384V909.54h14.19v-8.16h-14.19v-3.936h16.15V888.9h-27.27v33.6h27.9v-8.544h-16.78Z" transform="translate(-1071.66 -888.125)"/>
</svg>
