<svg id="lettering_копия_3" data-name="lettering копия 3" xmlns="http://www.w3.org/2000/svg" width="429.375" height="128.564" viewBox="0 0 429.375 128.564">
  <defs>
    <style>
      .cls-1 {
        fill: #29282e;
      }

      .cls-1, .cls-2 {
        fill-rule: evenodd;
      }

      .cls-2, .cls-3 {
        fill: #ed1c24;
      }
    </style>
  </defs>
  <path id="Press_Play" data-name="Press Play" class="cls-1" d="M432.26,914.877H411.723v42.7h14.382V947.085h6.155a25.155,25.155,0,0,0,10.3-1.952,15.384,15.384,0,0,0,0-28.3,25.171,25.171,0,0,0-10.3-1.952h0Zm-0.914,21.106h-5.241v-10h5.241a6.4,6.4,0,0,1,4.388,1.312,5.386,5.386,0,0,1,0,7.381,6.392,6.392,0,0,1-4.388,1.311h0Zm53.63,21.594h15.358L491.375,944.4a14.639,14.639,0,0,0,5.973-5.429,15.117,15.117,0,0,0,2.072-7.991,14.772,14.772,0,0,0-9.142-14.152,25.167,25.167,0,0,0-10.3-1.952H459.441v42.7h14.383V946.841h3.9Zm-0.061-26.6a4.7,4.7,0,0,1-1.462,3.691,6.392,6.392,0,0,1-4.388,1.311h-5.241v-10h5.241a6.4,6.4,0,0,1,4.388,1.312,4.7,4.7,0,0,1,1.462,3.69h0Zm37.114,15.738v-5.612h18.039v-10.37H522.029v-5h20.538V914.877H507.89v42.7h35.469V946.719h-21.33Zm45.829,11.834a27.552,27.552,0,0,0,10.878-1.921,15.177,15.177,0,0,0,6.734-5.185,12.533,12.533,0,0,0,2.255-7.29,10.4,10.4,0,0,0-2.468-7.32,14.315,14.315,0,0,0-5.82-3.873,55.745,55.745,0,0,0-8.227-2.105,34.8,34.8,0,0,1-5.424-1.372,2.109,2.109,0,0,1-1.646-1.922q0-2.684,5.546-2.684a26.438,26.438,0,0,1,11.884,3.172l4.327-10.431a27.026,27.026,0,0,0-7.466-2.775,39.481,39.481,0,0,0-8.623-.946,27.957,27.957,0,0,0-10.878,1.891,14.9,14.9,0,0,0-6.735,5.185,12.672,12.672,0,0,0-2.254,7.32,10.594,10.594,0,0,0,2.437,7.351,14.017,14.017,0,0,0,5.729,3.9,62.449,62.449,0,0,0,8.227,2.226,36.119,36.119,0,0,1,5.516,1.464,2.195,2.195,0,0,1,1.675,2.013,1.861,1.861,0,0,1-1.279,1.739,11.225,11.225,0,0,1-4.266.579,26.647,26.647,0,0,1-7.253-1.067,29.447,29.447,0,0,1-6.825-2.837l-4.632,10.492a27.673,27.673,0,0,0,8.258,3.2,44.715,44.715,0,0,0,10.33,1.189h0Zm43.086,0a27.56,27.56,0,0,0,10.879-1.921,15.183,15.183,0,0,0,6.734-5.185,12.533,12.533,0,0,0,2.255-7.29,10.4,10.4,0,0,0-2.468-7.32,14.321,14.321,0,0,0-5.82-3.873,55.761,55.761,0,0,0-8.228-2.105,34.833,34.833,0,0,1-5.424-1.372,2.108,2.108,0,0,1-1.645-1.922q0-2.684,5.546-2.684a26.445,26.445,0,0,1,11.884,3.172l4.327-10.431a27.038,27.038,0,0,0-7.466-2.775,39.481,39.481,0,0,0-8.623-.946,27.963,27.963,0,0,0-10.879,1.891,14.9,14.9,0,0,0-6.734,5.185,12.666,12.666,0,0,0-2.255,7.32,10.59,10.59,0,0,0,2.438,7.351,14.014,14.014,0,0,0,5.728,3.9,62.468,62.468,0,0,0,8.228,2.226,36.132,36.132,0,0,1,5.515,1.464,2.2,2.2,0,0,1,1.676,2.013,1.862,1.862,0,0,1-1.28,1.739,11.222,11.222,0,0,1-4.266.579,26.64,26.64,0,0,1-7.252-1.067,29.455,29.455,0,0,1-6.826-2.837l-4.631,10.492a27.673,27.673,0,0,0,8.258,3.2,44.706,44.706,0,0,0,10.329,1.189h0Zm69.048-43.676H659.454v42.7h14.383V947.085h6.155a25.15,25.15,0,0,0,10.3-1.952,15.383,15.383,0,0,0,0-28.3,25.167,25.167,0,0,0-10.3-1.952h0Zm-0.914,21.106h-5.241v-10h5.241a6.4,6.4,0,0,1,4.388,1.312,5.389,5.389,0,0,1,0,7.381,6.392,6.392,0,0,1-4.388,1.311h0Zm28.1,21.594h33.64V946.414H721.555V914.877H707.173v42.7Zm73.191,0h14.87l-18.648-42.7H762.447l-18.649,42.7h14.627l2.864-7.442H777.5ZM765.25,939.765l4.144-10.736,4.145,10.736H765.25ZM839.3,914.877H825.4l-8.776,14.762-8.714-14.762H792.736L808.825,941.9v15.677h14.382V942.083Z" transform="translate(-410.875 -913.906)"/>
  <path id="follow_along" data-name="follow along" class="cls-2" d="M437.018,1017.73v-8.18h-26.15v32.2h10.846v-10.31h13.42v-8.19h-13.42v-5.52h15.3Zm22.381,24.75a19.854,19.854,0,0,0,9.33-2.16,16.519,16.519,0,0,0,0-29.35,21.228,21.228,0,0,0-18.659,0,16.513,16.513,0,0,0,0,29.35,19.847,19.847,0,0,0,9.329,2.16h0Zm0-8.78a6.9,6.9,0,0,1-3.653-.99,7.106,7.106,0,0,1-2.6-2.81,9.863,9.863,0,0,1,0-8.51,7.078,7.078,0,0,1,2.6-2.8,7.236,7.236,0,0,1,7.307,0,7.085,7.085,0,0,1,2.6,2.8,9.863,9.863,0,0,1,0,8.51,7.114,7.114,0,0,1-2.6,2.81,6.907,6.907,0,0,1-3.654.99h0Zm24.4,8.05H509.17v-8.42H494.648v-23.78H483.8v32.2Zm30.653,0h25.368v-8.42H525.3v-23.78H514.455v32.2Zm47.06,0.73a19.847,19.847,0,0,0,9.329-2.16,16.519,16.519,0,0,0,0-29.35,21.226,21.226,0,0,0-18.658,0,16.513,16.513,0,0,0,0,29.35,19.844,19.844,0,0,0,9.329,2.16h0Zm0-8.78a6.9,6.9,0,0,1-3.654-.99,7.1,7.1,0,0,1-2.6-2.81,9.863,9.863,0,0,1,0-8.51,7.069,7.069,0,0,1,2.6-2.8,7.236,7.236,0,0,1,7.307,0,7.071,7.071,0,0,1,2.6,2.8,9.863,9.863,0,0,1,0,8.51,7.1,7.1,0,0,1-2.6,2.81,6.9,6.9,0,0,1-3.653.99h0Zm65.305-24.15-5.929,18.53-5.607-18.53h-9.972l-5.929,18.3-5.606-18.3H582.609l10.294,32.2h11.628L610,1024.54l5.194,17.21H626.82l10.294-32.2H626.82Zm55.837,32.2H693.87l-14.063-32.2H669.145l-14.063,32.2h11.03l2.16-5.62H680.5Zm-11.4-13.44,3.125-8.09,3.125,8.09h-6.25Zm26.655,13.44h25.369v-8.42H708.76v-23.78H697.914v32.2Zm47.06,0.73a19.847,19.847,0,0,0,9.329-2.16,16.519,16.519,0,0,0,0-29.35,21.226,21.226,0,0,0-18.658,0,16.513,16.513,0,0,0,0,29.35,19.847,19.847,0,0,0,9.329,2.16h0Zm0-8.78a6.9,6.9,0,0,1-3.653-.99,7.1,7.1,0,0,1-2.6-2.81,9.863,9.863,0,0,1,0-8.51,7.071,7.071,0,0,1,2.6-2.8,7.236,7.236,0,0,1,7.307,0,7.076,7.076,0,0,1,2.6,2.8,9.863,9.863,0,0,1,0,8.51,7.1,7.1,0,0,1-2.6,2.81,6.907,6.907,0,0,1-3.654.99h0Zm45.543-24.15v14.62l-12.224-14.62h-8.916v32.2h10.57v-14.63l12.225,14.63h8.915v-32.2h-10.57Zm39.385,23.36a10.066,10.066,0,0,1-3.953.79,7.334,7.334,0,0,1-5.583-2.21,8.139,8.139,0,0,1-2.091-5.84,8.05,8.05,0,0,1,2.114-5.89,7.607,7.607,0,0,1,5.7-2.16,9.221,9.221,0,0,1,7.216,3.54l6.939-6.12a15.976,15.976,0,0,0-6.227-4.62,21.518,21.518,0,0,0-8.479-1.59,20.2,20.2,0,0,0-9.4,2.14,15.892,15.892,0,0,0-6.48,5.98,17.522,17.522,0,0,0,0,17.43,15.93,15.93,0,0,0,6.411,5.98,19.579,19.579,0,0,0,9.237,2.14,27.118,27.118,0,0,0,7.4-1.06,21.709,21.709,0,0,0,6.618-3.03v-13.62H829.9v8.14Z" transform="translate(-410.875 -913.906)"/>
  <path id="AND" class="cls-1" d="M605.987,989.658h2.031l-8.333-18.246h-1.9l-8.333,18.246h2l2.188-4.874H603.8Zm-11.64-6.438,4.375-9.8,4.375,9.8h-8.75Zm31.327-11.808v14.806L613.93,971.412h-1.589v18.246h1.927V974.853l11.719,14.805h1.589V971.412h-1.9Zm9.141,18.246h7.422a10.83,10.83,0,0,0,5.1-1.16,8.456,8.456,0,0,0,3.437-3.232,9.755,9.755,0,0,0,0-9.462,8.469,8.469,0,0,0-3.437-3.232,10.841,10.841,0,0,0-5.1-1.16h-7.422v18.246Zm1.927-1.668V973.08h5.39a8.838,8.838,0,0,1,4.193.952,6.912,6.912,0,0,1,2.787,2.632,8.07,8.07,0,0,1,0,7.742,6.914,6.914,0,0,1-2.787,2.633,8.838,8.838,0,0,1-4.193.951h-5.39Z" transform="translate(-410.875 -913.906)"/>
  <rect id="rectangle" class="cls-3" x="254.125" y="66.094" width="175" height="4"/>
  <rect id="rectangle-2" data-name="rectangle" class="cls-3" x="0.125" y="65.094" width="170" height="4"/>
</svg>
