<svg id="text" xmlns="http://www.w3.org/2000/svg" xmlns:xlink="http://www.w3.org/1999/xlink" width="297.437" height="202.38" viewBox="0 0 297.437 202.38">
  <defs>
    <style>
      .cls-1 {
        filter: url(#filter);
      }

      .cls-2 {
        fill: #fff;
      }

      .cls-3 {
        fill: #29282e;
      }

      .cls-3, .cls-4 {
        fill-rule: evenodd;
      }

      .cls-4 {
        fill: #ed1c24;
      }
    </style>
    <filter id="filter" filterUnits="userSpaceOnUse">
      <feFlood result="flood" flood-color="#29282e"/>
      <feComposite result="composite" operator="in" in2="SourceGraphic"/>
      <feBlend result="blend" in2="SourceGraphic"/>
    </filter>
  </defs>
  <g id="elipses" class="cls-1">
    <circle id="Ellipse_3_copy_5" data-name="Ellipse 3 copy 5" class="cls-2" cx="259.437" cy="104.41" r="2"/>
    <circle id="Ellipse_3_copy_7" data-name="Ellipse 3 copy 7" class="cls-2" cx="277.437" cy="104.41" r="2"/>
    <circle id="Ellipse_3_copy_9" data-name="Ellipse 3 copy 9" class="cls-2" cx="295.437" cy="104.41" r="2"/>
  </g>
  <g id="elipses-2" data-name="elipses" class="cls-1">
    <circle class="cls-2" cx="3.437" cy="104.41" r="2"/>
    <circle id="Ellipse_3_copy_2" data-name="Ellipse 3 copy 2" class="cls-2" cx="21.437" cy="104.41" r="2"/>
    <circle id="Ellipse_3_copy_4" data-name="Ellipse 3 copy 4" class="cls-2" cx="39.437" cy="104.41" r="2"/>
  </g>
  <g id="Группа_1_копия_2" data-name="Группа 1 копия 2">
    <path id="Scoop" class="cls-3" d="M480.759,1962.76a33.5,33.5,0,0,0,13.2-2.33,18.387,18.387,0,0,0,8.169-6.29,15.211,15.211,0,0,0,2.735-8.84q0-5.625-2.994-8.88a17.354,17.354,0,0,0-7.06-4.7,67.9,67.9,0,0,0-9.981-2.55,42.785,42.785,0,0,1-6.58-1.67c-1.331-.52-2-1.29-2-2.33q0-3.255,6.728-3.26a32.136,32.136,0,0,1,14.416,3.85l5.249-12.65a32.935,32.935,0,0,0-9.056-3.37,48.166,48.166,0,0,0-10.461-1.15,33.886,33.886,0,0,0-13.2,2.3,18.026,18.026,0,0,0-8.169,6.29,15.351,15.351,0,0,0-2.736,8.88q0,5.625,2.957,8.91a16.949,16.949,0,0,0,6.95,4.74,76.312,76.312,0,0,0,9.981,2.7,42.6,42.6,0,0,1,6.69,1.78c1.355,0.54,2.033,1.35,2.033,2.44a2.257,2.257,0,0,1-1.552,2.11,13.613,13.613,0,0,1-5.175.7,32.447,32.447,0,0,1-8.8-1.29,36.1,36.1,0,0,1-8.28-3.44l-5.619,12.72a33.457,33.457,0,0,0,10.018,3.89,54.348,54.348,0,0,0,12.531,1.44h0Zm59.736,0a32.528,32.528,0,0,0,13.455-2.66,24.976,24.976,0,0,0,9.759-7.7l-11.016-9.84q-4.806,6.06-11.311,6.07a11.528,11.528,0,0,1-8.8-3.52q-3.327-3.51-3.327-9.43t3.327-9.44a11.557,11.557,0,0,1,8.8-3.51q6.506,0,11.311,6.07l11.016-9.85a24.953,24.953,0,0,0-9.759-7.69,32.37,32.37,0,0,0-13.455-2.67,31.465,31.465,0,0,0-14.786,3.44,25.808,25.808,0,0,0-10.314,9.62,28.213,28.213,0,0,0,0,28.05,25.671,25.671,0,0,0,10.314,9.62,31.465,31.465,0,0,0,14.786,3.44h0Zm57.961,0a31.893,31.893,0,0,0,15.008-3.48,26.565,26.565,0,0,0,0-47.21,34.1,34.1,0,0,0-30.016,0,26.559,26.559,0,0,0,0,47.21,31.891,31.891,0,0,0,15.008,3.48h0Zm0-14.13a11.117,11.117,0,0,1-5.878-1.59,11.389,11.389,0,0,1-4.177-4.52,15.871,15.871,0,0,1,0-13.69,11.361,11.361,0,0,1,4.177-4.51,11.658,11.658,0,0,1,11.755,0,11.368,11.368,0,0,1,4.177,4.51,15.861,15.861,0,0,1,0,13.69,11.4,11.4,0,0,1-4.177,4.52,11.121,11.121,0,0,1-5.877,1.59h0Zm66.389,14.13a31.893,31.893,0,0,0,15.008-3.48,26.565,26.565,0,0,0,0-47.21,34.1,34.1,0,0,0-30.016,0,26.559,26.559,0,0,0,0,47.21,31.891,31.891,0,0,0,15.008,3.48h0Zm0-14.13a11.116,11.116,0,0,1-5.877-1.59,11.389,11.389,0,0,1-4.177-4.52,15.861,15.861,0,0,1,0-13.69,11.361,11.361,0,0,1,4.177-4.51,11.658,11.658,0,0,1,11.755,0,11.368,11.368,0,0,1,4.177,4.51,15.871,15.871,0,0,1,0,13.69,11.4,11.4,0,0,1-4.177,4.52,11.125,11.125,0,0,1-5.878,1.59h0Zm64.172-38.85H704.1v51.8H721.55v-12.73h7.467a30.5,30.5,0,0,0,12.494-2.37,18.654,18.654,0,0,0,0-34.33,30.5,30.5,0,0,0-12.494-2.37h0Zm-1.109,25.6H721.55v-12.13h6.358a7.761,7.761,0,0,1,5.323,1.59,6.531,6.531,0,0,1,0,8.95,7.761,7.761,0,0,1-5.323,1.59h0Z" transform="translate(-456.563 -1908.59)"/>
    <path id="Detox" class="cls-3" d="M456.577,2109.75h26.195a36.177,36.177,0,0,0,15.68-3.23,24.578,24.578,0,0,0,10.554-9.24,28.462,28.462,0,0,0,0-28.27,24.557,24.557,0,0,0-10.554-9.23,36.033,36.033,0,0,0-15.68-3.23H456.577v53.2Zm17.919-13.99v-25.23h7.517a12.765,12.765,0,0,1,9.225,3.31q3.454,3.3,3.455,9.31t-3.455,9.31a12.8,12.8,0,0,1-9.225,3.3H474.5Zm66.209,0.46v-6.99H563.18v-12.92H540.705v-6.24h25.588v-13.52h-43.2v53.2h44.19v-13.53H540.705Zm48.822,13.53h17.919v-39.3h15.566v-13.9H573.961v13.9h15.566v39.3Zm69.019,1.21a32.786,32.786,0,0,0,15.414-3.57,27.285,27.285,0,0,0,0-48.49,35.059,35.059,0,0,0-30.827,0,27.285,27.285,0,0,0,0,48.49,32.776,32.776,0,0,0,15.413,3.57h0Zm0-14.51a11.408,11.408,0,0,1-6.036-1.64,11.685,11.685,0,0,1-4.29-4.63,16.29,16.29,0,0,1,0-14.06,11.713,11.713,0,0,1,4.29-4.64,11.991,11.991,0,0,1,12.072,0,11.72,11.72,0,0,1,4.29,4.64,16.29,16.29,0,0,1,0,14.06,11.692,11.692,0,0,1-4.29,4.63,11.413,11.413,0,0,1-6.036,1.64h0Zm92.558,13.3-19.59-27.52,18.451-25.68H730.679l-8.808,13.37-9.036-13.37H692.714l18.527,26.37-19.21,26.83h20.425l8.959-14.22,9.188,14.22h20.5Z" transform="translate(-456.563 -1908.59)"/>
    <path id="Stir" class="cls-4" d="M537.273,2035.81a32.552,32.552,0,0,0,12.84-2.27,17.893,17.893,0,0,0,7.949-6.12,14.781,14.781,0,0,0,2.662-8.6q0-5.475-2.914-8.64a16.855,16.855,0,0,0-6.869-4.57,65.252,65.252,0,0,0-9.711-2.49,39.738,39.738,0,0,1-6.4-1.62c-1.295-.5-1.942-1.26-1.942-2.27q0-3.165,6.545-3.16a31.134,31.134,0,0,1,14.027,3.74l5.108-12.31a32.09,32.09,0,0,0-8.812-3.28,46.828,46.828,0,0,0-10.179-1.11,32.954,32.954,0,0,0-12.84,2.23,17.607,17.607,0,0,0-7.948,6.12,14.942,14.942,0,0,0-2.662,8.64q0,5.475,2.878,8.67a16.451,16.451,0,0,0,6.761,4.61,73.777,73.777,0,0,0,9.711,2.63,41.775,41.775,0,0,1,6.51,1.73q1.977,0.795,1.978,2.37a2.2,2.2,0,0,1-1.51,2.06,13.4,13.4,0,0,1-5.036.68,31.464,31.464,0,0,1-8.56-1.26,34.9,34.9,0,0,1-8.056-3.35l-5.467,12.39a32.88,32.88,0,0,0,9.747,3.78,53.1,53.1,0,0,0,12.192,1.4h0Zm42.3-1.15h16.976v-37.23h14.746v-13.17H564.824v13.17H579.57v37.23Zm39.706,0h16.977v-50.4H619.276v50.4Zm58.913,0h18.127l-10.574-15.55a17.317,17.317,0,0,0,7.049-6.41,17.831,17.831,0,0,0,2.446-9.43,17.454,17.454,0,0,0-10.79-16.71,29.8,29.8,0,0,0-12.157-2.3H648.049v50.4h16.976v-12.67h4.6Zm-0.072-31.39a5.535,5.535,0,0,1-1.727,4.35,7.558,7.558,0,0,1-5.179,1.55h-6.186v-11.81h6.186a7.558,7.558,0,0,1,5.179,1.55,5.543,5.543,0,0,1,1.727,4.36h0Z" transform="translate(-456.563 -1908.59)"/>
  </g>
</svg>
