<svg id="lettering_копия" data-name="lettering копия" xmlns="http://www.w3.org/2000/svg" xmlns:xlink="http://www.w3.org/1999/xlink" width="266.25" height="197.5" viewBox="0 0 266.25 197.5">
  <defs>
    <style>
      .cls-1 {
        fill: #29282e;
      }

      .cls-1, .cls-2 {
        fill-rule: evenodd;
      }

      .cls-2 {
        fill: #f01716;
      }

      .cls-3 {
        filter: url(#filter);
      }

      .cls-4 {
        fill: #fff;
      }

      .cls-5 {
        fill: #f01616;
      }
    </style>
    <filter id="filter" filterUnits="userSpaceOnUse">
      <feFlood result="flood" flood-color="#14191e"/>
      <feComposite result="composite" operator="in" in2="SourceGraphic"/>
      <feBlend result="blend" in2="SourceGraphic"/>
    </filter>
  </defs>
  <path id="EAT_TASTY_" data-name="EAT TASTY " class="cls-1" d="M1176.11,2652.05v-3.86h12.43v-7.14h-12.43v-3.45h14.15v-7.47h-23.9v29.4h24.45v-7.48h-14.7Zm42.62,7.48h10.25l-12.85-29.4h-9.74l-12.86,29.4h10.08l1.98-5.13h11.17Zm-10.41-12.27,2.85-7.39,2.86,7.39h-5.71Zm29.27,12.27h9.92v-21.72h8.61v-7.68h-27.14v7.68h8.61v21.72Zm44.27,0h9.91v-21.72h8.61v-7.68h-27.13v7.68h8.61v21.72Zm43.72,0h10.25l-12.85-29.4h-9.75l-12.85,29.4h10.08l1.98-5.13h11.17Zm-10.41-12.27,2.85-7.39,2.86,7.39h-5.71Zm35.32,12.94a19.066,19.066,0,0,0,7.5-1.32,10.5,10.5,0,0,0,4.64-3.57,8.665,8.665,0,0,0,1.55-5.02,7.166,7.166,0,0,0-1.7-5.04,9.9,9.9,0,0,0-4.01-2.67,39.2,39.2,0,0,0-5.67-1.45,23.951,23.951,0,0,1-3.74-.94,1.453,1.453,0,0,1-1.13-1.33c0-1.23,1.27-1.84,3.82-1.84a18.206,18.206,0,0,1,8.19,2.18l2.98-7.18a18.479,18.479,0,0,0-5.14-1.91,26.918,26.918,0,0,0-5.95-.65,19.177,19.177,0,0,0-7.49,1.3,10.332,10.332,0,0,0-4.65,3.57,8.75,8.75,0,0,0-1.55,5.04,7.291,7.291,0,0,0,1.68,5.06,9.687,9.687,0,0,0,3.95,2.69,44.593,44.593,0,0,0,5.67,1.53,24.2,24.2,0,0,1,3.8,1.01,1.506,1.506,0,0,1,1.15,1.38,1.268,1.268,0,0,1-.88,1.2,7.676,7.676,0,0,1-2.94.4,18.442,18.442,0,0,1-5-.73,20.53,20.53,0,0,1-4.7-1.96l-3.19,7.23a18.983,18.983,0,0,0,5.69,2.2,30.611,30.611,0,0,0,7.12.82h0Zm24.69-.67h9.92v-21.72h8.61v-7.68h-27.14v7.68h8.61v21.72Zm50.91-29.4h-9.58l-6.05,10.16-6-10.16H1394l11.09,18.6v10.8H1415v-10.67Z" transform="translate(-1165 -2629.47)"/>
  <path id="_WHAT_TO_EAT_IN_THE_STREETS_" data-name="  «WHAT TO EAT IN THE STREETS»" class="cls-2" d="M1175.66,2781.4h-4.81l-5.01,5.51,2.8,5.55h4.62l-2.58-5.38Zm6.86,0h-4.81l-5.01,5.51,2.8,5.55h4.62l-2.58-5.38Zm28.51-6.47-6.67,12.68-1.4-12.68h-5.12l-6.61,12.51-1.51-12.51h-5.46l2.41,19.6h5.96l6.25-11.82,1.42,11.82h5.94l10.28-19.6h-5.49Zm20.55,0-1.46,7.33h-7.53l1.46-7.33h-5.55l-3.92,19.6h5.55l1.51-7.62h7.53l-1.51,7.62h5.54l3.92-19.6h-5.54Zm20.47,19.6h5.51l-4.73-19.6h-5.46l-12.57,19.6h5.85l2.27-3.81h8.34Zm-6.7-7.9,3.76-6.35,1.31,6.35h-5.07Zm16.97,7.9h5.55l3.05-15.21h5.99l0.9-4.39h-17.56l-0.89,4.39h6.02Zm25.93,0h5.54l3.06-15.21h5.99l0.89-4.39h-17.55l-0.9,4.39h6.02Zm23.94,0.39a13.059,13.059,0,0,0,6.34-1.51,10.9,10.9,0,0,0,4.34-4.2,11.829,11.829,0,0,0,1.56-6.05,8.5,8.5,0,0,0-1.19-4.48,8.1,8.1,0,0,0-3.39-3.05,11.482,11.482,0,0,0-5.17-1.09,13.059,13.059,0,0,0-6.34,1.51,10.964,10.964,0,0,0-4.34,4.2,11.822,11.822,0,0,0-1.55,6.05,8.408,8.408,0,0,0,1.19,4.48,8.084,8.084,0,0,0,3.38,3.05,11.482,11.482,0,0,0,5.17,1.09h0Zm0.48-4.59a4.7,4.7,0,0,1-3.41-1.19,4.251,4.251,0,0,1-1.21-3.18,7.8,7.8,0,0,1,.75-3.43,6.12,6.12,0,0,1,2.16-2.48,5.786,5.786,0,0,1,3.25-.92,4.636,4.636,0,0,1,3.4,1.19,4.242,4.242,0,0,1,1.22,3.18,7.807,7.807,0,0,1-.76,3.43,6.019,6.019,0,0,1-2.16,2.47,5.7,5.7,0,0,1-3.24.93h0Zm39.17-11.12,0.87-4.28h-15.35l-3.92,19.6h15.71l0.9-4.29h-10.28l0.7-3.58h8.74l0.81-4.14h-8.71l0.64-3.31h9.89Zm15.31,15.32h5.52l-4.73-19.6h-5.46l-12.57,19.6h5.85l2.27-3.81h8.34Zm-6.69-7.9,3.75-6.35,1.32,6.35h-5.07Zm16.97,7.9h5.54l3.06-15.21h5.99l0.89-4.39h-17.55l-0.9,4.39h6.02Zm21.78,0h5.55l3.92-19.6h-5.55Zm26.6-19.6-2.12,10.72-6.5-10.72h-4.56l-3.92,19.6h5.43l2.15-10.75,6.47,10.75h4.57l3.92-19.6h-5.44Zm-255.76,51.6h6.14l3.38-16.83h6.63l0.99-4.87h-19.43l-0.99,4.87h6.66Zm35.46-21.7-1.61,8.12h-8.34l1.62-8.12h-6.14l-4.34,21.7h6.14l1.67-8.43h8.34l-1.68,8.43h6.14l4.34-21.7h-6.14Zm28.09,4.74,0.96-4.74h-16.99l-4.34,21.7h17.39l1-4.74h-11.38l0.77-3.97h9.68l0.9-4.59h-9.65l0.72-3.66h10.94Zm20.68,17.39a14.6,14.6,0,0,0,5.5-.96,8.237,8.237,0,0,0,3.66-2.71,6.649,6.649,0,0,0,1.28-4.05,4.412,4.412,0,0,0-.99-3,6.064,6.064,0,0,0-2.37-1.71,26.92,26.92,0,0,0-3.49-1.08,16.469,16.469,0,0,1-2.79-.93,1.36,1.36,0,0,1-.9-1.24,1.739,1.739,0,0,1,1.04-1.52,5.764,5.764,0,0,1,2.87-.59,11.955,11.955,0,0,1,3.15.42,10.209,10.209,0,0,1,2.8,1.22l2.23-4.56a11.922,11.922,0,0,0-3.47-1.38,18.677,18.677,0,0,0-4.34-.48,14.365,14.365,0,0,0-5.52.97,8.056,8.056,0,0,0-3.62,2.71,6.724,6.724,0,0,0-1.27,4.07,4.585,4.585,0,0,0,1,3.1,6.4,6.4,0,0,0,2.41,1.76,28.505,28.505,0,0,0,3.5,1.13,15.918,15.918,0,0,1,2.74.93,1.338,1.338,0,0,1,.89,1.21,1.563,1.563,0,0,1-.98,1.41,6.025,6.025,0,0,1-2.74.51,13.286,13.286,0,0,1-3.72-.54,13.909,13.909,0,0,1-3.51-1.6l-2.41,4.59a13.083,13.083,0,0,0,3.93,1.67,19.363,19.363,0,0,0,5.12.65h0Zm17.79-.43h6.14l3.38-16.83h6.63l0.99-4.87h-19.43l-0.99,4.87h6.66Zm39-14.79a6.135,6.135,0,0,0-2.3-5.08,10.056,10.056,0,0,0-6.44-1.83h-9.27l-4.34,21.7h6.14l1.14-5.77h3.1l3.23,5.77h6.41l-3.69-6.51a8.96,8.96,0,0,0,4.44-3.15,8.432,8.432,0,0,0,1.58-5.13h0Zm-6.2.59a3.389,3.389,0,0,1-1.12,2.73,4.7,4.7,0,0,1-3.16.96h-3.66l1.3-6.36h3.23a4.182,4.182,0,0,1,2.51.67,2.334,2.334,0,0,1,.9,2h0Zm28.7-2.76,0.97-4.74h-16.99l-4.34,21.7h17.39l0.99-4.74h-11.38l0.78-3.97h9.67l0.9-4.59h-9.64l0.71-3.66h10.94Zm22.39,0,0.96-4.74h-16.99l-4.34,21.7h17.39l0.99-4.74H1342.6l0.77-3.97h9.67l0.9-4.59h-9.64l0.71-3.66h10.95Zm6.6,16.96h6.14l3.38-16.83h6.63l0.99-4.87h-19.43l-1,4.87h6.67Zm24.68,0.43a14.6,14.6,0,0,0,5.5-.96,8.237,8.237,0,0,0,3.66-2.71,6.715,6.715,0,0,0,1.28-4.05,4.412,4.412,0,0,0-.99-3,6.064,6.064,0,0,0-2.37-1.71,26.92,26.92,0,0,0-3.49-1.08,16.469,16.469,0,0,1-2.79-.93,1.36,1.36,0,0,1-.9-1.24,1.739,1.739,0,0,1,1.04-1.52,5.764,5.764,0,0,1,2.87-.59,11.826,11.826,0,0,1,3.14.42,10.141,10.141,0,0,1,2.81,1.22l2.23-4.56a12.037,12.037,0,0,0-3.47-1.38,18.677,18.677,0,0,0-4.34-.48,14.365,14.365,0,0,0-5.52.97,8.056,8.056,0,0,0-3.62,2.71,6.732,6.732,0,0,0-1.28,4.07,4.589,4.589,0,0,0,1.01,3.1,6.288,6.288,0,0,0,2.4,1.76,28.723,28.723,0,0,0,3.51,1.13,15.918,15.918,0,0,1,2.74.93,1.327,1.327,0,0,1,.88,1.21,1.552,1.552,0,0,1-.97,1.41,6.042,6.042,0,0,1-2.75.51,13.286,13.286,0,0,1-3.72-.54,13.844,13.844,0,0,1-3.5-1.6l-2.42,4.59a13.264,13.264,0,0,0,3.94,1.67,19.363,19.363,0,0,0,5.12.65h0Zm20.11-14.97h-5.11l2.85,5.95-5.52,6.29h5.33l5.55-6.13Zm7.6,0h-5.12l2.86,5.95-5.52,6.29h5.33l5.55-6.13Z" transform="translate(-1165 -2629.47)"/>
  <path id="HEALTHY_FOOD" data-name="HEALTHY FOOD" class="cls-1" d="M1179.3,2705.53v7.44h-6.54v-7.44h-7.08v21h7.08v-7.74h6.54v7.74h7.08v-21h-7.08Zm18.96,15.66v-2.76h8.88v-5.1h-8.88v-2.46h10.11v-5.34H1191.3v21h17.46v-5.34h-10.5Zm30.45,5.34h7.32l-9.18-21h-6.96l-9.18,21h7.2l1.41-3.66h7.98Zm-7.44-8.76,2.04-5.28,2.04,5.28h-4.08Zm17.4,8.76h16.56v-5.49h-9.48v-15.51h-7.08v21Zm22.62,0h7.08v-15.51h6.15v-5.49h-19.38v5.49h6.15v15.51Zm30.18-21v7.44h-6.54v-7.44h-7.08v21h7.08v-7.74h6.54v7.74h7.08v-21h-7.08Zm32.4,0h-6.84l-4.32,7.26-4.29-7.26h-7.47l7.92,13.29v7.71h7.08v-7.62Zm28.71,6.38v-4.98h-15.93v19.6h6.61v-6.27h8.18v-4.99h-8.18v-3.36h9.32Zm13.64,15.07a12.045,12.045,0,0,0,5.68-1.32,10.214,10.214,0,0,0,3.95-14.21,9.808,9.808,0,0,0-3.95-3.65,12.881,12.881,0,0,0-11.36,0,9.808,9.808,0,0,0-3.95,3.65,10.041,10.041,0,0,0,3.95,14.21,12.045,12.045,0,0,0,5.68,1.32h0Zm0-5.35a4.259,4.259,0,0,1-2.23-.6,4.357,4.357,0,0,1-1.58-1.71,5.98,5.98,0,0,1,0-5.18,4.273,4.273,0,0,1,7.62,0,5.98,5.98,0,0,1,0,5.18,4.357,4.357,0,0,1-1.58,1.71,4.259,4.259,0,0,1-2.23.6h0Zm25.14,5.35a12.086,12.086,0,0,0,5.69-1.32,10.22,10.22,0,0,0,3.94-14.21,9.781,9.781,0,0,0-3.94-3.65,12.9,12.9,0,0,0-11.37,0,9.808,9.808,0,0,0-3.95,3.65,10.041,10.041,0,0,0,3.95,14.21,12.045,12.045,0,0,0,5.68,1.32h0Zm0-5.35a4.2,4.2,0,0,1-2.22-.6,4.38,4.38,0,0,1-1.59-1.71,6.073,6.073,0,0,1,0-5.18,4.313,4.313,0,0,1,1.59-1.71,4.426,4.426,0,0,1,4.45,0,4.29,4.29,0,0,1,1.58,1.71,5.98,5.98,0,0,1,0,5.18,4.357,4.357,0,0,1-1.58,1.71,4.234,4.234,0,0,1-2.23.6h0Zm14.87,4.9h9.66a13.382,13.382,0,0,0,5.78-1.19,9.1,9.1,0,0,0,3.89-3.4,10.459,10.459,0,0,0,0-10.42,9.034,9.034,0,0,0-3.89-3.4,13.238,13.238,0,0,0-5.78-1.19h-9.66v19.6Zm6.61-5.15v-9.3h2.77a4.721,4.721,0,0,1,3.4,1.22,5.236,5.236,0,0,1,0,6.86,4.721,4.721,0,0,1-3.4,1.22h-2.77Z" transform="translate(-1165 -2629.47)"/>
  <path id="AND" class="cls-1" d="M1274.53,2691.53h2.03l-8.32-18.2h-1.9l-8.32,18.2h2l2.19-4.86h10.14Zm-11.62-6.42,4.37-9.78,4.36,9.78h-8.73Zm31.27-11.78v14.77l-11.72-14.77h-1.59v18.2h1.93v-14.77l11.7,14.77h1.58v-18.2h-1.9Zm9.13,18.2h7.41a10.893,10.893,0,0,0,5.1-1.16,8.459,8.459,0,0,0,3.43-3.22,9.74,9.74,0,0,0,0-9.44,8.459,8.459,0,0,0-3.43-3.22,10.773,10.773,0,0,0-5.1-1.16h-7.41v18.2Zm1.92-1.67v-14.87h5.39a8.828,8.828,0,0,1,4.18.95,6.788,6.788,0,0,1,2.78,2.63,8.02,8.02,0,0,1,0,7.72,6.853,6.853,0,0,1-2.78,2.63,8.826,8.826,0,0,1-4.18.94h-5.39Z" transform="translate(-1165 -2629.47)"/>
  <path id="WITH" class="cls-1" d="M1281.07,2740.33l-5.33,15.73-5.35-15.73h-1.8l-5.43,15.65-5.25-15.65h-1.98l6.14,18.2h2l5.35-15.52,5.33,15.52h2.03l6.14-18.2h-1.85Zm6.66,18.2h1.92v-18.2h-1.92v18.2Zm12.68,0h1.93v-16.54h6.39v-1.66h-14.71v1.66h6.39v16.54Zm26-18.2v8.11h-11.38v-8.11h-1.93v18.2h1.93v-8.4h11.38v8.4h1.9v-18.2h-1.9Z" transform="translate(-1165 -2629.47)"/>
  <g id="elipses_копия" data-name="elipses копия" class="cls-3">
    <circle class="cls-4" cx="2" cy="120.53" r="2"/>
    <circle id="Ellipse_3_copy" data-name="Ellipse 3 copy" class="cls-4" cx="18" cy="120.53" r="2"/>
    <circle id="Ellipse_3_copy_3" data-name="Ellipse 3 copy 3" class="cls-4" cx="34" cy="120.53" r="2"/>
    <circle id="Ellipse_3_copy_5" data-name="Ellipse 3 copy 5" class="cls-4" cx="50" cy="120.53" r="2"/>
    <circle id="Ellipse_3_copy_7" data-name="Ellipse 3 copy 7" class="cls-4" cx="66" cy="120.53" r="2"/>
    <circle id="Ellipse_3_copy_9" data-name="Ellipse 3 copy 9" class="cls-4" cx="82" cy="120.53" r="2"/>
  </g>
  <g id="elipses_копия_2" data-name="elipses копия 2" class="cls-3">
    <circle class="cls-4" cx="171" cy="120.53" r="2"/>
    <circle id="Ellipse_3_copy-2" data-name="Ellipse 3 copy" class="cls-4" cx="187" cy="120.53" r="2"/>
    <circle id="Ellipse_3_copy_3-2" data-name="Ellipse 3 copy 3" class="cls-4" cx="203" cy="120.53" r="2"/>
    <circle id="Ellipse_3_copy_5-2" data-name="Ellipse 3 copy 5" class="cls-4" cx="219" cy="120.53" r="2"/>
    <circle id="Ellipse_3_copy_7-2" data-name="Ellipse 3 copy 7" class="cls-4" cx="235" cy="120.53" r="2"/>
    <circle id="Ellipse_3_copy_9-2" data-name="Ellipse 3 copy 9" class="cls-4" cx="251" cy="120.53" r="2"/>
  </g>
  <rect class="cls-5" x="168" y="52.53" width="83" height="4"/>
  <rect id="Rectangle_530_copy" data-name="Rectangle 530 copy" class="cls-5" x="1" y="51.53" width="83" height="4"/>
</svg>
