<svg xmlns="http://www.w3.org/2000/svg" xmlns:xlink="http://www.w3.org/1999/xlink" width="54" height="57" viewBox="0 0 54 57"><defs><path id="zyh7a" d="M413 2472v10.14l8-10.14h10l-9 11.14 10 15.93h-11l-5-9.95-3 2.98v6.97h-9V2472zm42 13v14.07h-5v-2.98a14.24 14.24 0 0 1-13.54 1.73c-4.28-1.8-7.46-6-8.02-10.6a13.4 13.4 0 0 1 5.5-12.35 14.96 14.96 0 0 1 9.9-2.62c4.3.37 7.94 2.55 11.16 5.25l-3.56 4.44s-1.76-1.25-2.94-1.9a12.17 12.17 0 0 0-4.24-1.46 8.08 8.08 0 0 0-6.04 1.56 6.91 6.91 0 0 0-2.54 5 6.9 6.9 0 0 0 2.07 5.2c1.53 1.49 4.15 2.06 6.25 1.76 3.25-.45 6-3.55 6-7.1h5zm-7 17l-19 23.96-19-23.96z"/></defs><g><g transform="translate(-403 -2470)"><use fill="#fff" xlink:href="#zyh7a"/></g></g></svg>