<svg xmlns="http://www.w3.org/2000/svg" xmlns:xlink="http://www.w3.org/1999/xlink" width="90" height="90" viewBox="0 0 90 90"><defs><path id="be3ba" d="M1120 2093a44 44 0 1 1 0 88 44 44 0 0 1 0-88z"/><path id="be3bc" d="M1135 2161h-21v7l-4.12-3.04-3.88 3.04v-7h-6v-52h35.06a6.95 6.95 0 0 1 6.94 6.94v37.7c0 3.89-3.12 7.36-7 7.36zm-33-2h33c2.83 0 5.08-2.53 5.08-5.36v-37.7a5.02 5.02 0 0 0-5.02-5.02h-33.14zm11-16h16v5h-16zm21.1-13.44c0 2.68-2.53 5.07-5.1 5.44v6h-16v-6c-2.57-.37-5.1-2.76-5.1-5.44a5.33 5.33 0 0 1 8.16-4.5 5.34 5.34 0 0 1 8.44-2.02 5.33 5.33 0 0 1 1.44 2.02 5.33 5.33 0 0 1 8.17 4.5z"/><clipPath id="be3bb"><use fill="#fff" xlink:href="#be3ba"/></clipPath></defs><g><g transform="translate(-1075 -2092)"><use fill="#fff" fill-opacity="0" stroke="#111" stroke-miterlimit="50" stroke-width="4" clip-path="url(&quot;#be3bb&quot;)" xlink:href="#be3ba"/></g><g transform="translate(-1075 -2092)"><use fill="#29282e" xlink:href="#be3bc"/></g></g></svg>