<svg xmlns="http://www.w3.org/2000/svg" width="9.188" height="11" viewBox="0 0 9.188 11">
  <defs>
    <style>
      .cls-1 {
        fill: #fff;
        fill-rule: evenodd;
        opacity: 0.5;
      }
    </style>
  </defs>
  <path id="Forma_1" data-name="Forma 1" class="cls-1" d="M24.189,243.582a0.686,0.686,0,0,1-.689-0.689v-3.9H19.6a0.686,0.686,0,0,0-.689.689v9.644a0.686,0.686,0,0,0,.689.689H27.4a0.686,0.686,0,0,0,.689-0.689v-5.74h-3.9Zm2.067,4.362a0.222,0.222,0,0,1-.23.23H20.974a0.222,0.222,0,0,1-.23-0.23v-0.459a0.222,0.222,0,0,1,.23-0.23h5.052a0.222,0.222,0,0,1,.23.23v0.459Zm0-1.837a0.222,0.222,0,0,1-.23.23H20.974a0.222,0.222,0,0,1-.23-0.23v-0.459a0.22,0.22,0,0,1,.23-0.229h5.052a0.22,0.22,0,0,1,.23.229v0.459Zm1.349-4.391-2.239-2.239a1.739,1.739,0,0,0-.947-0.466v3.652h3.652A1.743,1.743,0,0,0,27.6,241.716Z" transform="translate(-18.906 -239)"/>
</svg>