<svg xmlns="http://www.w3.org/2000/svg" xmlns:xlink="http://www.w3.org/1999/xlink" width="90" height="90" viewBox="0 0 90 90">
  <defs>
    <style>
      .cls-1 {
        filter: url(#filter);
      }

      .cls-2 {
        fill: none;
        stroke: #fff;
        stroke-width: 2px;
      }

      .cls-3 {
        fill-rule: evenodd;
      }
    </style>
    <filter id="filter" filterUnits="userSpaceOnUse">
      <feFlood result="flood" flood-color="#29282e"/>
      <feComposite result="composite" operator="in" in2="SourceGraphic"/>
      <feBlend result="blend" in2="SourceGraphic"/>
    </filter>
  </defs>
  <g id="Replenish" class="cls-1">
    <circle id="elipse" class="cls-2" cx="45" cy="45" r="44"/>
    <path id="Фигура_3" data-name="Фигура 3" class="cls-3" d="M433.173,1161.26c-0.968-.22-4.542.07-6.18-0.08s-2.962-1.35-2.814-2.69,1.278-2.25,2.99-2.32,7.407,0.2,9.5-.35c5.091-1.34,7.636-3.22,12.936-1.69,3.608,1.04,7.543,5.94,8.21,6.76a37.3,37.3,0,0,0,3.8,3.8c0.243,0.2.651,0.57,1.134,1.01,1.592,1.44-1.8,12.77-3.442,11.13s-4.244-4.55-5.361-5.67a15.176,15.176,0,0,0-3.723-2.83,7.7,7.7,0,0,0-4.913-.14c-1.788.59-5.808,2.08-7.893,2.83a8.971,8.971,0,0,1-5.584.07c-1.787-.45-7.3-1.79-9.158-2.46a8.05,8.05,0,0,1-3.723-2.08c-1.489-1.34-5.217-4.63-6.629-5.89s-1.349-2.53-.754-3.27,1.923-1.05,3.563.29,2.482,2.09,3.6,3.06a7.621,7.621,0,0,0,3.646,2.23c1.712,0.37,5.51,1.19,6.85,1.34s2.382,0.6,3.871-.15a29.5,29.5,0,0,0,3.545-2.28S434.141,1161.48,433.173,1161.26Z" transform="translate(-392 -1120)"/>
  </g>
</svg>
