<svg xmlns="http://www.w3.org/2000/svg" xmlns:xlink="http://www.w3.org/1999/xlink" width="90" height="90" viewBox="0 0 90 90">
  <defs>
    <style>
      .cls-1 {
        filter: url(#filter);
      }

      .cls-2 {
        fill: none;
        stroke: #fff;
        stroke-width: 2px;
      }

      .cls-3 {
        fill: #fff;
        fill-rule: evenodd;
      }
    </style>
    <filter id="filter" filterUnits="userSpaceOnUse">
      <feFlood result="flood" flood-color="#29282e"/>
      <feComposite result="composite" operator="in" in2="SourceGraphic"/>
      <feBlend result="blend" in2="SourceGraphic"/>
    </filter>
  </defs>
  <g id="Revitalize" class="cls-1">
    <circle id="elipse" class="cls-2" cx="45" cy="45" r="44"/>
    <path id="Фигура_1" data-name="Фигура 1" class="cls-3" d="M462.945,972.853s-9.7,14.878-25.987,14.878-25.988-14.878-25.988-14.878,9.7-14.879,25.988-14.879S462.945,972.853,462.945,972.853ZM436.958,962a10.859,10.859,0,1,0,11.058,10.858A10.96,10.96,0,0,0,436.958,962Zm0,3.949a7.106,7.106,0,0,0-3.011.671l3.011,6.238-6.846-1.576a6.779,6.779,0,0,0-.191,1.576A7.038,7.038,0,1,0,436.958,965.944Z" transform="translate(-392 -928)"/>
  </g>
</svg>
