<svg xmlns="http://www.w3.org/2000/svg" xmlns:xlink="http://www.w3.org/1999/xlink" width="24" height="24" viewBox="0 0 24 24"><defs><path id="a" d="M1118.98 4149.6a.37.37 0 0 0-.3-.25l-6.7-.98-3-6.16a.37.37 0 0 0-.66 0l-3.01 6.16-6.71.98a.37.37 0 0 0-.3.26c-.04.13 0 .28.1.38l4.85 4.8-1.15 6.77c-.02.14.04.28.15.36.11.09.27.1.4.03l6-3.2 6 3.2a.37.37 0 0 0 .38-.03.38.38 0 0 0 .15-.36l-1.15-6.77 4.86-4.8c.1-.1.14-.25.1-.38z"/></defs><g transform="translate(-1097 -4140)"><use fill="#ed1c24" xlink:href="#a"/></g></svg>