<svg id="Layer_1" data-name="Layer 1" xmlns="http://www.w3.org/2000/svg" width="88" height="88" viewBox="0 0 88 88"><defs><style>.cls-1{fill:#fff;}</style></defs><title>mobile-friendly</title><path class="cls-1" d="M44,88A44,44,0,1,1,88,44,44,44,0,0,1,44,88ZM44,2A42,42,0,1,0,86,44,42,42,0,0,0,44,2Z" transform="translate(0)"/><polygon class="cls-1" points="62.32 40.05 55.95 46.42 51.7 42.16 50.29 43.58 55.95 49.24 55.96 49.24 63.74 41.46 62.32 40.05"/><path class="cls-1" d="M54.06,65H27.94V22H54.06V32.77A10.4,10.4,0,0,1,56,32.53V17.83A2.79,2.79,0,0,0,53.26,15H28.74A2.79,2.79,0,0,0,26,17.83V70.17A2.79,2.79,0,0,0,28.74,73H53.26A2.79,2.79,0,0,0,56,70.17V55.47a10.4,10.4,0,0,1-1.94-.24ZM34,18H48v1H34Zm7,53a2,2,0,1,1,2-2A2,2,0,0,1,41,71Z" transform="translate(0)"/><path class="cls-1" d="M56.5,32.5c-.17,0-.33,0-.5,0v1.22H54.06v-1a11.49,11.49,0,0,0,0,22.46v-1h0a6.8,6.8,0,0,0,1.94.47v.78c.17,0,.33,0,.5,0a11.5,11.5,0,0,0,0-23Zm0,21A9.5,9.5,0,1,1,66,44,9.5,9.5,0,0,1,56.5,53.5Z" transform="translate(0)"/></svg>