<?xml version="1.0" encoding="utf-8"?>
<!-- Generator: Adobe Illustrator 22.0.1, SVG Export Plug-In . SVG Version: 6.00 Build 0)  -->
<svg version="1.1" id="Слой_1" xmlns="http://www.w3.org/2000/svg" xmlns:xlink="http://www.w3.org/1999/xlink" x="0px" y="0px"
	 width="91.1px" height="91px" viewBox="0 0 91.1 91" style="enable-background:new 0 0 91.1 91;" xml:space="preserve">
<style type="text/css">
	.st0{fill:transparent;stroke:#201600;stroke-width:2;stroke-miterlimit:10;}
	.st1{fill:#272425;}
</style>
<circle class="st0" cx="45.5" cy="45.5" r="44.5"/>
<path class="st1" d="M55.6,33.3c-0.1-0.3-0.4-0.9-0.8-1.3c-0.4-0.4-0.8-0.9-1.1-1.3s-1.3-1.2-1.5-1.4c-0.2-0.2-0.6-0.9-1.2-1.6
	c-0.6-0.7-1.2-1.2-1.5-1.4c-0.3-0.3-0.8-0.4-1-0.4c-0.2-0.1-0.5-0.1-0.5-0.1c-0.1,0-0.2,0-0.4,0c-0.2,0.1-0.3,0.1-0.5,0
	c-0.2-0.1-0.3,0-0.3,0c-0.5-0.1-0.9-0.4-0.9-0.4s0.1-0.2,0-0.5c0-0.3-0.2-1-0.2-1s0-0.2-0.1-0.6c-0.1-0.4-0.3-0.9-0.3-0.9
	s0.2-0.2,0.3-0.4c0.1-0.2,0.1-0.8,0-1c0-0.2-0.2-0.2-0.2-0.2s0-0.2,0-0.4c0-0.3,0-0.8-0.2-1.2c-0.2-0.4-0.6-0.8-0.9-1.1
	c-0.3-0.3-0.9-0.3-1.1-0.4c-0.2,0-0.4,0-0.6,0c-0.1,0-0.3,0.1-0.6,0.2c-0.3,0.1-0.7,0.4-0.9,0.6c-0.2,0.3-0.4,0.7-0.5,0.8
	c-0.1,0.1-0.2,0.5-0.2,0.9c0,0.4,0.2,0.7,0.2,0.9c0,0.2,0.1,0.3,0.1,0.4c0,0.1,0,0.6,0,0.8c0,0.2,0.1,0.5,0.2,0.6
	c0.1,0.2,0.2,0.5,0.3,0.7c0.1,0.2,0.2,0.5,0.4,0.6c0.2,0.1,0.5,0.5,0.5,0.5s0,0.2,0.1,0.4c0,0.2,0,0.5,0,0.8
	c-0.1,0.4-0.4,0.6-0.4,0.6c-0.1,0-0.1,0.1-0.4,0.1c-0.2,0-0.6,0-0.8,0.1c-0.2,0-0.3,0.1-0.3,0.1s-0.6,0.3-0.9,0.6
	c-0.3,0.3-0.5,0.8-0.9,1.6c-0.3,0.8-0.4,1.4-0.5,1.7c-0.1,0.3-0.5,1-0.7,1.5c-0.2,0.5-0.6,1.2-0.7,1.4c-0.1,0.3-0.1,0.3-0.2,0.5
	c-0.1,0.2-0.1,0.6-0.1,0.7s0,0.4,0.2,0.7c0.2,0.3,0.3,0.5,0.5,0.8c0.2,0.3,0.5,0.9,0.6,1c0.1,0.1,0.1,0.2,0.2,0.3
	c0.1,0.1,0,0.2,0.2,0.3c0.2,0.1,0.6,0,0.6,0c0.1,0,0.2,0,0.2,0c0.1,0,0.2,0,0.2,0S39.3,38.4,39,39c-0.2,0.5-0.4,1.8-0.4,1.8
	s-0.3,0.7-0.7,1.5c-0.4,0.8-0.9,2.5-1.2,3.3c-0.3,0.8-1,2-1.3,2.7c-0.3,0.7-1,1.8-0.9,1.8c0,0,1.5,0.6,2.1,0.8
	c0.5,0.2,1.1,0.3,1.1,0.3s0,0.1-0.1,0.2c0,0.1,0.1,0.1,0.3,0.2c0.3,0.1,1,0.2,1.5,0.2c0.5,0,0.8,0.1,1,0.1c0.2,0.1,0.3,0.1,0.3,0.1
	s0.1,0.3,0.2,0.8c0.1,0.5,0.2,0.8,0.2,1.3c0.1,0.5,0.2,0.9,0.3,1.2c0.1,0.4,0.1,1,0,1.6c0,0.6,0.2,2.1,0.4,2.7
	c0.2,0.6,0.6,3.1,0.8,4.1c0.2,1,0.6,2.1,0.6,2.5c0.1,0.4,0.1,0.8,0.1,1.3c0.1,0.5,0,0.5-0.1,0.9c-0.1,0.3-0.1,0.6-0.2,0.8
	c-0.1,0.2-0.2,0.9-0.3,1.1c-0.1,0.3-0.3,0.6-0.3,0.9c0,0.3,0,0.7,0.1,0.8c0.1,0.1,0.8,0.2,1.2,0.2c0.4,0,1.1-0.1,1.2-0.3
	s0.1-0.5,0.1-0.9c0-0.3,0-0.6,0.1-0.9c0.1-0.3,0.1-0.5,0.2-0.8c0-0.3,0.1-0.5,0.2-0.8c0.1-0.3-0.1-0.5-0.1-0.8
	c-0.1-0.3-0.3-0.7-0.3-0.7c0-0.3-0.1-0.5-0.2-0.7c-0.1-0.2-0.1-0.5-0.2-1.1c0-0.7-0.1-1.1,0-1.9c0-0.8,0-1.8,0-2.3
	c0-0.5,0.1-0.7,0.1-1.3c0-0.6-0.2-1.5-0.4-2.5c-0.2-1-0.1-1.3-0.1-1.3s0.1,0.5,0.2,0.8c0.1,0.2,0.2,0.8,0.3,1.2
	c0.1,0.4,0.2,1.3,0.3,2.1c0.1,0.8,0.2,1.4,0.4,2.1c0.2,0.8,0.5,1.8,0.6,2.6c0.1,0.8,0,1.8-0.1,2.2c-0.1,0.3-0.1,0.5-0.1,0.8
	c0.1,0.2,0,0.6,0,0.9c0,0.3-0.1,0.8,0,1.3c0.1,0.5,0,1.3,0,1.3s-0.1,0.5-0.2,0.7c-0.1,0.3-0.3,0.7-0.3,0.8s0.1,0.4,0.3,0.4
	c0.2,0,0.2,0,1-0.1c0.8-0.1,1.4-0.4,1.6-0.5c0.2-0.1,0.2-0.2,0.2-0.2c0-0.3-0.1-0.5-0.1-0.7c0-0.2,0-0.8,0-1.3
	c0-0.5,0.1-0.8,0.1-1.1c0.1-0.3,0-0.6-0.1-0.9c-0.2-0.3-0.4-0.5-0.4-0.5s0,0,0-0.4c-0.1-0.3-0.3-0.5-0.2-1.5c0-1,0.1-1.5,0.2-3.6
	c0.1-2,0.2-2.5,0-4c-0.2-1.5-0.9-2.9-1-3.3c-0.1-0.4-0.1-0.8-0.1-1.8c0-1,0.3-2.3,0.3-2.3s0.9,0.1,1,0s0.1-0.3,0.1-0.3
	s0.7,0,0.8-0.1c0.1-0.1,0.1-0.3,0.1-0.3c0.2-0.2,0.3-0.2,0.2-0.6c-0.1-0.4-0.5-1.4-0.5-1.4s-0.1-0.6-0.1-1.7c0-1,0-2.5,0-3.2
	s-0.1-1.6-0.2-2.5c-0.2-0.8-0.4-2.4-0.5-2.7c0-0.3-0.1-0.5-0.1-0.5s0.1,0.1,0.2,0.1c0.1,0,0.5-0.1,0.8-0.1c0.3-0.1,0.5-0.1,0.7-0.2
	c0.2-0.1,0.4-0.1,1.7-0.6c1.2-0.5,1.8-0.9,2.4-1.3c0.6-0.4,1.4-0.8,1.6-0.9c0.2-0.1,0.5-0.1,0.6-0.4C55.7,33.9,55.7,33.6,55.6,33.3z
	 M40.9,34.4c0,0.4,0,0.6,0,0.7c0,0.1-0.1,0.4-0.1,0.4s-0.1-0.1-0.2-0.1c-0.1,0-0.2,0-0.2,0.1c0,0.1-0.1,0.2-0.1,0.2s0,0-0.1,0.1
	C40,35.9,40,36,39.9,36c-0.1,0-0.2-0.1-0.3-0.1c-0.1,0-0.2,0.2-0.2,0.2c0,0.1,0,0.1-0.2,0.1S39,36.2,39,36.4c0,0-0.1,0-0.1-0.1
	c0-0.1,0-0.5-0.1-0.8c-0.1-0.3-0.2-0.3-0.2-0.5c0-0.2,0-0.5,0-0.6c0-0.1,0.2-0.4,0.4-0.7c0.2-0.3,0.7-1,0.9-1.3
	c0.2-0.2,0.3-0.4,0.3-0.4s0.1,0.2,0.2,0.4c0.1,0.2,0.5,0.8,0.5,1.1C40.9,33.8,40.9,34.1,40.9,34.4z M52.6,33.7
	c-0.2,0.2-1.1,0.9-1.5,1.2c-0.4,0.3-1,0.5-1.3,0.7c-0.3,0.2-0.7,0.4-0.9,0.5c-0.2,0.1-0.3,0.2-0.5,0.1c-0.2,0-0.7-0.3-0.9-0.4
	c-0.2-0.1-0.4-0.3-0.4-0.3s0-0.1,0-0.2c0,0,0.1-0.1,0.1-0.2c0-0.1,0-0.2,0-0.3c0.1-0.1,0.2-0.2,0.2-0.4c0-0.2,0-0.4,0.1-0.5
	c0.1-0.1,0.3-0.8,0.4-1.1c0.1-0.2,0.2-0.8,0.3-1.1c0.1-0.3,0.2-0.8,0.3-1.1c0.1-0.2,0.3-0.9,0.3-1c0,0,0.1-0.1,0.2-0.1
	c0.1,0,0.3,0,0.5,0.3c0.2,0.2,0.9,0.9,1.4,1.2c0.4,0.4,1.1,1.2,1.5,1.6c0.4,0.4,0.5,0.5,0.5,0.5S52.8,33.5,52.6,33.7z"/>
</svg>
