<?xml version="1.0" encoding="utf-8"?>
<!-- Generator: Adobe Illustrator 21.1.0, SVG Export Plug-In . SVG Version: 6.00 Build 0)  -->
<svg version="1.1" id="Слой_1" xmlns="http://www.w3.org/2000/svg" xmlns:xlink="http://www.w3.org/1999/xlink" x="0px" y="0px"
	 viewBox="0 0 91.1 91" style="enable-background:new 0 0 91.1 91;" xml:space="preserve">
<style type="text/css">
	.st0{fill:#272425;}
</style>
<path class="st0" d="M61.5,26.4c-0.2-0.5-0.6-1.4-1.3-2c-0.6-0.6-1.3-1.4-1.7-2s-2-1.9-2.4-2.2c-0.3-0.3-0.9-1.4-1.9-2.5
	c-0.9-1.1-1.9-1.9-2.4-2.2c-0.5-0.5-1.3-0.6-1.6-0.6c-0.3-0.2-0.8-0.2-0.8-0.2c-0.2,0-0.3,0-0.6,0c-0.3,0.2-0.5,0.2-0.8,0
	c-0.3-0.2-0.5,0-0.5,0c-0.8-0.2-1.4-0.6-1.4-0.6s0.2-0.3,0-0.8c0-0.5-0.3-1.6-0.3-1.6s0-0.3-0.2-0.9s-0.5-1.4-0.5-1.4
	s0.3-0.3,0.5-0.6c0.2-0.3,0.2-1.3,0-1.6c0-0.3-0.3-0.3-0.3-0.3s0-0.3,0-0.6c0-0.5,0-1.3-0.3-1.9c-0.3-0.6-0.9-1.3-1.4-1.7
	c-0.5-0.5-1.4-0.5-1.7-0.6c-0.3,0-0.6,0-0.9,0c-0.2,0-0.5,0.2-0.9,0.3c-0.5,0.2-1.1,0.6-1.4,0.9c-0.3,0.5-0.6,1.1-0.8,1.3
	c-0.2,0.2-0.3,0.8-0.3,1.4S38,6.9,38,7.2c0,0.3,0.2,0.5,0.2,0.6c0,0.2,0,0.9,0,1.3c0,0.3,0.2,0.8,0.3,0.9c0.2,0.3,0.3,0.8,0.5,1.1
	c0.2,0.3,0.3,0.8,0.6,0.9c0.3,0.2,0.8,0.8,0.8,0.8s0,0.3,0.2,0.6c0,0.3,0,0.8,0,1.3c-0.2,0.6-0.6,0.9-0.6,0.9
	c-0.2,0-0.2,0.2-0.6,0.2c-0.3,0-0.9,0-1.3,0.2c-0.3,0-0.5,0.2-0.5,0.2s-0.9,0.5-1.4,0.9c-0.5,0.5-0.8,1.3-1.4,2.5
	c-0.5,1.3-0.6,2.2-0.8,2.7c-0.2,0.5-0.8,1.6-1.1,2.4c-0.3,0.8-0.9,1.9-1.1,2.2c-0.2,0.5-0.2,0.5-0.3,0.8c-0.2,0.3-0.2,0.9-0.2,1.1
	s0,0.6,0.3,1.1c0.3,0.5,0.5,0.8,0.8,1.3c0.3,0.5,0.8,1.4,0.9,1.6s0.2,0.3,0.3,0.5c0.2,0.2,0,0.3,0.3,0.5c0.3,0.2,0.9,0,0.9,0
	c0.2,0,0.3,0,0.3,0c0.2,0,0.3,0,0.3,0s0.5,0.8,0,1.7c-0.3,0.8-0.6,2.8-0.6,2.8s-0.5,1.1-1.1,2.4c-0.6,1.3-1.4,3.9-1.9,5.2
	c-0.5,1.3-1.6,3.1-2,4.2c-0.5,1.1-1.6,2.8-1.4,2.8c0,0,2.4,0.9,3.3,1.3c0.8,0.3,1.7,0.5,1.7,0.5s0,0.2-0.2,0.3
	c0,0.2,0.2,0.2,0.5,0.3c0.5,0.2,1.6,0.3,2.4,0.3s1.3,0.2,1.6,0.2c0.3,0.2,0.5,0.2,0.5,0.2s0.2,0.5,0.3,1.3c0.2,0.8,0.3,1.3,0.3,2
	c0.2,0.8,0.3,1.4,0.5,1.9c0.2,0.6,0.2,1.6,0,2.5c0,0.9,0.3,3.3,0.6,4.2c0.3,0.9,0.9,4.9,1.3,6.4c0.3,1.6,0.9,3.3,0.9,3.9
	c0.2,0.6,0.2,1.3,0.2,2c0.2,0.8,0,0.8-0.2,1.4c-0.2,0.5-0.2,0.9-0.3,1.3c-0.2,0.3-0.3,1.4-0.5,1.7c-0.2,0.5-0.5,0.9-0.5,1.4
	s0,1.1,0.2,1.3c0.2,0.2,1.3,0.3,1.9,0.3s1.7-0.2,1.9-0.5c0.2-0.3,0.2-0.8,0.2-1.4c0-0.5,0-0.9,0.2-1.4s0.2-0.8,0.3-1.3
	c0-0.5,0.2-0.8,0.3-1.3c0.2-0.5-0.2-0.8-0.2-1.3c-0.2-0.5-0.5-1.1-0.5-1.1c0-0.5-0.2-0.8-0.3-1.1c-0.2-0.3-0.2-0.8-0.3-1.7
	c0-1.1-0.2-1.7,0-3c0-1.3,0-2.8,0-3.6s0.2-1.1,0.2-2c0-0.9-0.3-2.4-0.6-3.9c-0.3-1.6-0.2-2-0.2-2s0.2,0.8,0.3,1.3
	c0.2,0.3,0.3,1.3,0.5,1.9c0.2,0.6,0.3,2,0.5,3.3s0.3,2.2,0.6,3.3c0.3,1.3,0.8,2.8,0.9,4.1s0,2.8-0.2,3.5c-0.2,0.5-0.2,0.8-0.2,1.3
	c0.2,0.3,0,0.9,0,1.4s-0.2,1.3,0,2c0.2,0.8,0,2,0,2S46.1,86.7,46,87c-0.2,0.5-0.5,1.1-0.5,1.3s0.2,0.6,0.5,0.6c0.3,0,0.3,0,1.6-0.2
	c1.3-0.2,2.2-0.6,2.5-0.8c0.3-0.2,0.3-0.3,0.3-0.3c0-0.5-0.2-0.8-0.2-1.1s0-1.3,0-2s0.2-1.3,0.2-1.7c0.2-0.5,0-0.9-0.2-1.4
	c-0.3-0.5-0.6-0.8-0.6-0.8s0,0,0-0.6c-0.2-0.5-0.5-0.8-0.3-2.4c0-1.6,0.2-2.4,0.3-5.7c0.2-3.1,0.3-3.9,0-6.3
	c-0.3-2.4-1.4-4.6-1.6-5.2c-0.2-0.6-0.2-1.3-0.2-2.8s0.5-3.6,0.5-3.6s1.4,0.2,1.6,0c0.2-0.2,0.2-0.5,0.2-0.5s1.1,0,1.3-0.2
	s0.2-0.5,0.2-0.5c0.3-0.3,0.5-0.3,0.3-0.9c-0.2-0.6-0.8-2.2-0.8-2.2s-0.2-0.9-0.2-2.7c0-1.6,0-3.9,0-5c0-1.1-0.2-2.5-0.3-3.9
	c-0.3-1.3-0.6-3.8-0.8-4.2c0-0.5-0.2-0.8-0.2-0.8s0.2,0.2,0.3,0.2c0.2,0,0.8-0.2,1.3-0.2c0.5-0.2,0.8-0.2,1.1-0.3
	c0.3-0.2,0.6-0.2,2.7-0.9c1.9-0.8,2.8-1.4,3.8-2c0.9-0.6,2.2-1.3,2.5-1.4c0.3-0.2,0.8-0.2,0.9-0.6C61.7,27.3,61.7,26.9,61.5,26.4z
	 M38.4,28.1c0,0.6,0,0.9,0,1.1c0,0.2-0.2,0.6-0.2,0.6s-0.2-0.2-0.3-0.2c-0.2,0-0.3,0-0.3,0.2c0,0.2-0.2,0.3-0.2,0.3s0,0-0.2,0.2
	c-0.3,0.2-0.3,0.3-0.5,0.3s-0.3-0.2-0.5-0.2s-0.3,0.3-0.3,0.3c0,0.2,0,0.2-0.3,0.2c-0.3,0-0.3,0-0.3,0.3c0,0-0.2,0-0.2-0.2
	s0-0.8-0.2-1.3c-0.2-0.5-0.3-0.5-0.3-0.8s0-0.8,0-0.9c0-0.2,0.3-0.6,0.6-1.1c0.3-0.5,1.1-1.6,1.4-2c0.3-0.3,0.5-0.6,0.5-0.6
	s0.2,0.3,0.3,0.6c0.2,0.3,0.8,1.3,0.8,1.7C38.4,27.2,38.4,27.7,38.4,28.1z M56.8,27c-0.3,0.3-1.7,1.4-2.4,1.9
	c-0.6,0.5-1.6,0.8-2,1.1c-0.5,0.3-1.1,0.6-1.4,0.8c-0.3,0.2-0.5,0.3-0.8,0.2c-0.3,0-1.1-0.5-1.4-0.6c-0.3-0.2-0.6-0.5-0.6-0.5
	s0-0.2,0-0.3c0,0,0.2-0.2,0.2-0.3c0-0.2,0-0.3,0-0.5c0.2-0.2,0.3-0.3,0.3-0.6s0-0.6,0.2-0.8c0.2-0.2,0.5-1.3,0.6-1.7
	c0.2-0.3,0.3-1.3,0.5-1.7c0.2-0.5,0.3-1.3,0.5-1.7c0.2-0.3,0.5-1.4,0.5-1.6c0,0,0.2-0.2,0.3-0.2c0.2,0,0.5,0,0.8,0.5
	c0.3,0.3,1.4,1.4,2.2,1.9c0.6,0.6,1.7,1.9,2.4,2.5c0.6,0.6,0.8,0.8,0.8,0.8S57.1,26.7,56.8,27z"/>
</svg>
