<svg xmlns="http://www.w3.org/2000/svg" xmlns:xlink="http://www.w3.org/1999/xlink" width="91" height="91" viewBox="0 0 91 91"><defs><path id="rk95a" d="M1290.1 1526.1a44 44 0 1 1 0 88 44 44 0 0 1 0-88z"/><path id="rk95c" d="M1287.45 1557.05c0-1.7 1.37-3.08 3.05-3.08a3.06 3.06 0 0 1 3.04 3.08c0 1.7-1.36 3.07-3.04 3.07a3.06 3.06 0 0 1-3.05-3.07zm.22 4.29c.13-.04 5.53-.04 5.66 0a2.5 2.5 0 0 1 1.88 1.46l3.4 7.84c.2.47.15 1.01-.13 1.44a1.5 1.5 0 0 1-2.64-.22l-1.98-5.16.06 2.7c.04 1.42.32 2.83.82 4.16l1.8 4.78c-.67.2-1.34.35-2 .47v5.56c0 .9-.72 1.64-1.61 1.66a1.69 1.69 0 0 1-1.68-1.7v-5.15c-.53.02-1.04.02-1.52 0v5.19c0 .9-.72 1.63-1.62 1.66a1.69 1.69 0 0 1-1.68-1.7v-5.49c-1.29-.23-2.05-.5-2.05-.5l1.43-3.79c.73-1.94 1.14-4 1.22-6.07l.06-1.69-1.93 5.07c-.25.55-.78.91-1.39.91-.5 0-.98-.26-1.26-.69a1.53 1.53 0 0 1-.12-1.44l3.4-7.84a2.5 2.5 0 0 1 1.88-1.46zm21.7 26.54c.33.34.33.89 0 1.23a26.46 26.46 0 0 1-18.92 7.89c-14.46 0-26.24-11.64-26.69-26.1l-4.3 4.32a.85.85 0 0 1-1.2 0 .87.87 0 0 1 0-1.22l6.75-6.82 6.76 6.82c.34.33.34.88 0 1.22a.86.86 0 0 1-1.22 0l-5.1-5.14c.02 13.88 11.23 25.18 25.01 25.18 6.68 0 12.96-2.62 17.69-7.38a.85.85 0 0 1 1.21 0zm13.38-21.88l-6.76 6.82-6.77-6.82a.88.88 0 0 1 0-1.23.86.86 0 0 1 1.22 0l5.1 5.15c0-13.89-11.23-25.18-25-25.18a24.75 24.75 0 0 0-17.69 7.38.85.85 0 0 1-1.22 0 .87.87 0 0 1 0-1.23 26.46 26.46 0 0 1 18.91-7.89c14.46 0 26.24 11.64 26.7 26.1l4.29-4.32a.86.86 0 0 1 1.21 0c.34.34.34.89 0 1.22z"/><clipPath id="rk95b"><use fill="#29282e" xlink:href="#rk95a"/></clipPath></defs><g><g transform="translate(-1245 -1525)"><use fill="#29282e" fill-opacity="0" stroke="#29282e" stroke-miterlimit="50" stroke-width="4" clip-path="url(&quot;#rk95b&quot;)" xlink:href="#rk95a"/></g><g transform="translate(-1245 -1525)"><use fill="#29282e" xlink:href="#rk95c"/></g></g></svg>