<?xml version="1.0" encoding="utf-8"?>
<!-- Generator: Adobe Illustrator 21.1.0, SVG Export Plug-In . SVG Version: 6.00 Build 0)  -->
<svg version="1.1" id="Слой_1" xmlns="http://www.w3.org/2000/svg" xmlns:xlink="http://www.w3.org/1999/xlink" x="0px" y="0px"
	 viewBox="0 0 91 91" style="enable-background:new 0 0 91 91;" xml:space="preserve">
<style type="text/css">
	.st0{fill:#29282E;}
</style>
<g>
	<g transform="translate(-1245 -1525)">
		<g>
			<path id="rk95c" class="st0" d="M1286.4,1552.5c0-2.3,1.8-4.2,4.1-4.2c2.3,0,4.1,1.9,4.1,4.2v0c0,2.3-1.8,4.1-4.1,4.1
				C1288.2,1556.7,1286.4,1554.8,1286.4,1552.5L1286.4,1552.5z M1286.7,1558.3c0.2-0.1,7.5-0.1,7.6,0c1.1,0.2,2.1,0.9,2.5,2
				l4.6,10.6c0.3,0.6,0.2,1.4-0.2,1.9c-0.6,0.9-1.9,1.2-2.8,0.6c-0.3-0.2-0.6-0.5-0.8-0.9l-2.7-7l0.1,3.6c0.1,1.9,0.4,3.8,1.1,5.6
				l2.4,6.5c-0.9,0.3-1.8,0.5-2.7,0.6v7.5c0,1.2-1,2.2-2.2,2.2c-1.3,0-2.3-1-2.3-2.3c0,0,0,0,0,0v-7c-0.7,0-1.4,0-2.1,0v7
				c0,1.2-1,2.2-2.2,2.2c-1.3,0-2.3-1-2.3-2.3c0,0,0,0,0,0v-7.4c-1.7-0.3-2.8-0.7-2.8-0.7l1.9-5.1c1-2.6,1.5-5.4,1.6-8.2l0.1-2.3
				l-2.6,6.8c-0.3,0.7-1.1,1.2-1.9,1.2c-0.7,0-1.3-0.4-1.7-0.9c-0.4-0.6-0.4-1.3-0.2-1.9l4.6-10.6
				C1284.6,1559.2,1285.6,1558.5,1286.7,1558.3L1286.7,1558.3z M1316,1594.1c0.4,0.5,0.4,1.2,0,1.7c-6.7,6.8-15.9,10.7-25.5,10.7
				c-19.5,0-35.4-15.7-36-35.2l-5.8,5.8c-0.4,0.4-1.2,0.4-1.6,0c-0.4-0.5-0.4-1.2,0-1.6l9.1-9.2l9.1,9.2c0.5,0.4,0.5,1.2,0,1.6
				c-0.5,0.5-1.2,0.5-1.6,0c0,0,0,0,0,0l-6.9-6.9c0,18.7,15.2,34,33.8,34c9,0,17.5-3.5,23.9-10
				C1314.8,1593.7,1315.5,1593.7,1316,1594.1C1316,1594.1,1316,1594.1,1316,1594.1L1316,1594.1z M1334,1564.6l-9.1,9.2l-9.1-9.2
				c-0.5-0.5-0.5-1.2,0-1.7c0.5-0.5,1.2-0.5,1.6,0c0,0,0,0,0,0l6.9,7c0-18.8-15.2-34-33.8-34c-9,0-17.6,3.6-23.9,10
				c-0.4,0.5-1.2,0.5-1.6,0c0,0,0,0,0,0c-0.5-0.5-0.5-1.2,0-1.7c6.7-6.8,15.9-10.7,25.5-10.7c19.5,0,35.4,15.7,36.1,35.2l5.8-5.8
				c0.5-0.4,1.2-0.4,1.6,0C1334.5,1563.4,1334.5,1564.2,1334,1564.6L1334,1564.6z"/>
		</g>
	</g>
</g>
</svg>
