<svg xmlns="http://www.w3.org/2000/svg" xmlns:xlink="http://www.w3.org/1999/xlink" width="90" height="90" viewBox="0 0 90 90">
  <defs>
    <style>
      .cls-1 {
        filter: url(#filter);
      }

      .cls-2 {
        fill: none;
        stroke: #fff;
        stroke-width: 2px;
      }

      .cls-3 {
        fill-rule: evenodd;
      }
    </style>
    <filter id="filter" filterUnits="userSpaceOnUse">
      <feFlood result="flood" flood-color="#29282e"/>
      <feComposite result="composite" operator="in" in2="SourceGraphic"/>
      <feBlend result="blend" in2="SourceGraphic"/>
    </filter>
  </defs>
  <g id="Repair" class="cls-1">
    <circle id="elipse" class="cls-2" cx="45" cy="45" r="44"/>
    <path id="Фигура_2" data-name="Фигура 2" class="cls-3" d="M650.425,954.55c-4.783-.756-10.6-4.081-12.886-5.476l-2.822-1.724-2.816,1.732c-2.27,1.4-8.069,4.723-12.888,5.471l-4.707.73,0.012,4.908a59.081,59.081,0,0,0,2.5,17.58,39.2,39.2,0,0,0,6.522,12.6A29.291,29.291,0,0,0,632.177,998l2.52,1.358,2.534-1.327a28.375,28.375,0,0,0,8.789-7.476,38.822,38.822,0,0,0,6.536-12.592,60.255,60.255,0,0,0,2.549-17.756l0.026-4.908Zm1.542,5.635a56.949,56.949,0,0,1-2.395,16.772A35.579,35.579,0,0,1,643.6,988.5a25.123,25.123,0,0,1-7.785,6.644l-1.093.573-1.085-.585a26.081,26.081,0,0,1-7.858-6.8,35.92,35.92,0,0,1-5.97-11.558,55.763,55.763,0,0,1-2.348-16.588l0-2.115,2.029-.315c5.371-.834,11.6-4.4,14.028-5.892l1.214-.746,1.216,0.743c2.439,1.49,8.686,5.048,14.011,5.89l2.028,0.322Zm-17.234,32.771a23.543,23.543,0,0,1-7.116-6.176,33.508,33.508,0,0,1-5.553-10.766,53.278,53.278,0,0,1-2.23-15.837c5.74-.892,12.19-4.549,14.892-6.21,2.711,1.657,9.175,5.305,14.863,6.205a54.4,54.4,0,0,1-2.277,16.026,33.165,33.165,0,0,1-5.554,10.744A22.643,22.643,0,0,1,634.733,992.956Z" transform="translate(-590 -928)"/>
  </g>
</svg>
