<?xml version="1.0" encoding="utf-8"?>
<!-- Generator: Adobe Illustrator 22.1.0, SVG Export Plug-In . SVG Version: 6.00 Build 0)  -->
<svg version="1.1" id="Слой_1" xmlns="http://www.w3.org/2000/svg" xmlns:xlink="http://www.w3.org/1999/xlink" x="0px" y="0px"
	 viewBox="0 0 154 134" style="enable-background:new 0 0 154 134;" xml:space="preserve">
<style type="text/css">
	.st0{fill-rule:evenodd;clip-rule:evenodd;fill:#81AA40;}
	.st1{display:none;}
	.st2{display:inline;fill:#FFFFFF;}
	.st3{font-family:'Montserrat-Bold';}
	.st4{font-size:14.6328px;}
	.st5{fill:#FFFFFF;}
</style>
<g>
	<path class="st0" d="M6.9,18.8h83.7c1.8,0,3.2,1.6,3.2,3.3v57.1c0,1.8-1.5,3.2-3.2,3.2H49.7c-1.4,0-2.6-0.4-3.7-1.1
		c-7.2-5-17-5-24.4,0c-1.1,0.8-2.3,1.1-3.7,1.1H6.9c-1.8,0-3.3-1.5-3.3-3.2V22.1C3.6,20.3,5.1,18.8,6.9,18.8L6.9,18.8z"/>
	<path class="st0" d="M100.3,79.3V31.6c0-1.8,1.2-3.2,3-3.2h35.1c4.2,0,4.2,6.5,0,6.5h-6.4l3.6,21.8c0.3,1.7,1.6,3,3.4,3.2l9.2,0.9
		c1.6,0.2,2.8,1.5,2.8,3.1l0,2.3h-4.3c-2.9,0-2.9,4.3,0,4.3h4.3l0,8.7c0,1.8-1.4,3.2-3.2,3.2h-11.8c-1.4,0-2.6-0.4-3.7-1.1
		c-3.4-2.3-7.5-3.7-12.2-3.7c-4.5,0-8.7,1.4-12.1,3.7c-1.1,0.8-2.3,1.1-3.7,1.1h-1.2C101.5,82.5,100.3,81,100.3,79.3L100.3,79.3z
		 M129.3,56.3l-3.6-21.5h-19.4v19.9c0,1,0.7,1.8,1.7,1.9l19.2,1.9C128.5,58.7,129.5,57.6,129.3,56.3L129.3,56.3z M6.7,88.9h5.5
		c1.2,0,1.9,1.2,1.5,2.2c-1.3,3.2-1.8,6.6-1.5,10.1c0.1,1-0.7,1.8-1.6,1.8h-4c-1.8,0-3.2-1.5-3.2-3.3v-7.5C3.6,90.4,5,88.9,6.7,88.9
		L6.7,88.9z M55.4,88.9h43.3c1.2,0,1.9,1.2,1.5,2.2c-1.3,3.2-1.8,6.6-1.5,10.1c0.1,1-0.7,1.8-1.6,1.8H57c-1,0-1.7-0.8-1.6-1.8
		c0.3-3.4-0.3-6.9-1.5-10.1C53.4,90.1,54.2,88.9,55.4,88.9L55.4,88.9z M148,88.9c1.8,0,3.2,1.5,3.2,3.3v7.5c0,1.8-1.4,3.3-3.2,3.3
		h-4.5c-1,0-1.7-0.8-1.6-1.8c0.3-3.4-0.3-6.9-1.5-10.1c-0.4-1.1,0.4-2.2,1.5-2.2H148L148,88.9z M33.8,92.8c5.7,0,8.6,6.9,4.5,10.9
		c-4,4-10.9,1.1-10.9-4.5C27.4,95.7,30.3,92.8,33.8,92.8L33.8,92.8z M120.3,92.8c5.7,0,8.6,6.9,4.5,10.9c-4,4-10.9,1.1-10.9-4.5
		C113.9,95.7,116.7,92.8,120.3,92.8L120.3,92.8z M120.3,83c14.4,0,21.7,17.5,11.4,27.7c-10.2,10.2-27.7,2.9-27.7-11.5
		C104,90.3,111.3,83,120.3,83L120.3,83z M33.8,83c14.4,0,21.7,17.5,11.4,27.7c-10.2,10.2-27.7,2.9-27.7-11.5
		C17.6,90.3,24.9,83,33.8,83L33.8,83z"/>
</g>
<text transform="matrix(1 0 0 1 10.7144 45.6982)" class="st1"><tspan x="0" y="0" class="st2 st3 st4">FREE USA </tspan><tspan x="0" y="17.6" class="st2 st3 st4">SHIPPING </tspan></text>
<g>
	<path class="st5" d="M14.3,37.4v2.7H19V42h-4.7v3.7h-2.4V35.5h7.7v1.9H14.3z"/>
	<path class="st5" d="M27.8,45.7l-2-2.9h-0.1h-2.1v2.9h-2.4V35.5h4.4c0.9,0,1.7,0.2,2.4,0.5c0.7,0.3,1.2,0.7,1.5,1.3
		c0.4,0.6,0.5,1.2,0.5,2c0,0.8-0.2,1.4-0.5,2c-0.4,0.6-0.9,1-1.6,1.3l2.3,3.3H27.8z M27.2,37.8c-0.4-0.3-0.9-0.5-1.6-0.5h-1.9V41
		h1.9c0.7,0,1.3-0.2,1.6-0.5c0.4-0.3,0.6-0.8,0.6-1.3C27.8,38.6,27.6,38.2,27.2,37.8z"/>
	<path class="st5" d="M40,43.8v1.9H32V35.5h7.7v1.9h-5.4v2.2h4.8v1.8h-4.8v2.4H40z"/>
	<path class="st5" d="M49.8,43.8v1.9h-7.9V35.5h7.7v1.9h-5.4v2.2H49v1.8h-4.8v2.4H49.8z"/>
	<path class="st5" d="M56.9,44.7c-0.8-0.8-1.2-2-1.2-3.5v-5.7h2.4v5.6c0,1.8,0.8,2.8,2.3,2.8c0.7,0,1.3-0.2,1.7-0.7
		c0.4-0.4,0.6-1.1,0.6-2.1v-5.6H65v5.7c0,1.5-0.4,2.7-1.2,3.5c-0.8,0.8-2,1.2-3.4,1.2C58.9,45.9,57.8,45.5,56.9,44.7z"/>
	<path class="st5" d="M68.4,45.5c-0.8-0.2-1.4-0.5-1.8-0.9l0.8-1.8c0.4,0.3,1,0.6,1.6,0.8c0.6,0.2,1.2,0.3,1.8,0.3
		c0.7,0,1.2-0.1,1.5-0.3c0.3-0.2,0.5-0.5,0.5-0.8c0-0.2-0.1-0.4-0.3-0.6c-0.2-0.2-0.4-0.3-0.7-0.4c-0.3-0.1-0.7-0.2-1.2-0.3
		c-0.8-0.2-1.4-0.4-1.9-0.6c-0.5-0.2-0.9-0.5-1.3-0.9c-0.4-0.4-0.5-1-0.5-1.6c0-0.6,0.2-1.1,0.5-1.6c0.3-0.5,0.8-0.9,1.5-1.1
		c0.6-0.3,1.4-0.4,2.4-0.4c0.7,0,1.3,0.1,1.9,0.2c0.6,0.2,1.2,0.4,1.6,0.7L73.9,38c-0.9-0.5-1.9-0.8-2.8-0.8c-0.7,0-1.2,0.1-1.5,0.3
		c-0.3,0.2-0.5,0.5-0.5,0.8s0.2,0.6,0.5,0.8c0.4,0.2,0.9,0.3,1.7,0.5c0.8,0.2,1.4,0.4,1.9,0.6c0.5,0.2,0.9,0.5,1.3,0.9
		c0.4,0.4,0.5,0.9,0.5,1.6c0,0.6-0.2,1.1-0.5,1.6c-0.3,0.5-0.8,0.9-1.5,1.1c-0.7,0.3-1.4,0.4-2.4,0.4C69.9,45.9,69.1,45.8,68.4,45.5
		z"/>
	<path class="st5" d="M83.4,43.5h-4.8l-0.9,2.2h-2.4l4.6-10.2h2.3l4.6,10.2h-2.5L83.4,43.5z M82.7,41.7l-1.6-3.9l-1.6,3.9H82.7z"/>
	<path class="st5" d="M12.9,63.1c-0.8-0.2-1.4-0.5-1.8-0.9l0.8-1.8c0.4,0.3,1,0.6,1.6,0.8c0.6,0.2,1.2,0.3,1.8,0.3
		c0.7,0,1.2-0.1,1.5-0.3c0.3-0.2,0.5-0.5,0.5-0.8c0-0.2-0.1-0.4-0.3-0.6c-0.2-0.2-0.4-0.3-0.7-0.4c-0.3-0.1-0.7-0.2-1.2-0.3
		c-0.8-0.2-1.4-0.4-1.9-0.6c-0.5-0.2-0.9-0.5-1.3-0.9c-0.4-0.4-0.5-1-0.5-1.6c0-0.6,0.2-1.1,0.5-1.6c0.3-0.5,0.8-0.9,1.5-1.1
		c0.6-0.3,1.4-0.4,2.4-0.4c0.7,0,1.3,0.1,1.9,0.2c0.6,0.2,1.2,0.4,1.6,0.7l-0.7,1.8c-0.9-0.5-1.9-0.8-2.8-0.8
		c-0.7,0-1.2,0.1-1.5,0.3c-0.3,0.2-0.5,0.5-0.5,0.8s0.2,0.6,0.5,0.8c0.4,0.2,0.9,0.3,1.7,0.5c0.8,0.2,1.4,0.4,1.9,0.6
		c0.5,0.2,0.9,0.5,1.3,0.9c0.4,0.4,0.5,0.9,0.5,1.6c0,0.6-0.2,1.1-0.5,1.6c-0.3,0.5-0.8,0.9-1.5,1.1c-0.7,0.3-1.4,0.4-2.4,0.4
		C14.5,63.4,13.7,63.3,12.9,63.1z"/>
	<path class="st5" d="M30.7,53v10.2h-2.4v-4.2h-4.7v4.2h-2.4V53h2.4v4h4.7v-4H30.7z"/>
	<path class="st5" d="M33.1,53h2.4v10.2h-2.4V53z"/>
	<path class="st5" d="M44.7,53.5c0.7,0.3,1.2,0.7,1.5,1.3c0.4,0.6,0.5,1.2,0.5,2c0,0.8-0.2,1.4-0.5,2s-0.9,1-1.5,1.3
		c-0.7,0.3-1.5,0.4-2.4,0.4h-2.1v2.8h-2.4V53h4.4C43.2,53,44,53.2,44.7,53.5z M43.8,58c0.4-0.3,0.6-0.7,0.6-1.3c0-0.6-0.2-1-0.6-1.3
		c-0.4-0.3-0.9-0.5-1.6-0.5h-1.9v3.6h1.9C42.9,58.5,43.4,58.3,43.8,58z"/>
	<path class="st5" d="M55.2,53.5c0.7,0.3,1.2,0.7,1.5,1.3c0.4,0.6,0.5,1.2,0.5,2c0,0.8-0.2,1.4-0.5,2s-0.9,1-1.5,1.3
		c-0.7,0.3-1.5,0.4-2.4,0.4h-2.1v2.8h-2.4V53h4.4C53.8,53,54.6,53.2,55.2,53.5z M54.4,58c0.4-0.3,0.6-0.7,0.6-1.3
		c0-0.6-0.2-1-0.6-1.3c-0.4-0.3-0.9-0.5-1.6-0.5h-1.9v3.6h1.9C53.5,58.5,54,58.3,54.4,58z"/>
	<path class="st5" d="M59,53h2.4v10.2H59V53z"/>
	<path class="st5" d="M73.2,53v10.2h-1.9L66.2,57v6.2h-2.3V53h2l5.1,6.2V53H73.2z"/>
	<path class="st5" d="M82.6,58h2.2v4.2c-0.6,0.4-1.2,0.7-1.9,1c-0.7,0.2-1.5,0.3-2.2,0.3c-1.1,0-2-0.2-2.9-0.7
		c-0.8-0.5-1.5-1.1-2-1.9S75,59.2,75,58.1c0-1,0.2-1.9,0.7-2.7s1.2-1.4,2-1.9c0.9-0.5,1.8-0.7,2.9-0.7c0.9,0,1.7,0.2,2.4,0.5
		c0.7,0.3,1.3,0.7,1.8,1.3L83.4,56c-0.7-0.8-1.6-1.2-2.6-1.2c-0.7,0-1.2,0.1-1.7,0.4c-0.5,0.3-0.9,0.7-1.2,1.2
		c-0.3,0.5-0.4,1.1-0.4,1.7c0,0.6,0.1,1.2,0.4,1.7c0.3,0.5,0.7,0.9,1.2,1.2c0.5,0.3,1.1,0.4,1.7,0.4c0.7,0,1.3-0.1,1.8-0.4V58z"/>
</g>
<g class="st1">
	<path class="st2" d="M48.6,53.9v2.2h3.9v1.6h-3.9v3.1h-1.9v-8.4H53v1.6H48.6z"/>
	<path class="st2" d="M59.7,60.7l-1.6-2.3H58h-1.7v2.3h-1.9v-8.4H58c0.7,0,1.4,0.1,1.9,0.4s1,0.6,1.3,1.1s0.4,1,0.4,1.6
		s-0.1,1.2-0.4,1.6c-0.3,0.5-0.7,0.8-1.3,1l1.9,2.7H59.7z M59.2,54.3c-0.3-0.3-0.7-0.4-1.3-0.4h-1.6v2.9h1.6c0.6,0,1-0.1,1.3-0.4
		s0.5-0.6,0.5-1.1C59.6,54.9,59.5,54.5,59.2,54.3z"/>
	<path class="st2" d="M69.7,59.1v1.6h-6.5v-8.4h6.3v1.6h-4.4v1.8H69v1.5h-3.9v1.9H69.7z"/>
	<path class="st2" d="M77.7,59.1v1.6h-6.5v-8.4h6.3v1.6h-4.4v1.8H77v1.5h-3.9v1.9H77.7z"/>
</g>
</svg>
