<svg id="Capa_1" data-name="Capa 1" xmlns="http://www.w3.org/2000/svg" viewBox="0 0 533.35 586.31"><defs><style>.cls-1{fill:#ed1d24;}</style></defs><title>delivery</title><path class="cls-1" d="M514.19,255.4a64.54,64.54,0,1,0,64.54,64.54A64.61,64.61,0,0,0,514.19,255.4Zm0,96.81a32.27,32.27,0,1,1,32.27-32.27A32.3,32.3,0,0,1,514.19,352.21Z" transform="translate(-124.14 -29.52)"/><path class="cls-1" d="M293.68,255.4a64.54,64.54,0,1,0,64.54,64.54A64.61,64.61,0,0,0,293.68,255.4Zm0,96.81A32.27,32.27,0,1,1,326,319.94,32.3,32.3,0,0,1,293.68,352.21Z" transform="translate(-124.14 -29.52)"/><path class="cls-1" d="M557.65,70.68a16.14,16.14,0,0,0-14.42-8.89h-85V94.06h75l43.93,87.38,28.84-14.5Z" transform="translate(-124.14 -29.52)"/><rect class="cls-1" x="219.56" y="274.82" width="122.08" height="32.27"/><path class="cls-1" d="M245.28,304.35H189.35a16.13,16.13,0,1,0,0,32.26h55.93a16.13,16.13,0,1,0,0-32.26Z" transform="translate(-124.14 -29.52)"/><path class="cls-1" d="M636.11,205.71l-31.73-40.88a16.13,16.13,0,0,0-12.74-6.23H474.39V45.65a16.13,16.13,0,0,0-16.13-16.13H189.35a16.14,16.14,0,1,0,0,32.27H442.12V174.73a16.14,16.14,0,0,0,16.14,16.13H583.73l23.5,30.27v83.21H562.59a16.14,16.14,0,0,0,0,32.27h60.78a16.13,16.13,0,0,0,16.13-16.13V215.61A16.12,16.12,0,0,0,636.11,205.71Z" transform="translate(-124.14 -29.52)"/><path class="cls-1" d="M244.21,222.6H170a16.13,16.13,0,1,0,0,32.26h74.22a16.13,16.13,0,0,0,0-32.26Z" transform="translate(-124.14 -29.52)"/><path class="cls-1" d="M281.32,159.13H143.63a16.14,16.14,0,0,0,0,32.27H281.32a16.14,16.14,0,0,0,0-32.27Z" transform="translate(-124.14 -29.52)"/><path class="cls-1" d="M307.67,95.67H170a16.14,16.14,0,1,0,0,32.27H307.67a16.14,16.14,0,0,0,0-32.27Z" transform="translate(-124.14 -29.52)"/><path class="cls-1" d="M149.34,436.21v15.7h31.51v15.61H149.34V492h-20.2V420.6h56v15.61Z" transform="translate(-124.14 -29.52)"/><path class="cls-1" d="M225.84,473h-11v19h-20.2V420.6h32.64a40.76,40.76,0,0,1,16.83,3.21,26,26,0,0,1,11.27,36.72,24.43,24.43,0,0,1-10.35,9L260.41,492H238.79Zm9.58-33.76q-3.15-2.76-9.38-2.76H214.82v20.91H226q6.22,0,9.38-2.7a9.57,9.57,0,0,0,3.17-7.7A9.72,9.72,0,0,0,235.42,439.27Z" transform="translate(-124.14 -29.52)"/><path class="cls-1" d="M327.43,476.39V492H270.1V420.6h56v15.61h-36v12h31.73v15.1H290.09v13.05Z" transform="translate(-124.14 -29.52)"/><path class="cls-1" d="M396,476.39V492H338.65V420.6h56v15.61h-36v12h31.72v15.1H358.64v13.05Z" transform="translate(-124.14 -29.52)"/><path class="cls-1" d="M445.08,484.76q-8.82-8.67-8.82-24.58V420.6h20.19v39q0,17.15,13.57,17.14t13.46-17.14v-39h19.89v39.58q0,15.9-8.82,24.58t-24.73,8.67Q453.91,493.43,445.08,484.76Z" transform="translate(-124.14 -29.52)"/><path class="cls-1" d="M525.3,491.29A41.22,41.22,0,0,1,512,485.57l6.63-14.89a42.94,42.94,0,0,0,11.12,5.1,42.45,42.45,0,0,0,12.45,1.94q11.63,0,11.62-5.81c0-2-1.1-3.56-3.31-4.54a59.85,59.85,0,0,0-10.66-3.11,101.47,101.47,0,0,1-13.46-3.73,22.66,22.66,0,0,1-9.29-6.37q-3.87-4.38-3.87-11.83a20.51,20.51,0,0,1,3.57-11.79,23.88,23.88,0,0,1,10.66-8.31q7.08-3.06,17.39-3.06a61.6,61.6,0,0,1,13.87,1.58,42.66,42.66,0,0,1,12,4.64l-6.23,15q-10.2-5.5-19.78-5.51c-4,0-6.94.6-8.78,1.79a5.35,5.35,0,0,0-2.75,4.64q0,2.85,3.26,4.28a59.27,59.27,0,0,0,10.51,3,99.41,99.41,0,0,1,13.51,3.72,23.44,23.44,0,0,1,9.29,6.32c2.61,2.9,3.92,6.82,3.92,11.79A20,20,0,0,1,570.18,482a24.37,24.37,0,0,1-10.71,8.32q-7.14,3.1-17.34,3.11A66.37,66.37,0,0,1,525.3,491.29Z" transform="translate(-124.14 -29.52)"/><path class="cls-1" d="M630.87,478.13H600.68L595.07,492h-20.6L606,420.6h19.9L657.49,492h-21ZM625,463.24l-9.18-22.85-9.18,22.85Z" transform="translate(-124.14 -29.52)"/><path class="cls-1" d="M137.4,613.69A41.22,41.22,0,0,1,124.14,608l6.63-14.89a45.23,45.23,0,0,0,23.56,7q11.64,0,11.63-5.81c0-2-1.1-3.56-3.31-4.54A61,61,0,0,0,152,586.66a102.1,102.1,0,0,1-13.47-3.73,22.69,22.69,0,0,1-9.28-6.37q-3.87-4.38-3.87-11.83A20.48,20.48,0,0,1,128.94,553a23.83,23.83,0,0,1,10.66-8.32q7.08-3.06,17.39-3.06a61.6,61.6,0,0,1,13.87,1.58,42.6,42.6,0,0,1,12,4.64l-6.22,15q-10.2-5.5-19.79-5.51-6,0-8.77,1.79a5.35,5.35,0,0,0-2.75,4.64c0,1.9,1.08,3.33,3.26,4.28a59.27,59.27,0,0,0,10.51,3,99.82,99.82,0,0,1,13.51,3.72,23.33,23.33,0,0,1,9.28,6.33q3.93,4.34,3.93,11.78a20,20,0,0,1-3.57,11.62,24.37,24.37,0,0,1-10.71,8.32q-7.14,3.1-17.34,3.11A66.37,66.37,0,0,1,137.4,613.69Z" transform="translate(-124.14 -29.52)"/><path class="cls-1" d="M263.06,543v71.4H242.87V586.55H215.33V614.4h-20.2V543h20.2v26.83h27.54V543Z" transform="translate(-124.14 -29.52)"/><path class="cls-1" d="M277.34,543h20.2v71.4h-20.2Z" transform="translate(-124.14 -29.52)"/><path class="cls-1" d="M361.39,546.21a25.18,25.18,0,0,1,0,46.31,40.76,40.76,0,0,1-16.83,3.21H332.12V614.4h-20.2V543h32.64A40.76,40.76,0,0,1,361.39,546.21Zm-8.67,30.91q3.16-2.7,3.16-7.7a9.71,9.71,0,0,0-3.16-7.75q-3.17-2.76-9.38-2.76H332.12v20.91h11.22Q349.55,579.82,352.72,577.12Z" transform="translate(-124.14 -29.52)"/><path class="cls-1" d="M435.55,546.21a25.19,25.19,0,0,1,0,46.31,40.76,40.76,0,0,1-16.83,3.21H406.27V614.4H386.08V543h32.64A40.76,40.76,0,0,1,435.55,546.21Zm-8.67,30.91a9.6,9.6,0,0,0,3.16-7.7,9.75,9.75,0,0,0-3.16-7.75q-3.17-2.76-9.39-2.76H406.27v20.91h11.22Q423.72,579.82,426.88,577.12Z" transform="translate(-124.14 -29.52)"/><path class="cls-1" d="M460.23,543h20.2v71.4h-20.2Z" transform="translate(-124.14 -29.52)"/><path class="cls-1" d="M562.74,543v71.4H546.11l-31.51-38v38H494.81V543h16.62l31.52,38V543Z" transform="translate(-124.14 -29.52)"/><path class="cls-1" d="M624.86,577.17h17.85v29.58a46.49,46.49,0,0,1-14.08,6.73,55.8,55.8,0,0,1-15.91,2.35,42.5,42.5,0,0,1-20.2-4.75,35.38,35.38,0,0,1-14.07-13.2,38.62,38.62,0,0,1,0-38.36,35.16,35.16,0,0,1,14.18-13.2,43.49,43.49,0,0,1,20.5-4.75,45.55,45.55,0,0,1,18,3.37,34.58,34.58,0,0,1,13.26,9.69l-12.85,11.63q-7.25-8-17.34-8-9.18,0-14.79,5.56t-5.61,14.84a21.6,21.6,0,0,0,2.55,10.56,18.28,18.28,0,0,0,7.14,7.24,21,21,0,0,0,10.5,2.6,25.73,25.73,0,0,0,10.92-2.35Z" transform="translate(-124.14 -29.52)"/></svg>