<svg xmlns="http://www.w3.org/2000/svg" xmlns:xlink="http://www.w3.org/1999/xlink" width="90" height="90" viewBox="0 0 90 90"><defs><path id="1d2ha" d="M1047 1999a44 44 0 1 1 0 88 44 44 0 0 1 0-88z"/><path id="1d2hc" d="M1036.72 2053.2l-4.66 16.26c-.54 2.07-2.27 3.29-4.3 2.68l-.23-.06a3.47 3.47 0 0 1-2.35-4.26l4.04-14.73a89.9 89.9 0 0 1 1.32-3.97c.83-1.9 2.26-4.33 4.83-8.02a301.14 301.14 0 0 0 8.77-14.02l.01-.03 4.5-9.44s.72-2.61 3.62-3.81c2.14-.9 7.54-2.56 10.24-3.38.86-.26 1.76.25 2 1.13l.12.5c.23.88-.26 1.8-1.13 2.1l-7.58 2.6s-2.05.59-3.27 2.44c-1.23 1.86-2.6 4.96-2.6 4.96s-1.7 3.16-.14 5.33l2.87 3.09s1.1 1.3 3.9 1.27c2.18-.02 11.6-.05 15.65-.06 1.03 0 1.86.83 1.86 1.87v.52c0 1.05-.85 1.9-1.89 1.9l-17.23-.1s-2.77-.14-4.99 2.2c-.96 1.02-2.17 2.25-3.14 3.26l-1.23 1.31c-.43.46-.94 1.32-1.33 1.82-.95 1.24-.51 3.39-.16 4.82.52 2.17 3.1 11.84 4.45 16.95a3.29 3.29 0 0 1-6.32 1.81l-5.15-16.95a.25.25 0 0 0-.48 0zm24.92-26.81a5.1 5.1 0 0 1-5.08 5.11 5.1 5.1 0 0 1-5.08-5.11 5.1 5.1 0 0 1 5.08-5.12 5.1 5.1 0 0 1 5.08 5.12z"/><clipPath id="1d2hb"><use fill="#fff" xlink:href="#1d2ha"/></clipPath></defs><g><g transform="translate(-1002 -1998)"><use fill="#fff" fill-opacity="0" stroke="#29282e" stroke-miterlimit="50" stroke-width="4" clip-path="url(&quot;#1d2hb&quot;)" xlink:href="#1d2ha"/></g><g transform="translate(-1002 -1998)"><use fill="#29282e" xlink:href="#1d2hc"/></g></g></svg>