<svg xmlns="http://www.w3.org/2000/svg" xmlns:xlink="http://www.w3.org/1999/xlink" width="90" height="92" viewBox="0 0 90 92"><defs><path id="mz35a" d="M1047 1850a44 44 0 1 1 0 88 44 44 0 0 1 0-88z"/><path id="mz35c" d="M1065 1880v6s0 5-5 3l-5-2-1 11 7 23s2.07 5.23-1 6c-4 1-6-7-6-7l-6-15-.42 1c-1.96 4.66-3.9 9.34-5.9 13.98-.73 1.68-1.4 3.38-2.38 4.92a4.86 4.86 0 0 1-1.26 1.4c-.86.6-2.05.8-3.03.4a2.8 2.8 0 0 1-1.01-.7c-1.05-1.14-.9-2.3-.4-3.75l8.4-24.25-1-11s-1.87 1.31-4 2.15c-2.78 1.1-6-.15-6-3.15v-6h5v4l6-3s6-3 12 0l6 3v-4zm-21.4-5a5.5 5.5 0 1 1 9.8 0h14.6v-7a1 1 0 0 1 1-1h1a1 1 0 0 1 1 1v1h2a1 1 0 0 1 1 1v1h2a1 1 0 0 1 1 1v8a1 1 0 0 1-1 1h-2v2a1 1 0 0 1-1 1h-2v1a1 1 0 0 1-1 1h-1a1 1 0 0 1-1-1v-7h-40v7a1 1 0 0 1-1 1h-1a1 1 0 0 1-1-1v-1h-2a1 1 0 0 1-1-1v-2h-2a1 1 0 0 1-1-1v-8a1 1 0 0 1 1-1h2v-1a1 1 0 0 1 1-1h2v-1a1 1 0 0 1 1-1h1a1 1 0 0 1 1 1v7z"/><clipPath id="mz35b"><use fill="#fff" xlink:href="#mz35a"/></clipPath></defs><g><g transform="translate(-1002 -1848)"><use fill="#fff" fill-opacity="0" stroke="#29282e" stroke-miterlimit="50" stroke-width="4" clip-path="url(&quot;#mz35b&quot;)" xlink:href="#mz35a"/></g><g transform="translate(-1002 -1848)"><use fill="#29282e" xlink:href="#mz35c"/></g></g></svg>