<svg xmlns="http://www.w3.org/2000/svg" xmlns:xlink="http://www.w3.org/1999/xlink" width="90" height="90" viewBox="0 0 90 90"><defs><path id="gclna" d="M1047 1702a44 44 0 1 1 0 88 44 44 0 0 1 0-88z"/><path id="gclnc" d="M1064 1718v41h-2v-39h-9.06l-.04 1.98-15.9.02v-2l-9.02-.01.02 48.01h8v2h-10l-.01-52.01H1037V1716h16l-.03 2zm-5 10l-28.03-.02v-1l28.03.02zm-5 5l-23.03-.03v-1l23.03.03zm-3 15h-20v-1h20zm5 10h-25v-1h25zm-20 5l-5.03-.08.03-.92h5zm22-10h-27v-1h27zm1-10h-28v-1h28zm-2-5h-26v-1h26zm15.33 32.84c-.65.94-2.17 1.08-3.03 1.16h-.5c-1.38 0-2.97-.3-3.76-1.09a5.83 5.83 0 0 1-1.16-2.53 86.84 86.84 0 0 1-15.24-.07 5.46 5.46 0 0 1-1 2.53c-.66.94-2.17 1.08-3.04 1.16h-.5c-1.38 0-2.97-.3-3.76-1.09-1.88-1.88-1.88-8.17 0-10.05.87-.87 2.74-1.16 4.26-1.09.8.08 2.31.3 3.03 1.16.5.58.8 1.52 1.01 2.53a89.28 89.28 0 0 1 15.24 0c.22-.94.5-1.88 1.16-2.53.86-.87 2.74-1.16 4.26-1.08.8.07 2.3.28 3.03 1.15 1.66 2.1 1.66 7.96 0 9.84z"/><clipPath id="gclnb"><use fill="#fff" xlink:href="#gclna"/></clipPath></defs><g><g transform="translate(-1002 -1701)"><use fill="#fff" fill-opacity="0" stroke="#29282e" stroke-miterlimit="50" stroke-width="4" clip-path="url(&quot;#gclnb&quot;)" xlink:href="#gclna"/></g><g transform="translate(-1002 -1701)"><use fill="#29282e" xlink:href="#gclnc"/></g></g></svg>