<svg id="lettering_копия" data-name="lettering копия" xmlns="http://www.w3.org/2000/svg" xmlns:xlink="http://www.w3.org/1999/xlink" width="262.531" height="247.6" viewBox="0 0 262.531 247.6">
  <defs>
    <style>
      .cls-1 {
        fill: #29282e;
      }

      .cls-1, .cls-2 {
        fill-rule: evenodd;
      }

      .cls-2 {
        fill: #ed1c24;
      }

      .cls-3 {
        filter: url(#filter);
      }

      .cls-4 {
        fill: #fff;
      }
    </style>
    <filter id="filter" filterUnits="userSpaceOnUse">
      <feFlood result="flood" flood-color="#29282e"/>
      <feComposite result="composite" operator="in" in2="SourceGraphic"/>
      <feBlend result="blend" in2="SourceGraphic"/>
    </filter>
  </defs>
  <path id="Refresh" class="cls-1" d="M505.027,1961.58h12.588l-7.343-10.8a12.042,12.042,0,0,0,4.9-4.45,12.392,12.392,0,0,0,1.7-6.55,12.555,12.555,0,0,0-1.949-7,12.4,12.4,0,0,0-5.544-4.6,20.575,20.575,0,0,0-8.443-1.6H484.1v35h11.789v-8.8h3.2Zm-0.05-21.8a3.833,3.833,0,0,1-1.2,3.02,5.227,5.227,0,0,1-3.6,1.08h-4.3v-8.2h4.3a5.277,5.277,0,0,1,3.6,1.07,3.87,3.87,0,0,1,1.2,3.03h0Zm30.421,12.9v-4.6h14.786v-8.5H535.4v-4.1h16.834v-8.9H523.809v35h29.073v-8.9H535.4Zm52.95-17.2v-8.9H559.925v35h11.788v-11.2H586.3v-8.9H571.713v-6h16.635Zm27.174,26.1h12.589l-7.343-10.8a12.055,12.055,0,0,0,4.895-4.45,12.392,12.392,0,0,0,1.7-6.55,12.554,12.554,0,0,0-1.948-7,12.4,12.4,0,0,0-5.545-4.6,20.567,20.567,0,0,0-8.442-1.6H594.592v35h11.789v-8.8h3.2Zm-0.05-21.8a3.833,3.833,0,0,1-1.2,3.02,5.229,5.229,0,0,1-3.6,1.08h-4.3v-8.2h4.3a5.279,5.279,0,0,1,3.6,1.07,3.869,3.869,0,0,1,1.2,3.03h0Zm30.422,12.9v-4.6H660.68v-8.5H645.894v-4.1h16.834v-8.9H634.3v35h29.072v-8.9H645.894Zm37.564,9.7a22.583,22.583,0,0,0,8.917-1.58,12.4,12.4,0,0,0,5.52-4.25,10.257,10.257,0,0,0,1.848-5.97,8.5,8.5,0,0,0-2.023-6,11.717,11.717,0,0,0-4.771-3.18,45.774,45.774,0,0,0-6.743-1.72,28.371,28.371,0,0,1-4.446-1.13,1.723,1.723,0,0,1-1.349-1.57q0-2.2,4.546-2.2a21.583,21.583,0,0,1,9.741,2.6l3.546-8.55a22.243,22.243,0,0,0-6.119-2.28,32.759,32.759,0,0,0-7.068-.77,22.787,22.787,0,0,0-8.917,1.55,12.187,12.187,0,0,0-5.52,4.25,10.387,10.387,0,0,0-1.848,6,8.671,8.671,0,0,0,2,6.02,11.424,11.424,0,0,0,4.7,3.2,51.673,51.673,0,0,0,6.743,1.83,28.763,28.763,0,0,1,4.521,1.2,1.787,1.787,0,0,1,1.374,1.65,1.517,1.517,0,0,1-1.049,1.42,9.124,9.124,0,0,1-3.5.48,21.6,21.6,0,0,1-5.944-.88,24.31,24.31,0,0,1-5.6-2.32l-3.8,8.6a22.7,22.7,0,0,0,6.769,2.62,36.652,36.652,0,0,0,8.467.98h0Zm44.958-35.8v12.4h-10.89v-12.4H705.737v35h11.789v-12.9h10.89v12.9h11.789v-35H728.416Z" transform="translate(-479.188 -1925.78)"/>
  <path id="_Sacrificing_Flavor" data-name="  Sacrificing Flavor" class="cls-2" d="M490.284,2133.37a17.747,17.747,0,0,0,6.739-1.18,10.057,10.057,0,0,0,4.48-3.32,8.172,8.172,0,0,0,1.575-4.96,5.453,5.453,0,0,0-1.215-3.69,7.644,7.644,0,0,0-2.9-2.09,33.766,33.766,0,0,0-4.271-1.33,19.323,19.323,0,0,1-3.417-1.14,1.652,1.652,0,0,1-1.1-1.52,2.122,2.122,0,0,1,1.272-1.86,7.166,7.166,0,0,1,3.512-.72,14.646,14.646,0,0,1,3.853.51,12.422,12.422,0,0,1,3.436,1.5l2.734-5.58a14.492,14.492,0,0,0-4.252-1.7,23.019,23.019,0,0,0-5.316-.58,17.906,17.906,0,0,0-6.757,1.17,10.017,10.017,0,0,0-4.442,3.33,8.293,8.293,0,0,0-1.557,5,5.66,5.66,0,0,0,1.234,3.8,7.683,7.683,0,0,0,2.943,2.14,35.538,35.538,0,0,0,4.289,1.39,20.5,20.5,0,0,1,3.36,1.14,1.64,1.64,0,0,1,1.082,1.48,1.909,1.909,0,0,1-1.2,1.73,7.316,7.316,0,0,1-3.359.63,15.954,15.954,0,0,1-4.556-.67,16.318,16.318,0,0,1-4.29-1.95l-2.961,5.62a15.976,15.976,0,0,0,4.821,2.05,24.063,24.063,0,0,0,6.264.8h0Zm34.851-.53h7.479l-6.416-26.6h-7.4l-17.046,26.6h7.935l3.075-5.17h11.313Zm-9.073-10.72,5.087-8.62,1.784,8.62h-6.871Zm32.839,11.25a17.67,17.67,0,0,0,6.606-1.16,12.555,12.555,0,0,0,5.049-3.78l-4.442-4.37a8.346,8.346,0,0,1-6.492,3.08,6.667,6.667,0,0,1-4.745-1.64,5.63,5.63,0,0,1-1.747-4.33,10.218,10.218,0,0,1,1.082-4.73,8.2,8.2,0,0,1,3.019-3.31,8.4,8.4,0,0,1,4.479-1.19,6.434,6.434,0,0,1,5.847,3.11l5.429-4.33a9.231,9.231,0,0,0-4.252-3.7,15.362,15.362,0,0,0-6.53-1.31,17.889,17.889,0,0,0-8.656,2.05,14.813,14.813,0,0,0-5.9,5.7,16.11,16.11,0,0,0-2.107,8.21,11.437,11.437,0,0,0,1.632,6.11,10.838,10.838,0,0,0,4.67,4.13,16.166,16.166,0,0,0,7.061,1.46h0Zm40.888-18.66a7.531,7.531,0,0,0-2.81-6.23q-2.81-2.235-7.9-2.24H567.731l-5.315,26.6h7.517l1.4-7.07h3.8l3.949,7.07h7.858l-4.518-7.98a10.994,10.994,0,0,0,5.429-3.86,10.35,10.35,0,0,0,1.937-6.29h0Zm-7.593.72a4.187,4.187,0,0,1-1.367,3.35,5.782,5.782,0,0,1-3.872,1.18h-4.48l1.594-7.79h3.949a5.109,5.109,0,0,1,3.075.81,2.875,2.875,0,0,1,1.1,2.45h0Zm8.313,17.41h7.517l5.315-26.6h-7.517Zm37.813-20.79,1.177-5.81H608.694l-5.315,26.6H610.9l1.822-9.12h11.693l1.177-5.82H613.857l1.177-5.85h13.288Zm-0.57,20.79h7.517l5.315-26.6h-7.517Zm27.372,0.53a17.67,17.67,0,0,0,6.606-1.16,12.555,12.555,0,0,0,5.049-3.78l-4.442-4.37a8.345,8.345,0,0,1-6.491,3.08,6.668,6.668,0,0,1-4.746-1.64,5.633,5.633,0,0,1-1.746-4.33,10.205,10.205,0,0,1,1.082-4.73,8.192,8.192,0,0,1,3.018-3.31,8.411,8.411,0,0,1,4.48-1.19,6.434,6.434,0,0,1,5.846,3.11l5.429-4.33a9.231,9.231,0,0,0-4.252-3.7,15.362,15.362,0,0,0-6.53-1.31,17.889,17.889,0,0,0-8.656,2.05,14.813,14.813,0,0,0-5.9,5.7,16.11,16.11,0,0,0-2.107,8.21,11.437,11.437,0,0,0,1.632,6.11,10.843,10.843,0,0,0,4.67,4.13,16.166,16.166,0,0,0,7.061,1.46h0Zm13.515-.53h7.517l5.315-26.6h-7.517Zm36.066-26.6-2.885,14.55-8.808-14.55h-6.188l-5.315,26.6h7.365l2.923-14.59,8.77,14.59h6.188l5.315-26.6h-7.365Zm26.461,20.25a9.334,9.334,0,0,1-3.53.65,7.191,7.191,0,0,1-5.012-1.62,5.556,5.556,0,0,1-1.784-4.35,10.065,10.065,0,0,1,1.1-4.75,8.2,8.2,0,0,1,3.132-3.29,9.209,9.209,0,0,1,4.727-1.19,9.391,9.391,0,0,1,3.682.66,7.588,7.588,0,0,1,2.848,2.26l5.391-4.25q-3.684-4.905-11.58-4.9a18.35,18.35,0,0,0-8.807,2.05,14.9,14.9,0,0,0-5.961,5.68,15.964,15.964,0,0,0-2.126,8.23,11.335,11.335,0,0,0,1.652,6.11,10.99,10.99,0,0,0,4.669,4.13,16.047,16.047,0,0,0,7.043,1.46,19.54,19.54,0,0,0,5.713-.82,14.75,14.75,0,0,0,4.765-2.37l2.24-11.21h-6.644Zm-177.653,25.56,1.177-5.81H533.885l-5.315,26.6h7.517l1.823-9.12H549.6l1.176-5.82H539.048l1.177-5.85h13.288Zm-0.57,20.79h20.2l1.214-5.97h-12.68l4.1-20.63h-7.517Zm43.659,0h7.479l-6.416-26.6h-7.4l-17.046,26.6h7.934l3.075-5.17h11.314Zm-9.074-10.72,5.088-8.62,1.784,8.62h-6.872Zm41.724-15.88-10.858,17.29-3.8-17.29h-7.706l6.036,26.6h7.4L637,2146.24h-7.744Zm18.033,27.13a17.7,17.7,0,0,0,8.6-2.05,14.847,14.847,0,0,0,5.884-5.7,16.11,16.11,0,0,0,2.107-8.21,11.487,11.487,0,0,0-1.613-6.08,10.938,10.938,0,0,0-4.594-4.14,15.529,15.529,0,0,0-7-1.48,17.7,17.7,0,0,0-8.6,2.05,14.85,14.85,0,0,0-5.885,5.7,16.12,16.12,0,0,0-2.107,8.21,11.5,11.5,0,0,0,1.614,6.08,10.927,10.927,0,0,0,4.594,4.14,15.523,15.523,0,0,0,7,1.48h0Zm0.645-6.23a6.3,6.3,0,0,1-4.612-1.62,5.739,5.739,0,0,1-1.652-4.31,10.537,10.537,0,0,1,1.025-4.66,8.349,8.349,0,0,1,2.924-3.36,7.847,7.847,0,0,1,4.4-1.25,6.343,6.343,0,0,1,4.613,1.61,5.777,5.777,0,0,1,1.652,4.32,10.524,10.524,0,0,1-1.025,4.65,8.22,8.22,0,0,1-2.924,3.36,7.778,7.778,0,0,1-4.4,1.26h0Zm44.5-12.43a7.531,7.531,0,0,0-2.81-6.23q-2.81-2.235-7.9-2.24H670.367l-5.315,26.6h7.517l1.405-7.07h3.8l3.949,7.07h7.858l-4.518-7.98a10.994,10.994,0,0,0,5.429-3.86,10.35,10.35,0,0,0,1.937-6.29h0Zm-7.593.72a4.187,4.187,0,0,1-1.367,3.35,5.782,5.782,0,0,1-3.872,1.18h-4.48l1.594-7.79h3.949a5.109,5.109,0,0,1,3.075.81,2.875,2.875,0,0,1,1.1,2.45h0Z" transform="translate(-479.188 -1925.78)"/>
  <path id="Reset" class="cls-1" d="M515.013,2059.75h17.876l-10.428-15.34a17.035,17.035,0,0,0,6.952-6.32,17.584,17.584,0,0,0,2.412-9.3,17.836,17.836,0,0,0-2.767-9.94,17.633,17.633,0,0,0-7.874-6.53,29.2,29.2,0,0,0-11.987-2.27H485.292v49.7h16.74v-12.5h4.54Zm-0.071-30.96a5.478,5.478,0,0,1-1.7,4.3,7.482,7.482,0,0,1-5.107,1.52h-6.1v-11.64h6.1a7.431,7.431,0,0,1,5.107,1.53,5.442,5.442,0,0,1,1.7,4.29h0Zm43.2,18.32v-6.53h21v-12.07h-21v-5.83h23.9v-12.63H541.684v49.7h41.283v-12.64H558.141Zm53.341,13.77a32.1,32.1,0,0,0,12.662-2.23,17.692,17.692,0,0,0,7.838-6.04,14.58,14.58,0,0,0,2.624-8.48q0-5.4-2.872-8.52a16.566,16.566,0,0,0-6.775-4.51,65.247,65.247,0,0,0-9.576-2.45,40.35,40.35,0,0,1-6.313-1.6c-1.277-.5-1.915-1.24-1.915-2.24q0-3.12,6.455-3.12a30.777,30.777,0,0,1,13.832,3.69l5.036-12.14a31.638,31.638,0,0,0-8.689-3.23,46.155,46.155,0,0,0-10.037-1.1,32.666,32.666,0,0,0-12.662,2.2,17.334,17.334,0,0,0-7.838,6.04,14.719,14.719,0,0,0-2.625,8.52c0,3.59.946,6.45,2.838,8.55a16.36,16.36,0,0,0,6.668,4.55,74.041,74.041,0,0,0,9.576,2.59,41.49,41.49,0,0,1,6.419,1.7q1.95,0.78,1.951,2.34a2.174,2.174,0,0,1-1.49,2.03,13.086,13.086,0,0,1-4.965.67,30.946,30.946,0,0,1-8.441-1.24,34.519,34.519,0,0,1-7.945-3.3l-5.391,12.21a32.178,32.178,0,0,0,9.612,3.73,52.2,52.2,0,0,0,12.023,1.38h0Zm48.093-13.77v-6.53h21v-12.07h-21v-5.83h23.9v-12.63H643.118v49.7H684.4v-12.64H659.575Zm45.609,12.64h16.741v-36.71h14.541v-12.99H690.643v12.99h14.541v36.71Z" transform="translate(-479.188 -1925.78)"/>
  <path id="AND" class="cls-1" d="M591.987,1993.66h2.031l-8.333-18.25h-1.9l-8.333,18.25h2l2.188-4.88H589.8Zm-11.64-6.44,4.375-9.8,4.375,9.8h-8.75Zm31.327-11.81v14.81l-11.744-14.81h-1.589v18.25h1.927v-14.81l11.719,14.81h1.589v-18.25h-1.9Zm9.141,18.25h7.422a10.878,10.878,0,0,0,5.1-1.16,8.445,8.445,0,0,0,3.437-3.23,9.771,9.771,0,0,0,0-9.47,8.511,8.511,0,0,0-3.437-3.23,10.878,10.878,0,0,0-5.1-1.16h-7.422v18.25Zm1.927-1.67v-14.91h5.39a8.885,8.885,0,0,1,4.193.95,6.948,6.948,0,0,1,2.787,2.63,8.086,8.086,0,0,1,0,7.75,6.948,6.948,0,0,1-2.787,2.63,8.885,8.885,0,0,1-4.193.95h-5.39Z" transform="translate(-479.188 -1925.78)"/>
  <path id="Without" class="cls-1" d="M568.536,2073.58l-5.338,15.77-5.365-15.77h-1.8l-5.443,15.69-5.26-15.69h-1.98l6.146,18.25h2l5.365-15.56,5.338,15.56h2.032l6.145-18.25h-1.849Zm6.667,18.25h1.927v-18.25H575.2v18.25Zm12.708,0h1.927v-16.58h6.406v-1.67H581.505v1.67h6.406v16.58Zm26.041-18.25v8.13H602.546v-8.13h-1.927v18.25h1.927v-8.42h11.406v8.42h1.9v-18.25h-1.9Zm17.109,18.4a10.042,10.042,0,0,0,4.883-1.19,8.865,8.865,0,0,0,3.424-3.33,9.669,9.669,0,0,0,0-9.51,8.865,8.865,0,0,0-3.424-3.33,10.588,10.588,0,0,0-9.792.02,8.831,8.831,0,0,0-3.437,3.32,9.719,9.719,0,0,0,0,9.49,8.831,8.831,0,0,0,3.437,3.32,9.98,9.98,0,0,0,4.909,1.21h0Zm0-1.72a7.938,7.938,0,0,1-3.919-.97,7.231,7.231,0,0,1-2.761-2.71,7.994,7.994,0,0,1,0-7.75,7.161,7.161,0,0,1,2.761-2.71,8.376,8.376,0,0,1,7.825,0,7.1,7.1,0,0,1,2.735,2.71,8.086,8.086,0,0,1,0,7.75,7.17,7.17,0,0,1-2.735,2.71,7.865,7.865,0,0,1-3.906.97h0Zm22.526,1.72a7.286,7.286,0,0,0,5.507-2.03,8.178,8.178,0,0,0,1.967-5.92v-10.45h-1.875v10.38a6.812,6.812,0,0,1-1.433,4.74,6.309,6.309,0,0,1-8.307,0,6.811,6.811,0,0,1-1.432-4.74v-10.38h-1.927v10.45a8.143,8.143,0,0,0,1.979,5.92,7.328,7.328,0,0,0,5.521,2.03h0Zm17.76-.15h1.927v-16.58h6.406v-1.67H664.941v1.67h6.406v16.58Z" transform="translate(-479.188 -1925.78)"/>
  <g id="elipses" class="cls-3">
    <circle id="Ellipse_3_copy_5" data-name="Ellipse 3 copy 5" class="cls-4" cx="218.812" cy="157.22" r="2"/>
    <circle id="Ellipse_3_copy_7" data-name="Ellipse 3 copy 7" class="cls-4" cx="236.812" cy="157.22" r="2"/>
    <circle id="Ellipse_3_copy_9" data-name="Ellipse 3 copy 9" class="cls-4" cx="254.812" cy="157.22" r="2"/>
  </g>
  <g id="elipses-2" data-name="elipses" class="cls-3">
    <circle class="cls-4" cx="5.812" cy="157.22" r="2"/>
    <circle id="Ellipse_3_copy_2" data-name="Ellipse 3 copy 2" class="cls-4" cx="23.812" cy="157.22" r="2"/>
    <circle id="Ellipse_3_copy_4" data-name="Ellipse 3 copy 4" class="cls-4" cx="41.812" cy="157.22" r="2"/>
  </g>
  <path id="rectangle" class="cls-2" d="M650.563,1984.09h83.124v4.03H650.563v-4.03Z" transform="translate(-479.188 -1925.78)"/>
  <path id="rectangle-2" data-name="rectangle" class="cls-2" d="M483.281,1983.09h83.125v4.03H483.281v-4.03Z" transform="translate(-479.188 -1925.78)"/>
</svg>
