<?xml version="1.0" encoding="utf-8"?>
<!-- Generator: Adobe Illustrator 21.1.0, SVG Export Plug-In . SVG Version: 6.00 Build 0)  -->
<svg version="1.1" id="Layer_1" xmlns="http://www.w3.org/2000/svg" xmlns:xlink="http://www.w3.org/1999/xlink" x="0px" y="0px"
	 viewBox="0 0 88 88" style="enable-background:new 0 0 88 88;" xml:space="preserve">
<style type="text/css">
	.st0{fill:#29282E;}
</style>
<title>icon-weight-loss</title>
<path id="icon" class="st0" d="M44,5.6C22.8,5.6,5.6,22.8,5.6,44S22.8,82.4,44,82.4S82.4,65.2,82.4,44l0,0
	C82.4,22.8,65.2,5.6,44,5.6z M56.8,36.3c-5.9-5.9-15.2-4.9-15.2-4.9L38.2,21l-3.5,1l3.6,10.4c-2.4,0.8-4.6,2.3-6.3,4.2l-0.3,0.3
	L19.7,24.5c0,0,5.9-10.4,22.3-11.8s27.3,11.9,27.3,11.9L56.8,36.3z"/>
</svg>
