<svg xmlns="http://www.w3.org/2000/svg" xmlns:xlink="http://www.w3.org/1999/xlink" width="62" height="64" viewBox="0 0 62 64"><defs><path id="f50ba" d="M875 2504h9l2.32-7.28 5.98 8.05 5.99-11.07 5.98 12.07L909 2502h15v4h-8l-8.74 9.78-9.97 11.12zm-4.32-10.06c-2.69-5.57-2.62-13.14.68-18.35a15.91 15.91 0 0 1 12.97-7.04c5.28.08 9.97 3.01 13.94 7.1 4.73-6.43 14.74-9.73 21.19-4 7.54 6.73 7.19 17.23 2.08 25.24-.14.22-1.23 2.11-1.54 2.11h-12l-2.73 1.74-6.98-14.08-5.99 12.07-6.98-8.05L882 2501h-14v-4l4.36-.28c-.43 0-1.5-2.39-1.68-2.78z"/></defs><g><g transform="translate(-866 -2464)"><use fill="#fff" xlink:href="#f50ba"/></g></g></svg>