<?xml version="1.0" encoding="UTF-8"?>
<svg width="550px" height="550px" viewBox="0 0 550 550" version="1.1" xmlns="http://www.w3.org/2000/svg" xmlns:xlink="http://www.w3.org/1999/xlink">
    <!-- Generator: Sketch 50.2 (55047) - http://www.bohemiancoding.com/sketch -->
    <title>1</title>
    <desc>Created with Sketch.</desc>
    <defs></defs>
    <g id="1" stroke="none" stroke-width="1" fill="none" fill-rule="evenodd">
        <g id="1-2" transform="translate(0.000000, 40.000000)">
            <path d="M116.907176,376.746495 L123.175594,345.803118 L24.3348067,345.803118 L0,467.490554 L101.105044,467.490554 L107.373462,436.556703 L46.3815219,436.556703 L49.5038135,420.553972 L101.105044,420.553972 L107.015947,391.001308 L55.6053909,391.001308 L58.3701681,376.746495 L116.907176,376.746495 Z M222.540735,467.490554 L263.368868,467.490554 L234.529381,345.803118 L194.225602,345.803118 L116.740336,467.490554 L159.999567,467.490554 L172.155053,446.272647 L218.536575,446.272647 L222.540735,467.490554 Z M189.005894,416.719984 L206.905443,385.612293 L212.816346,416.719984 L189.005894,416.719984 Z M331.272751,470.276744 C342.427352,470.518201 353.523403,468.601731 363.949558,464.632923 C372.422685,461.440686 379.824023,455.927516 385.305079,448.725446 C390.318816,441.799687 392.945256,433.434137 392.789045,424.888045 C393.079446,418.563774 390.968257,412.363287 386.878142,407.527939 C383.068074,403.202543 378.268274,399.861123 372.887415,397.788181 C366.404161,395.365447 359.762752,393.388281 353.00962,391.870504 C348.232221,390.893968 343.550462,389.497832 339.018894,387.698364 C336.644739,387.02307 334.942475,384.94222 334.752557,382.483188 C334.752557,380.282812 336.32562,378.370581 339.447911,376.746495 C343.599684,374.919338 348.121101,374.085967 352.652106,374.312746 C358.604071,374.304546 364.532192,375.064127 370.289478,376.572655 C375.844648,378.006934 381.143326,380.294071 385.996273,383.352384 L400.773531,353.452042 C394.467529,349.847641 387.641866,347.23863 380.538222,345.717389 C372.237509,343.869111 363.754198,342.964797 355.250043,343.021691 C344.047822,342.771382 332.90298,344.689509 322.430231,348.670274 C313.942129,351.84227 306.551394,357.395806 301.146213,364.66348 C296.174122,371.695708 293.584969,380.13319 293.757584,388.741399 C293.450394,395.170411 295.59705,401.476268 299.763824,406.384887 C303.587028,410.725119 308.368799,414.116739 313.730716,416.291339 C320.312141,418.830395 327.046664,420.953984 333.894522,422.649567 C338.492405,423.65867 342.997102,425.052719 347.360894,426.816945 C350.197175,428.079065 351.603397,429.76983 351.603397,431.841612 C351.442274,434.286004 349.779981,436.373929 347.432397,437.080602 C343.609144,438.530035 339.528422,439.178492 335.443751,438.985689 C321.013405,438.937251 306.85889,435.031695 294.448778,427.674234 L278.646646,457.941305 C285.781031,462.085361 293.515962,465.097918 301.57523,466.871401 C311.30212,469.19108 321.272784,470.334392 331.272751,470.276744 Z M550,345.803118 L508.814353,345.803118 L474.945831,387.872203 L458.452505,345.803118 L417.266857,345.803118 L447.679407,422.816262 L438.813053,467.490554 L479.808026,467.490554 L488.50754,423.340161 L550,345.803118 Z" id="EASY" fill="#28282E"></path>
            <g id="elipses" transform="translate(0.000000, 266.000000)" fill="#29282E" fill-rule="nonzero">
                <ellipse id="elipse_копия_9" cx="402.015485" cy="6.05223881" rx="5.91525424" ry="6.04477612"></ellipse>
                <ellipse id="elipse_копия_8" cx="449.337519" cy="6.05223881" rx="5.91525424" ry="6.04477612"></ellipse>
                <ellipse id="elipse_копия_7" cx="496.659553" cy="6.05223881" rx="5.91525424" ry="6.04477612"></ellipse>
                <ellipse id="elipse_копия_6" cx="543.981587" cy="6.05223881" rx="5.91525424" ry="6.04477612"></ellipse>
                <ellipse id="elipse_копия" cx="6.78415254" cy="6.2761194" rx="5.91525424" ry="6.04477612"></ellipse>
                <ellipse id="elipse_копия_2" cx="54.1505508" cy="6.2761194" rx="5.87088983" ry="5.9994403"></ellipse>
                <ellipse id="elipse_копия-2" cx="101.516949" cy="6.2761194" rx="5.91525424" ry="6.04477612"></ellipse>
                <ellipse id="elipse_копия_11" cx="148.794619" cy="6.2761194" rx="5.95961864" ry="6.09011194"></ellipse>
            </g>
            <path d="M42.6054696,202.159151 C51.1276056,202.389774 59.608067,200.891312 67.5344499,197.754303 C73.7087262,195.343738 79.0650035,191.219749 82.9722281,185.868208 C86.3957102,180.972136 88.2054653,175.130585 88.1492474,169.157756 C88.4873969,163.044458 86.4582109,157.035622 82.4825101,152.377385 C78.8397589,148.360146 74.2564682,145.309102 69.1435234,143.497773 C62.9869889,141.411981 56.6800454,139.799171 50.2777189,138.673416 C46.0572295,137.957563 41.9008025,136.905434 37.8482086,135.527097 C35.7492494,135.061255 34.2100014,133.266531 34.0703837,131.12225 C34.0703837,127.020381 38.3146067,124.969447 46.8030528,124.969447 C56.327735,125.221418 65.6590321,127.712546 74.0407038,132.240941 L83.9516642,108.328913 C78.5920048,105.374378 72.8237046,103.23022 66.8348527,101.966356 C60.3507643,100.519466 53.726636,99.7925733 47.0828917,99.7988916 C38.5598188,99.5717708 30.0769898,101.045481 22.1305915,104.133821 C15.9417274,106.518524 10.5787376,110.647681 6.69281323,116.019916 C3.28209137,120.947197 1.48173703,126.809124 1.53911384,132.800287 C1.2005179,138.919004 3.19172932,144.939053 7.11257155,149.650575 C10.6740127,153.680934 15.1872395,156.757401 20.241679,158.600106 C26.4075095,160.726013 32.7105926,162.431274 39.1074836,163.704135 C43.4030449,164.485868 47.6295238,165.608104 51.746873,167.060209 C53.9078141,167.581349 55.4714349,169.456581 55.5946576,171.674811 C55.5650705,173.493302 54.3854866,175.093216 52.6563494,175.660149 C49.5156521,176.729073 46.197586,177.180189 42.8853085,176.988595 C37.2564784,176.94397 31.6609545,176.120434 26.258215,174.541458 C20.7894171,173.040429 15.532002,170.855707 10.6105576,168.039064 L0,192.090929 C5.86783612,195.539126 12.2541142,198.018144 18.9124444,199.432341 C26.677126,201.259112 34.6285584,202.174236 42.6054696,202.159151 Z M97.9202883,199.921768 L130.894636,199.921768 L130.894636,102.036274 L97.9202883,102.036274 L97.9202883,199.921768 Z M264.167903,199.921768 L263.888064,102.036274 L236.790333,102.036274 L205.774857,154.195259 L173.919864,102.036274 L146.822133,102.036274 L146.822133,199.921768 L176.858173,199.921768 L176.858173,156.852151 L198.079288,191.112074 L212.60759,191.112074 L233.852025,155.31395 L234.131863,199.921768 L264.167903,199.921768 Z M327.178291,102.036274 L280.0954,102.036274 L280.0954,199.921768 L313.069748,199.921768 L313.069748,175.869904 L327.178291,175.869904 C335.272248,176.054027 343.313995,174.529225 350.778037,171.395138 C357.104487,168.730495 362.500334,164.254195 366.285775,158.530188 C372.112396,149.803113 373.749237,138.936696 370.751772,128.881999 C367.754306,118.827301 360.433693,110.628077 350.778037,106.51104 C343.31367,103.37803 335.272156,101.853273 327.178291,102.036274 Z M325.0795,150.419675 L313.069748,150.419675 L313.069748,127.486503 L325.0795,127.486503 C328.686528,127.211989 332.267379,128.283116 335.130379,130.492986 C339.602366,135.247652 339.602366,142.658526 335.130379,147.413192 C332.267894,149.624065 328.686648,150.69531 325.0795,150.419675 Z M382.49311,199.921768 L459.612042,199.921768 L459.612042,174.331703 L415.467458,174.331703 L415.467458,102.036274 L382.49311,102.036274 L382.49311,199.921768 Z M501.098156,175.030885 L501.098156,162.165935 L542.44435,162.165935 L542.44435,138.393743 L501.098156,138.393743 L501.098156,126.927157 L548.181047,126.927157 L548.181047,102.036274 L468.683485,102.036274 L468.683485,199.921768 L550,199.921768 L550,175.030885 L501.098156,175.030885 Z" id="SIMPLE" fill="#ED1C24"></path>
            <rect id="rectangle" fill="#ED1C24" fill-rule="nonzero" x="0" y="24" width="80" height="10"></rect>
            <rect id="rectangle-2" fill="#ED1C24" fill-rule="nonzero" x="470" y="24" width="80" height="10"></rect>
            <path d="M123.212524,57.4253731 L135.633933,57.4253731 L135.633933,13.9500372 L152.846456,13.9500372 L152.846456,3.84661409 L106,3.84661409 L106,13.9500372 L123.212524,13.9500372 L123.212524,57.4253731 Z M196.380537,3.84661409 L196.380537,24.9719534 L171.951766,24.9719534 L171.951766,3.84661409 L159.530357,3.84661409 L159.530357,57.4253731 L171.951766,57.4253731 L171.951766,35.4580819 L196.380537,35.4580819 L196.380537,57.4253731 L208.801946,57.4253731 L208.801946,3.84661409 L196.380537,3.84661409 Z M233.910937,47.4750322 L233.910937,35.0753765 L258.872054,35.0753765 L258.872054,25.4311999 L233.910937,25.4311999 L233.910937,13.7969551 L262.154854,13.7969551 L262.154854,3.84661409 L221.548677,3.84661409 L221.548677,57.4253731 L263.160397,57.4253731 L263.160397,47.4750322 L233.910937,47.4750322 Z M319.204611,3.84661409 L306.990226,3.84661409 L292.646456,27.6508913 L278.302686,3.84661409 L265.082758,3.84661409 L285.903405,38.290102 L285.903405,57.4253731 L298.324814,57.4253731 L298.324814,38.4431842 L319.204611,3.84661409 Z M330.028982,0.0195598772 C328.052678,-0.0443998584 326.133798,0.686729493 324.705521,2.04789861 C323.269175,3.4397469 322.494996,5.37379114 322.576136,7.36750397 C322.529382,8.7977449 322.910225,10.2096103 323.670403,11.4241814 C324.386795,12.5472446 325.428231,13.4278842 326.657456,13.9500372 L323.345081,26.0435286 L330.9458,26.0435286 L335.411592,15.0216124 C336.052682,13.5304292 336.586375,11.995733 337.00863,10.4291473 C337.267301,9.42907152 337.396505,8.40018842 337.393103,7.36750397 C337.494651,5.39150709 336.752491,3.46482625 335.349784,2.06295756 C333.947077,0.661088863 332.014492,-0.0853770129 330.028982,0.00778432576 L330.028982,0.0195598772 Z M393.999237,57.4253731 L381.932726,40.2036292 C388.861937,37.4845507 393.301107,30.6957118 392.993695,23.2880495 C393.294371,15.8781388 388.928271,9.06543308 382.051025,6.21349993 C378.137619,4.55214931 373.912514,3.7431313 369.659191,3.84072632 L346.383837,3.84072632 L346.383837,57.4194854 L358.83482,57.4194854 L358.83482,42.4939739 L370.250687,42.4939739 L380.631435,57.4194854 L393.999237,57.4194854 L393.999237,57.4253731 Z M380.394837,23.276274 C380.540097,25.899392 379.459367,28.4421059 377.466934,30.1649716 C375.011186,31.9646393 371.990963,32.8331388 368.949396,32.6142863 L358.83482,32.6142863 L358.83482,13.9382617 L368.949396,13.9382617 C371.984932,13.7212724 375.000333,14.5748366 377.466934,16.3493058 C379.473795,18.0781221 380.556368,20.6393219 380.394837,23.276274 Z M415.174782,47.4632566 L415.174782,35.063601 L440.135899,35.063601 L440.135899,25.4194243 L415.174782,25.4194243 L415.174782,13.7969551 L443.4187,13.7969551 L443.4187,3.84661409 L402.812523,3.84661409 L402.812523,57.4253731 L444.424242,57.4253731 L444.424242,47.4750322 L415.174782,47.4750322 L415.174782,47.4632566 Z" id="THEY_RE" fill="#28282E"></path>
            <path d="M228.079297,245.918177 L228.079297,278.442879 L201.314624,245.918177 L191,245.918177 L191,299.488275 L203.330126,299.488275 L203.330126,266.963572 L230.183717,299.488275 L240.409422,299.488275 L240.409422,245.918177 L228.079297,245.918177 Z M279.267102,300.40662 C284.52037,300.485071 289.708891,299.24806 294.353723,296.80977 C303.287243,292.036984 308.859046,282.777148 308.859046,272.703226 C308.859046,262.629304 303.287243,253.369468 294.353723,248.596681 C284.865179,243.801106 273.639386,243.801106 264.150842,248.596681 C259.783532,250.874743 256.132691,254.303707 253.5991,258.50715 C248.540313,267.304533 248.540313,278.101919 253.5991,286.899302 C256.132691,291.102744 259.783532,294.531709 264.150842,296.80977 C268.805007,299.25156 274.00399,300.488636 279.267102,300.40662 Z M279.267102,289.845657 C276.24848,289.888318 273.272394,289.135747 270.641942,287.664589 C268.098496,286.231097 266.005379,284.124988 264.595438,281.580556 C261.670925,276.018631 261.670925,269.387821 264.595438,263.825895 C266.005379,261.281464 268.098496,259.175355 270.641942,257.741863 C276.01914,254.833517 282.515064,254.833517 287.892262,257.741863 C290.42718,259.176581 292.510404,261.283061 293.909127,263.825895 C296.83364,269.387821 296.83364,276.018631 293.909127,281.580556 C292.510404,284.123391 290.42718,286.229871 287.892262,287.664589 C285.260439,289.132346 282.285291,289.88468 279.267102,289.845657 Z M328.498686,299.488275 L340.977011,299.488275 L340.977011,256.019967 L358.197691,256.019967 L358.197691,245.918177 L311.278006,245.918177 L311.278006,256.019967 L328.498686,256.019967 L328.498686,299.488275 Z" id="not" fill="#28282E"></path>
        </g>
    </g>
</svg>