<?xml version="1.0" encoding="UTF-8"?>
<svg width="550px" height="550px" viewBox="0 0 550 550" version="1.1" xmlns="http://www.w3.org/2000/svg" xmlns:xlink="http://www.w3.org/1999/xlink">
    <!-- Generator: Sketch 50.2 (55047) - http://www.bohemiancoding.com/sketch -->
    <title>10</title>
    <desc>Created with Sketch.</desc>
    <defs></defs>
    <g id="10" stroke="none" stroke-width="1" fill="none" fill-rule="evenodd">
        <g id="what_to_eat_in_the_streets_desktop" transform="translate(0.000000, 38.000000)">
            <path d="M20.6464405,48.1510348 L20.6464405,39.9260417 L46.9680052,39.9260417 L46.9680052,24.7119352 L20.6464405,24.7119352 L20.6464405,17.3605813 L50.6102491,17.3605813 L50.6102491,1.44330188 L0,1.44330188 L0,64.0896225 L51.7749201,64.0896225 L51.7749201,48.1510348 L20.6464405,48.1510348 Z M110.897855,64.0896225 L132.603088,64.0896225 L105.392138,1.44330188 L84.7668733,1.44330188 L57.5347476,64.0896225 L78.8799908,64.0896225 L83.0728064,53.1584788 L106.726216,53.1584788 L110.897855,64.0896225 Z M88.8538097,37.9443724 L94.8889231,22.1975591 L100.945212,37.9443724 L88.8538097,37.9443724 Z M150.835483,64.0896225 L171.841913,64.0896225 L171.841913,17.808055 L190.074308,17.808055 L190.074308,1.44330188 L132.603088,1.44330188 L132.603088,17.808055 L150.835483,17.808055 L150.835483,64.0896225 Z M244.580911,64.0896225 L265.566165,64.0896225 L265.566165,17.808055 L283.79856,17.808055 L283.79856,1.44330188 L226.348516,1.44330188 L226.348516,17.808055 L244.580911,17.808055 L244.580911,64.0896225 Z M337.161668,64.0896225 L358.8669,64.0896225 L331.65595,1.44330188 L311.00951,1.44330188 L283.79856,64.0896225 L305.143803,64.0896225 L309.336619,53.1584788 L332.990028,53.1584788 L337.161668,64.0896225 Z M315.117622,37.9443724 L321.152736,22.1975591 L327.209025,37.9443724 L315.117622,37.9443724 Z M389.910676,65.5172767 C395.33874,65.6639361 400.740428,64.7072931 405.792554,62.7045848 C409.718232,61.1575422 413.125902,58.5192953 415.618142,55.0975316 C417.78599,51.9596762 418.932805,48.2222452 418.900397,44.4007789 C419.114058,40.4888348 417.825222,36.6439173 415.300504,33.6614096 C412.978733,31.0903301 410.06187,29.1360331 406.808994,27.9721009 C402.888862,26.6425893 398.875446,25.6098119 394.802295,24.8824014 C392.113163,24.4300294 389.464659,23.7601996 386.882532,22.8794238 C385.547148,22.5756613 384.571863,21.4205799 384.489662,20.0454236 C384.489662,17.4245061 387.178994,16.1247015 392.578832,16.1247015 C398.642491,16.2787025 404.584481,17.8702229 409.921842,20.7699049 L416.232241,5.47056535 C412.825447,3.57680749 409.156941,2.20508233 405.347861,1.40068534 C401.212214,0.469125234 396.986222,0.00457490568 392.748239,0.0156476358 C387.330609,-0.135257106 381.937768,0.806603916 376.887537,2.78572304 C372.944229,4.31157187 369.524288,6.9536247 367.040773,10.3927763 C364.875286,13.5477885 363.729144,17.2979047 363.758518,21.1321455 C363.549106,25.0491936 364.820005,28.9009587 367.316059,31.9141313 C369.58474,34.4977035 372.460398,36.4683112 375.680514,37.6460565 C379.607208,38.9970769 383.618137,40.08616 387.687214,40.9062222 C390.423058,41.4027842 393.114211,42.1225377 395.734031,43.0583577 C397.101457,43.390782 398.090895,44.5855334 398.169253,45.9988993 C398.162675,47.1669485 397.410913,48.1984893 396.305779,48.555892 C394.305385,49.2447285 392.190653,49.5342465 390.080083,49.4082229 C386.496568,49.3810114 382.933828,48.8575982 379.492165,47.852719 C376.015227,46.881597 372.671967,45.4786669 369.539522,43.6762976 L362.78443,59.0821785 C366.52336,61.2882096 370.59224,62.8712534 374.833481,63.7699984 C379.773882,64.9444835 384.83429,65.5309282 389.910676,65.5172767 Z M442.193817,64.0896225 L463.200246,64.0896225 L463.200246,17.808055 L481.432642,17.808055 L481.432642,1.44330188 L423.961421,1.44330188 L423.961421,17.808055 L442.193817,17.808055 L442.193817,64.0896225 Z M550,1.44330188 L529.713549,1.44330188 L516.902168,23.0925066 L504.196666,1.44330188 L482.046741,1.44330188 L505.530743,41.0766884 L505.530743,64.0896225 L526.515997,64.0896225 L526.515997,41.3536959 L550,1.44330188 Z" id="EAT_TASTY_" fill="#29282E"></path>
            <path d="M20.2630285,383.169275 L10.3378588,383.169275 L0,394.544479 L5.77764561,406.002262 L15.3107609,406.002262 L9.98707313,394.895438 L20.2630285,383.169275 Z M34.4182603,383.169275 L24.4930905,383.169275 L14.1552318,394.544479 L19.9328774,406.002262 L29.4659926,406.002262 L24.1423049,394.895438 L34.4182603,383.169275 Z M93.2470733,369.812184 L79.4838961,395.989605 L76.5950733,369.812184 L66.0302356,369.812184 L52.390865,395.638646 L49.2750633,369.812184 L38.0086544,369.812184 L42.9815565,410.275705 L55.2796879,410.275705 L68.1762182,385.873725 L71.1063099,410.275705 L83.3631724,410.275705 L104.575386,369.812184 L93.2470733,369.812184 Z M135.650865,369.812184 L132.638236,384.944715 L117.100496,384.944715 L120.113125,369.812184 L108.661006,369.812184 L100.572303,410.275705 L112.024422,410.275705 L115.140223,394.544479 L130.677963,394.544479 L127.562161,410.275705 L138.993646,410.275705 L147.08235,369.812184 L135.650865,369.812184 Z M177.889582,410.275705 L189.259163,410.275705 L179.499069,369.812184 L168.23266,369.812184 L142.295158,410.275705 L154.36631,410.275705 L159.05033,402.410092 L176.25946,402.410092 L177.889582,410.275705 Z M164.064501,393.966429 L171.823054,380.857074 L174.526166,393.966429 L164.064501,393.966429 Z M199.08116,410.275705 L210.533279,410.275705 L216.826786,378.875187 L229.186821,378.875187 L231.043921,369.812184 L194.809829,369.812184 L192.973363,378.875187 L205.395302,378.875187 L199.08116,410.275705 Z M252.586286,410.275705 L264.01777,410.275705 L270.331911,378.875187 L282.691946,378.875187 L284.528412,369.812184 L248.314955,369.812184 L246.457854,378.875187 L258.879792,378.875187 L252.586286,410.275705 Z M301.985156,411.080846 C306.539151,411.164623 311.040063,410.092109 315.067396,407.963504 C318.809224,405.974873 321.913517,402.969233 324.022747,399.292749 C326.195168,395.493283 327.306942,391.179464 327.241721,386.802734 C327.295455,383.551735 326.445342,380.349726 324.786221,377.553929 C323.105344,374.828147 320.677423,372.642654 317.791143,371.25731 C314.458335,369.687705 310.805629,368.917218 307.123133,369.007043 C302.569137,368.923266 298.068225,369.99578 294.040893,372.124385 C290.3033,374.11884 287.20045,377.123083 285.085542,380.79514 C282.919658,384.596369 281.814996,388.910248 281.887203,393.285155 C281.82336,396.537382 282.674197,399.742116 284.342702,402.53396 C286.016591,405.257975 288.437419,407.443531 291.317146,408.830579 C294.649954,410.400184 298.30266,411.170672 301.985156,411.080846 Z M302.975609,401.60495 C300.396734,401.75633 297.864065,400.872058 295.939262,399.148237 C294.229809,397.403085 293.32497,395.023902 293.442494,392.583237 C293.413773,390.135868 293.943041,387.71415 294.990077,385.502121 C295.981018,383.420597 297.522355,381.650038 299.447118,380.382247 C301.443948,379.095901 303.778858,378.434615 306.153314,378.482939 C308.727271,378.322201 311.257057,379.208064 313.169027,380.939652 C314.887968,382.680053 315.800793,385.060561 315.686429,387.504652 C315.7082,389.953573 315.171883,392.375256 314.118211,394.585768 C313.133213,396.665685 311.590192,398.431031 309.66117,399.684998 C307.677081,400.984693 305.346633,401.653949 302.975609,401.60495 Z M385.361477,378.648096 L387.156674,369.812184 L355.482796,369.812184 L347.394092,410.275705 L379.81081,410.275705 L381.667911,401.419149 L360.455698,401.419149 L361.900109,394.028363 L379.934617,394.028363 L381.606007,385.481476 L363.633403,385.481476 L364.954007,378.648096 L385.361477,378.648096 Z M416.952818,410.275705 L428.343034,410.275705 L418.582939,369.812184 L407.31653,369.812184 L381.379029,410.275705 L393.450181,410.275705 L398.134201,402.410092 L415.343331,402.410092 L416.952818,410.275705 Z M403.148372,393.966429 L410.88629,380.857074 L413.610037,393.966429 L403.148372,393.966429 Z M438.165031,410.275705 L449.596516,410.275705 L455.910657,378.875187 L468.270692,378.875187 L470.107158,369.812184 L433.8937,369.812184 L432.0366,378.875187 L444.458538,378.875187 L438.165031,410.275705 Z M483.887227,410.275705 L495.339346,410.275705 L503.428049,369.812184 L491.97593,369.812184 L483.887227,410.275705 Z M538.77486,369.812184 L534.400357,391.943253 L520.987965,369.812184 L511.578657,369.812184 L503.489953,410.275705 L514.694458,410.275705 L519.130865,388.082702 L532.481353,410.275705 L541.911296,410.275705 L550,369.812184 L538.77486,369.812184 Z M25.098075,472.436764 L37.7676264,472.436764 L44.7420701,437.691812 L58.4227095,437.691812 L60.4655199,427.637866 L20.3727863,427.637866 L18.3299758,437.691812 L32.0725186,437.691812 L25.098075,472.436764 Z M98.2678298,427.637866 L94.9456836,444.401325 L77.7365534,444.401325 L81.0793341,427.637866 L68.4097826,427.637866 L59.4544319,472.436764 L72.1239834,472.436764 L75.5699363,455.033321 L92.7790665,455.033321 L89.3124791,472.436764 L101.982031,472.436764 L110.937381,427.637866 L98.2678298,427.637866 Z M156.229996,437.423432 L158.210903,427.637866 L123.152975,427.637866 L114.197624,472.436764 L150.08093,472.436764 L152.144375,462.651198 L128.662373,462.651198 L130.251225,454.455271 L150.225371,454.455271 L152.082472,444.979375 L132.170229,444.979375 L133.655909,437.423432 L156.229996,437.423432 Z M198.902036,473.324484 C202.777224,473.400423 206.63065,472.727492 210.250982,471.342597 C213.243879,470.224849 215.861332,468.285831 217.803191,465.747896 C219.573598,463.324738 220.501359,460.387793 220.4444,457.386812 C220.550873,455.140845 219.823253,452.934847 218.40159,451.193416 C217.083505,449.635384 215.40463,448.423444 213.511225,447.66318 C211.163984,446.757678 208.757971,446.012756 206.309803,445.433557 C204.337411,444.966622 202.410727,444.324077 200.552792,443.513604 C199.466507,443.123546 198.729683,442.107864 198.695691,440.953667 C198.753236,439.583441 199.585997,438.365727 200.841674,437.81568 C202.677884,436.906089 204.717821,436.486522 206.763761,436.597646 C208.95929,436.595992 211.145215,436.887593 213.263612,437.464721 C215.304831,438.009663 217.252504,438.858712 219.041258,439.983369 L223.64274,430.569407 C221.42042,429.249345 219.004066,428.287899 216.482586,427.720445 C213.546462,427.04095 210.54081,426.708364 207.527235,426.729501 C203.635908,426.642325 199.765518,427.322784 196.13702,428.732033 C193.16432,429.845188 190.572301,431.786582 188.667349,434.326734 C186.905932,436.768954 185.986151,439.718057 186.046774,442.729108 C185.928483,445.043164 186.662665,447.320255 188.110219,449.12895 C189.458517,450.715242 191.16247,451.960238 193.083121,452.762409 C195.43777,453.694758 197.850142,454.473995 200.305178,455.095255 C202.244142,455.562182 204.136571,456.204821 205.959017,457.015208 C207.024648,457.393125 207.75229,458.38288 207.795483,459.513211 C207.762213,460.800239 206.967434,461.944314 205.773307,462.424107 C203.996845,463.212346 202.060428,463.572953 200.119468,463.476984 C197.520919,463.471228 194.936386,463.095869 192.443453,462.362173 C189.887596,461.603038 187.449928,460.491301 185.200762,459.059029 L180.22786,468.534924 C182.724015,470.120714 185.46361,471.285443 188.337198,471.982582 C191.783183,472.899547 195.336351,473.350856 198.902036,473.324484 Z M235.61072,472.436764 L248.280271,472.436764 L255.254715,437.691812 L268.935354,437.691812 L270.978165,427.637866 L230.885431,427.637866 L228.842621,437.691812 L242.585163,437.691812 L235.61072,472.436764 Z M316.085069,441.903322 C316.274226,437.848585 314.509451,433.948806 311.339146,431.415838 C307.470939,428.674928 302.78137,427.341674 298.050561,427.637866 L278.922427,427.637866 L269.967077,472.436764 L282.636628,472.436764 L284.988955,460.524799 L291.385634,460.524799 L298.050561,472.436764 L311.277243,472.436764 L303.663131,458.997095 C307.317243,457.832534 310.518964,455.559919 312.824827,452.494029 C315.035662,449.41337 316.18044,445.694625 316.085069,441.903322 Z M303.291711,443.121356 C303.422174,445.254565 302.570954,447.330441 300.980653,448.757346 C299.118352,450.185395 296.801728,450.889527 294.460167,450.739233 L286.907959,450.739233 L289.590437,437.609234 L296.255364,437.609234 C298.084769,437.508507 299.898739,437.992954 301.434611,438.992425 C302.701657,439.973924 303.397788,441.521647 303.291711,443.121356 Z M362.512579,437.423432 L364.51412,427.637866 L329.456192,427.637866 L320.500841,472.436764 L356.384148,472.436764 L358.426958,462.651198 L334.944955,462.651198 L336.554442,454.455271 L356.507954,454.455271 L358.365055,444.979375 L338.473446,444.979375 L339.938492,437.423432 L362.512579,437.423432 Z M408.713109,437.423432 L410.694016,427.637866 L375.636088,427.637866 L366.680737,472.436764 L402.564044,472.436764 L404.606854,462.651198 L381.145486,462.651198 L382.734338,454.455271 L402.68785,454.455271 L404.544951,444.979375 L384.653342,444.979375 L386.118388,437.423432 L408.713109,437.423432 Z M422.331845,472.436764 L435.001397,472.436764 L441.97584,437.691812 L455.65648,437.691812 L457.69929,427.637866 L417.606557,427.637866 L415.543112,437.691812 L429.306289,437.691812 L422.331845,472.436764 Z M473.257665,473.324484 C477.132852,473.400423 480.986279,472.727492 484.606611,471.342597 C487.599508,470.224849 490.216961,468.285831 492.15882,465.747896 C493.920246,463.320198 494.847031,460.386345 494.800029,457.386812 C494.906502,455.140845 494.178882,452.934847 492.757219,451.193416 C491.439134,449.635384 489.760258,448.423444 487.866854,447.66318 C485.519613,446.757678 483.1136,446.012756 480.665432,445.433557 C478.69304,444.966622 476.766356,444.324077 474.90842,443.513604 C473.822136,443.123546 473.085312,442.107864 473.05132,440.953667 C473.108865,439.583441 473.941626,438.365727 475.197303,437.81568 C477.033513,436.906089 479.07345,436.486522 481.119389,436.597646 C483.308222,436.594633 485.48751,436.886274 487.598606,437.464721 C489.647691,438.005671 491.602752,438.854908 493.396886,439.983369 L497.998368,430.569407 C495.774317,429.252871 493.358533,428.291652 490.838215,427.720445 C487.902091,427.04095 484.896439,426.708364 481.882864,426.729501 C477.991537,426.642325 474.121147,427.322784 470.492648,428.732033 C467.519948,429.845188 464.92793,431.786582 463.022978,434.326734 C461.25531,436.766939 460.328334,439.715889 460.381769,442.729108 C460.270058,445.0457 461.011589,447.322813 462.465848,449.12895 C463.802209,450.719137 465.500532,451.96519 467.418116,452.762409 C469.779913,453.694426 472.199127,454.473647 474.660807,455.095255 C476.599771,455.562182 478.4922,456.204821 480.314646,457.015208 C481.376125,457.39458 482.09679,458.385984 482.130477,459.513211 C482.106618,460.797134 481.318871,461.942775 480.128936,462.424107 C478.345788,463.214274 476.402228,463.574894 474.454463,463.476984 C471.855914,463.471228 469.27138,463.095869 466.778448,462.362173 C464.22913,461.602892 461.798297,460.491105 459.556391,459.059029 L454.562854,468.534924 C457.068468,470.116824 459.814185,471.281193 462.692827,471.982582 C466.138812,472.899547 469.691979,473.350856 473.257665,473.324484 Z M514.753541,442.419438 L504.209338,442.419438 L510.090155,454.703007 L498.69994,467.688494 L509.698101,467.688494 L521.15022,455.033321 L514.753541,442.419438 Z M530.435722,442.419438 L519.870884,442.419438 L525.772336,454.703007 L514.382121,467.688494 L525.380282,467.688494 L536.832401,455.033321 L530.435722,442.419438 Z" id="_WHAT_TO_EAT_IN_THE_STREETS_" fill="#F01716"></path>
            <path d="M28.1819701,195.569068 L28.1819701,210.971237 L14.6496585,210.971237 L14.6496585,195.569068 L-4.38094006e-13,195.569068 L-4.38094006e-13,239.042934 L14.6496585,239.042934 L14.6496585,223.019709 L28.1819701,223.019709 L28.1819701,239.042934 L42.8316286,239.042934 L42.8316286,195.569068 L28.1819701,195.569068 Z M67.4132589,227.988151 L67.4132589,222.274443 L85.7874068,222.274443 L85.7874068,211.716504 L67.4132589,211.716504 L67.4132589,206.623851 L88.3324746,206.623851 L88.3324746,195.569068 L53.0118997,195.569068 L53.0118997,239.042934 L89.1394473,239.042934 L89.1394473,227.988151 L67.4132589,227.988151 Z M130.419205,239.042934 L145.565462,239.042934 L126.570566,195.569068 L112.169207,195.569068 L93.1743109,239.042934 L108.072269,239.042934 L110.989785,231.46606 L127.501689,231.46606 L130.419205,239.042934 Z M115.024649,220.908121 L119.245737,209.977549 L123.466825,220.908121 L115.024649,220.908121 Z M151.028047,239.042934 L185.29335,239.042934 L185.29335,227.677623 L165.677705,227.677623 L165.677705,195.569068 L151.028047,195.569068 L151.028047,239.042934 Z M197.832464,239.042934 L212.482123,239.042934 L212.482123,206.934378 L225.207462,206.934378 L225.207462,195.569068 L185.107125,195.569068 L185.107125,206.934378 L197.832464,206.934378 L197.832464,239.042934 Z M260.279737,195.569068 L260.279737,210.971237 L246.747426,210.971237 L246.747426,195.569068 L232.097767,195.569068 L232.097767,239.042934 L246.747426,239.042934 L246.747426,223.019709 L260.279737,223.019709 L260.279737,239.042934 L274.929396,239.042934 L274.929396,195.569068 L260.279737,195.569068 Z M327.320547,195.569068 L313.167487,195.569068 L304.228713,210.598604 L295.352013,195.569068 L279.895382,195.569068 L296.283135,223.081814 L296.283135,239.042934 L310.932794,239.042934 L310.932794,223.268131 L327.320547,195.569068 Z M384.495703,206.56958 L384.495703,195.530733 L349.044808,195.530733 L349.044808,238.9768 L363.754815,238.9768 L363.754815,225.078492 L381.958727,225.078492 L381.958727,214.017478 L363.754815,214.017478 L363.754815,206.56958 L384.495703,206.56958 Z M414.850393,239.974287 C419.240854,240.044932 423.581511,239.040168 427.490763,237.048327 C432.949135,234.127428 436.973795,229.113612 438.63326,223.167295 C440.292725,217.220978 439.443149,210.857601 436.281161,205.549928 C434.165118,202.089875 431.12051,199.287604 427.490763,197.459206 C419.518932,193.558059 410.181854,193.558059 402.210024,197.459206 C398.580277,199.287604 395.535668,202.089875 393.419626,205.549928 C390.142493,210.830091 389.228115,217.233549 390.89723,223.214446 C392.566346,229.195344 396.667278,234.21018 402.210024,237.048327 C406.119275,239.040168 410.459932,240.044932 414.850393,239.974287 Z M414.850393,228.115283 C413.104765,228.135647 411.387403,227.6754 409.887713,226.785302 C408.392171,225.862897 407.176721,224.552632 406.371554,222.994854 C404.620947,219.366063 404.620947,215.14147 406.371554,211.512679 C407.99264,208.332604 411.26974,206.329155 414.850393,206.329155 C418.431046,206.329155 421.708146,208.332604 423.329233,211.512679 C425.079839,215.14147 425.079839,219.366063 423.329233,222.994854 C422.524065,224.552632 421.308616,225.862897 419.813074,226.785302 C418.313383,227.6754 416.596021,228.135647 414.850393,228.115283 Z M470.797381,239.974287 C475.194946,240.044856 479.542792,239.040197 483.460005,237.048327 C488.911737,234.120793 492.929041,229.105311 494.583886,223.160497 C496.238731,217.215684 495.387975,210.855763 492.228148,205.549928 C490.12064,202.090915 487.083408,199.288339 483.460005,197.459206 C475.480554,193.557209 466.136462,193.557209 458.157011,197.459206 C454.527264,199.287604 451.482656,202.089875 449.366614,205.549928 C446.089481,210.830091 445.175102,217.233549 446.844218,223.214446 C448.513333,229.195344 452.614266,234.21018 458.157011,237.048327 C462.066263,239.040168 466.40692,240.044932 470.797381,239.974287 Z M470.797381,228.115283 C469.05842,228.138399 467.347471,227.677805 465.856955,226.785302 C464.354866,225.864015 463.131936,224.553978 462.318541,222.994854 C460.597601,219.359389 460.597601,215.148144 462.318541,211.512679 C463.125674,209.949167 464.350018,208.637616 465.856955,207.722231 C468.918005,205.949144 472.699011,205.949144 475.760061,207.722231 C477.260493,208.638718 478.477362,209.950512 479.27622,211.512679 C481.026827,215.14147 481.026827,219.366063 479.27622,222.994854 C478.471053,224.552632 477.255603,225.862897 475.760061,226.785302 C474.261514,227.678089 472.543375,228.138545 470.797381,228.115283 Z M503.889334,238.9768 L525.386864,238.9768 C529.818146,239.061877 534.212621,238.160703 538.249775,236.339003 C541.805796,234.712619 544.81262,232.094916 546.906648,228.802441 C551.031117,221.651351 551.031117,212.856182 546.906648,205.705092 C544.819119,202.407074 541.810441,199.787757 538.249775,198.168529 C534.216018,196.336439 529.819145,195.434773 525.386864,195.530733 L503.889334,195.530733 L503.889334,238.9768 Z M518.599342,227.561124 L518.599342,206.946408 L524.763747,206.946408 C527.546078,206.813098 530.267676,207.785817 532.330166,209.650705 C536.127888,214.013655 536.127888,220.493877 532.330166,224.856828 C530.267676,226.721715 527.546078,227.694435 524.763747,227.561124 L518.599342,227.561124 Z" id="HEALTHY_FOOD" fill="#29282E"></path>
            <path d="M235.655743,154.154861 L241.023469,154.154861 L219.023725,106.00662 L213.999745,106.00662 L192,154.154861 L197.2884,154.154861 L203.079198,141.297693 L229.891387,141.297693 L235.655743,154.154861 Z M204.930138,137.170701 L216.485293,111.297635 L228.014005,137.170701 L204.930138,137.170701 Z M287.614275,106.00662 L287.614275,145.08077 L256.62425,106.00662 L252.419972,106.00662 L252.419972,154.154861 L257.523278,154.154861 L257.523278,115.080711 L288.460419,154.154861 L292.638255,154.154861 L292.638255,106.00662 L287.614275,106.00662 Z M311.755821,154.154861 L331.349344,154.154861 C336.026878,154.242835 340.655431,153.189546 344.834764,151.086072 C348.602252,149.161724 351.747097,146.207961 353.904371,142.567537 C358.205851,134.799225 358.205851,125.362256 353.904371,117.593944 C351.747097,113.95352 348.602252,110.999757 344.834764,109.075409 C340.659831,106.959707 336.028197,105.905716 331.349344,106.00662 L311.755821,106.00662 L311.755821,154.154861 Z M316.832686,149.736863 L316.832686,110.398163 L331.084924,110.398163 C334.919601,110.314673 338.715759,111.177863 342.13768,112.911395 C345.204225,114.477272 347.75594,116.892498 349.488557,119.869081 C352.978926,126.22903 352.978926,133.932451 349.488557,140.292401 C347.748354,143.262958 345.198633,145.676297 342.13768,147.250086 C338.713493,148.974672 334.917401,149.82876 331.084924,149.736863 L316.832686,149.736863 Z" id="AND" fill="#29282E"></path>
            <path d="M245.47519,280 L231.381604,321.613837 L217.235133,280 L212.475573,280 L198.117567,321.402197 L184.235516,280 L179,280 L195.235388,328.148241 L200.523789,328.148241 L214.670259,287.089961 L228.763845,328.148241 L234.131572,328.148241 L250.36696,280 L245.47519,280 Z M263.085562,328.148241 L268.162427,328.148241 L268.162427,280 L263.085562,280 L263.085562,328.148241 Z M296.614019,328.148241 L296.614019,284.391543 L279.717581,284.391543 L279.717581,280 L318.613764,280 L318.613764,284.391543 L301.717326,284.391543 L301.717326,328.148241 L296.614019,328.148241 Z M365.363221,280 L370.387202,280 L370.387202,328.148241 L365.363221,328.148241 L365.363221,305.925976 L335.272225,305.925976 L335.272225,328.148241 L330.168918,328.148241 L330.168918,280 L335.272225,280 L335.272225,301.455068 L365.363221,301.455068 L365.363221,280 Z" id="WITH" fill="#29282E"></path>
            <rect id="Rectangle-path" fill="#F01616" fill-rule="nonzero" x="400" y="125" width="150" height="10.5820311"></rect>
            <rect id="Rectangle_530_copy" fill="#F01616" fill-rule="nonzero" x="0" y="125" width="150" height="10.5820311"></rect>
            <g id="elipses" transform="translate(0.000000, 298.000000)" fill="#29282E" fill-rule="nonzero">
                <circle id="elipse_копия" cx="5.85332103" cy="5.69202952" r="5.20295203"></circle>
                <circle id="elipse_копия_2" cx="47.4379151" cy="5.69202952" r="5.16392989"></circle>
                <circle id="elipse_копия-2" cx="89.0225092" cy="5.69202952" r="5.20295203"></circle>
                <circle id="elipse_копия_11" cx="130.542066" cy="5.69202952" r="5.20295203"></circle>
                <g id="Group" transform="translate(414.000000, 0.000000)">
                    <circle id="elipse_копия_9" cx="47.1039323" cy="5.69202952" r="5.16392989"></circle>
                    <circle id="elipse_копия_13" cx="5.51900369" cy="5.69202952" r="5.20295203"></circle>
                    <circle id="elipse_копия_8" cx="88.6881919" cy="5.69202952" r="5.20295203"></circle>
                    <circle id="elipse_копия_7" cx="130.233764" cy="5.69202952" r="5.20295203"></circle>
                </g>
            </g>
        </g>
    </g>
</svg>