<?xml version="1.0" encoding="UTF-8"?>
<svg width="550px" height="550px" viewBox="0 0 550 550" version="1.1" xmlns="http://www.w3.org/2000/svg" xmlns:xlink="http://www.w3.org/1999/xlink">
    <!-- Generator: Sketch 50.2 (55047) - http://www.bohemiancoding.com/sketch -->
    <title>2</title>
    <desc>Created with Sketch.</desc>
    <defs></defs>
    <g id="2" stroke="none" stroke-width="1" fill="none" fill-rule="evenodd">
        <g id="14-Day-Detox-Smoothie-Cleanse" transform="translate(0.000000, 8.000000)">
            <path d="M44.9419184,77.6576739 L71.9753617,77.6576739 L56.2058531,54.2359871 C60.5373488,52.074894 64.1827512,48.7317185 66.7288807,44.5853847 C69.2272924,40.2841855 70.4913774,35.3658468 70.3797271,30.3805654 C70.4967884,25.014321 69.0405942,19.7328454 66.1941391,15.1998426 C63.2905031,10.7580043 59.1469233,7.28616117 54.288085,5.22393894 C48.5533644,2.79144332 42.3746845,1.60903174 36.156264,1.75405942 L0,1.75405942 L0,77.6576739 L25.3175455,77.6576739 L25.3175455,58.5733365 L32.1897269,58.5733365 L44.9419184,77.6576739 Z M44.8345405,30.3805654 C44.9798029,32.8415986 44.035771,35.2407747 42.2574725,36.929963 C40.0571168,38.6516847 37.3017706,39.486417 34.5262685,39.2721317 L25.2917749,39.2721317 L25.2917749,21.4889992 L34.5262685,21.4889992 C37.2979296,21.2789172 40.049393,22.1047551 42.2574725,23.8094811 C44.032424,25.5100066 44.975199,27.9139222 44.8345405,30.3805654 Z M110.165362,58.3564691 L110.165362,48.3805654 L141.919135,48.3805654 L141.919135,29.9468305 L110.169657,29.9468305 L110.169657,21.0552642 L146.321626,21.0552642 L146.321626,1.75405942 L85.2773277,1.75405942 L85.2773277,77.6576739 L147.713243,77.6576739 L147.713243,58.3564691 L110.169657,58.3564691 L110.165362,58.3564691 Z M223.878487,21.0552642 L223.878487,1.75405942 L162.838484,1.75405942 L162.838484,77.6576739 L188.153882,77.6576739 L188.153882,53.3685173 L219.480291,53.3685173 L219.480291,34.0673124 L188.153882,34.0673124 L188.153882,21.0552642 L223.878487,21.0552642 Z M282.236192,77.6576739 L309.271783,77.6576739 L293.502274,54.2359871 C297.828976,52.0719783 301.47019,48.7292325 304.014564,44.5853847 C306.512976,40.2841855 307.777061,35.3658468 307.665411,30.3805654 C307.783241,25.0145261 306.327789,19.7330307 303.48197,15.1998426 C300.577763,10.7576732 296.433397,7.28579734 291.573769,5.22393894 C285.839862,2.79124138 279.661838,1.60881532 273.444095,1.75405942 L237.287831,1.75405942 L237.287831,77.6576739 L262.605377,77.6576739 L262.605377,58.5733365 L269.477558,58.5733365 L282.236192,77.6576739 Z M282.128814,30.3805654 C282.274077,32.8415986 281.330045,35.2407747 279.551746,36.929963 C277.3512,38.6513101 274.596,39.4859981 271.820542,39.2721317 L262.586049,39.2721317 L262.586049,21.4889992 L271.820542,21.4889992 C274.59216,21.2793266 277.343482,22.105122 279.551746,23.8094811 C281.326947,25.5098366 282.26977,27.9138739 282.128814,30.3805654 Z M347.461783,58.3564691 L347.461783,48.3805654 L379.215556,48.3805654 L379.215556,29.9468305 L347.461783,29.9468305 L347.461783,21.0552642 L383.613752,21.0552642 L383.613752,1.75405942 L322.563011,1.75405942 L322.563011,77.6576739 L384.996779,77.6576739 L384.996779,58.3564691 L347.461783,58.3564691 Z M428.132602,79.3926136 C434.679483,79.5678624 441.193691,78.402262 447.282365,75.9661076 C452.02487,74.1009051 456.138754,70.9023661 459.136877,66.7492401 C461.761203,62.9555288 463.148511,58.4297315 463.105562,53.8022522 C463.370909,49.061748 461.814651,44.4006673 458.761055,40.790204 C455.963999,37.6700056 452.443259,35.3002621 448.515062,33.8938185 C443.788792,32.2811834 438.947815,31.0342073 434.034088,30.163698 C430.791122,29.6084322 427.598008,28.7888864 424.486051,27.7130956 C422.877645,27.3556646 421.696753,25.9677979 421.588997,24.3082763 C421.588997,21.1275534 424.843261,19.537192 431.351789,19.537192 C438.667929,19.7226059 445.836617,21.6548377 452.271139,25.1757462 L459.886375,6.6335775 C455.77081,4.34152969 451.342805,2.67538664 446.745475,1.68899918 C441.760808,0.577922446 436.671197,0.0179990976 431.566545,0.0191196653 C425.024931,-0.164686996 418.513255,0.978337311 412.416782,3.38056545 C407.661363,5.22258932 403.541504,8.42577363 400.562269,12.5974329 C397.941936,16.4175588 396.555703,20.9625741 396.593585,25.6094811 C396.340968,30.3529161 397.875455,35.0171407 400.888698,38.6649028 C403.620253,41.8002226 407.092299,44.1874147 410.982214,45.6046618 C415.71501,47.2559632 420.553058,48.581885 425.463189,49.5733365 C428.764154,50.1731842 432.011256,51.0435313 435.172293,52.1757462 C436.834946,52.5723155 438.037809,54.0310066 438.123035,55.7540594 C438.101844,57.161549 437.196253,58.3994744 435.870249,58.8335775 C433.45585,59.6717536 430.902513,60.0253689 428.3538,59.8745414 C424.031507,59.842084 419.734918,59.1997255 415.588723,57.9661076 C411.387787,56.8022399 407.347616,55.1119954 403.562406,52.9347823 L395.401691,71.5853847 C399.914135,74.2544772 404.822471,76.1729727 409.938502,77.2673124 C415.897146,78.6874529 421.99952,79.4007084 428.121864,79.3926136 L428.132602,79.3926136 Z M524.682454,1.75405942 L524.682454,28.6456257 L501.295562,28.6456257 L501.295562,1.75405942 L475.978017,1.75405942 L475.978017,77.6576739 L501.295562,77.6576739 L501.295562,49.6817703 L524.682454,49.6817703 L524.682454,77.6576739 L550,77.6576739 L550,1.75405942 L524.682454,1.75405942 Z" id="Refresh" fill="#29282E"></path>
            <path d="M23.2218498,459.95832 C28.0438931,460.057778 32.8392266,459.218114 37.3405836,457.486127 C41.0623029,456.098595 44.3160315,453.68735 46.7265351,450.530467 C48.9294529,447.518732 50.0881451,443.869771 50.0262837,440.138877 C50.1556256,437.336815 49.2495727,434.585099 47.4807634,432.408038 C45.8300597,430.488782 43.747888,428.988182 41.4050358,428.029324 C38.4872136,426.903737 35.4979622,425.972877 32.4569557,425.242869 C30.0014986,424.671385 27.604793,423.871782 25.2980725,422.85448 C23.9431165,422.374535 23.0258522,421.107043 22.9934862,419.669961 C23.0617806,417.967698 24.0968442,416.454162 25.658426,415.773115 C27.9436409,414.654999 30.4755107,414.135936 33.0163416,414.264658 C35.7426397,414.260629 38.4573156,414.619955 41.088679,415.333148 C43.6334149,416.010457 46.0606165,417.070062 48.2873686,418.475766 L54.0153131,406.785228 C51.2534094,405.133409 48.2464542,403.931193 45.1070395,403.223595 C41.454376,402.387234 37.7166822,401.979435 33.9696023,402.008449 C29.1369338,401.905867 24.3299819,402.738209 19.8131571,404.459691 C16.1157016,405.861992 12.8896791,408.280419 10.5068185,411.436302 C8.31658505,414.48412 7.17215804,418.159223 7.24478135,421.911695 C7.11012913,424.791501 8.02920918,427.621731 9.83010818,429.872993 C11.4967153,431.839649 13.6112901,433.37726 15.9959241,434.356461 C18.9265303,435.516394 21.9278326,436.489071 24.9817157,437.26862 C27.39282,437.859808 29.7481275,438.65893 32.0211793,439.657009 C33.3379012,440.132288 34.234633,441.358871 34.2880542,442.757726 C34.2522379,444.360589 33.2627074,445.787162 31.7739601,446.382211 C29.5652705,447.371593 27.1536876,447.8239 24.7365915,447.702111 C21.5037249,447.698279 18.2885139,447.225454 15.191414,446.298408 C12.0135632,445.378653 8.98603946,444.002506 6.20352735,442.213005 L0,453.987346 C3.10752941,455.965 6.52019203,457.416142 10.1003733,458.282257 C14.3822769,459.415017 18.7947877,459.978556 23.2239448,459.95832 L23.2218498,459.95832 Z M96.2374295,458.847928 L111.906521,458.847928 L98.4644979,403.118841 L82.9609173,403.118841 L47.2482097,458.847928 L63.8726573,458.847928 L70.3150236,448.016372 L94.0166464,448.016372 L96.2374295,458.847928 Z M77.2287826,436.388687 L87.8864467,418.329111 L91.6240667,436.388687 L77.2287826,436.388687 Z M146.029064,459.95832 C150.755275,460.039238 155.453254,459.214282 159.869153,457.528029 C164.011601,455.83134 167.652505,453.105529 170.447204,449.608632 L161.140865,440.453139 C157.812554,444.545575 152.814611,446.916749 147.539616,446.905981 C143.904787,447.099738 140.337905,445.866928 137.598469,443.470052 C135.122929,441.11844 133.787883,437.809481 133.938367,434.398362 C133.887357,430.961024 134.664903,427.561954 136.205242,424.488641 C137.629021,421.634779 139.819113,419.233585 142.530283,417.553932 C145.362566,415.859389 148.614287,414.995457 151.91414,415.060788 C156.887553,414.803067 161.597873,417.308471 164.164064,421.576482 L175.538245,412.504792 C173.449605,409.055319 170.334942,406.345005 166.629971,404.753002 C162.325253,402.848722 157.655227,401.911856 152.949109,402.008449 C146.638909,401.890316 140.401062,403.367625 134.814109,406.30336 C129.651702,409.040929 125.36705,413.180339 122.453146,418.245307 C119.472732,423.482024 117.948531,429.421126 118.038816,435.445902 C117.9527,439.949435 119.137733,444.386046 121.457984,448.246831 C123.8015,452.027047 127.203612,455.035768 131.242001,456.899505 C135.879951,459.01982 140.936836,460.06543 146.03535,459.95832 L146.029064,459.95832 Z M231.692633,420.864155 C231.93104,415.82215 229.742702,410.970425 225.805462,407.811817 C221.880682,404.69015 216.363642,403.125824 209.254343,403.118841 L185.479392,403.118841 L174.34405,458.847928 L190.092755,458.847928 L193.025865,444.035723 L200.987163,444.035723 L209.260628,458.847928 L225.723754,458.847928 L216.25819,442.129202 C220.794667,440.674657 224.768524,437.849258 227.632371,434.042199 C230.382901,430.208075 231.807688,425.581379 231.690538,420.864155 L231.692633,420.864155 Z M215.784702,422.372612 C215.942327,425.025137 214.889122,427.606142 212.92073,429.391125 C210.602884,431.165702 207.72218,432.043602 204.808586,431.863317 L195.422634,431.863317 L198.76219,415.542656 L207.035654,415.542656 C209.308956,415.40861 211.565763,416.003086 213.478021,417.23967 C215.047252,418.464678 215.909851,420.385921 215.782607,422.372612 L215.784702,422.372612 Z M233.201089,458.847928 L248.949794,458.847928 L260.085136,403.118841 L244.336432,403.118841 L233.201089,458.847928 Z M312.422292,415.291247 L314.888199,403.118841 L271.300091,403.118841 L260.164749,458.847928 L275.921835,458.847928 L279.739067,439.740813 L304.23682,439.740813 L306.702727,427.547456 L282.116982,427.547456 L284.582889,415.291247 L312.422292,415.291247 Z M311.228097,458.847928 L326.976802,458.847928 L338.112144,403.118841 L322.363439,403.118841 L311.228097,458.847928 Z M368.574585,459.95832 C373.300796,460.039238 377.998774,459.214282 382.414673,457.528029 C386.557121,455.83134 390.198025,453.105529 392.992724,449.608632 L383.686386,440.453139 C380.358727,444.545247 375.36156,446.916418 370.087231,446.905981 C366.451723,447.100068 362.884068,445.86725 360.143989,443.470052 C357.669922,441.117588 356.335794,437.809013 356.485982,434.398362 C356.4339,430.960911 357.211504,427.56159 358.752857,424.488641 C360.175329,421.634546 362.364835,419.233198 365.075804,417.553932 C367.909179,415.860161 371.161344,414.996305 374.461755,415.060788 C379.434434,414.803858 384.143753,417.309157 386.709584,421.576482 L398.083765,412.504792 C395.995125,409.055319 392.880462,406.345005 389.175491,404.753002 C384.870773,402.848722 380.200748,401.911856 375.494629,402.008449 C369.184429,401.890316 362.946582,403.367625 357.35963,406.30336 C352.197222,409.040929 347.91257,413.180339 344.998667,418.245307 C342.018253,423.482024 340.494052,429.421126 340.584336,435.445902 C340.498221,439.949435 341.683253,444.386046 344.003504,448.246831 C346.347496,452.026646 349.749473,455.035246 353.787521,456.899505 C358.425471,459.01982 363.482356,460.06543 368.58087,459.95832 L368.574585,459.95832 Z M396.88957,458.847928 L412.638275,458.847928 L423.773617,403.118841 L408.024912,403.118841 L396.88957,458.847928 Z M472.45067,403.118841 L466.406369,433.602233 L447.952918,403.118841 L434.988572,403.118841 L423.85323,458.847928 L439.283483,458.847928 L445.407398,428.280733 L463.781236,458.847928 L476.745581,458.847928 L487.880923,403.118841 L472.45067,403.118841 Z M527.888542,445.54418 C525.534649,446.472295 523.02301,446.934778 520.492915,446.905981 C516.689452,447.14341 512.937326,445.930632 509.992382,443.511954 C507.459208,441.176899 506.090554,437.839653 506.254762,434.398362 C506.19574,430.942411 506.987156,427.524936 508.559348,424.44674 C510.053891,421.577071 512.328433,419.187785 515.121134,417.553932 C518.138418,415.848432 521.559412,414.987213 525.02457,415.060788 C527.662638,414.99974 530.286033,415.469984 532.738648,416.44354 C535.081891,417.514978 537.129595,419.139912 538.705432,421.178417 L550,412.274334 C544.854487,405.423427 536.767484,402.001466 525.738991,402.008449 C519.326568,401.87855 512.983537,403.355014 507.287635,406.30336 C502.08959,409.018238 497.761392,413.142406 494.798872,418.203406 C491.783174,423.442747 490.243893,429.401486 490.344736,435.445902 C490.259527,439.954957 491.460026,444.395057 493.805805,448.246831 C496.163002,452.0147 499.56032,455.019824 503.587727,456.899505 C508.211457,459.022494 513.256729,460.068369 518.343364,459.95832 C522.396136,459.981295 526.429854,459.402326 530.312548,458.240355 C533.913761,457.204219 537.296493,455.521727 540.295597,453.275019 L544.988572,429.78919 L531.068871,429.78919 L527.888542,445.54418 Z M155.691566,489.094386 L158.157474,476.92198 L114.569366,476.92198 L103.434024,532.651067 L119.182729,532.651067 L123.002057,513.543951 L147.493524,513.543951 L149.957337,501.350595 L125.386256,501.350595 L127.852164,489.094386 L155.691566,489.094386 Z M154.497372,532.651067 L196.817957,532.651067 L199.361382,520.143448 L172.795787,520.143448 L181.385609,476.92198 L165.636904,476.92198 L154.497372,532.651067 Z M245.966403,532.651067 L261.635494,532.651067 L248.193471,476.92198 L232.68989,476.92198 L196.977183,532.651067 L213.599535,532.651067 L220.041902,521.819511 L243.745619,521.819511 L245.966403,532.651067 Z M226.955661,510.191826 L237.61542,492.132249 L241.35304,510.191826 L226.955661,510.191826 Z M314.370715,476.92198 L291.622353,513.145886 L283.661054,476.92198 L267.51638,476.92198 L280.162273,532.651067 L295.665854,532.651067 L330.603383,476.92198 L314.379095,476.92198 L314.370715,476.92198 Z M352.151265,533.761459 C358.423766,533.876956 364.623038,532.399223 370.16894,529.466548 C375.316709,526.720761 379.588487,522.582567 382.496381,517.5246 C385.476795,512.287884 387.000996,506.348781 386.910712,500.324006 C386.991416,495.846256 385.821077,491.434813 383.53135,487.585929 C381.224224,483.829076 377.882371,480.817481 373.90656,478.912304 C369.326027,476.751316 364.304236,475.689566 359.24101,475.811588 C352.968509,475.696091 346.769237,477.173824 341.223335,480.106499 C336.074995,482.852246 331.80253,486.990402 328.893799,492.048446 C325.914338,497.285548 324.390205,503.224386 324.479468,509.24904 C324.400842,513.726816 325.571806,518.137885 327.860925,521.987118 C330.167035,525.744816 333.509168,528.756664 337.485715,530.660742 C342.066099,532.822173 347.087996,533.883945 352.151265,533.761459 Z M353.50259,520.70912 C349.956228,520.924357 346.472851,519.700794 343.840088,517.315093 C341.473488,514.922205 340.218109,511.646974 340.379019,508.285304 C340.338904,504.909558 341.073556,501.569581 342.526474,498.522239 C343.893333,495.664297 346.01069,493.231219 348.652484,491.482775 C351.39701,489.713743 354.606159,488.802052 357.870829,488.863927 C361.413527,488.652661 364.893544,489.867235 367.535426,492.237003 C369.899149,494.640305 371.153516,497.92049 370.996496,501.287742 C371.03437,504.656531 370.29975,507.989197 368.84904,511.029857 C367.493809,513.895417 365.373976,516.33134 362.723031,518.069321 C359.984542,519.853868 356.772676,520.773629 353.504685,520.70912 L353.50259,520.70912 Z M446.733582,494.667294 C446.971989,489.625289 444.783651,484.773564 440.846412,481.614955 C436.921631,478.493289 431.404591,476.928963 424.295292,476.92198 L400.509866,476.92198 L389.374524,532.651067 L405.123229,532.651067 L408.066814,517.838862 L416.028112,517.838862 L424.301577,532.651067 L440.764704,532.651067 L431.299139,515.932341 C435.835616,514.477796 439.809473,511.652397 442.67332,507.845338 C445.42385,504.011213 446.848637,499.384518 446.731487,494.667294 L446.733582,494.667294 Z M430.825651,496.175751 C430.983276,498.828275 429.930071,501.409281 427.961679,503.194264 C425.643833,504.968841 422.763129,505.846741 419.849535,505.666456 L410.463584,505.666456 L413.803139,489.345795 L422.076604,489.345795 C424.349905,489.211749 426.606712,489.806225 428.51897,491.042809 C430.088202,492.267817 430.9508,494.189059 430.823556,496.175751 L430.825651,496.175751 Z" id="_Sacrificing_Flavor" fill="#ED1C24"></path>
            <path d="M65.0803225,290.279319 L104.223549,290.279319 L81.3892704,257.011849 C87.6604876,253.946776 92.9354186,249.197448 96.612123,243.305825 C100.228938,237.198867 102.057735,230.215271 101.8937,223.13715 C102.062535,215.51734 99.9546792,208.017945 95.8347766,201.580524 C91.6266771,195.276413 85.6269034,190.348526 78.5930128,187.419078 C70.291259,183.966002 61.346715,182.288428 52.3449786,182.496186 L0,182.496186 L0,290.279319 L36.6557181,290.279319 L36.6557181,263.170885 L46.5969941,263.170885 L65.0803225,290.279319 Z M64.9248532,223.13715 C65.1343261,226.637334 63.77189,230.050394 61.202349,232.462451 C58.0094787,234.883142 54.0292602,236.056398 50.0195083,235.758837 L36.6622872,235.758837 L36.6622872,210.515464 L50.0195083,210.515464 C54.0331963,210.213513 58.0174368,211.395681 61.202349,213.833536 C63.7750661,216.234418 65.1387379,219.642628 64.9248532,223.13715 Z M159.520255,262.867271 L159.520255,248.705825 L205.504131,248.705825 L205.504131,222.529921 L159.520255,222.529921 L159.520255,209.886548 L211.854285,209.886548 L211.854285,182.496186 L123.482034,182.496186 L123.482034,290.279319 L213.879765,290.279319 L213.879765,262.867271 L159.518065,262.867271 L159.520255,262.867271 Z M276.321489,292.729921 C285.798249,292.986181 295.229416,291.341142 304.047576,287.893777 C310.910079,285.233164 316.863964,280.689144 321.210511,274.794982 C325.009211,269.405332 327.017584,262.977205 326.956305,256.40462 C326.956305,248.597391 324.860025,242.438355 320.667463,237.927512 C316.620536,233.49619 311.521564,230.134497 305.832189,228.146789 C298.988343,225.853151 291.978685,224.076971 284.863541,222.833536 C280.168791,222.04769 275.545861,220.887285 271.039912,219.363656 C268.243655,218.279319 266.846621,216.6745 266.846621,214.505825 C266.846621,209.994982 271.558143,207.73956 280.981188,207.73956 C291.571962,208.012127 301.948667,210.753758 311.269235,215.74197 L322.296606,189.414259 C316.336139,186.166796 309.925216,183.806527 303.27023,182.409439 C296.054328,180.820621 288.684203,180.020655 281.292127,180.023897 C271.822282,179.780233 262.397891,181.401976 253.56604,184.794982 C246.681511,187.4169 240.717485,191.96866 236.403105,197.893777 C232.604559,203.316221 230.596424,209.771445 230.655121,216.370885 C230.655121,224.156427 232.726585,230.358837 236.869513,234.913054 C240.827889,239.358464 245.847689,242.750889 251.470489,244.780524 C258.325394,247.114964 265.330662,248.991464 272.439136,250.397391 C277.216312,251.252411 281.916608,252.485274 286.494874,254.084138 C289.341495,255.211849 290.765535,256.903415 290.766995,259.158837 C290.735622,261.164232 289.426655,262.930459 287.50433,263.561247 C284.008672,264.734534 280.317061,265.227912 276.632428,265.014259 C270.375507,264.967336 264.155299,264.062352 258.149099,262.325102 C252.071382,260.667397 246.226926,258.263188 240.751866,255.168476 L228.947148,281.647994 C235.478361,285.447284 242.585397,288.178724 249.994625,289.73715 C258.623411,291.742263 267.458391,292.746602 276.321489,292.729921 Z M381.631134,262.867271 L381.631134,248.705825 L427.615009,248.705825 L427.615009,222.529921 L381.631134,222.529921 L381.631134,209.886548 L433.965164,209.886548 L433.965164,182.496186 L345.592913,182.496186 L345.592913,290.279319 L435.988454,290.279319 L435.988454,262.867271 L381.628944,262.867271 L381.631134,262.867271 Z M481.501543,290.279319 L518.159451,290.279319 L518.159451,210.667271 L550,210.667271 L550,182.496186 L449.658804,182.496186 L449.658804,210.667271 L481.499353,210.667271 L481.499353,290.279319 L481.501543,290.279319 Z" id="Reset" fill="#29282E"></path>
            <path d="M242.859036,149.582634 L247.263614,149.582634 L229.192048,110.004321 L225.071566,110.004321 L207,149.582634 L211.337349,149.582634 L216.08241,138.999501 L238.116145,138.999501 L242.859036,149.582634 Z M217.615663,135.616369 L227.103614,114.363357 L236.591566,135.616369 L217.615663,135.616369 Z M285.553735,110.004321 L285.553735,142.122393 L260.084819,110.004321 L256.638795,110.004321 L256.638795,149.582634 L260.817831,149.582634 L260.817831,117.464561 L286.23253,149.582634 L289.678554,149.582634 L289.678554,110.004321 L285.558072,110.004321 L285.553735,110.004321 Z M305.37759,149.582634 L321.473494,149.582634 C325.309968,149.656062 329.106447,148.79255 332.533735,147.066971 C335.633157,145.48732 338.218583,143.057607 339.98747,140.062152 C343.526577,133.673777 343.526577,125.913177 339.98747,119.524802 C338.212402,116.534299 335.628598,114.10611 332.533735,112.519983 C329.106447,110.794405 325.309968,109.930892 321.473494,110.004321 L305.37759,110.004321 L305.37759,149.582634 Z M309.556627,145.960947 L309.556627,113.626007 L321.245783,113.626007 C324.39982,113.558001 327.522312,114.265458 330.339036,115.686248 C332.848551,116.983301 334.942913,118.959682 336.383133,121.389863 C339.242818,126.627349 339.242818,132.959605 336.383133,138.197092 C334.942913,140.627273 332.848551,142.603653 330.339036,143.900706 C327.522312,145.321496 324.39982,146.028953 321.245783,145.960947 L309.556627,145.960947 Z" id="AND" fill="#29282E"></path>
            <path d="M181.620241,327.325311 L170.043855,361.525311 L158.408916,327.325311 L154.505301,327.325311 L142.701205,361.351817 L131.293976,327.325311 L127,327.325311 L140.328675,366.903624 L144.666024,366.903624 L156.300964,333.159046 L167.877349,366.903624 L172.284096,366.903624 L185.610602,327.325311 L181.600723,327.325311 L181.620241,327.325311 Z M196.078795,366.903624 L200.257831,366.903624 L200.257831,327.325311 L196.072289,327.325311 L196.072289,366.903624 L196.078795,366.903624 Z M223.638313,366.903624 L227.817349,366.903624 L227.817349,330.946998 L241.70988,330.946998 L241.70988,327.325311 L209.745783,327.325311 L209.745783,330.946998 L223.638313,330.946998 L223.638313,366.903624 Z M280.112771,327.325311 L280.112771,344.956636 L255.376867,344.956636 L255.376867,327.325311 L251.197831,327.325311 L251.197831,366.903624 L255.376867,366.903624 L255.376867,348.643383 L280.112771,348.643383 L280.112771,366.903624 L284.233253,366.903624 L284.233253,327.325311 L280.112771,327.325311 Z M317.216627,367.228925 C320.908193,367.280204 324.5522,366.39215 327.806265,364.648202 C330.895525,362.96565 333.463933,360.467754 335.231807,357.426516 C338.846269,351.026905 338.846269,343.202031 335.231807,336.802419 C333.463933,333.761181 330.895525,331.263285 327.806265,329.580733 C321.145842,326.124493 313.216852,326.140688 306.570602,329.624106 C303.471554,331.293497 300.892547,333.78471 299.116867,336.824106 C295.539934,343.218093 295.539934,351.010842 299.116867,357.404829 C300.892547,360.444225 303.471554,362.935438 306.570602,364.604829 C309.835215,366.378818 313.501541,367.282516 317.216627,367.228925 Z M317.216627,363.498805 C314.249664,363.541792 311.321961,362.81715 308.71759,361.39519 C306.224941,360.016353 304.154946,357.984594 302.72988,355.518082 C299.832602,350.290253 299.832602,343.938682 302.72988,338.710853 C304.148772,336.239563 306.220279,334.20632 308.71759,332.833745 C314.02657,330.029098 320.378491,330.029098 325.68747,332.833745 C328.168158,334.209074 330.220745,336.242898 331.618795,338.710853 C334.47848,343.948339 334.47848,350.280596 331.618795,355.518082 C330.214496,357.981253 328.163432,360.013569 325.68747,361.39519 C323.094089,362.819198 320.174898,363.544138 317.216627,363.498805 Z M366.068193,367.228925 C370.490304,367.500694 374.823371,365.903431 378.011084,362.826516 C381.073494,359.278728 382.607128,354.66301 382.276867,349.987962 L382.276867,327.325311 L378.210602,327.325311 L378.210602,349.836154 C378.500897,353.531185 377.391636,357.200338 375.102892,360.115672 C369.945062,364.626845 362.245541,364.626845 357.087711,360.115672 C354.799548,357.200126 353.691047,353.530927 353.982169,349.836154 L353.982169,327.325311 L349.803133,327.325311 L349.803133,349.987962 C349.471593,354.66767 351.015782,359.286971 354.09494,362.826516 C357.296038,365.901757 361.637423,367.498028 366.068193,367.228925 Z M404.583855,366.903624 L408.762892,366.903624 L408.762892,330.946998 L422.655422,330.946998 L422.655422,327.325311 L390.691325,327.325311 L390.691325,330.946998 L404.583855,330.946998 L404.583855,366.903624 Z" id="Without" fill="#29282E"></path>
            <g id="elipses" transform="translate(462.000000, 342.000000)" fill="#29282E" fill-rule="nonzero">
                <circle id="Ellipse_3_copy_5" cx="5.09831325" cy="4.81445783" r="4.3373494"></circle>
                <circle id="Ellipse_3_copy_7" cx="44.1344578" cy="4.81445783" r="4.3373494"></circle>
                <circle id="Ellipse_3_copy_9" cx="83.1706024" cy="4.81445783" r="4.3373494"></circle>
            </g>
            <g id="elipses-2" transform="translate(0.000000, 342.000000)" fill="#29282E" fill-rule="nonzero">
                <circle id="Oval" cx="5.09831325" cy="4.81445783" r="4.3373494"></circle>
                <circle id="Ellipse_3_copy_2" cx="44.1344578" cy="4.81445783" r="4.3373494"></circle>
                <circle id="Ellipse_3_copy_4" cx="83.1706024" cy="4.81445783" r="4.3373494"></circle>
            </g>
            <polygon id="rectangle" fill="#ED1C24" points="370 125 550.268916 125 550.268916 135 370 135"></polygon>
            <polygon id="rectangle-2" fill="#ED1C24" points="0 125 180.271084 125 180.271084 135 0 135"></polygon>
        </g>
    </g>
</svg>