<?xml version="1.0" encoding="UTF-8"?>
<svg width="550px" height="550px" viewBox="0 0 550 550" version="1.1" xmlns="http://www.w3.org/2000/svg" xmlns:xlink="http://www.w3.org/1999/xlink">
    <!-- Generator: Sketch 50.2 (55047) - http://www.bohemiancoding.com/sketch -->
    <title>3</title>
    <desc>Created with Sketch.</desc>
    <defs></defs>
    <g id="3" stroke="none" stroke-width="1" fill="none" fill-rule="evenodd">
        <g id="desktop_2" transform="translate(0.000000, 48.000000)">
            <path d="M8.59312621e-14,46.4337 L35.2725674,46.4337 L35.2725674,34.7273528 L15.0775193,34.7273528 L15.0775193,1.65532284 L8.59312621e-14,1.65532284 L8.59312621e-14,46.4337 Z M62.8867529,47.4572058 C67.3917583,47.5299934 71.8459667,46.4977065 75.8596885,44.4506576 C83.4957377,40.5106886 88.2930898,32.6371015 88.2930898,24.0445114 C88.2930898,15.4519214 83.4957377,7.57833432 75.8596885,3.63836526 C67.6751231,-0.370301398 58.0971034,-0.370301398 49.912538,3.63836526 C42.277281,7.57896942 37.4806472,15.4523342 37.4806472,24.0445114 C37.4806472,32.6366887 42.277281,40.5100534 49.912538,44.4506576 C53.9267154,46.4977134 58.3813385,47.5299946 62.8867529,47.4572058 Z M62.8867529,35.2391057 C61.0981882,35.2631573 59.3385068,34.7867893 57.8063262,33.8637699 C56.2670262,32.9192992 55.0174683,31.5692632 54.1946302,29.9616541 C52.4051599,26.2198326 52.4051599,21.8691903 54.1946302,18.1273687 C55.018122,16.5202165 56.2675321,15.1703401 57.8063262,14.225253 C60.9450748,12.3915138 64.8284311,12.3915138 67.9671797,14.225253 C69.5055953,15.1708011 70.7548951,16.5205583 71.5788756,18.1273687 C73.368346,21.8691903 73.368346,26.2198326 71.5788756,29.9616541 C70.7553839,31.5688063 69.5059737,32.9186827 67.9671797,33.8637699 C66.4348375,34.7864106 64.6752661,35.2627488 62.8867529,35.2391057 Z M117.721074,47.4572058 C122.226063,47.5298371 126.680234,46.4975588 130.69401,44.4506576 C138.329267,40.5100534 143.125901,32.6366887 143.125901,24.0445114 C143.125901,15.4523342 138.329267,7.57896942 130.69401,3.63836526 C122.509444,-0.370301398 112.931425,-0.370301398 104.746859,3.63836526 C97.1116023,7.57896942 92.3149685,15.4523342 92.3149685,24.0445114 C92.3149685,32.6366887 97.1116023,40.5100534 104.746859,44.4506576 C108.760983,46.4978611 113.215643,47.530151 117.721074,47.4572058 Z M117.721074,35.2391057 C115.932136,35.2629198 114.172108,34.7865777 112.639368,33.8637699 C111.100455,32.91922 109.851331,31.5691741 109.028952,29.9616541 C107.239481,26.2198326 107.239481,21.8691903 109.028952,18.1273687 C109.852093,16.5203816 111.101045,15.1705219 112.639368,14.225253 C115.778586,12.391555 119.662284,12.391555 122.801501,14.225253 C124.339824,15.1705219 125.588776,16.5203816 126.411918,18.1273687 C128.201388,21.8691903 128.201388,26.2198326 126.411918,29.9616541 C125.589538,31.5691741 124.340414,32.91922 122.801501,33.8637699 C121.269078,34.7862215 119.509562,35.2625449 117.721074,35.2391057 Z M178.498126,46.4337 L195.945061,46.4337 L177.156054,21.3578088 L195.050773,1.65532284 L178.620947,1.65532284 L163.920845,17.9034768 L163.920845,1.65532284 L149.094085,1.65532284 L149.094085,46.4337 L163.920845,46.4337 L163.920845,35.367044 L167.308649,31.5928664 L178.498126,46.4337 Z M198.629205,46.4337 L213.711842,46.4337 L213.711842,1.65532284 L198.624087,1.65532284 L198.624087,46.4337 L198.629205,46.4337 Z M251.033979,1.65532284 L251.033979,21.9974999 L234.034828,1.65532284 L221.636335,1.65532284 L221.636335,46.4337 L236.335157,46.4337 L236.335157,26.091523 L253.335588,46.4337 L265.727684,46.4337 L265.727684,1.65532284 L251.027583,1.65532284 L251.033979,1.65532284 Z M303.246847,34.1516309 C301.503657,34.8764469 299.633364,35.2461559 297.745503,35.2391057 C294.837523,35.371765 292.011664,34.2542727 289.980933,32.1685884 C287.977369,29.9504948 286.932043,27.0302053 287.072897,24.0445114 C286.911195,21.0302812 287.972085,18.0782406 290.015476,15.8564653 C292.122458,13.7935689 294.994879,12.7037743 297.939969,12.8499171 C301.862051,12.8705144 305.55894,14.6852563 307.974164,17.7755386 L317.624544,9.26764696 C315.311638,6.44385999 312.336735,4.235426 308.964406,2.83875138 C305.223054,1.31595857 301.212454,0.565276673 297.173619,0.631817074 C292.640982,0.556871218 288.157245,1.5772989 284.103451,3.6063807 C280.374751,5.47170751 277.250622,8.35497311 275.092762,11.922365 C270.788935,19.4307871 270.788935,28.6582358 275.092762,36.1666578 C277.23049,39.7159171 280.31841,42.59644 284.007497,44.4826422 C287.982235,46.5088719 292.392964,47.5301788 296.853774,47.4572058 C300.335035,47.4409388 303.797513,46.9458687 307.143845,45.9859163 C310.425934,45.1032395 313.536653,43.6761058 316.346441,41.763955 L316.346441,22.8290983 L303.241729,22.8290983 L303.241729,34.1516309 L303.246847,34.1516309 Z M372.845239,34.1516309 C371.101969,34.8761832 369.23173,35.2458815 367.343895,35.2391057 C364.435559,35.371639 361.609357,34.2541949 359.578045,32.1685884 C357.575431,29.9500027 356.530648,27.0299434 356.671289,24.0445114 C356.509441,21.0302597 357.57035,18.0781639 359.613868,15.8564653 C361.722868,13.791827 364.598376,12.7019166 367.546038,12.8499171 C371.467759,12.8705263 375.164252,14.6853055 377.578953,17.7755386 L387.229333,9.26764696 C384.916639,6.44418334 381.942235,4.23579338 378.570474,2.83875138 C374.828674,1.31595878 370.817657,0.565280211 366.778408,0.631817074 C362.242513,0.554222205 357.755033,1.5738247 353.698005,3.60382194 C349.968954,5.46912529 346.844406,8.35236837 344.686036,11.9198063 C340.383771,19.428644 340.383771,28.6552613 344.686036,36.1640991 C346.824271,39.7134054 349.912612,42.5939067 353.602051,44.4800834 C357.57628,46.506454 361.986631,47.5277753 366.447048,47.454647 C369.928323,47.4385585 373.390825,46.9434848 376.737119,45.9833575 C380.019209,45.1006807 383.129928,43.673547 385.939715,41.7613962 L385.939715,22.8265396 L372.838842,22.8265396 L372.838842,34.1490721 L372.845239,34.1516309 Z M416.495201,47.4572058 C421.000206,47.5299934 425.454415,46.4977065 429.468136,44.4506576 C437.104185,40.5106886 441.901538,32.6371015 441.901538,24.0445114 C441.901538,15.4519214 437.104185,7.57833432 429.468136,3.63836526 C421.283571,-0.370301398 411.705551,-0.370301398 403.520986,3.63836526 C395.885729,7.57896942 391.089095,15.4523342 391.089095,24.0445114 C391.089095,32.6366887 395.885729,40.5100534 403.520986,44.4506576 C407.535109,46.4978611 411.98977,47.530151 416.495201,47.4572058 Z M416.495201,35.2391057 C414.706636,35.2631573 412.946955,34.7867893 411.414774,33.8637699 C409.875178,32.9196598 408.625534,31.5695304 407.803078,29.9616541 C406.013608,26.2198326 406.013608,21.8691903 407.803078,18.1273687 C408.62657,16.5202165 409.87598,15.1703401 411.414774,14.225253 C414.553523,12.3915138 418.436879,12.3915138 421.575627,14.225253 C423.11395,15.1705219 424.362902,16.5203816 425.186044,18.1273687 C426.975514,21.8691903 426.975514,26.2198326 425.186044,29.9616541 C424.363665,31.5691741 423.11454,32.91922 421.575627,33.8637699 C420.043285,34.7864106 418.283714,35.2627488 416.495201,35.2391057 Z M471.328243,47.4572058 C475.833657,47.5299946 480.28828,46.4977134 484.302458,44.4506576 C491.937715,40.5100534 496.734348,32.6366887 496.734348,24.0445114 C496.734348,15.4523342 491.937715,7.57896942 484.302458,3.63836526 C476.117892,-0.370301398 466.539872,-0.370301398 458.355307,3.63836526 C450.719258,7.57833432 445.921906,15.4519214 445.921906,24.0445114 C445.921906,32.6371015 450.719258,40.5106886 458.355307,44.4506576 C462.369029,46.4977065 466.823237,47.5299934 471.328243,47.4572058 Z M471.328243,35.2391057 C469.539729,35.2627488 467.780158,34.7864106 466.247816,33.8637699 C464.708903,32.91922 463.459778,31.5691741 462.637399,29.9616541 C460.847929,26.2198326 460.847929,21.8691903 462.637399,18.1273687 C463.460541,16.5203816 464.709493,15.1705219 466.247816,14.225253 C469.387033,12.391555 473.270731,12.391555 476.409949,14.225253 C477.947977,15.1708803 479.196843,16.5206473 480.020365,18.1273687 C481.809836,21.8691903 481.809836,26.2198326 480.020365,29.9616541 C479.197605,31.5689074 477.948566,32.9188601 476.409949,33.8637699 C474.877075,34.7862626 473.117138,35.2625798 471.328243,35.2391057 Z M502.70765,46.4337 L524.756523,46.4337 C529.30344,46.5259397 533.813124,45.5968967 537.95335,43.7150128 C541.607182,42.0428298 544.694419,39.3419423 546.83738,35.9427659 C551.054207,28.5710237 551.054207,19.5179991 546.83738,12.1462569 C544.69368,8.74771252 541.606654,6.04700976 537.95335,4.37401002 C533.812921,2.49274992 529.30338,1.56373644 524.756523,1.65532284 L502.701253,1.65532284 L502.701253,46.4337 L502.70765,46.4337 Z M517.790287,34.6633837 L517.790287,13.4256391 L524.116832,13.4256391 C526.972233,13.2853135 529.766199,14.2864463 531.882682,16.2082954 C535.760034,20.7129981 535.760034,27.3760248 531.882682,31.8807274 C529.766199,33.8025766 526.972233,34.8037093 524.116832,34.6633837 L517.790287,34.6633837 Z" id="Looking_Good" fill="#29282E"></path>
            <path d="M71.269697,328.053053 L53.5278217,361.854208 L49.7970099,328.053053 L36.1552967,328.053053 L18.5607885,361.406511 L14.5352426,328.053053 L0,328.053053 L6.4095346,380.284418 L22.2934657,380.284418 L38.9179628,348.796367 L42.71966,380.284418 L58.5233786,380.284418 L85.8832866,328.053053 L71.2715624,328.053053 L71.269697,328.053053 Z M125.985782,328.053053 L122.109469,347.602507 L102.056356,347.602507 L105.932669,328.053053 L91.1735777,328.053053 L80.7273048,380.284418 L95.4863961,380.284418 L99.511942,359.988802 L119.565055,359.988802 L115.539509,380.284418 L130.300466,380.284418 L140.737412,328.053053 L125.976455,328.053053 L125.985782,328.053053 Z M180.479884,380.284418 L195.166225,380.284418 L182.567273,328.053053 L168.030165,328.053053 L134.559188,380.284418 L150.139058,380.284418 L156.177376,370.13661 L178.392495,370.13661 L180.479884,380.284418 Z M162.663393,359.24264 L172.652641,342.304754 L176.155873,359.24264 L162.663393,359.24264 Z M207.837927,380.284418 L222.598883,380.284418 L230.724591,339.767802 L246.677543,339.767802 L249.063397,328.053053 L202.321922,328.053053 L199.936067,339.767802 L215.963635,339.767802 L207.837927,380.284418 Z M324.203811,328.053053 L300.498233,358.272629 L288.272363,328.053053 L276.270341,328.053053 L265.835261,380.284418 L279.402358,380.284418 L284.918363,352.751027 L294.385298,375.135898 L300.871314,375.135898 L318.240108,352.751027 L312.873336,380.284418 L326.515049,380.284418 L336.802762,328.053053 L324.203811,328.053053 Z M376.610524,380.284418 L391.294999,380.284418 L378.697913,328.053053 L364.160805,328.053053 L330.689827,380.284418 L346.269697,380.284418 L352.308016,370.13661 L374.523134,370.13661 L376.610524,380.284418 Z M358.794032,359.24264 L368.783281,342.304754 L372.286513,359.24264 L358.794032,359.24264 Z M457.194192,328.053053 L439.825398,328.053053 L416.267187,349.393297 L420.516582,328.053053 L405.979474,328.053053 L395.533201,380.284418 L410.070309,380.284418 L412.605395,367.599658 L419.388011,361.481127 L431.390033,380.284418 L447.865297,380.284418 L430.347271,352.079481 L457.194192,328.053053 Z M500.579802,339.469337 L502.89104,328.053053 L462.038651,328.053053 L451.592378,380.284418 L493.412913,380.284418 L495.798767,368.868134 L468.451917,368.868134 L470.317322,359.317256 L493.575203,359.317256 L495.737208,348.274053 L472.552079,348.274053 L474.266387,339.469337 L500.583533,339.469337 L500.579802,339.469337 Z M521.155229,381.329045 C525.67315,381.413049 530.165097,380.627766 534.386553,379.015942 C537.870805,377.703264 540.918148,375.441666 543.183807,372.487022 C545.247398,369.664506 546.333336,366.24557 546.27665,362.749603 C546.400828,360.125695 545.551887,357.548315 543.892661,355.511828 C542.350872,353.703689 540.394311,352.29563 538.190115,351.407935 C535.455385,350.345429 532.650619,349.472835 529.795789,348.796367 C527.496846,348.245579 525.249955,347.496615 523.080328,346.55788 C521.8146,346.102074 520.956869,344.917976 520.918322,343.57323 C520.979234,341.975802 521.950152,340.554593 523.416101,339.917035 C525.557735,338.862183 527.934068,338.374072 530.318103,338.499326 C532.87442,338.495599 535.419713,338.834386 537.886054,339.506646 C540.271523,340.139685 542.546224,341.133608 544.631362,342.453987 L550,331.4854 C547.414959,329.933804 544.595056,328.812394 541.650443,328.164978 C538.229738,327.366337 534.726065,326.978083 531.213497,327.008426 C526.682243,326.908735 522.175096,327.69446 517.944865,329.321529 C514.474402,330.621867 511.447967,332.887162 509.222227,335.85045 C507.168446,338.704148 506.09623,342.147283 506.166693,345.662485 C506.041752,348.3617 506.903776,351.014081 508.59172,353.124108 C510.157717,354.968072 512.139851,356.413112 514.374479,357.339926 C517.122423,358.424137 519.936077,359.333777 522.798651,360.063418 C525.064327,360.597432 527.273709,361.34701 529.396592,362.301905 C530.636001,362.742507 531.47909,363.897221 531.521289,365.211939 C531.484581,366.710396 530.56196,368.044129 529.172743,368.606977 C527.100782,369.530294 524.840317,369.952094 522.574803,369.838145 C519.54673,369.825176 516.535589,369.385593 513.630182,368.532361 C510.654736,367.655723 507.818495,366.361955 505.206009,364.689625 L499.391539,375.732828 C502.30661,377.582679 505.504398,378.943708 508.858473,379.762104 C512.871634,380.824368 517.00765,381.351249 521.15896,381.329045 L521.155229,381.329045 Z M80.4812001,453.924004 C95.7364894,453.924004 104.955325,446.039555 108.137708,430.270657 L114.026794,400.648012 L99.489686,400.648012 L93.7498321,429.375263 C93.2674503,432.829257 91.8640526,436.089676 89.6869781,438.814216 C87.7336676,440.779831 85.0378457,441.823987 82.2701243,441.686941 C76.5047766,441.686941 73.6221027,438.951013 73.6221027,433.479155 C73.6362406,432.099811 73.7861969,430.725211 74.0698001,429.375263 L79.809654,400.648012 L65.0505627,400.648012 L59.2342271,429.599111 C58.8648888,431.417181 58.6656737,433.265697 58.6391627,435.120713 C58.5564784,438.632337 59.4613337,442.09664 61.2507309,445.119288 C63.0501349,448.000923 65.6737338,450.275532 68.7813744,451.648209 C72.4717649,453.245253 76.4649834,454.021747 80.4849309,453.924004 L80.4812001,453.924004 Z M133.109896,453.924004 C137.62841,454.00783 142.120934,453.222556 146.343085,451.610901 C149.826369,450.297392 152.872899,448.035917 155.138474,445.08198 C157.202729,442.259698 158.289329,438.840741 158.233183,435.344561 C158.356838,432.720413 157.507224,430.143006 155.847328,428.106787 C154.30554,426.298648 152.348978,424.890589 150.144783,424.002894 C147.410053,422.940388 144.605287,422.067794 141.750456,421.391325 C139.451601,420.840232 137.204735,420.091277 135.034995,419.152838 C133.769267,418.697033 132.911536,417.512934 132.87299,416.168189 C132.933901,414.570761 133.904819,413.149551 135.370768,412.511993 C137.512457,411.457301 139.888748,410.969198 142.27277,411.094285 C144.828473,411.090567 147.373149,411.429356 149.838856,412.101604 C152.224914,412.734631 154.500232,413.728549 156.586029,415.048945 L161.952802,404.080359 C159.367923,402.528435 156.547964,401.407004 153.603245,400.759936 C150.179505,399.960559 146.672656,399.5723 143.156972,399.603385 C138.625718,399.503694 134.118571,400.289419 129.88834,401.916488 C126.417877,403.216825 123.391442,405.482121 121.165702,408.445409 C119.112652,411.299471 118.040514,414.742357 118.110167,418.257444 C117.985227,420.956659 118.847251,423.609039 120.535195,425.719067 C122.100407,427.563875 124.082761,429.009075 126.317953,429.934884 C129.065247,431.019138 131.878283,431.92878 134.740261,432.658377 C137.005937,433.192391 139.215318,433.941969 141.338201,434.896864 C142.57761,435.337466 143.420699,436.492179 143.462899,437.806897 C143.426191,439.305354 142.50357,440.639088 141.114353,441.201936 C139.043002,442.125099 136.783178,442.546898 134.518278,442.433104 C131.487091,442.420837 128.472773,441.981249 125.564329,441.12732 C122.589024,440.250305 119.752835,438.956561 117.140156,437.284583 L111.325686,448.327786 C114.240758,450.177637 117.438546,451.538666 120.792621,452.357063 C124.805807,453.419198 128.941806,453.946077 133.093107,453.924004 L133.109896,453.924004 Z M229.198818,425.942916 C231.908233,424.859572 234.277068,423.068612 236.057916,420.757087 C237.717034,418.472944 238.580757,415.70746 238.516521,412.885075 C238.671312,409.251777 236.898838,405.806088 233.853006,403.819202 C230.74524,401.692639 226.260804,400.648012 220.395968,400.648012 L194.013533,400.648012 L183.56726,452.879377 L212.268395,452.879377 C218.31624,453.142293 224.31418,451.68017 229.562572,448.663559 C233.864817,446.069064 236.40894,441.334148 236.197821,436.314572 C236.250253,434.098305 235.611316,431.920701 234.369723,430.084117 C233.06755,428.243305 231.271857,426.807784 229.189491,425.942916 L229.198818,425.942916 Z M216.898332,411.318134 C221.022744,411.318134 223.085883,412.67988 223.085883,415.422027 C223.183179,417.151144 222.413992,418.815385 221.033937,419.861693 C219.245121,420.992026 217.144557,421.527451 215.032926,421.391325 L204.446748,421.391325 L206.459521,411.318134 L216.905794,411.318134 L216.898332,411.318134 Z M213.096635,442.209255 L200.2757,442.209255 L202.363089,431.61375 L215.407873,431.61375 C216.974008,431.527541 218.530919,431.903794 219.884847,432.695685 C220.98717,433.428486 221.612787,434.695378 221.524539,436.016107 C221.627121,437.841225 220.780874,439.590135 219.286052,440.642314 C217.432678,441.785975 215.272818,442.33294 213.0985,442.209255 L213.096635,442.209255 Z M289.880472,412.064296 L292.189844,400.648012 L251.337455,400.648012 L240.891182,452.879377 L282.711717,452.879377 L285.097571,441.463093 L257.750721,441.463093 L259.616127,431.912215 L282.874007,431.912215 L285.036013,420.869012 L261.850883,420.869012 L263.565191,412.064296 L289.880472,412.064296 Z M302.02986,452.879377 L316.790817,452.879377 L324.916525,412.362761 L340.869476,412.362761 L343.25533,400.648012 L296.517586,400.648012 L294.131732,412.362761 L310.159299,412.362761 L302.02986,452.879377 Z M350.112562,452.879377 L364.871653,452.879377 L372.997361,412.362761 L388.950312,412.362761 L391.336166,400.648012 L344.596557,400.648012 L342.210703,412.362761 L358.23827,412.362761 L350.112562,452.879377 Z M435.393323,412.064296 L437.70456,400.648012 L396.852172,400.648012 L386.405899,452.879377 L428.226433,452.879377 L430.612287,441.463093 L403.263572,441.463093 L405.128978,431.912215 L428.386858,431.912215 L430.548863,420.869012 L407.363734,420.869012 L409.078042,412.064296 L435.393323,412.064296 Z M490.25864,417.287432 C490.485719,412.560439 488.434863,408.010687 484.742635,405.05037 C481.064055,402.103029 475.89688,400.648012 469.237381,400.648012 L446.947647,400.648012 L436.501374,452.879377 L451.26233,452.879377 L454.0194,439.000757 L461.481024,439.000757 L469.233651,452.879377 L484.664288,452.879377 L475.792418,437.209967 C480.039965,435.841178 483.762492,433.196654 486.453212,429.636419 C489.029425,426.042935 490.364072,421.707623 490.254909,417.287432 L490.25864,417.287432 Z M475.350316,418.705141 C475.496404,421.187504 474.509236,423.602257 472.665997,425.27137 C470.492538,426.932399 467.79286,427.753694 465.062603,427.584473 L456.265349,427.584473 L459.397365,412.288145 L467.149992,412.288145 C469.283259,412.156139 471.401859,412.719005 473.188311,413.892394 C474.667446,415.034952 475.478549,416.840513 475.350316,418.705141 Z" id="_What_Makes_Us_Better" fill="#ED1C24"></path>
            <path d="M38.1642347,161.181238 L38.1642347,149.349843 L2.30926389e-14,149.349843 L2.30926389e-14,195.907982 L15.8298945,195.907982 L15.8298945,181.006819 L35.4142408,181.006819 L35.4142408,169.162633 L15.8298945,169.162633 L15.8298945,161.181238 L38.1655258,161.181238 L38.1642347,161.181238 Z M59.7626611,184.063796 L59.7626611,177.949843 L79.6155514,177.949843 L79.6155514,166.642866 L59.7639522,166.642866 L59.7639522,161.181238 L82.3668364,161.181238 L82.3668364,149.349843 L44.2026016,149.349843 L44.2026016,195.907982 L83.2396044,195.907982 L83.2396044,184.063796 L59.7639522,184.063796 L59.7626611,184.063796 Z M105.908334,184.063796 L105.908334,177.949843 L125.761224,177.949843 L125.761224,166.642866 L105.908334,166.642866 L105.908334,161.181238 L128.511218,161.181238 L128.511218,149.349843 L90.346983,149.349843 L90.346983,195.907982 L129.383986,195.907982 L129.383986,184.063796 L105.908334,184.063796 Z M136.492655,195.907982 L173.516869,195.907982 L173.516869,183.731238 L152.32255,183.731238 L152.32255,149.349843 L136.492655,149.349843 L136.492655,195.907982 Z M178.882585,195.907982 L194.711189,195.907982 L194.711189,149.349843 L178.882585,149.349843 L178.882585,195.907982 Z M234.216852,149.349843 L234.216852,170.492866 L216.371587,149.349843 L203.363986,149.349843 L203.363986,195.907982 L218.789774,195.907982 L218.789774,174.752168 L236.631166,195.907982 L249.643931,195.907982 L249.643931,149.349843 L234.216852,149.349843 Z M289.345838,183.130075 C287.518444,183.885487 285.557398,184.272483 283.577306,184.268447 C280.524955,184.402257 277.560097,183.238883 275.428029,181.070773 C271.346019,176.135991 271.360085,169.029193 275.461597,164.110308 C277.673081,161.966036 280.688263,160.834614 283.778714,160.989377 C287.894199,161.007978 291.774324,162.893235 294.308738,166.105657 L304.437237,157.254494 C302.008404,154.321677 298.886312,152.028246 295.348055,150.57775 C291.422605,148.989329 287.212767,148.206101 282.973082,148.275424 C278.21624,148.199614 273.511099,149.261413 269.256681,151.370773 C265.343735,153.310875 262.064985,156.308584 259.799542,160.017284 C255.282417,167.824989 255.282417,177.420045 259.799542,185.22775 C262.040581,188.920229 265.282189,191.915878 269.155977,193.874261 C273.327402,195.980728 277.955935,197.043444 282.637402,196.96961 C286.291475,196.952477 289.925691,196.43598 293.437261,195.434726 C296.882805,194.520567 300.148094,193.037372 303.095808,191.047517 L303.095808,171.362633 L289.345838,171.362633 L289.345838,183.130075 Z M363.057295,183.130075 C361.230382,183.885584 359.269739,184.272587 357.290054,184.268447 C354.23726,184.402626 351.271858,183.239224 349.139485,181.070773 C345.058999,176.135453 345.073063,169.029736 349.173053,164.110308 C351.384797,161.966439 354.399794,160.835086 357.490171,160.989377 C361.606065,161.007776 365.486667,162.893034 368.021485,166.105657 L378.149984,157.254494 C375.720893,154.321946 372.598874,152.02857 369.060802,150.57775 C365.135353,148.989329 360.925515,148.206101 356.68583,148.275424 C351.928988,148.199614 347.223846,149.261413 342.969428,151.370773 C339.056483,153.310875 335.777733,156.308584 333.51229,160.017284 C328.995165,167.824989 328.995165,177.420045 333.51229,185.22775 C335.753329,188.920229 338.994936,191.915878 342.868724,193.874261 C347.04015,195.980728 351.668682,197.043444 356.35015,196.96961 C360.003804,196.952555 363.637605,196.436055 367.148717,195.434726 C370.594446,194.521074 373.859818,193.037842 376.807264,191.047517 L376.807264,171.362633 L363.057295,171.362633 L363.057295,183.130075 Z M409.204258,196.96961 C413.933097,197.042849 418.608004,195.966896 422.819956,193.835889 C430.861059,189.796907 435.863663,181.559133 435.698448,172.628912 C435.868343,163.694196 430.865089,155.450382 422.819956,151.409145 C414.232702,147.230933 404.175814,147.230933 395.588561,151.409145 C387.573891,155.503354 382.538103,163.688971 382.538103,172.622517 C382.538103,181.556063 387.573891,189.74168 395.588561,193.835889 C399.800457,195.967043 404.475402,197.043005 409.204258,196.96961 Z M409.204258,184.268447 C407.327314,184.288935 405.481449,183.793017 403.87211,182.835889 C402.258212,181.85303 400.947167,180.450659 400.081508,178.781238 C398.203485,174.890685 398.203485,170.367139 400.081508,166.476587 C400.946824,164.803561 402.257681,163.396968 403.87211,162.409145 C407.170077,160.516045 411.238439,160.516045 414.536406,162.409145 C416.150444,163.397047 417.460864,164.80365 418.325717,166.476587 C420.20374,170.367139 420.20374,174.890685 418.325717,178.781238 C417.460521,180.45057 416.149913,181.852951 414.536406,182.835889 C412.926853,183.79252 411.081133,184.288399 409.204258,184.268447 Z M467.098731,196.96961 C471.82757,197.042849 476.502477,195.966896 480.714428,193.835889 C488.75569,189.797251 493.758024,181.559096 493.59163,172.628912 C493.762705,163.694234 488.759721,155.450038 480.714428,151.409145 C472.126728,147.230903 462.069442,147.230903 453.481742,151.409145 C445.467073,155.503354 440.431285,163.688971 440.431285,172.622517 C440.431285,181.556063 445.467073,189.74168 453.481742,193.835889 C457.694045,195.967198 462.369445,197.043163 467.098731,196.96961 Z M467.098731,184.268447 C465.221384,184.288904 463.375112,183.792997 461.765292,182.835889 C460.151785,181.852951 458.841177,180.45057 457.975981,178.781238 C456.097958,174.890685 456.097958,170.367139 457.975981,166.476587 C458.840834,164.80365 460.151254,163.397047 461.765292,162.409145 C465.06373,160.516082 469.13244,160.516082 472.430879,162.409145 C474.044917,163.397047 475.355337,164.80365 476.220189,166.476587 C478.098213,170.367139 478.098213,174.890685 476.220189,178.781238 C475.354994,180.45057 474.044386,181.852951 472.430879,182.835889 C470.821326,183.79252 468.975605,184.288399 467.098731,184.268447 Z M500.365911,195.907982 L523.505883,195.907982 C528.277872,196.00177 533.010515,195.035898 537.356556,193.081238 C541.189947,191.339211 544.429458,188.530668 546.680714,184.997517 C551.106429,177.330072 551.106429,167.914962 546.680714,160.247517 C544.428745,156.718082 541.18908,153.913849 537.356556,152.176587 C533.012475,150.215966 528.278449,149.249813 523.505883,149.349843 L500.360746,149.349843 L500.360746,195.907982 L500.365911,195.907982 Z M516.195805,183.667284 L516.195805,161.57775 L522.835814,161.57775 C525.833792,161.4341 528.76614,162.47886 530.985092,164.481238 C535.054706,169.164871 535.054706,176.092953 530.985092,180.776587 C528.761348,182.769787 525.831196,183.809165 522.835814,183.667284 L516.195805,183.667284 Z" id="Feeling_Good" fill="#29282E"></path>
            <path d="M244.240337,117.99514 L248.69175,117.99514 L230.428023,78.0047445 L226.263727,78.0047445 L208,117.99514 L212.38347,117.99514 L217.178986,107.312624 L239.447013,107.312624 L244.240337,117.99514 Z M218.728542,103.88475 L228.317383,82.4057482 L237.906223,103.88475 L218.728542,103.88475 Z M287.389022,78.0047445 L287.389022,110.455572 L261.649287,78.0047445 L258.16662,78.0047445 L258.16662,117.99514 L262.390094,117.99514 L262.390094,85.5465044 L288.075035,117.99514 L291.557702,117.99514 L291.557702,78.0047445 L287.393405,78.0047445 L287.389022,78.0047445 Z M304.423671,117.99514 L320.690727,117.99514 C324.568433,118.073616 328.406296,117.200691 331.868575,115.452727 C335.00077,113.853994 337.613473,111.397126 339.401568,108.36904 C342.978531,101.919029 342.978531,94.0808554 339.401568,87.6308443 C337.612236,84.6037476 334.999858,82.1471851 331.868575,80.547157 C328.405962,78.8001218 324.568332,77.9272493 320.690727,78.0047445 L304.423671,78.0047445 L304.423671,117.99514 Z M308.647144,114.339326 L308.647144,81.6605584 L320.460595,81.6605584 C323.648966,81.5889463 326.805696,82.3056662 329.65054,83.74709 C332.189816,85.0556073 334.307384,87.0554058 335.758905,89.5157363 C338.649135,94.8026538 338.649135,101.19723 335.758905,106.484148 C334.307518,108.945137 332.189969,110.945678 329.65054,112.254986 C326.805502,113.695651 323.648782,114.411616 320.460595,114.339326 L308.647144,114.339326 Z" id="AND" fill="#29282E"></path>
            <path d="M260,286.668288 L264.153345,286.668288 L264.153345,247.333289 L260,247.333289 L260,286.668288 Z M290.588619,286.991589 C293.369643,287.071022 296.138002,286.587146 298.727192,285.569063 C300.715402,284.796726 302.425884,283.44516 303.637062,281.689447 C304.699235,280.086573 305.257006,278.202314 305.238482,276.279537 C305.353211,274.211285 304.692255,272.174621 303.384887,270.56788 C302.154026,269.167006 300.600529,268.086955 298.858668,267.42108 C296.575337,266.573315 294.241656,265.867885 291.871048,265.308844 C289.903287,264.858822 287.960755,264.304841 286.051624,263.649231 C284.70461,263.206345 283.476478,262.461799 282.460823,261.472335 C281.4853,260.456654 280.968139,259.085868 281.029676,257.678932 C280.997161,255.636517 281.973636,253.70937 283.639796,252.527664 C285.950805,251.050247 288.675622,250.355064 291.41196,250.544749 C293.276315,250.547536 295.130201,250.823476 296.914549,251.363779 C298.784717,251.906712 300.562629,252.727733 302.188672,253.799316 L303.5918,250.480089 C301.882338,249.331867 299.995659,248.472631 298.007308,247.936785 C295.863983,247.316418 293.643252,247.004355 291.41196,247.009987 C288.646539,246.922187 285.893351,247.41409 283.329426,248.454067 C281.378525,249.262295 279.702713,250.617016 278.503615,252.355237 C277.461705,253.973896 276.91557,255.861771 276.93237,257.786699 C276.816933,259.879101 277.487223,261.939167 278.811829,263.563017 C280.035704,264.981897 281.590233,266.077471 283.338048,266.752924 C285.651452,267.610161 288.013518,268.329864 290.411881,268.908266 C292.881904,269.511762 294.806625,270.072151 296.19251,270.56788 C297.503517,271.02566 298.700363,271.760823 299.701407,272.723222 C300.679066,273.728793 301.197089,275.094063 301.132554,276.495071 C301.158947,278.507458 300.166416,280.396836 298.494415,281.517019 C296.123409,282.97384 293.355939,283.652142 290.579998,283.456827 C288.087881,283.463094 285.615259,283.017643 283.282009,282.142069 C281.1677,281.410981 279.234734,280.235032 277.613458,278.693521 L275.986175,281.883427 C277.729645,283.594854 279.856176,284.865748 282.18925,285.590616 C284.885143,286.53528 287.723441,287.009181 290.579998,286.991589 L290.588619,286.991589 Z" id="Is" fill="#29282E"></path>
            <g id="elipses" transform="translate(0.000000, 261.000000)" fill="#29282E" fill-rule="nonzero">
                <g id="Group" transform="translate(348.000000, 0.000000)">
                    <ellipse id="elipse_копия_9" cx="54.0154852" cy="6.05223881" rx="5.91525424" ry="6.04477612"></ellipse>
                    <ellipse id="elipse_копия_13" cx="6.69345134" cy="6.05223881" rx="5.91525424" ry="6.04477612"></ellipse>
                    <ellipse id="elipse_копия_8" cx="101.337519" cy="6.05223881" rx="5.91525424" ry="6.04477612"></ellipse>
                    <ellipse id="elipse_копия_7" cx="148.659553" cy="6.05223881" rx="5.91525424" ry="6.04477612"></ellipse>
                    <ellipse id="elipse_копия_6" cx="195.981587" cy="6.05223881" rx="5.91525424" ry="6.04477612"></ellipse>
                </g>
                <ellipse id="elipse_копия" cx="6.78415254" cy="6.2761194" rx="5.91525424" ry="6.04477612"></ellipse>
                <ellipse id="elipse_копия_2" cx="54.1505508" cy="6.2761194" rx="5.87088983" ry="5.9994403"></ellipse>
                <ellipse id="elipse_копия-2" cx="101.516949" cy="6.2761194" rx="5.91525424" ry="6.04477612"></ellipse>
                <ellipse id="elipse_копия_11" cx="148.794619" cy="6.2761194" rx="5.95961864" ry="6.09011194"></ellipse>
                <ellipse id="elipse_копия_12" cx="196.072288" cy="6.2761194" rx="5.91525424" ry="6.04477612"></ellipse>
            </g>
            <rect id="rectangle" fill="#ED1C24" fill-rule="nonzero" x="375" y="93" width="175" height="10"></rect>
            <rect id="rectangle-2" fill="#ED1C24" fill-rule="nonzero" x="0" y="93" width="175" height="10"></rect>
        </g>
    </g>
</svg>