<?xml version="1.0" encoding="UTF-8"?>
<svg width="550px" height="550px" viewBox="0 0 550 550" version="1.1" xmlns="http://www.w3.org/2000/svg" xmlns:xlink="http://www.w3.org/1999/xlink">
    <!-- Generator: Sketch 50.2 (55047) - http://www.bohemiancoding.com/sketch -->
    <title>4</title>
    <desc>Created with Sketch.</desc>
    <defs></defs>
    <g id="4" stroke="none" stroke-width="1" fill="none" fill-rule="evenodd">
        <g id="infuser_bottle_desktop" transform="translate(0.000000, 63.000000)">
            <path d="M54.4887594,358.878084 L49.8952896,381.661694 L29.9085922,381.661694 L34.4816466,358.878084 L12.8413,358.878084 L0,423.186661 L21.6403466,423.186661 L26.4175551,399.484357 L46.424668,399.484357 L41.6474594,423.186661 L63.287806,423.186661 L76.129106,358.878084 L54.4887594,358.878084 Z M148.971329,358.878084 L127.228905,358.878084 L109.344996,381.110477 L100.627612,358.878084 L78.8851879,358.878084 L94.931709,399.566018 L90.2565775,423.186661 L111.91734,423.186661 L116.490394,399.851834 L148.971329,358.878084 Z M138.865696,423.186661 L173.26568,423.186661 C180.454537,423.320529 187.574025,421.760956 194.048579,418.634022 C199.946395,415.774681 204.899367,411.282285 208.318959,405.690645 C211.813592,399.782581 213.588374,393.015783 213.44323,386.153087 C213.566408,381.034772 212.197348,375.991237 209.503053,371.637722 C206.740581,367.438882 202.798566,364.150318 198.172494,362.185382 C192.646299,359.860935 186.690312,358.733751 180.696894,358.878084 L151.706996,358.878084 L138.865696,423.186661 Z M163.915418,406.282692 L169.978798,375.782053 L178.226628,375.782053 C181.799663,375.531116 185.33971,376.606942 188.168938,378.803535 C190.551854,381.021791 191.817522,384.189705 191.619144,387.439258 C191.818254,392.377588 190.165461,397.212187 186.984844,400.995098 C183.673537,404.622513 178.904033,406.564811 174.000636,406.282692 L163.915418,406.282692 Z M282.978154,380.008045 C283.271261,373.989821 280.65926,368.196342 275.95525,364.431078 C271.280118,360.735887 264.719963,358.884889 256.274783,358.878084 L227.489039,358.878084 L214.647739,423.186661 L236.288086,423.186661 L239.493307,407.017647 L244.821732,407.017647 L253.906595,423.186661 L276.363558,423.186661 L265.645462,404.445304 C270.771477,402.64313 275.228535,399.325256 278.425516,394.931718 C281.498708,390.571413 283.094224,385.34127 282.978154,380.008045 Z M261.051992,382.110833 C261.192671,384.473997 260.289697,386.779939 258.581726,388.419198 C256.619464,390.01893 254.126573,390.820737 251.599652,390.664895 L242.698528,390.664895 L245.740426,375.598314 L252.987901,375.598314 C258.357156,375.598314 261.051992,377.782764 261.051992,382.110833 Z M331.873088,423.186661 L353.411358,423.186661 L338.201869,358.878084 L316.908585,358.878084 L275.99608,423.186661 L298.840937,423.186661 L305.271795,411.978594 L329.749885,411.978594 L331.873088,423.186661 Z M314.152503,396.360797 L323.604843,379.905968 L326.728402,396.360797 L314.152503,396.360797 Z M367.640907,423.186661 L389.281253,423.186661 L398.733593,375.679975 L417.536196,375.679975 L420.925156,358.878084 L361.679604,358.878084 L358.290644,375.679975 L377.093247,375.679975 L367.640907,423.186661 Z M475.413916,375.230836 L478.721214,358.878084 L426.518982,358.878084 L413.677682,423.186661 L467.064008,423.186661 L470.371307,406.833908 L438.176187,406.833908 L439.829836,398.381924 L467.064008,398.381924 L470.187568,382.764127 L443.035057,382.764127 L444.504968,375.230836 L475.413916,375.230836 Z M475.413916,423.186661 L509.8139,423.186661 C517.002537,423.318311 524.121517,421.758849 530.596799,418.634022 C536.488784,415.773959 541.434983,411.281279 544.846763,405.690645 C548.357166,399.788294 550.139716,393.018849 549.99145,386.153087 C550.105231,381.035914 548.736883,375.995003 546.051273,371.637722 C543.288801,367.438882 539.346786,364.150318 534.720714,362.185382 C529.193928,359.862896 523.238365,358.735791 517.245114,358.878084 L488.255216,358.878084 L475.413916,423.186661 Z M500.463637,406.282692 L506.506602,375.782053 L514.774848,375.782053 C518.347511,375.534408 521.886408,376.609884 524.717158,378.803535 C527.092091,381.027251 528.356194,384.191248 528.167364,387.439258 C528.366474,392.377588 526.713681,397.212187 523.533064,400.995098 C520.216977,404.615651 515.450879,406.556562 510.548856,406.282692 L500.463637,406.282692 Z" id="HYDRATED" fill="#ED1C24"></path>
            <g id="elipses" transform="translate(0.000000, 141.000000)" fill="#29282E" fill-rule="nonzero">
                <circle id="elipse_копия" cx="5.85332103" cy="5.69202952" r="5.20295203"></circle>
                <circle id="elipse_копия_2" cx="47.4379151" cy="5.69202952" r="5.16392989"></circle>
                <circle id="elipse_копия-2" cx="89.0225092" cy="5.69202952" r="5.20295203"></circle>
                <g id="Group" transform="translate(456.000000, 0.000000)">
                    <circle id="elipse_копия_8" cx="5.68819188" cy="5.69202952" r="5.20295203"></circle>
                    <circle id="elipse_копия_7" cx="47.2337638" cy="5.69202952" r="5.20295203"></circle>
                    <circle id="elipse_копия_6" cx="88.7793358" cy="5.69202952" r="5.20295203"></circle>
                </g>
            </g>
            <path d="M36.3009861,308.747276 C43.5565412,308.944434 50.7765112,307.665388 57.522785,304.987751 C62.7804544,302.932525 67.3419556,299.418744 70.6708501,294.859632 C73.5868425,290.688302 75.1306979,285.712061 75.0877783,280.622743 C75.3694731,275.414115 73.6413826,270.296026 70.2599731,266.324222 C67.1568512,262.901646 63.2534522,260.301968 58.8992231,258.757921 C53.6567923,256.980474 48.2860102,255.606873 42.833931,254.649151 C39.2412579,254.044393 35.7031257,253.151272 32.2538473,251.97845 C30.4665261,251.579042 29.1544248,250.052157 29.0284626,248.225089 C29.0284626,244.729895 32.6373325,242.982298 39.8550725,242.982298 C47.9729282,243.192689 55.9266011,245.315545 63.069625,249.178323 L71.5131481,228.802931 C66.9459341,226.284446 62.0303926,224.457388 56.9270133,223.381409 C51.4036623,222.147856 45.7610189,221.527785 40.1015987,221.532462 C32.8454659,221.341632 25.6240547,222.598744 18.8592559,225.230355 C13.589161,227.263543 9.02194811,230.781724 5.7111908,235.358474 C2.81394771,239.560951 1.27912007,244.552727 1.31480651,249.656995 C1.02970499,254.873671 2.73287225,260.004462 6.08098013,264.015093 C9.10869714,267.453038 12.9515986,270.075253 17.2568355,271.640971 C22.5068166,273.454276 27.8743721,274.907359 33.3221276,275.990104 C36.980315,276.657684 40.5798925,277.613907 44.0871059,278.849808 C45.9212646,279.295656 47.2477311,280.889085 47.3535784,282.773684 C47.336836,284.324174 46.3387312,285.693475 44.8677723,286.183964 C42.1843412,287.08624 39.3537378,287.469696 36.5269685,287.313875 C31.7344278,287.274628 26.9706046,286.569389 22.3722546,285.218402 C17.7176928,283.946569 13.2441861,282.08675 9.05983864,279.683889 L0,300.174327 C5.00663684,303.110556 10.4512298,305.225971 16.1269237,306.440201 C22.7392034,307.991612 29.5091499,308.770639 36.3009861,308.761657 L36.3009861,308.747276 Z M100.295084,306.836698 L128.37853,306.836698 L128.37853,245.233904 L152.764082,245.233904 L152.764082,223.428659 L75.9095323,223.428659 L75.9095323,245.233904 L100.295084,245.233904 L100.295084,306.836698 Z M218.19625,306.836698 L247.224712,306.836698 L210.821007,223.428659 L183.230614,223.428659 L146.826909,306.836698 L175.362319,306.836698 L180.97079,292.291651 L212.608322,292.291651 L218.19625,306.836698 Z M188.695279,272.04363 L196.789556,251.072466 L204.883834,272.04363 L188.695279,272.04363 Z M327.284103,223.428659 L300.166218,223.428659 L283.032646,252.26401 L266.022337,223.428659 L236.398102,223.428659 L267.809652,276.214032 L267.809652,306.836698 L295.893097,306.836698 L295.893097,276.571495 L327.284103,223.428659 Z M330.858733,306.836698 L358.942178,306.836698 L358.942178,223.428659 L330.858733,223.428659 L330.858733,306.836698 Z M427.229942,223.428659 L427.229942,261.31974 L395.571866,223.428659 L372.501121,223.428659 L372.501121,306.836698 L399.865531,306.836698 L399.865531,268.945617 L431.503063,306.836698 L454.594352,306.836698 L454.594352,223.428659 L427.229942,223.428659 Z M523.231361,283.950847 C519.991238,285.305593 516.512442,285.997161 513.000523,285.984688 C507.584819,286.226261 502.32334,284.145585 498.537651,280.26528 C494.81701,276.127696 492.875889,270.69108 493.134618,265.132679 C492.835132,259.521346 494.804371,254.025243 498.599283,249.880923 C502.521041,246.040485 507.867411,244.010652 513.349768,244.280669 C520.657217,244.316378 527.545784,247.697075 532.044674,253.455553 L550,237.608026 C545.691963,232.3498 540.152434,228.236435 533.873076,225.633015 C526.911603,222.797071 519.448166,221.399424 511.932243,221.524244 C503.495752,221.386096 495.150856,223.28907 487.608322,227.071084 C480.661461,230.543573 474.841603,235.914655 470.823995,242.561149 C462.82542,256.55106 462.82542,273.728678 470.823995,287.718589 C474.803567,294.329523 480.55345,299.695131 487.423427,303.208654 C494.819412,306.989391 503.031333,308.894218 511.336471,308.755493 C517.814964,308.722411 524.257947,307.79606 530.483341,306.002617 C536.59319,304.363203 542.384746,301.710476 547.616913,298.154866 L547.616913,262.872855 L523.231361,262.872855 L523.231361,283.954956 L523.231361,283.950847 Z" id="STAYING" fill="#28282E"></path>
            <path d="M169.182114,171.429214 C173.663858,171.492668 178.087503,170.410039 182.033406,168.28403 C185.764025,166.277953 188.869466,163.282328 191.008498,159.626318 C195.344279,151.919874 195.344279,142.509477 191.008498,134.803033 C188.869466,131.147023 185.764025,128.151398 182.033406,126.145321 C173.969894,121.95156 164.36832,121.95156 156.304808,126.145321 C152.553004,128.156216 149.429206,131.163885 147.277686,134.836853 C142.907438,142.510107 142.907438,151.919244 147.277686,159.592498 C149.429206,163.265466 152.553004,166.273135 156.304808,168.28403 C160.258894,170.413157 164.691731,171.495844 169.182114,171.429214 Z M169.182114,165.409399 C165.890439,165.453562 162.64427,164.637537 159.764771,163.042056 C157.00372,161.515594 154.717271,159.257051 153.157022,156.514952 C149.965882,150.725375 149.965882,143.703976 153.157022,137.914399 C154.717271,135.1723 157.00372,132.913757 159.764771,131.387295 C162.64427,129.791814 165.890439,128.975789 169.182114,129.019952 C172.458427,128.965939 175.690326,129.782891 178.547428,131.387295 C181.276792,132.937924 183.540594,135.191844 185.103147,137.914399 C188.294287,143.703976 188.294287,150.725375 185.103147,156.514952 C183.540594,159.237507 181.276792,161.491427 178.547428,163.042056 C175.690326,164.64646 172.458427,165.463412 169.182114,165.409399 Z M224.177317,171.429214 C229.610481,171.752795 234.933975,169.805244 238.875656,166.051963 C242.645789,161.767934 244.54716,156.154674 244.156653,150.461318 L244.156653,123.541244 L237.600933,123.541244 L237.600933,150.190764 C237.92848,154.307104 236.703468,158.396974 234.166985,161.655469 C231.550638,164.281092 227.928203,165.649462 224.229347,165.409399 C215.358313,165.409399 210.927133,160.336521 210.935804,150.190764 L210.935804,123.541244 L204.171966,123.541244 L204.171966,150.461318 C203.792973,156.142937 205.693455,161.7414 209.452963,166.018144 C213.391872,169.796042 218.729408,171.757539 224.177317,171.429214 Z M266.503332,170.888107 L273.189125,170.888107 L273.189125,129.425783 L289.396321,129.425783 L289.396321,123.541244 L250.296136,123.541244 L250.296136,129.425783 L266.503332,129.425783 L266.503332,170.888107 Z M336.274918,171.429214 C340.74805,171.489724 345.16256,170.407139 349.100195,168.28403 C352.830815,166.277953 355.936255,163.282328 358.075287,159.626318 C362.411069,151.919874 362.411069,142.509477 358.075287,134.803033 C355.936255,131.147023 352.830815,128.151398 349.100195,126.145321 C341.036683,121.95156 331.435109,121.95156 323.371597,126.145321 C319.625123,128.163529 316.503101,131.169487 314.344476,134.836853 C309.974228,142.510107 309.974228,151.919244 314.344476,159.592498 C316.503101,163.259864 319.625123,166.265823 323.371597,168.28403 C327.333867,170.416277 331.775898,171.499022 336.274918,171.429214 Z M336.274918,165.409399 C332.982862,165.45683 329.735866,164.640596 326.857575,163.042056 C324.08906,161.51659 321.793948,159.25838 320.223811,156.514952 C317.032672,150.725375 317.032672,143.703976 320.223811,137.914399 C321.793948,135.170971 324.08906,132.912761 326.857575,131.387295 C329.735866,129.788755 332.982862,128.972521 336.274918,129.019952 C339.542632,128.968937 342.765375,129.785844 345.614217,131.387295 C348.354822,132.923091 350.622167,135.180539 352.169937,137.914399 C355.361077,143.703976 355.361077,150.725375 352.169937,156.514952 C350.622167,159.248812 348.354822,161.50626 345.614217,163.042056 C342.765375,164.643507 339.542632,165.460415 336.274918,165.409399 Z M405.005915,129.425783 L405.005915,123.541244 L371.654992,123.541244 L371.654992,170.888107 L378.41883,170.888107 L378.41883,151.746447 L402.118276,151.746447 L402.118276,145.929546 L378.41883,145.929546 L378.41883,129.425783 L405.005915,129.425783 Z" id="OUT_OF" fill="#28282E"></path>
            <path d="M48.6297721,51.9986599 C45.9320357,53.1216917 43.0372948,53.695019 40.1151581,53.6850494 C35.6104055,53.8946556 31.2317045,52.1642412 28.0872326,48.9317455 C22.0644178,41.5697334 22.0817242,30.9781926 28.1285657,23.6359022 C31.3912794,20.4378186 35.8413732,18.747682 40.4044897,18.9735311 C46.4887037,19.0063481 52.2227823,21.8238901 55.9663933,26.6201504 L70.9083008,13.4266321 C67.3282437,9.0479628 62.7204912,5.6230324 57.4957172,3.45709387 C51.6993927,1.09490607 45.484811,-0.0692734947 39.226497,0.0347150629 C32.2024671,-0.0811387676 25.2543781,1.50132396 18.9732891,4.64748649 C13.1874741,7.53394253 8.34206889,12.0066243 5.00270896,17.5434066 C-1.66756965,29.1880289 -1.66756965,43.4953514 5.00270896,55.1399737 C8.31413443,60.6474237 13.104284,65.1153659 18.8286233,68.0358939 C24.9851082,71.1790576 31.8190086,72.7629896 38.7305001,72.6486653 C44.1209402,72.6254619 49.4825422,71.8605122 54.6644014,70.3753461 C59.7554283,69.0019233 64.5818059,66.7891933 68.9449796,63.8281866 L68.9449796,34.4403686 L48.6297721,34.4403686 L48.6297721,52.0069265 L48.6297721,51.9986599 Z M101.908109,53.3874513 L101.908109,44.2611078 L131.233927,44.2611078 L131.233927,27.3972123 L101.908109,27.3972123 L101.908109,19.2628626 L135.305235,19.2628626 L135.305235,1.605372 L78.9475843,1.605372 L78.9475843,71.0449419 L136.586561,71.0449419 L136.586561,53.3874513 L101.908109,53.3874513 Z M160.642412,71.0449419 L184.016267,71.0449419 L184.016267,19.7588596 L204.331474,19.7588596 L204.331474,1.605372 L140.347871,1.605372 L140.347871,19.7588596 L160.642412,19.7588596 L160.642412,71.0449419 Z M323.288071,71.0449419 L323.081405,1.605372 L303.861525,1.605372 L281.872327,38.5984762 L259.304467,1.605372 L240.084586,1.605372 L240.084586,71.0449419 L261.371121,71.0449419 L261.371121,40.4915311 L276.437028,64.7953806 L286.728964,64.7953806 L301.794871,39.4003379 L301.98087,71.0449419 L323.288071,71.0449419 Z M370.924442,72.6321321 C377.907455,72.7434261 384.811447,71.1426648 391.032985,67.969761 C402.858003,61.8466815 410.282494,49.6414315 410.282494,36.325157 C410.282494,23.0088825 402.858003,10.8036324 391.032985,4.68055295 C378.348003,-1.53608872 363.500882,-1.53608872 350.8159,4.68055295 C338.978118,10.7934104 331.542064,23.0022396 331.542064,36.325157 C331.542064,49.6480743 338.978118,61.8569035 350.8159,67.969761 C357.036625,71.1448928 363.94118,72.7457844 370.924442,72.6321321 Z M370.924442,53.6850494 C368.151968,53.7246044 365.423986,52.9856865 363.050491,51.5522626 C360.660448,50.0913342 358.721874,47.9968163 357.449859,45.5011001 C354.666703,39.7003645 354.666703,32.9499494 357.449859,27.1492138 C358.723033,24.6543063 360.661343,22.5600729 363.050491,21.0980513 C367.91466,18.2543381 373.934225,18.2543381 378.798394,21.0980513 C381.177889,22.571817 383.113398,24.663023 384.399026,27.1492138 C387.154505,32.9562141 387.154505,39.6940998 384.399026,45.5011001 C383.114508,47.98807 381.178752,50.0795437 378.798394,51.5522626 C376.422722,52.9805858 373.696222,53.7191022 370.924442,53.6850494 Z M460.059224,71.0449419 L485.024402,71.0449419 L470.454493,49.6178746 C474.456463,47.6445773 477.822476,44.585086 480.167766,40.7891293 C482.469016,36.8515633 483.634979,32.3536658 483.536412,27.7940098 C483.637314,22.8859716 482.293405,18.0565232 479.671769,13.9060958 C476.984947,9.8482352 473.160345,6.6735286 468.67717,4.77975234 C463.382214,2.5572342 457.678294,1.47560213 451.937274,1.605372 L418.560814,1.605372 L418.560814,71.0449419 L441.934669,71.0449419 L441.934669,53.58585 L448.279297,53.58585 L460.059224,71.0449419 Z M459.955891,27.7940098 C460.08895,30.0449373 459.218771,32.2393021 457.579239,33.787306 C455.546594,35.3525273 453.007549,36.112033 450.449283,35.9200928 L441.934669,35.9200928 L441.934669,19.6513936 L450.449283,19.6513936 C453.007549,19.4594533 455.546594,20.218959 457.579239,21.7841804 C459.218287,23.3325119 460.088373,25.5266416 459.955891,27.7774766 L459.955891,27.7940098 Z M515.321548,53.3874513 L515.321548,44.2611078 L544.647366,44.2611078 L544.647366,27.3972123 L515.321548,27.3972123 L515.321548,19.2628626 L548.698008,19.2628626 L548.698008,1.605372 L492.340357,1.605372 L492.340357,71.0449419 L550,71.0449419 L550,53.3874513 L515.321548,53.3874513 Z" id="GET_MORE" fill="#ED1C24"></path>
        </g>
    </g>
</svg>