<?xml version="1.0" encoding="UTF-8"?>
<svg width="550px" height="550px" viewBox="0 0 550 550" version="1.1" xmlns="http://www.w3.org/2000/svg" xmlns:xlink="http://www.w3.org/1999/xlink">
    <!-- Generator: Sketch 50.2 (55047) - http://www.bohemiancoding.com/sketch -->
    <title>5</title>
    <desc>Created with Sketch.</desc>
    <defs></defs>
    <g id="5" stroke="none" stroke-width="1" fill="none" fill-rule="evenodd">
        <g id="lettering-2" transform="translate(0.000000, 85.000000)">
            <path d="M110.048375,39.8614199 C107.263798,41.3208245 104.15829,42.0602312 101.014816,42.0122673 C98.0778561,42.0661892 95.1765446,41.3624668 92.590663,39.9689623 C90.1715081,38.6484565 88.1733489,36.6730743 86.8251969,34.2692165 C84.0529391,29.0459631 84.0529391,22.7875546 86.8251969,17.5643012 C88.1748373,15.1532404 90.191163,13.1825518 92.6324851,11.8884538 C95.2630655,10.5144938 98.1969438,9.82416946 101.16418,9.88099615 C106.102892,9.82778961 110.827481,11.8942535 114.14096,15.5568436 L121.60918,8.6860809 C119.150658,5.85109246 116.054725,3.63971137 112.575621,2.23353852 C108.770297,0.710110579 104.701125,-0.0452447523 100.60257,0.0109961493 C95.6680736,-0.0664087058 90.7911556,1.0789281 86.4069766,3.34480971 C82.3226516,5.45336223 78.9083853,8.66070329 76.5489257,12.6054029 C71.8170248,20.8915058 71.8170248,31.0615034 76.5489257,39.3476063 C78.8947104,43.2778213 82.2816463,46.4827972 86.3352817,48.6081995 C90.6646756,50.8714502 95.4908383,52.0174071 100.375536,51.9420131 C104.046289,51.9362032 107.695451,51.3803706 111.201468,50.29303 C114.60904,49.282711 117.812399,47.6810319 120.665197,45.5611656 L120.665197,25.1669495 L110.054349,25.1669495 L110.054349,39.8644072 L110.048375,39.8614199 Z M146.541087,41.7254877 L146.541087,30.1109114 L169.841934,30.1109114 L169.841934,21.0773521 L146.541087,21.0773521 L146.541087,10.179725 L172.924816,10.179725 L172.924816,0.85938598 L134.986256,0.85938598 L134.986256,51.0458267 L173.8449,51.0458267 L173.8449,41.7254877 L146.541087,41.7254877 Z M197.083015,51.0458267 L208.706553,51.0458267 L208.706553,10.3231148 L224.766214,10.3231148 L224.766214,0.85938598 L181.032316,0.85938598 L181.032316,10.3231148 L197.091977,10.3231148 L197.091977,51.0458267 L197.083015,51.0458267 Z M302.044371,0.85938598 L290.644879,0.85938598 L277.23793,23.1565046 L263.830981,0.85938598 L251.499455,0.85938598 L270.916828,33.1220978 L270.916828,51.0458267 L282.531405,51.0458267 L282.531405,33.2654877 L302.044371,0.85938598 Z M332.658099,51.9061656 C337.547027,51.9809915 342.375917,50.8220578 346.698354,48.5365046 C355.037084,44.0868383 360.245333,35.4042704 360.245333,25.9526063 C360.245333,16.5009422 355.037084,7.8183743 346.698354,3.36870801 C337.855966,-1.12290267 327.400487,-1.12290267 318.558099,3.36870801 C314.49397,5.50342218 311.095801,8.71556047 308.735896,12.6531995 C304.008682,20.8851043 304.008682,31.0081592 308.735896,39.2400639 C311.095801,43.177703 314.49397,46.3898413 318.558099,48.5245555 C322.897974,50.8094529 327.74209,51.9680965 332.64615,51.8942165 L332.658099,51.9061656 Z M332.658099,42.0122673 C329.848086,42.051599 327.077705,41.346636 324.628269,39.9689623 C322.259565,38.6282767 320.310814,36.6547007 319.000218,34.2692165 C316.275973,29.0594493 316.275973,22.8457633 319.000218,17.6359961 C320.310814,15.2505119 322.259565,13.276936 324.628269,11.9362504 C329.634902,9.21201776 335.681297,9.21201776 340.68793,11.9362504 C343.056634,13.276936 345.005385,15.2505119 346.315981,17.6359961 C349.040226,22.8457633 349.040226,29.0594493 346.315981,34.2692165 C345.005385,36.6547007 343.056634,38.6282767 340.68793,39.9689623 C338.238494,41.346636 335.468113,42.051599 332.658099,42.0122673 Z M394.745896,51.9061656 C400.983683,52.534528 407.171556,50.311784 411.583733,45.8578513 C415.99591,41.4039186 418.160272,35.1953843 417.473184,28.9637928 L417.473184,0.85938598 L406.001998,0.85938598 L406.001998,28.5336233 C406.301252,32.1727591 405.283546,35.7983388 403.134201,38.7501487 C400.986814,41.0227991 397.93745,42.218886 394.817591,42.0122673 C387.36132,42.0122673 383.633184,37.519386 383.633184,28.5336233 L383.633184,0.85938598 L372.018608,0.85938598 L372.018608,28.9637928 C371.33152,35.1953843 373.495882,41.4039186 377.908059,45.8578513 C382.320236,50.311784 388.508109,52.534528 394.745896,51.9061656 Z M476.979964,51.0458267 L465.723862,34.9144707 C472.176268,32.3624221 476.314959,26.0154709 476.04793,19.0818436 C476.321864,12.1401627 472.245866,5.76158345 465.831405,3.09387751 C462.174314,1.53636265 458.226536,0.778584797 454.252676,0.871335132 L432.529116,0.871335132 L432.529116,51.0577758 L444.143693,51.0577758 L444.143693,37.0772673 L454.826235,37.0772673 L464.505049,51.0577758 L476.979964,51.0577758 L476.979964,51.0458267 Z M464.289964,19.0818436 C464.424385,21.5375491 463.419259,23.9181102 461.565557,25.534386 C459.266285,27.213443 456.447654,28.0260213 453.607422,27.8286233 L444.143693,27.8286233 L444.143693,10.3350639 L453.607422,10.3350639 C456.442113,10.1388553 459.256472,10.9375246 461.565557,12.5934538 C463.432557,14.2154239 464.439362,16.6132091 464.289964,19.0818436 Z" id="get_your" fill="#29282E"></path>
            <rect id="Прямоугольник_1" fill="#ED1C24" fill-rule="nonzero" x="500" y="21" width="50" height="10"></rect>
            <rect id="Прямоугольник_1_копия" fill="#ED1C24" fill-rule="nonzero" x="0" y="21" width="50" height="10"></rect>
            <path d="M128,210.76 L153.96,210.76 L153.96,267.63 L188.72,267.63 L188.72,287.76 L128,287.76 L128,210.76 Z M236.24,289.52 C227.953292,289.52 220.510033,287.796684 213.91,284.35 C207.309967,280.903316 202.140019,276.118364 198.4,269.995 C194.659981,263.871636 192.79,256.960038 192.79,249.26 C192.79,241.559961 194.659981,234.648364 198.4,228.525 C202.140019,222.401636 207.309967,217.616684 213.91,214.17 C220.510033,210.723316 227.953292,209 236.24,209 C244.526708,209 251.969967,210.723316 258.57,214.17 C265.170033,217.616684 270.339981,222.401636 274.08,228.525 C277.820019,234.648364 279.69,241.559961 279.69,249.26 C279.69,256.960038 277.820019,263.871636 274.08,269.995 C270.339981,276.118364 265.170033,280.903316 258.57,284.35 C251.969967,287.796684 244.526708,289.52 236.24,289.52 Z M236.24,268.51 C239.466683,268.51 242.381654,267.721675 244.985,266.145 C247.588346,264.568325 249.659992,262.331681 251.2,259.435 C252.740008,256.538319 253.51,253.146686 253.51,249.26 C253.51,245.373314 252.740008,241.981681 251.2,239.085 C249.659992,236.188319 247.588346,233.951675 244.985,232.375 C242.381654,230.798325 239.466683,230.01 236.24,230.01 C233.013317,230.01 230.098346,230.798325 227.495,232.375 C224.891654,233.951675 222.820008,236.188319 221.28,239.085 C219.739992,241.981681 218.97,245.373314 218.97,249.26 C218.97,253.146686 219.739992,256.538319 221.28,259.435 C222.820008,262.331681 224.891654,264.568325 227.495,266.145 C230.098346,267.721675 233.013317,268.51 236.24,268.51 Z M317.86,289.52 C311.479968,289.52 305.26503,288.805007 299.215,287.375 C293.16497,285.944993 288.196686,284.020012 284.31,281.6 L292.67,262.68 C296.336685,264.806677 300.443311,266.51166 304.99,267.795 C309.536689,269.07834 313.899979,269.72 318.08,269.72 C321.673351,269.72 324.239992,269.37167 325.78,268.675 C327.320008,267.97833 328.09,266.93334 328.09,265.54 C328.09,263.926659 327.081677,262.716671 325.065,261.91 C323.048323,261.103329 319.730023,260.223338 315.11,259.27 C309.16997,258.023327 304.22002,256.685007 300.26,255.255 C296.29998,253.824993 292.853348,251.47835 289.92,248.215 C286.986652,244.95165 285.52,240.533361 285.52,234.96 C285.52,230.119976 286.876653,225.72002 289.59,221.76 C292.303347,217.79998 296.354973,214.683345 301.745,212.41 C307.135027,210.136655 313.679961,209 321.38,209 C326.660026,209 331.848308,209.568328 336.945,210.705 C342.041692,211.841672 346.533314,213.509989 350.42,215.71 L342.61,234.52 C335.056629,230.706648 327.9067,228.8 321.16,228.8 C314.486633,228.8 311.15,230.413317 311.15,233.64 C311.15,235.180008 312.13999,236.334996 314.12,237.105 C316.10001,237.875004 319.363311,238.699996 323.91,239.58 C329.776696,240.680005 334.726646,241.944993 338.76,243.375 C342.793354,244.805007 346.294985,247.133317 349.265,250.36 C352.235015,253.586683 353.72,257.986639 353.72,263.56 C353.72,268.400024 352.363347,272.781647 349.65,276.705 C346.936653,280.628353 342.885027,283.744988 337.495,286.055 C332.104973,288.365012 325.560039,289.52 317.86,289.52 Z M390.13,289.52 C383.749968,289.52 377.53503,288.805007 371.485,287.375 C365.43497,285.944993 360.466686,284.020012 356.58,281.6 L364.94,262.68 C368.606685,264.806677 372.713311,266.51166 377.26,267.795 C381.806689,269.07834 386.169979,269.72 390.35,269.72 C393.943351,269.72 396.509992,269.37167 398.05,268.675 C399.590008,267.97833 400.36,266.93334 400.36,265.54 C400.36,263.926659 399.351677,262.716671 397.335,261.91 C395.318323,261.103329 392.000023,260.223338 387.38,259.27 C381.43997,258.023327 376.49002,256.685007 372.53,255.255 C368.56998,253.824993 365.123348,251.47835 362.19,248.215 C359.256652,244.95165 357.79,240.533361 357.79,234.96 C357.79,230.119976 359.146653,225.72002 361.86,221.76 C364.573347,217.79998 368.624973,214.683345 374.015,212.41 C379.405027,210.136655 385.949961,209 393.65,209 C398.930026,209 404.118308,209.568328 409.215,210.705 C414.311692,211.841672 418.803314,213.509989 422.69,215.71 L414.88,234.52 C407.326629,230.706648 400.1767,228.8 393.43,228.8 C386.756633,228.8 383.42,230.413317 383.42,233.64 C383.42,235.180008 384.40999,236.334996 386.39,237.105 C388.37001,237.875004 391.633311,238.699996 396.18,239.58 C402.046696,240.680005 406.996646,241.944993 411.03,243.375 C415.063354,244.805007 418.564985,247.133317 421.535,250.36 C424.505015,253.586683 425.99,257.986639 425.99,263.56 C425.99,268.400024 424.633347,272.781647 421.92,276.705 C419.206653,280.628353 415.155027,283.744988 409.765,286.055 C404.374973,288.365012 397.830039,289.52 390.13,289.52 Z" id="LOSS" fill="#ED1C24"></path>
            <path d="M113.128557,99.3868627 L97.9585117,146.778556 L83.6116468,99.3868627 L58.0930429,99.3868627 L42.9229973,146.190569 L28.5761325,99.3868627 L6.39488462e-14,99.3868627 L26.3417847,181.70494 L56.0938896,181.70494 L70.0879627,137.723567 L83.3764523,181.70494 L113.128557,181.70494 L139.470342,99.3868627 L113.128557,99.3868627 Z M178.747824,160.772629 L178.747824,149.953681 L213.556611,149.953681 L213.556611,129.962148 L178.747824,129.962148 L178.747824,120.319174 L218.378099,120.319174 L218.378099,99.3868627 L151.465262,99.3868627 L151.465262,181.70494 L219.906863,181.70494 L219.906863,160.772629 L178.747824,160.772629 Z M236.488076,181.70494 L264.241027,181.70494 L264.241027,99.3868627 L236.488076,99.3868627 L236.488076,181.70494 Z M337.972153,159.126267 C334.767202,160.457518 331.329207,161.137122 327.858789,161.125421 C322.508796,161.369123 317.309623,159.315128 313.570723,155.480752 C309.885106,151.404274 307.961614,146.035406 308.220048,140.545901 C307.921977,135.00459 309.872367,129.577418 313.629522,125.493453 C317.508324,121.700651 322.793265,119.697488 328.211581,119.966382 C335.426526,120.003396 342.228058,123.339179 346.67435,129.02137 L364.431535,113.380936 C360.174776,108.188901 354.701092,104.129083 348.497107,101.562412 C341.611865,98.7628095 334.232058,97.3828455 326.800414,97.5053067 C318.461092,97.3675506 310.211582,99.2433559 302.751776,102.973579 C295.892039,106.401536 290.143206,111.701879 286.170563,118.261222 C278.252419,132.062628 278.252419,149.029174 286.170563,162.830581 C290.106184,169.356585 295.788454,174.65189 302.57538,178.118224 C309.889888,181.843156 318.005164,183.720571 326.212428,183.586496 C332.617619,183.556968 338.988334,182.646866 345.145585,180.881759 C351.18448,179.259558 356.908544,176.636029 362.07959,173.12034 L362.07959,138.311553 L337.972153,138.311553 L337.972153,159.126267 Z M433.225928,99.3868627 L433.225928,128.550981 L407.589727,128.550981 L407.589727,99.3868627 L379.836775,99.3868627 L379.836775,181.70494 L407.589727,181.70494 L407.589727,151.364849 L433.225928,151.364849 L433.225928,181.70494 L460.97888,181.70494 L460.97888,99.3868627 L433.225928,99.3868627 Z M498.139611,181.70494 L525.892563,181.70494 L525.892563,120.90716 L550,120.90716 L550,99.3868627 L474.032175,99.3868627 L474.032175,120.90716 L498.139611,120.90716 L498.139611,181.70494 Z" id="weight_" fill="#ED1C24"></path>
            <g id="elipses" transform="translate(0.000000, 243.000000)" fill="#29282E" fill-rule="nonzero">
                <g id="Group" transform="translate(463.000000, 0.000000)">
                    <ellipse id="elipse_копия_9" cx="43.5239598" cy="6.05223881" rx="5.91525424" ry="6.04477612"></ellipse>
                    <ellipse id="elipse_копия_13" cx="6.69345134" cy="6.05223881" rx="5.91525424" ry="6.04477612"></ellipse>
                    <ellipse id="elipse_копия_8" cx="80.3544683" cy="6.05223881" rx="5.91525424" ry="6.04477612"></ellipse>
                </g>
                <ellipse id="elipse_копия" cx="6.78415254" cy="6.2761194" rx="5.91525424" ry="6.04477612"></ellipse>
                <ellipse id="elipse_копия_2" cx="43.5702966" cy="6.2761194" rx="5.87088983" ry="5.9994403"></ellipse>
                <ellipse id="elipse_копия-2" cx="80.3564407" cy="6.2761194" rx="5.91525424" ry="6.04477612"></ellipse>
            </g>
            <path d="M38.7721843,357.089549 C41.076559,356.174959 43.0899806,354.652933 44.5983362,352.685325 C46.0107789,350.748131 46.7455495,348.399504 46.6889932,346.002731 C46.8193563,342.918066 45.3152669,339.992804 42.7305887,338.304139 C39.2679214,336.299355 35.2898492,335.363002 31.2965017,335.612799 L8.86945392,335.612799 L4.88498131e-15,379.960069 L24.3909983,379.960069 C29.5311362,380.188575 34.6298428,378.946458 39.0889505,376.379438 C42.7440041,374.179496 44.9043091,370.157728 44.7203498,365.895649 C44.7639548,364.013844 44.2219956,362.164951 43.1693686,360.60448 C42.0597258,359.043054 40.5347986,357.823763 38.7674915,357.084856 L38.7721843,357.089549 Z M28.3188993,344.672313 C31.8244454,344.672313 33.5772184,345.833789 33.5772184,348.156741 C33.6610715,349.624498 33.0082079,351.037569 31.8361775,351.925086 C30.3183361,352.890193 28.5320539,353.345601 26.7374147,353.225001 L17.7389078,353.225001 L19.4494454,344.672313 L28.3188993,344.672313 Z M25.087884,370.900555 L14.1911263,370.900555 L15.9556314,361.904395 L27.0424488,361.904395 C28.3717964,361.833784 29.6928576,362.152633 30.8436433,362.821844 C31.7774662,363.444392 32.3086503,364.517491 32.2374147,365.637543 C32.3261797,367.1875 31.6072986,368.673188 30.3368174,369.565444 C28.761285,370.536085 26.926068,371.000417 25.0784983,370.895863 L25.087884,370.900555 Z M70.953285,380.847014 C83.9180176,380.847014 91.7519198,374.152688 94.4549915,360.764037 L99.4598976,335.612799 L87.1060154,335.612799 L82.2278157,360.003798 C81.8207081,362.937122 80.6281046,365.705811 78.7762372,368.01681 C77.1189183,369.69084 74.8262789,370.578533 72.4737628,370.457083 C67.5744454,370.457083 65.1247867,368.13413 65.1247867,363.488226 C65.1370658,362.317104 65.2643839,361.150021 65.5049061,360.003798 L70.3831058,335.612799 L57.8391638,335.612799 L52.8976109,360.193857 C52.5835618,361.739042 52.4138893,363.310084 52.390785,364.88669 C52.3190034,367.868434 53.0873865,370.810244 54.6081485,373.376025 C56.1345779,375.825372 58.3647086,377.757008 61.0068259,378.91826 C64.142667,380.277077 67.5367613,380.936839 70.953285,380.851707 L70.953285,380.847014 Z M138.483148,335.612799 L133.668302,359.877091 L118.963311,335.612799 L108.639078,335.612799 L99.7696246,379.960069 L112.060154,379.960069 L116.938353,355.632424 L131.570606,379.960069 L141.894838,379.960069 L150.764292,335.612799 L138.473763,335.612799 L138.483148,335.612799 Z M151.470563,379.960069 L174.148677,379.960069 C179.125454,380.056307 184.054086,378.970706 188.529863,376.792407 C192.587372,374.794277 195.984679,371.671459 198.316766,367.796246 C200.721005,363.689425 201.939351,358.996356 201.836391,354.238653 C201.920114,350.741929 200.984143,347.296448 199.142705,344.322697 C197.275124,341.452913 194.596105,339.203517 191.446459,337.860666 C187.701047,336.281325 183.663009,335.515145 179.599403,335.612799 L160.342363,335.612799 L151.470563,379.960069 Z M166.039462,369.950257 L170.854309,345.622612 L178.203285,345.622612 C181.133352,345.413896 184.038994,346.280666 186.375853,348.060538 C188.298763,349.838096 189.322026,352.385057 189.163396,354.998892 C189.210141,357.663507 188.623902,360.301182 187.452858,362.695137 C186.337247,364.927715 184.584995,366.779582 182.417449,368.01681 C180.007667,369.354009 177.283803,370.021607 174.528797,369.950257 L166.039462,369.950257 Z M204.429181,379.960069 L238.130759,379.960069 L240.158063,370.01361 L219.000427,370.01361 L225.842577,335.612799 L213.289249,335.612799 L204.429181,379.960069 Z M285.324232,345.305845 L287.288183,335.612799 L252.56122,335.612799 L243.691766,379.960069 L279.230589,379.960069 L281.257892,370.267023 L258.009599,370.267023 L259.59343,362.157808 L279.357295,362.157808 L281.194539,352.772142 L261.484642,352.772142 L262.941766,345.29646 L285.324232,345.29646 L285.324232,345.305845 Z M315.358362,379.960069 L327.899957,379.960069 L334.805461,345.559258 L348.363055,345.559258 L350.390358,335.612799 L310.665529,335.612799 L308.638225,345.559258 L322.259172,345.559258 L315.358362,379.960069 Z M370.15657,380.847014 C375.151419,380.93582 380.087482,379.758914 384.504906,377.425939 C388.605135,375.243457 392.007567,371.949994 394.322312,367.922953 C396.696646,363.757734 397.911967,359.032566 397.841937,354.238653 C397.905273,350.674924 396.972355,347.164293 395.148251,344.102134 C393.313182,341.109433 390.651812,338.711266 387.484855,337.19663 C383.833008,335.476347 379.830631,334.630401 375.795009,334.725854 C370.800126,334.636742 365.863988,335.813666 361.446672,338.146929 C357.345805,340.329367 353.942604,343.622788 351.62692,347.649915 C349.253547,351.815524 348.038295,356.540425 348.107295,361.334216 C348.043126,364.897734 348.975236,368.408383 350.798635,371.470735 C352.634021,374.464035 355.29633,376.862313 358.464377,378.376238 C362.116058,380.097014 366.118553,380.942985 370.154224,380.847014 L370.15657,380.847014 Z M371.233575,370.457083 C368.410171,370.626571 365.636809,369.65619 363.534983,367.763397 C361.652836,365.856905 360.653986,363.250025 360.78029,360.573977 C360.747826,357.889736 361.333087,355.233981 362.490828,352.812031 C363.573935,350.532727 365.26114,348.593944 367.369027,347.206443 C369.553823,345.790761 372.112841,345.062532 374.715657,345.115786 C377.538731,344.945661 380.312051,345.915181 382.414249,347.807125 C384.296271,349.714657 385.295042,352.322181 385.168942,354.998892 C385.201382,357.682377 384.616113,360.337363 383.458404,362.758491 C382.374642,365.037993 380.687623,366.977375 378.580205,368.366426 C376.395108,369.781445 373.836298,370.509615 371.233575,370.457083 Z M400.437073,379.960069 L423.115188,379.960069 C428.091964,380.056307 433.020596,378.970706 437.496374,376.792407 C441.553883,374.794277 444.95119,371.671459 447.283276,367.796246 C449.687515,363.689425 450.905861,358.996356 450.802901,354.238653 C450.886624,350.741929 449.950654,347.296448 448.109215,344.322697 C446.241634,341.452913 443.562615,339.203517 440.412969,337.860666 C436.667557,336.281325 432.629519,335.515145 428.565913,335.612799 L409.306527,335.612799 L400.437073,379.960069 Z M415.005973,369.950257 L419.820819,345.622612 L427.169795,345.622612 C430.099862,345.413896 433.005504,346.280666 435.342363,348.060538 C437.265273,349.838096 438.288536,352.385057 438.129906,354.998892 C438.176651,357.663507 437.590412,360.301182 436.419369,362.695137 C435.303596,364.92837 433.55038,366.780394 431.381613,368.01681 C428.972648,369.353923 426.24956,370.02153 423.495307,369.950257 L415.005973,369.950257 Z M486.466084,379.960069 L498.944326,379.960069 L488.237628,335.612799 L475.886092,335.612799 L447.440486,379.960069 L460.681314,379.960069 L465.812927,371.344028 L484.692193,371.344028 L486.466084,379.960069 Z M471.324659,362.094455 L479.813993,347.713269 L482.791596,362.094455 L471.324659,362.094455 Z M550,335.612799 L537.265998,335.612799 L523.077218,353.288354 L516.108362,335.612799 L503.501067,335.612799 L514.777944,363.931699 L511.610282,379.960069 L524.154224,379.960069 L527.258532,364.239079 L550,335.612799 Z" id="bundle_today" fill="#23232B"></path>
        </g>
    </g>
</svg>