<?xml version="1.0" encoding="UTF-8"?>
<svg width="550px" height="550px" viewBox="0 0 550 550" version="1.1" xmlns="http://www.w3.org/2000/svg" xmlns:xlink="http://www.w3.org/1999/xlink">
    <!-- Generator: Sketch 50.2 (55047) - http://www.bohemiancoding.com/sketch -->
    <title>6</title>
    <desc>Created with Sketch.</desc>
    <defs></defs>
    <g id="6" stroke="none" stroke-width="1" fill="none" fill-rule="evenodd">
        <g id="Group-2" transform="translate(0.000000, 46.000000)">
            <path d="M185.02,350.576 L173.5,350.576 L173.5,346.4 L201.292,346.4 L201.292,350.576 L189.772,350.576 L189.772,380 L185.02,380 L185.02,350.576 Z M235.42,346.4 L235.42,380 L230.62,380 L230.62,365.024 L211.324,365.024 L211.324,380 L206.524,380 L206.524,346.4 L211.324,346.4 L211.324,360.848 L230.62,360.848 L230.62,346.4 L235.42,346.4 Z M269.884,375.824 L269.884,380 L245.5,380 L245.5,346.4 L269.212,346.4 L269.212,350.576 L250.3,350.576 L250.3,360.896 L267.148,360.896 L267.148,364.976 L250.3,364.976 L250.3,375.824 L269.884,375.824 Z M311.98,371.6 L294.124,371.6 L290.428,380 L285.484,380 L300.7,346.4 L305.452,346.4 L320.716,380 L315.676,380 L311.98,371.6 Z M310.3,367.76 L303.052,351.296 L295.804,367.76 L310.3,367.76 Z M325.708,346.4 L330.508,346.4 L330.508,375.824 L348.7,375.824 L348.7,380 L325.708,380 L325.708,346.4 Z M354.22,346.4 L359.02,346.4 L359.02,375.824 L377.212,375.824 L377.212,380 L354.22,380 L354.22,346.4 Z" id="THE-ALL" fill="#29282E"></path>
            <path d="M0,1.58441195 L23.3700762,1.58441195 L23.3700762,52.780723 L54.6622122,52.780723 L54.6622122,70.9024346 L0,70.9024346 L0,1.58441195 Z M103.327865,72.4868466 C95.8678884,72.4868466 89.1672132,70.9354587 83.2256387,67.8326365 C77.2840642,64.7298142 72.6299006,60.4222373 69.2630084,54.9097765 C65.8961162,49.3973157 64.2126953,43.1752602 64.2126953,36.2434233 C64.2126953,29.3115864 65.8961162,23.0895308 69.2630084,17.57707 C72.6299006,12.0646092 77.2840642,7.75703234 83.2256387,4.65421009 C89.1672132,1.55138785 95.8678884,0 103.327865,0 C110.787842,0 117.488517,1.55138785 123.430092,4.65421009 C129.371666,7.75703234 134.02583,12.0646092 137.392722,17.57707 C140.759614,23.0895308 142.443035,29.3115864 142.443035,36.2434233 C142.443035,43.1752602 140.759614,49.3973157 137.392722,54.9097765 C134.02583,60.4222373 129.371666,64.7298142 123.430092,67.8326365 C117.488517,70.9354587 110.787842,72.4868466 103.327865,72.4868466 Z M103.327865,53.572929 C106.232635,53.572929 108.856791,52.8632515 111.200412,51.4438754 C113.544033,50.0244993 115.408999,48.0109959 116.795367,45.4033049 C118.181734,42.7956138 118.874907,39.7423505 118.874907,36.2434233 C118.874907,32.7444961 118.181734,29.6912328 116.795367,27.0835417 C115.408999,24.4758507 113.544033,22.4623473 111.200412,21.0429712 C108.856791,19.623595 106.232635,18.9139176 103.327865,18.9139176 C100.423095,18.9139176 97.7989394,19.623595 95.4553184,21.0429712 C93.1116973,22.4623473 91.2467311,24.4758507 89.8603637,27.0835417 C88.4739963,29.6912328 87.780823,32.7444961 87.780823,36.2434233 C87.780823,39.7423505 88.4739963,42.7956138 89.8603637,45.4033049 C91.2467311,48.0109959 93.1116973,50.0244993 95.4553184,51.4438754 C97.7989394,52.8632515 100.423095,53.572929 103.327865,53.572929 Z M183.681757,72.4868466 C177.938235,72.4868466 172.343336,71.8431857 166.896893,70.5558445 C161.45045,69.2685034 156.977832,67.5355701 153.478905,65.3569928 L161.004861,48.3245644 C164.305736,50.2390717 168.00266,51.7739555 172.095745,52.9292616 C176.18883,54.0845678 180.116812,54.6622122 183.879809,54.6622122 C187.114666,54.6622122 189.425244,54.3486338 190.811611,53.7214676 C192.197978,53.0943014 192.891152,52.1535662 192.891152,50.8992338 C192.891152,49.4468489 191.983425,48.3575766 190.167944,47.6313842 C188.352463,46.9051917 185.365216,46.1129937 181.206114,45.2547662 C175.858697,44.1324688 171.402582,42.9276676 167.837638,41.6403265 C164.272693,40.3529853 161.169917,38.2404572 158.529218,35.3026787 C155.888518,32.3649002 154.568188,28.3874058 154.568188,23.3700762 C154.568188,19.0129216 155.789493,15.0519313 158.23214,11.4869866 C160.674788,7.92204191 164.3222,5.11634048 169.174485,3.06979815 C174.026771,1.02325582 179.918744,0 186.850581,0 C191.603841,0 196.274508,0.511627908 200.862724,1.53489907 C205.45094,2.55817024 209.494451,4.06004571 212.993378,6.04057055 L205.96255,22.9739732 C199.162748,19.5410635 192.726139,17.8246344 186.65253,17.8246344 C180.644938,17.8246344 177.641187,19.2769975 177.641187,22.1817673 C177.641187,23.5681346 178.53241,24.6078946 180.314882,25.3010783 C182.097354,25.994262 185.035089,26.7369476 189.128173,27.5291576 C194.409573,28.51942 198.865687,29.6582047 202.496649,30.9455458 C206.127611,32.232887 209.279899,34.328911 211.953608,37.2336808 C214.627316,40.1384505 215.964151,44.0994408 215.964151,49.1167704 C215.964151,53.473925 214.742845,57.4184111 212.300198,60.9503471 C209.857551,64.482283 206.210139,67.2879845 201.357853,69.3675356 C196.505567,71.4470866 190.613594,72.4868466 183.681757,72.4868466 Z M287.405725,53.2758517 L287.405725,70.9024346 L229.772741,70.9024346 L229.772741,1.58441195 L286.118391,1.58441195 L286.118391,19.2109949 L252.746714,19.2109949 L252.746714,27.3311061 L282.058335,27.3311061 L282.058335,44.165483 L252.746714,44.165483 L252.746714,53.2758517 L287.405725,53.2758517 Z M363.248445,19.2109949 L363.248445,31.0940845 L392.163963,31.0940845 L392.163963,48.7206674 L363.248445,48.7206674 L363.248445,70.9024346 L339.878368,70.9024346 L339.878368,1.58441195 L396.224018,1.58441195 L396.224018,19.2109949 L363.248445,19.2109949 Z M455.287375,58.8212935 L428.946526,58.8212935 L424.292316,70.9024346 L400.526137,70.9024346 L430.828015,1.58441195 L453.801989,1.58441195 L484.103867,70.9024346 L459.941585,70.9024346 L455.287375,58.8212935 Z M448.850701,41.9869166 L442.11695,24.5583852 L435.3832,41.9869166 L448.850701,41.9869166 Z M506.329646,19.7061236 L486.029368,19.7061236 L486.029368,1.58441195 L550,1.58441195 L550,19.7061236 L529.699722,19.7061236 L529.699722,70.9024346 L506.329646,70.9024346 L506.329646,19.7061236 Z" id="LOSE-FAT" fill="#ED1C24"></path>
            <path d="M33.5589158,123.974322 C36.0358957,124.893202 37.9535289,126.23155 39.3118727,127.989407 C40.6702166,129.747264 41.3493783,131.86465 41.3493783,134.34163 C41.3493783,138.017149 39.8312521,140.863636 36.7949541,142.881176 C33.758656,144.898716 29.36408,145.907471 23.6110943,145.907471 L0,145.907471 L0,103.958826 L22.4125616,103.958826 C28.0057422,103.958826 32.2305277,104.957593 35.087045,106.955158 C37.9435622,108.952722 39.3717994,111.609443 39.3717994,114.9254 C39.3717994,116.883014 38.8824034,118.640844 37.9035968,120.198944 C36.9247902,121.757045 35.4765777,123.015491 33.5589158,123.974322 Z M13.9029794,113.846721 L13.9029794,120.079091 L20.4949093,120.079091 C23.5711586,120.079091 25.1092602,119.040373 25.1092602,116.962906 C25.1092602,114.885439 23.5711586,113.846721 20.4949093,113.846721 L13.9029794,113.846721 Z M22.4125616,136.019576 C25.5287622,136.019576 27.0868391,134.920932 27.0868391,132.723611 C27.0868391,130.52629 25.5287622,129.427646 22.4125616,129.427646 L13.9029794,129.427646 L13.9029794,136.019576 L22.4125616,136.019576 Z M72.4779361,146.866297 C67.9634403,146.866297 63.9084452,145.927456 60.3128291,144.049745 C56.717213,142.172035 53.9006894,139.565252 51.8631736,136.229319 C49.8256578,132.893387 48.8069152,129.128034 48.8069152,124.933149 C48.8069152,120.738263 49.8256578,116.97291 51.8631736,113.636978 C53.9006894,110.301045 56.717213,107.694262 60.3128291,105.816552 C63.9084452,103.938841 67.9634403,103 72.4779361,103 C76.9924319,103 81.047427,103.938841 84.6430431,105.816552 C88.2386592,107.694262 91.0551828,110.301045 93.0926986,113.636978 C95.1302144,116.97291 96.148957,120.738263 96.148957,124.933149 C96.148957,129.128034 95.1302144,132.893387 93.0926986,136.229319 C91.0551828,139.565252 88.2386592,142.172035 84.6430431,144.049745 C81.047427,145.927456 76.9924319,146.866297 72.4779361,146.866297 Z M72.4779361,135.42031 C74.2357929,135.42031 75.8238328,134.99084 77.2421036,134.131887 C78.6603744,133.272934 79.7889814,132.054438 80.6279585,130.476362 C81.4669356,128.898286 81.8864178,127.050567 81.8864178,124.933149 C81.8864178,122.81573 81.4669356,120.968011 80.6279585,119.389935 C79.7889814,117.811859 78.6603744,116.593363 77.2421036,115.73441 C75.8238328,114.875457 74.2357929,114.445987 72.4779361,114.445987 C70.7200793,114.445987 69.1320394,114.875457 67.7137686,115.73441 C66.2954978,116.593363 65.1668908,117.811859 64.3279137,119.389935 C63.4889366,120.968011 63.0694544,122.81573 63.0694544,124.933149 C63.0694544,127.050567 63.4889366,128.898286 64.3279137,130.476362 C65.1668908,132.054438 66.2954978,133.272934 67.7137686,134.131887 C69.1320394,134.99084 70.7200793,135.42031 72.4779361,135.42031 Z M127.457295,146.866297 C122.942799,146.866297 118.887804,145.927456 115.292188,144.049745 C111.696572,142.172035 108.880048,139.565252 106.842532,136.229319 C104.805016,132.893387 103.786274,129.128034 103.786274,124.933149 C103.786274,120.738263 104.805016,116.97291 106.842532,113.636978 C108.880048,110.301045 111.696572,107.694262 115.292188,105.816552 C118.887804,103.938841 122.942799,103 127.457295,103 C131.97179,103 136.026786,103.938841 139.622402,105.816552 C143.218018,107.694262 146.034541,110.301045 148.072057,113.636978 C150.109573,116.97291 151.128316,120.738263 151.128316,124.933149 C151.128316,129.128034 150.109573,132.893387 148.072057,136.229319 C146.034541,139.565252 143.218018,142.172035 139.622402,144.049745 C136.026786,145.927456 131.97179,146.866297 127.457295,146.866297 Z M127.457295,135.42031 C129.215151,135.42031 130.803191,134.99084 132.221462,134.131887 C133.639733,133.272934 134.76834,132.054438 135.607317,130.476362 C136.446294,128.898286 136.865776,127.050567 136.865776,124.933149 C136.865776,122.81573 136.446294,120.968011 135.607317,119.389935 C134.76834,117.811859 133.639733,116.593363 132.221462,115.73441 C130.803191,114.875457 129.215151,114.445987 127.457295,114.445987 C125.699438,114.445987 124.111398,114.875457 122.693127,115.73441 C121.274856,116.593363 120.146249,117.811859 119.307272,119.389935 C118.468295,120.968011 118.048813,122.81573 118.048813,124.933149 C118.048813,127.050567 118.468295,128.898286 119.307272,130.476362 C120.146249,132.054438 121.274856,133.272934 122.693127,134.131887 C124.111398,134.99084 125.699438,135.42031 127.457295,135.42031 Z M176.08443,146.866297 C172.608668,146.866297 169.222847,146.476778 165.926865,145.697728 C162.630884,144.918677 159.924225,143.869972 157.806806,142.551579 L162.36123,132.244198 C164.358795,133.402785 166.596034,134.331639 169.073014,135.030787 C171.549994,135.729934 173.92706,136.079503 176.204283,136.079503 C178.161896,136.079503 179.560171,135.889737 180.399148,135.5102 C181.238125,135.130662 181.657607,134.561365 181.657607,133.802291 C181.657607,132.923362 181.108285,132.264176 180.009625,131.824712 C178.910964,131.385247 177.103195,130.905839 174.586264,130.386472 C171.35021,129.7073 168.653538,128.9782 166.496168,128.19915 C164.338799,127.4201 162.461116,126.141678 160.863065,124.363845 C159.265013,122.586013 158.465999,120.178984 158.465999,117.142686 C158.465999,114.505901 159.205087,112.108859 160.683285,109.95149 C162.161482,107.79412 164.368758,106.096216 167.305178,104.857726 C170.241598,103.619236 173.807197,103 178.002082,103 C180.878575,103 183.705087,103.309618 186.481701,103.928863 C189.258316,104.548108 191.705296,105.456986 193.822714,106.655525 L189.567923,116.902979 C185.45294,114.825512 181.557748,113.786794 177.882229,113.786794 C174.246662,113.786794 172.428905,114.66571 172.428905,116.423566 C172.428905,117.262543 172.96824,117.891767 174.046924,118.311255 C175.125609,118.730744 176.903415,119.180189 179.380395,119.659605 C182.576498,120.258874 185.27317,120.948023 187.470491,121.727074 C189.667812,122.506124 191.575457,123.774558 193.193484,125.532415 C194.811512,127.290272 195.620513,129.687313 195.620513,132.723611 C195.620513,135.360396 194.881425,137.74745 193.403228,139.884844 C191.92503,142.022238 189.717754,143.720142 186.781334,144.978608 C183.844915,146.237074 180.279315,146.866297 176.08443,146.866297 Z M212.486532,114.9254 L200.201571,114.9254 L200.201571,103.958826 L238.914178,103.958826 L238.914178,114.9254 L226.629218,114.9254 L226.629218,145.907471 L212.486532,145.907471 L212.486532,114.9254 Z M303.748139,135.24053 L303.748139,145.907471 L268.870837,145.907471 L268.870837,103.958826 L302.969092,103.958826 L302.969092,114.625767 L282.773816,114.625767 L282.773816,119.539751 L300.5121,119.539751 L300.5121,129.727279 L282.773816,129.727279 L282.773816,135.24053 L303.748139,135.24053 Z M354.712413,103.958826 L354.712413,145.907471 L343.086645,145.907471 L327.14616,126.850801 L327.14616,145.907471 L313.363034,145.907471 L313.363034,103.958826 L324.988802,103.958826 L340.929287,123.015496 L340.929287,103.958826 L354.712413,103.958826 Z M400.582923,135.24053 L400.582923,145.907471 L365.705621,145.907471 L365.705621,103.958826 L399.803876,103.958826 L399.803876,114.625767 L379.6086,114.625767 L379.6086,119.539751 L397.346884,119.539751 L397.346884,129.727279 L379.6086,129.727279 L379.6086,135.24053 L400.582923,135.24053 Z M428.175809,135.360383 L424.340504,135.360383 L424.340504,145.907471 L410.197818,145.907471 L410.197818,103.958826 L430.393095,103.958826 C434.26837,103.958826 437.644203,104.598037 440.520696,105.876478 C443.397189,107.15492 445.614452,108.992652 447.172552,111.389729 C448.730653,113.786806 449.509691,116.583355 449.509691,119.779458 C449.509691,122.775805 448.830529,125.392575 447.472186,127.629847 C446.113842,129.867119 444.156258,131.644925 441.599375,132.963318 L450.408591,145.907471 L435.307079,145.907471 L428.175809,135.360383 Z M435.247152,119.779458 C435.247152,118.221358 434.767744,117.012849 433.808913,116.153896 C432.850082,115.294944 431.411857,114.865474 429.494195,114.865474 L424.340504,114.865474 L424.340504,124.693442 L429.494195,124.693442 C431.411857,124.693442 432.850082,124.263972 433.808913,123.405019 C434.767744,122.546067 435.247152,121.337558 435.247152,119.779458 Z M486.750766,123.794542 L499.035726,123.794542 L499.035726,141.532826 C496.558746,143.250732 493.682296,144.569105 490.40629,145.487984 C487.130285,146.406864 483.914254,146.866297 480.758102,146.866297 C476.283558,146.866297 472.268513,145.937443 468.712849,144.079708 C465.157184,142.221973 462.370623,139.625179 460.353083,136.289246 C458.335543,132.953313 457.326788,129.167985 457.326788,124.933149 C457.326788,120.698312 458.335543,116.912984 460.353083,113.577051 C462.370623,110.241118 465.187147,107.644324 468.802738,105.786589 C472.41833,103.928854 476.503288,103 481.057735,103 C485.172718,103 488.858169,103.689149 492.1142,105.067469 C495.37023,106.445788 498.076889,108.453311 500.234259,111.090096 L491.185337,119.060338 C488.548552,115.984089 485.412422,114.445987 481.776855,114.445987 C478.660654,114.445987 476.183712,115.384829 474.345952,117.262539 C472.508193,119.14025 471.589327,121.697094 471.589327,124.933149 C471.589327,128.0893 472.498205,130.626169 474.315989,132.543831 C476.133773,134.461493 478.560777,135.42031 481.597075,135.42031 C483.394883,135.42031 485.112763,135.080729 486.750766,134.401557 L486.750766,123.794542 Z M534.179368,130.686105 L534.179368,145.907471 L520.036682,145.907471 L520.036682,130.506326 L504.216051,103.958826 L519.137783,103.958826 L527.707292,118.461072 L536.336727,103.958826 L550,103.958826 L534.179368,130.686105 Z" id="BOOST-ENERGY" fill="#29282E"></path>
            <g id="Group" transform="translate(0.000000, 192.000000)">
                <path d="M244.240337,39.9951398 L248.69175,39.9951398 L230.428023,0.00474453654 L226.263727,0.00474453654 L208,39.9951398 L212.38347,39.9951398 L217.178986,29.3126238 L239.447013,29.3126238 L244.240337,39.9951398 Z M218.728542,25.8847504 L228.317383,4.40574824 L237.906223,25.8847504 L218.728542,25.8847504 Z M287.389022,0.00474453654 L287.389022,32.4555717 L261.649287,0.00474453654 L258.16662,0.00474453654 L258.16662,39.9951398 L262.390094,39.9951398 L262.390094,7.54650437 L288.075035,39.9951398 L291.557702,39.9951398 L291.557702,0.00474453654 L287.393405,0.00474453654 L287.389022,0.00474453654 Z M304.423671,39.9951398 L320.690727,39.9951398 C324.568433,40.0736164 328.406296,39.2006907 331.868575,37.4527273 C335.00077,35.8539942 337.613473,33.3971262 339.401568,30.36904 C342.978531,23.9190289 342.978531,16.0808554 339.401568,9.63084427 C337.612236,6.60374759 334.999858,4.14718507 331.868575,2.54715704 C328.405962,0.800121847 324.568332,-0.0727507045 320.690727,0.00474453654 L304.423671,0.00474453654 L304.423671,39.9951398 Z M308.647144,36.3393259 L308.647144,3.66055837 L320.460595,3.66055837 C323.648966,3.58894626 326.805696,4.30566623 329.65054,5.74709001 C332.189816,7.05560728 334.307384,9.05540583 335.758905,11.5157363 C338.649135,16.8026538 338.649135,23.1972305 335.758905,28.484148 C334.307518,30.9451372 332.189969,32.9456779 329.65054,34.254986 C326.805502,35.6956513 323.648782,36.4116162 320.460595,36.3393259 L308.647144,36.3393259 Z" id="AND" fill="#29282E"></path>
                <rect id="rectangle" fill="#ED1C24" fill-rule="nonzero" x="375" y="15" width="175" height="10"></rect>
                <rect id="rectangle-2" fill="#ED1C24" fill-rule="nonzero" x="0" y="15" width="175" height="10"></rect>
            </g>
            <path d="M0,277.858807 L12.6673968,277.858807 L12.6673968,315.431594 L0,315.431594 L0,277.858807 Z M59.5498856,277.858807 L59.5498856,315.431594 L49.136856,315.431594 L34.8591969,298.362813 L34.8591969,315.431594 L22.5138526,315.431594 L22.5138526,277.858807 L32.9268822,277.858807 L47.2045413,294.927587 L47.2045413,277.858807 L59.5498856,277.858807 Z M88.8268399,316.2904 C84.8548397,316.2904 81.2765148,315.45844 78.0917578,313.794494 C74.9070009,312.130548 72.4111193,309.804636 70.6040381,306.81669 C68.7969569,303.828744 67.8934299,300.438281 67.8934299,296.6452 C67.8934299,292.852119 68.7969569,289.461656 70.6040381,286.47371 C72.4111193,283.485764 74.9070009,281.159853 78.0917578,279.495907 C81.2765148,277.831961 84.8548397,277 88.8268399,277 C92.476786,277 95.7330617,277.644098 98.5957645,278.932315 C101.458467,280.220531 103.820162,282.08126 105.680919,284.514557 L97.6832825,291.653387 C95.3573365,288.719117 92.6199179,287.252003 89.4709448,287.252003 C86.8229447,287.252003 84.6938413,288.101856 83.083571,289.801585 C81.4733006,291.501315 80.6681775,293.782497 80.6681775,296.6452 C80.6681775,299.507903 81.4733006,301.789085 83.083571,303.488815 C84.6938413,305.188545 86.8229447,306.038397 89.4709448,306.038397 C92.6199179,306.038397 95.3573365,304.571284 97.6832825,301.637013 L105.680919,308.775843 C103.820162,311.20914 101.458467,313.069869 98.5957645,314.358085 C95.7330617,315.646302 92.476786,316.2904 88.8268399,316.2904 Z M129.160929,305.984721 L125.725702,305.984721 L125.725702,315.431594 L113.058306,315.431594 L113.058306,277.858807 L131.146919,277.858807 C134.617946,277.858807 137.641631,278.431339 140.218063,279.57642 C142.794496,280.721501 144.780466,282.36753 146.176034,284.514557 C147.571601,286.661585 148.269375,289.166412 148.269375,292.029115 C148.269375,294.712899 147.661059,297.056702 146.444411,299.060594 C145.227762,301.064486 143.474383,302.65684 141.184221,303.837705 L149.074506,315.431594 L135.548302,315.431594 L129.160929,305.984721 Z M135.494627,292.029115 C135.494627,290.633547 135.065228,289.551104 134.206417,288.781753 C133.347606,288.012401 132.059409,287.627731 130.341788,287.627731 L125.725702,287.627731 L125.725702,296.430498 L130.341788,296.430498 C132.059409,296.430498 133.347606,296.045829 134.206417,295.276477 C135.065228,294.507126 135.494627,293.424682 135.494627,292.029115 Z M188.013034,305.877371 L188.013034,315.431594 L156.773945,315.431594 L156.773945,277.858807 L187.315254,277.858807 L187.315254,287.41303 L169.22664,287.41303 L169.22664,291.814413 L185.114562,291.814413 L185.114562,300.939233 L169.22664,300.939233 L169.22664,305.877371 L188.013034,305.877371 Z M222.228126,308.883194 L207.950467,308.883194 L205.427723,315.431594 L192.545624,315.431594 L208.9703,277.858807 L221.422995,277.858807 L237.84767,315.431594 L224.75087,315.431594 L222.228126,308.883194 Z M218.739224,299.758374 L215.089296,290.311502 L211.439368,299.758374 L218.739224,299.758374 Z M257.624077,316.2904 C254.510888,316.2904 251.478257,315.941514 248.526095,315.24373 C245.573933,314.545946 243.149617,313.606636 241.253077,312.425771 L245.332408,303.1936 C247.121597,304.23133 249.125459,305.06329 251.344054,305.689507 C253.562649,306.315723 255.691752,306.628826 257.731428,306.628826 C259.484833,306.628826 260.737247,306.458856 261.488706,306.11891 C262.240166,305.778964 262.61589,305.269053 262.61589,304.589161 C262.61589,303.801918 262.12387,303.211494 261.139816,302.817872 C260.155762,302.424251 258.53657,301.994852 256.282192,301.529662 C253.383705,300.921338 250.968336,300.268294 249.036011,299.57051 C247.103687,298.872726 245.421874,297.727662 243.990523,296.135284 C242.559171,294.542905 241.843506,292.386965 241.843506,289.667397 C241.843506,287.305667 242.505496,285.158672 243.829497,283.226348 C245.153497,281.294023 247.130521,279.773235 249.760629,278.663938 C252.390738,277.55464 255.584393,277 259.34169,277 C261.918123,277 264.449788,277.27732 266.936761,277.831969 C269.423734,278.386618 271.615458,279.200686 273.511998,280.2742 L269.701044,289.452695 C266.015314,287.591938 262.526448,286.661574 259.234339,286.661574 C255.978015,286.661574 254.349877,287.448805 254.349877,289.023292 C254.349877,289.774751 254.832951,290.338338 255.799113,290.714067 C256.765275,291.089797 258.35763,291.492359 260.576225,291.921764 C263.438927,292.458521 265.854297,293.075782 267.822405,293.773566 C269.790513,294.471349 271.499163,295.607468 272.948407,297.181954 C274.39765,298.756441 275.122261,300.903436 275.122261,303.623003 C275.122261,305.984733 274.460271,308.122782 273.13627,310.037215 C271.81227,311.951647 269.835246,313.472436 267.205138,314.599625 C264.575029,315.726814 261.381374,316.2904 257.624077,316.2904 Z M313.846087,305.877371 L313.846087,315.431594 L282.606998,315.431594 L282.606998,277.858807 L313.148307,277.858807 L313.148307,287.41303 L295.059694,287.41303 L295.059694,291.814413 L310.947615,291.814413 L310.947615,300.939233 L295.059694,300.939233 L295.059694,305.877371 L313.846087,305.877371 Z M354.955487,287.41303 L354.955487,293.854079 L370.628707,293.854079 L370.628707,303.408302 L354.955487,303.408302 L354.955487,315.431594 L342.288091,315.431594 L342.288091,277.858807 L372.829399,277.858807 L372.829399,287.41303 L354.955487,287.41303 Z M400.013012,316.2904 C395.969444,316.2904 392.337445,315.449494 389.116904,313.767656 C385.896363,312.085818 383.373644,309.750961 381.548671,306.763015 C379.723698,303.775069 378.811225,300.402498 378.811225,296.6452 C378.811225,292.887903 379.723698,289.515331 381.548671,286.527385 C383.373644,283.539439 385.896363,281.204582 389.116904,279.522744 C392.337445,277.840906 395.969444,277 400.013012,277 C404.05658,277 407.68858,277.840906 410.90912,279.522744 C414.129661,281.204582 416.65238,283.539439 418.477353,286.527385 C420.302326,289.515331 421.214799,292.887903 421.214799,296.6452 C421.214799,300.402498 420.302326,303.775069 418.477353,306.763015 C416.65238,309.750961 414.129661,312.085818 410.90912,313.767656 C407.68858,315.449494 404.05658,316.2904 400.013012,316.2904 Z M400.013012,306.038397 C401.587499,306.038397 403.009883,305.653727 404.280207,304.884376 C405.550532,304.115024 406.561409,303.023635 407.312868,301.610176 C408.064328,300.196716 408.440052,298.541741 408.440052,296.6452 C408.440052,294.748659 408.064328,293.093684 407.312868,291.680225 C406.561409,290.266765 405.550532,289.175376 404.280207,288.406025 C403.009883,287.636673 401.587499,287.252003 400.013012,287.252003 C398.438526,287.252003 397.016142,287.636673 395.745817,288.406025 C394.475493,289.175376 393.464616,290.266765 392.713156,291.680225 C391.961697,293.093684 391.585973,294.748659 391.585973,296.6452 C391.585973,298.541741 391.961697,300.196716 392.713156,301.610176 C393.464616,303.023635 394.475493,304.115024 395.745817,304.884376 C397.016142,305.653727 398.438526,306.038397 400.013012,306.038397 Z M448.988842,316.2904 C445.016842,316.2904 441.438517,315.45844 438.25376,313.794494 C435.069003,312.130548 432.573121,309.804636 430.76604,306.81669 C428.958959,303.828744 428.055432,300.438281 428.055432,296.6452 C428.055432,292.852119 428.958959,289.461656 430.76604,286.47371 C432.573121,283.485764 435.069003,281.159853 438.25376,279.495907 C441.438517,277.831961 445.016842,277 448.988842,277 C452.638788,277 455.895064,277.644098 458.757767,278.932315 C461.62047,280.220531 463.982164,282.08126 465.842921,284.514557 L457.845285,291.653387 C455.519339,288.719117 452.78192,287.252003 449.632947,287.252003 C446.984947,287.252003 444.855843,288.101856 443.245573,289.801585 C441.635303,291.501315 440.83018,293.782497 440.83018,296.6452 C440.83018,299.507903 441.635303,301.789085 443.245573,303.488815 C444.855843,305.188545 446.984947,306.038397 449.632947,306.038397 C452.78192,306.038397 455.519339,304.571284 457.845285,301.637013 L465.842921,308.775843 C463.982164,311.20914 461.62047,313.069869 458.757767,314.358085 C455.895064,315.646302 452.638788,316.2904 448.988842,316.2904 Z M490.664816,316.2904 C484.903627,316.2904 480.412829,314.733829 477.192288,311.62064 C473.971747,308.50745 472.361501,304.141894 472.361501,298.523839 L472.361501,277.858807 L485.028898,277.858807 L485.028898,298.148112 C485.028898,300.903463 485.520918,302.907325 486.504972,304.159758 C487.489026,305.41219 488.91141,306.038397 490.772167,306.038397 C492.632924,306.038397 494.055308,305.41219 495.039362,304.159758 C496.023416,302.907325 496.515436,300.903463 496.515436,298.148112 L496.515436,277.858807 L508.968131,277.858807 L508.968131,298.523839 C508.968131,304.141894 507.357885,308.50745 504.137344,311.62064 C500.916803,314.733829 496.426006,316.2904 490.664816,316.2904 Z M532.501816,316.2904 C529.388627,316.2904 526.355997,315.941514 523.403834,315.24373 C520.451672,314.545946 518.027357,313.606636 516.130816,312.425771 L520.210147,303.1936 C521.999337,304.23133 524.003199,305.06329 526.221793,305.689507 C528.440388,306.315723 530.569491,306.628826 532.609167,306.628826 C534.362573,306.628826 535.614986,306.458856 536.366446,306.11891 C537.117905,305.778964 537.493629,305.269053 537.493629,304.589161 C537.493629,303.801918 537.00161,303.211494 536.017556,302.817872 C535.033502,302.424251 533.41431,301.994852 531.159931,301.529662 C528.261444,300.921338 525.846075,300.268294 523.913751,299.57051 C521.981426,298.872726 520.299614,297.727662 518.868262,296.135284 C517.436911,294.542905 516.721246,292.386965 516.721246,289.667397 C516.721246,287.305667 517.383236,285.158672 518.707236,283.226348 C520.031236,281.294023 522.00826,279.773235 524.638369,278.663938 C527.268477,277.55464 530.462132,277 534.219429,277 C536.795862,277 539.327527,277.27732 541.8145,277.831969 C544.301473,278.386618 546.493197,279.200686 548.389738,280.2742 L544.578784,289.452695 C540.893054,287.591938 537.404187,286.661574 534.112079,286.661574 C530.855754,286.661574 529.227616,287.448805 529.227616,289.023292 C529.227616,289.774751 529.71069,290.338338 530.676852,290.714067 C531.643015,291.089797 533.235369,291.492359 535.453964,291.921764 C538.316667,292.458521 540.732036,293.075782 542.700144,293.773566 C544.668252,294.471349 546.376903,295.607468 547.826146,297.181954 C549.275389,298.756441 550,300.903436 550,303.623003 C550,305.984733 549.33801,308.122782 548.01401,310.037215 C546.69001,311.951647 544.712985,313.472436 542.082877,314.599625 C539.452769,315.726814 536.259114,316.2904 532.501816,316.2904 Z" id="INCREASE-FOCUS" fill="#29282E"></path>
            <g id="elipses" transform="translate(0.000000, 357.000000)" fill="#29282E" fill-rule="nonzero">
                <g id="Group" transform="translate(412.000000, 0.000000)">
                    <ellipse id="elipse_копия_9" cx="6.01548524" cy="6.05223881" rx="5.91525424" ry="6.04477612"></ellipse>
                    <ellipse id="elipse_копия_8" cx="47.8459937" cy="6.05223881" rx="5.91525424" ry="6.04477612"></ellipse>
                    <ellipse id="elipse_копия_7" cx="89.6765022" cy="6.05223881" rx="5.91525424" ry="6.04477612"></ellipse>
                    <ellipse id="elipse_копия_6" cx="131.507011" cy="6.05223881" rx="5.91525424" ry="6.04477612"></ellipse>
                </g>
                <ellipse id="elipse_копия" cx="6.78415254" cy="6.2761194" rx="5.91525424" ry="6.04477612"></ellipse>
                <ellipse id="elipse_копия_2" cx="48.5702966" cy="6.2761194" rx="5.87088983" ry="5.9994403"></ellipse>
                <ellipse id="elipse_копия-2" cx="90.3564407" cy="6.2761194" rx="5.91525424" ry="6.04477612"></ellipse>
                <ellipse id="elipse_копия_11" cx="132.231314" cy="6.2761194" rx="5.95961864" ry="6.09011194"></ellipse>
            </g>
            <path d="M54.6837566,410.4 L45.4599904,456.518831 L32.6784859,456.518831 L19.435793,435.040632 L15.1533301,456.518831 L-3.55271368e-15,456.518831 L9.22376617,410.4 L22.0052707,410.4 L35.2479636,431.878198 L39.5304264,410.4 L54.6837566,410.4 Z M86.5716339,448.480977 L68.9805942,448.480977 L64.3687111,456.518831 L47.9635841,456.518831 L77.3478678,410.4 L92.632966,410.4 L103.569717,456.518831 L88.0869669,456.518831 L86.5716339,448.480977 Z M84.3974605,437.28069 L82.157403,425.487446 L75.3713464,437.28069 L84.3974605,437.28069 Z M122.873742,422.45678 L109.367513,422.45678 L111.805223,410.4 L154.366315,410.4 L151.928606,422.45678 L138.422377,422.45678 L131.63632,456.518831 L116.087686,456.518831 L122.873742,422.45678 Z M172.418543,457.572976 C168.289789,457.572976 164.721106,456.8812 161.712386,455.497628 C158.703666,454.114056 156.397748,452.148535 154.794562,449.601006 C153.191375,447.053477 152.389794,444.066764 152.389794,440.640776 C152.389794,439.235243 152.565483,437.610119 152.916866,435.765357 L157.989938,410.4 L173.538572,410.4 L168.531385,435.501821 C168.267847,436.731662 168.13608,437.85168 168.13608,438.861907 C168.13608,440.926284 168.663148,442.463563 169.717298,443.47379 C170.771448,444.484017 172.308727,444.989123 174.329181,444.989123 C176.613172,444.989123 178.392024,444.264406 179.665788,442.81495 C180.939553,441.365493 181.927804,438.927808 182.63057,435.501821 L187.637758,410.4 L202.922856,410.4 L197.718016,436.424197 C196.312483,443.407941 193.501459,448.678612 189.284859,452.236368 C185.068259,455.794124 179.44621,457.572976 172.418543,457.572976 Z M249.898179,425.55333 C249.898179,429.638161 248.811103,433.206845 246.636919,436.259487 C244.462735,439.31213 241.399157,441.585107 237.446095,443.078486 L245.154528,456.518831 L229.012937,456.518831 L222.490417,444.923239 L218.669142,444.923239 L216.363201,456.518831 L200.814566,456.518831 L210.038333,410.4 L230.725922,410.4 C236.787285,410.4 241.497947,411.728648 244.85805,414.385985 C248.218153,417.043321 249.898179,420.765732 249.898179,425.55333 Z M234.151893,427.068663 C234.151893,423.950136 232.219313,422.390896 228.354097,422.390896 L223.149257,422.390896 L220.975084,433.195879 L227.365836,433.195879 C229.518059,433.195879 231.187105,432.657832 232.373023,431.58172 C233.558942,430.505609 234.151893,429.001271 234.151893,427.068663 Z M283.499042,448.480977 L265.908002,448.480977 L261.296119,456.518831 L244.890992,456.518831 L274.275276,410.4 L289.560374,410.4 L300.497125,456.518831 L285.014375,456.518831 L283.499042,448.480977 Z M281.324868,437.28069 L279.084811,425.487446 L272.298754,437.28069 L281.324868,437.28069 Z M312.224485,410.4 L327.773119,410.4 L320.987063,444.462051 L341.806421,444.462051 L339.368711,456.518831 L303.000719,456.518831 L312.224485,410.4 Z M447.68208,410.4 L423.700287,456.518831 L407.031624,456.518831 L404.396263,432.207619 L391.746526,456.518831 L375.077863,456.518831 L369.543603,410.4 L384.894586,410.4 L387.859368,436.687734 L401.563249,410.4 L415.860086,410.4 L418.495448,437.083038 L432.396981,410.4 L447.68208,410.4 Z M476.473407,448.480977 L458.882367,448.480977 L454.270484,456.518831 L437.865357,456.518831 L467.249641,410.4 L482.534739,410.4 L493.47149,456.518831 L477.98874,456.518831 L476.473407,448.480977 Z M474.299233,437.28069 L472.059176,425.487446 L465.273119,437.28069 L474.299233,437.28069 Z M526.677048,439.784284 L523.382846,456.518831 L507.834212,456.518831 L511.194298,439.586632 L499.66459,410.4 L515.279109,410.4 L521.538093,426.343939 L534.385482,410.4 L550,410.4 L526.677048,439.784284 Z" id="NATURAL-WAY" fill="#ED1C24"></path>
        </g>
    </g>
</svg>