<?xml version="1.0" encoding="UTF-8"?>
<svg width="550px" height="550px" viewBox="0 0 550 550" version="1.1" xmlns="http://www.w3.org/2000/svg" xmlns:xlink="http://www.w3.org/1999/xlink">
    <!-- Generator: Sketch 50.2 (55047) - http://www.bohemiancoding.com/sketch -->
    <title>7</title>
    <desc>Created with Sketch.</desc>
    <defs></defs>
    <g id="7" stroke="none" stroke-width="1" fill="none" fill-rule="evenodd">
        <g id="Press-Play-&amp;-follow-along-2" transform="translate(0.000000, 33.000000)">
            <path d="M113.27443,1.79496101 L76,1.79496101 L76,79.2192932 L102.103172,79.2192932 L102.103172,60.1950287 L113.27443,60.1950287 C119.685552,60.3399286 126.055318,59.1339442 131.968817,56.6556307 C142.25761,52.2703006 148.933581,42.173758 148.933581,30.9986213 C148.933581,19.8234846 142.25761,9.72694201 131.968817,5.34161192 C126.055067,2.86413382 119.68548,1.65818339 113.27443,1.80221388 L113.27443,1.79496101 Z M111.61553,40.0647023 L102.103172,40.0647023 L102.103172,21.9325402 L111.61553,21.9325402 C114.473103,21.7169298 117.3096,22.5642061 119.579702,24.3114799 C123.120363,28.0714372 123.120363,33.9348715 119.579702,37.6948288 C117.309981,39.4426995 114.473021,40.2894683 111.61553,40.0719552 L111.61553,40.0647023 Z M208.953392,79.2192932 L236.827993,79.2192932 L220.567507,55.3265432 C225.033144,53.1249948 228.789593,49.7140046 231.408436,45.4825924 C233.983322,41.0948946 235.28543,36.0780095 235.169093,30.9931816 C235.541541,19.8181974 228.926378,9.58779545 218.576464,5.33254584 C212.662776,2.85485899 206.293144,1.64890006 199.882077,1.7931478 L162.607647,1.7931478 L162.607647,79.21748 L188.712634,79.21748 L188.712634,59.7526039 L195.791091,59.7526039 L208.953392,79.2192932 Z M208.842677,30.987742 C208.990971,33.5006307 208.019648,35.9504604 206.189163,37.680323 C203.919443,39.4281937 201.082483,40.2749626 198.224992,40.0574495 L188.712634,40.0574495 L188.712634,21.9252874 L198.224992,21.9252874 C201.082565,21.7096769 203.919061,22.5569533 206.189163,24.304227 C208.019147,26.0336726 208.990425,28.4827255 208.842677,30.9949949 L208.842677,30.987742 Z M276.20418,59.5241387 L276.20418,49.3483693 L308.944768,49.3483693 L308.944768,30.5453172 L276.20418,30.5453172 L276.20418,21.4792362 L313.480425,21.4792362 L313.480425,1.79496101 L250.542051,1.79496101 L250.542051,79.2192932 L314.917897,79.2192932 L314.917897,59.5313916 L276.20418,59.5313916 L276.20418,59.5241387 Z M359.383313,80.9817393 C366.13235,81.1640843 372.848459,79.9792118 379.126764,77.498551 C384.013903,75.5915031 388.254226,72.3297567 391.3489,68.0970249 C394.055299,64.2230212 395.485895,59.6026867 395.4417,54.8786788 C395.70966,50.0439802 394.105776,45.2915661 390.962307,41.6059361 C388.076284,38.4289086 384.446983,36.0160992 380.399071,34.5833497 C375.526149,32.9336325 370.534364,31.6576577 365.467156,30.7665296 C362.124142,30.2025839 358.832005,29.3706518 355.622656,28.278797 C353.962361,27.9092989 352.745309,26.4895614 352.635184,24.7937954 C352.635184,21.5493472 355.990493,19.9271231 362.701113,19.9271231 C370.24352,20.1235426 377.633272,22.0940406 384.270443,25.6786449 L392.1239,6.76498664 C387.880541,4.42836242 383.314057,2.73272685 378.573192,1.73331166 C373.435212,0.588976656 368.186655,0.013737794 362.922542,0.0180091269 C356.178671,-0.161620529 349.466647,1.00403857 343.179091,3.44680098 C338.277166,5.32849531 334.029669,8.59527535 330.95514,12.848327 C328.253731,16.7451003 326.824781,21.3811697 326.864154,26.1210697 C326.601898,30.9625007 328.181946,35.7239234 331.287283,39.450022 C334.106167,42.63956 337.681471,45.0710608 341.685355,46.5215653 C346.564847,48.2051089 351.553767,49.553655 356.61727,50.5577845 C360.019289,51.1774507 363.366896,52.0650702 366.628749,53.2123331 C368.337182,53.6257194 369.572501,55.1088653 369.668856,56.8623373 C369.646637,58.3001752 368.714756,59.5659757 367.347485,60.0155203 C364.858547,60.8612687 362.229285,61.217775 359.604742,61.0653725 C355.148437,61.029456 350.718485,60.3783955 346.440626,59.1306708 C342.111655,57.9425257 337.94978,56.2142169 334.053326,53.9865764 L325.646297,73.0108409 C330.298158,75.7362515 335.359013,77.6954328 340.634476,78.8131327 C346.778898,80.2577406 353.071043,80.9812695 359.383313,80.9690468 L359.383313,80.9817393 Z M437.58393,80.9817393 C444.333546,81.1639284 451.050217,79.9790657 457.329196,77.498551 C462.216035,75.5909718 466.456221,72.3293307 469.551332,68.0970249 C472.257732,64.2230212 473.688327,59.6026867 473.644133,54.8786788 C473.912092,50.0439802 472.308209,45.2915661 469.16474,41.6059361 C466.278419,38.4292543 462.649212,36.016507 458.601504,34.5833497 C453.727958,32.9336515 448.735571,31.657678 443.667774,30.7665296 C440.324813,30.2023305 437.032696,29.3704035 433.823273,28.278797 C432.163365,27.9091461 430.946933,26.4892685 430.837616,24.7937954 C430.837616,21.5493472 434.192926,19.9271231 440.903545,19.9271231 C448.445884,20.1240182 455.835527,22.0944872 462.472875,25.6786449 L470.326333,6.76498664 C466.08284,4.42865417 461.516401,2.73303513 456.775625,1.73331166 C451.637644,0.588976656 446.389087,0.013737794 441.124974,0.0180091269 C434.380517,-0.161570477 427.667909,1.00408281 421.379708,3.44680098 C416.478448,5.32879959 412.231615,8.59555378 409.157572,12.848327 C406.454872,16.7445728 405.025218,21.3808699 405.064772,26.1210697 C404.802294,30.9628371 406.383086,35.7245462 409.489715,39.450022 C412.307935,42.639486 415.882637,45.0710014 419.885972,46.5215653 C424.766089,48.2050857 429.755611,49.5536307 434.819702,50.5577845 C438.221086,51.17764 441.568075,52.0652566 444.829367,53.2123331 C446.536862,53.6276852 447.771799,55.1094865 447.871288,56.8623373 C447.848259,58.3004713 446.915751,59.5661334 445.548102,60.0155203 C443.059196,60.8614029 440.429908,61.2179128 437.805359,61.0653725 C433.349651,61.0294514 428.920299,60.3783893 424.643059,59.1306708 C420.313512,57.942523 416.151037,56.2142182 412.253944,53.9865764 L403.848729,73.0108409 C408.50059,75.7362515 413.561446,77.6954328 418.836909,78.8131327 C424.980714,80.2577471 431.272259,80.981277 437.58393,80.9690468 L437.58393,80.9817393 Z" id="Press_Play" fill="#ED1C24"></path>
            <path d="M142.956023,101 L142.956023,101.015174 C149.655992,100.864279 156.312659,102.125814 162.492834,104.717685 C173.246757,109.303809 180.225019,119.866094 180.225019,131.557091 C180.225019,143.248087 173.246757,153.810373 162.492834,158.396497 C156.312938,160.989296 149.656072,162.250869 142.956023,162.099007 L131.281355,162.099007 L131.281355,181.992413 L104,181.992413 L104,101 L142.956023,101 Z M141.222368,141.033393 L141.222368,141.04098 C144.208626,141.268517 147.173428,140.382725 149.545429,138.554304 C153.242816,134.61995 153.242816,128.488541 149.545429,124.554187 C147.173029,122.726391 144.208712,121.840068 141.222368,122.065614 L131.281355,122.065614 L131.281355,141.033393 L141.222368,141.033393 Z M194.521825,181.992413 L194.512341,182 L194.512341,101.007587 L221.791799,101.007587 L221.791799,160.826269 L258.32943,160.826269 L258.32943,181.992413 L194.521825,181.992413 Z M333.34889,181.992413 L327.907034,167.876592 L297.158369,167.876592 L291.725998,181.992413 L263.981828,181.992413 L299.354838,101 L326.182863,101 L361.553976,181.992413 L333.34889,181.992413 Z M304.671506,148.214593 L320.393898,148.214593 L312.531753,127.850787 L304.671506,148.214593 Z M445.127904,101.007587 L414.603058,152.611324 L414.603058,182 L387.3236,182 L387.3236,152.264214 L356.806341,101.007587 L385.588048,101.007587 L402.11657,129.007821 L418.762692,101.007587 L445.127904,101.007587 Z" id="Combined-Shape" fill="#ED1C24"></path>
            <path d="M63.5701847,323.684375 L63.5701847,303.79894 L0,303.79894 L0,382.076567 L26.366433,382.076567 L26.366433,357.013141 L58.9902142,357.013141 L58.9902142,337.103396 L26.366433,337.103396 L26.366433,323.684375 L63.5604607,323.684375 L63.5701847,323.684375 Z M117.977997,383.851184 C125.853554,383.97782 133.64043,382.17507 140.659061,378.600263 C154.000047,371.705397 162.379137,357.942957 162.379137,342.925599 C162.379137,327.90824 154.000047,314.1458 140.659061,307.250935 C126.349642,300.249688 109.608784,300.249688 95.2993644,307.250935 C81.9493545,314.138568 73.5620839,327.90354 73.5620839,342.925599 C73.5620839,357.947658 81.9493545,371.71263 95.2993644,378.600263 C102.317028,382.175337 110.103187,383.978113 117.977997,383.851184 Z M117.977997,362.50716 C114.851415,362.548327 111.775567,361.714741 109.097619,360.100488 C106.405523,358.44456 104.219327,356.081787 102.777066,353.269428 C99.6490817,346.728256 99.6490817,339.122941 102.777066,332.58177 C104.220069,329.776321 106.4066,327.421596 109.097619,325.775019 C114.583857,322.565894 121.374568,322.565894 126.860806,325.775019 C129.551267,327.422278 131.737635,329.776828 133.18136,332.58177 C136.309344,339.122941 136.309344,346.728256 133.18136,353.269428 C131.738276,356.081212 129.552266,358.443785 126.860806,360.100488 C124.181796,361.714339 121.105289,362.547876 117.977997,362.50716 Z M177.293963,382.076567 L238.970413,382.076567 L238.970413,361.607697 L203.667689,361.607697 L203.667689,303.79894 L177.296394,303.79894 L177.296394,382.076567 L177.293963,382.076567 Z M251.810861,382.076567 L313.480017,382.076567 L313.480017,361.607697 L278.182156,361.607697 L278.182156,303.79894 L251.818154,303.79894 L251.818154,382.076567 L251.810861,382.076567 Z M366.212883,383.851184 C374.087694,383.978113 381.873853,382.175337 388.891516,378.600263 C402.232502,371.705397 410.611592,357.942957 410.611592,342.925599 C410.611592,327.90824 402.232502,314.1458 388.891516,307.250935 C374.582937,300.249747 357.84283,300.249747 343.53425,307.250935 C330.18424,314.138568 321.79697,327.90354 321.79697,342.925599 C321.79697,357.947658 330.18424,371.71263 343.53425,378.600263 C350.551812,382.175617 358.338041,383.97841 366.212883,383.851184 Z M366.212883,362.50716 C363.085477,362.548782 360.008726,361.715179 357.330074,360.100488 C354.637499,358.445143 352.451164,356.082219 351.009521,353.269428 C347.881537,346.728256 347.881537,339.122941 351.009521,332.58177 C352.451594,329.775669 354.638335,327.420716 357.330074,325.775019 C362.816312,322.565894 369.607023,322.565894 375.093261,325.775019 C377.78484,327.420912 379.971535,329.775814 381.413815,332.58177 C384.541799,339.122941 384.541799,346.728256 381.413815,353.269428 C379.972171,356.082219 377.785837,358.445143 375.093261,360.100488 C372.415314,361.714741 369.339466,362.548327 366.212883,362.50716 Z M524.968176,303.79894 L510.554883,348.84504 L496.924366,303.79894 L472.682611,303.79894 L458.269317,348.285915 L444.641231,303.79894 L417.499315,303.79894 L442.523846,382.076567 L470.791307,382.076567 L484.086348,340.239363 L496.71287,382.076567 L524.975469,382.076567 L550,303.79894 L524.975469,303.79894 L524.968176,303.79894 Z" id="follow_along" fill="#29282E"></path>
            <path d="M118.31869,483.237404 L113.137693,469.719667 L83.7257916,469.719667 L78.5303625,483.237404 L52,483.237404 L85.8256108,405.787026 L111.470826,405.787026 L145.296437,483.237404 L118.31869,483.237404 Z M90.8983701,450.91029 L105.93144,450.91029 L98.4149052,431.451484 L90.8983701,450.91029 Z M155.011408,483.237404 L155.023435,483.237404 L155.023435,405.787026 L181.111224,405.787026 L181.111224,462.984852 L216.031242,462.984852 L216.031242,483.237404 L155.011408,483.237404 Z M268.204415,484.993267 C260.412826,485.118854 252.708952,483.33513 245.765452,479.797838 C232.556527,472.982994 224.257895,459.363492 224.257895,444.500189 C224.257895,429.636885 232.556527,416.017383 245.765452,409.20254 C259.922817,402.275341 276.486012,402.275341 290.643377,409.20254 C303.843373,416.024539 312.133912,429.641536 312.133912,444.500189 C312.133912,459.358842 303.843373,472.975838 290.643377,479.797838 C283.699877,483.33513 275.996003,485.118854 268.204415,484.993267 Z M268.204415,463.87481 C271.298656,463.915095 274.342651,463.090367 276.993349,461.493571 C279.657469,459.85572 281.820698,457.517768 283.247106,454.734703 C286.342033,448.262659 286.342033,440.737718 283.247106,434.265674 C281.819557,431.489731 279.656087,429.159841 276.993349,427.530859 C271.56509,424.355648 264.846144,424.355648 259.417886,427.530859 C256.754752,429.159357 254.591166,431.489372 253.164128,434.265674 C250.069201,440.737718 250.069201,448.262659 253.164128,454.734703 C254.590537,457.517768 256.753766,459.85572 259.417886,461.493571 C262.067532,463.090765 265.110874,463.915541 268.204415,463.87481 Z M377.748594,405.787026 L403.172522,405.787026 L403.172522,483.237404 L381.729351,483.237404 L352.324665,448.047993 L352.324665,483.237404 L326.900737,483.237404 L326.900737,405.787026 L348.346314,405.787026 L377.748594,440.952384 L377.748594,405.787026 Z M472.48099,461.97463 L472.488206,461.97463 L472.488206,442.395559 L495.143644,442.395559 L495.143644,475.155626 C490.285546,478.463514 484.903847,480.927483 479.225426,482.443658 C473.438527,484.111147 467.448575,484.969167 461.426271,484.993267 C453.710507,485.123743 446.0809,483.356139 439.208596,479.845944 C432.824355,476.588033 427.481904,471.604745 423.788274,465.462302 C416.344579,452.478787 416.344579,436.52159 423.788274,423.538075 C427.522945,417.36932 432.92639,412.382808 439.374561,409.154434 C446.385254,405.639019 454.142746,403.872952 461.984299,404.007111 C468.970916,403.892147 475.908469,405.193092 482.378763,407.831524 C488.208112,410.249555 493.35219,414.066102 497.356512,418.943969 L480.666196,433.664352 C476.487148,428.321275 470.092807,425.184362 463.309614,425.149621 C458.215158,424.894671 453.245534,426.777896 449.599454,430.34505 C446.063234,434.188418 444.229578,439.297327 444.514668,444.512215 C444.27119,449.674847 446.079135,454.724296 449.544132,458.559116 C453.056692,462.166184 457.943153,464.100463 462.972873,463.87481 C466.23795,463.889013 469.472166,463.242661 472.48099,461.97463 Z" id="Combined-Shape" fill="#29282E"></path>
            <path d="M244.240337,261.99514 L248.69175,261.99514 L230.428023,222.004745 L226.263727,222.004745 L208,261.99514 L212.38347,261.99514 L217.178986,251.312624 L239.447013,251.312624 L244.240337,261.99514 Z M218.728542,247.88475 L228.317383,226.405748 L237.906223,247.88475 L218.728542,247.88475 Z M287.389022,222.004745 L287.389022,254.455572 L261.649287,222.004745 L258.16662,222.004745 L258.16662,261.99514 L262.390094,261.99514 L262.390094,229.546504 L288.075035,261.99514 L291.557702,261.99514 L291.557702,222.004745 L287.393405,222.004745 L287.389022,222.004745 Z M304.423671,261.99514 L320.690727,261.99514 C324.568433,262.073616 328.406296,261.200691 331.868575,259.452727 C335.00077,257.853994 337.613473,255.397126 339.401568,252.36904 C342.978531,245.919029 342.978531,238.080855 339.401568,231.630844 C337.612236,228.603748 334.999858,226.147185 331.868575,224.547157 C328.405962,222.800122 324.568332,221.927249 320.690727,222.004745 L304.423671,222.004745 L304.423671,261.99514 Z M308.647144,258.339326 L308.647144,225.660558 L320.460595,225.660558 C323.648966,225.588946 326.805696,226.305666 329.65054,227.74709 C332.189816,229.055607 334.307384,231.055406 335.758905,233.515736 C338.649135,238.802654 338.649135,245.19723 335.758905,250.484148 C334.307518,252.945137 332.189969,254.945678 329.65054,256.254986 C326.805502,257.695651 323.648782,258.411616 320.460595,258.339326 L308.647144,258.339326 Z" id="AND" fill="#29282E"></path>
            <rect id="rectangle" fill="#ED1C24" fill-rule="nonzero" x="375" y="237" width="175" height="10"></rect>
            <rect id="rectangle-2" fill="#ED1C24" fill-rule="nonzero" x="0" y="237" width="175" height="10"></rect>
        </g>
    </g>
</svg>