<?xml version="1.0" encoding="UTF-8"?>
<svg width="550px" height="550px" viewBox="0 0 550 550" version="1.1" xmlns="http://www.w3.org/2000/svg" xmlns:xlink="http://www.w3.org/1999/xlink">
    <!-- Generator: Sketch 50.2 (55047) - http://www.bohemiancoding.com/sketch -->
    <title>8</title>
    <desc>Created with Sketch.</desc>
    <defs></defs>
    <g id="8" stroke="none" stroke-width="1" fill="none" fill-rule="evenodd">
        <g id="scoop-2" transform="translate(0.000000, 35.000000)">
            <g id="elipses" transform="translate(474.328859, 256.624791)" fill="#FFFFFF" fill-rule="nonzero">
                <ellipse id="Ellipse_3_copy_5" cx="5.07550336" cy="4.55108878" rx="3.69127517" ry="3.68509213"></ellipse>
                <ellipse id="Ellipse_3_copy_7" cx="38.2969799" cy="4.55108878" rx="3.69127517" ry="3.68509213"></ellipse>
                <ellipse id="Ellipse_3_copy_9" cx="71.5184564" cy="4.55108878" rx="3.69127517" ry="3.68509213"></ellipse>
            </g>
            <g id="elipses-2" transform="translate(1.845638, 256.624791)" fill="#FFFFFF" fill-rule="nonzero">
                <ellipse id="Oval" cx="5.07550336" cy="4.55108878" rx="3.69127517" ry="3.68509213"></ellipse>
                <ellipse id="Ellipse_3_copy_2" cx="38.2969799" cy="4.55108878" rx="3.69127517" ry="3.68509213"></ellipse>
                <ellipse id="Ellipse_3_copy_4" cx="71.5184564" cy="4.55108878" rx="3.69127517" ry="3.68509213"></ellipse>
            </g>
            <g id="Группа_1_копия_2" transform="translate(1.000000, 48.000000)">
                <path d="M45.8736577,103.343384 C54.4332593,103.574301 62.9508723,102.069949 70.9115772,98.921273 C77.1109234,96.511355 82.4903326,92.3812629 86.4149329,87.0184255 C89.8452159,82.1159901 91.6593476,76.2679373 91.6048658,70.2881072 C91.6048658,63.1943049 89.7112416,57.5929648 85.9239933,53.4840871 C82.2629186,49.4593604 77.6608456,46.4019369 72.5283557,44.5845896 C66.3461928,42.5045693 60.0163206,40.8908767 53.5921141,39.7571189 C49.3536783,39.0391666 45.1792013,37.9855891 41.1082215,36.6063652 C38.5833893,35.6298157 37.3209732,34.1557789 37.3209732,32.2026801 C37.3209732,28.0938023 41.575783,26.0362926 50.0854027,26.0301508 C59.6510486,26.2789888 69.022709,28.7789626 77.4377517,33.3266332 L87.4041946,9.37353434 C82.0217089,6.41657741 76.231769,4.26838885 70.2213087,2.99832496 C63.7045372,1.55312505 57.0489441,0.824052644 50.3733221,0.824120603 C41.8208676,0.598713625 33.3091577,2.07696718 25.3354027,5.17252931 C19.1178185,7.5500543 13.7299696,11.6866261 9.83204698,17.0753769 C6.40751138,22.0083078 4.59473004,27.8777506 4.64211409,33.879397 C4.64211409,40.9731993 6.51236018,46.5991066 10.2528523,50.7571189 C13.8310042,54.7932067 18.3636679,57.8715726 23.4380872,59.7118928 C29.6251144,61.8505696 35.952115,63.5620314 42.3743289,64.8341709 C46.6879249,65.6151204 50.9326702,66.7364487 55.0686242,68.1876047 C57.6395973,69.2194305 58.9260067,70.7487437 58.9260067,72.8123953 C58.8940959,74.6324983 57.7077171,76.2314269 55.9729866,76.7922948 C52.8197049,77.8775618 49.4837485,78.3345484 46.1541946,78.1373534 C40.5042424,78.0850549 34.8880801,77.2605321 29.4622483,75.6867672 C23.973259,74.1760664 18.6954725,71.9847989 13.7521812,69.1641541 L3.09177852,93.2462312 C8.98614769,96.7119257 15.4070562,99.1950822 22.1018456,100.59799 C29.8929305,102.434035 37.8721481,103.355407 45.877349,103.343384 L45.8736577,103.343384 Z M155.703859,103.343384 C164.476218,103.491434 173.179357,101.770305 181.232718,98.2948074 C188.533661,95.0763914 194.902337,90.0695868 199.748154,83.7386935 L178.857383,65.1105528 C172.777852,72.7571189 165.624161,76.5834729 157.396309,76.5896147 C151.135281,76.8589804 145.058665,74.4375035 140.704362,69.9380235 C136.496309,65.4974874 134.392282,59.5460637 134.392282,52.0837521 C134.392282,44.6214405 136.496309,38.6700168 140.704362,34.2294807 C145.058665,29.7300007 151.135281,27.3085238 157.396309,27.5778894 C165.624161,27.5778894 172.777852,31.4042434 178.857383,39.0569514 L199.757383,20.4288107 C194.911566,14.0979174 188.54289,9.09111278 181.241946,5.87269682 C173.188585,2.39719916 164.485446,0.676070152 155.713087,0.824120603 C145.96821,0.674764399 136.335438,2.9144286 127.659396,7.34673367 C119.563577,11.4723707 112.786529,17.7785103 108.095638,25.5510888 C98.6508686,41.9829891 98.6508686,62.1845151 108.095638,78.6164154 C112.786529,86.3889939 119.563577,92.6951335 127.659396,96.8207705 C136.335438,101.253076 145.96821,103.49274 155.713087,103.343384 L155.703859,103.343384 Z M262.165772,103.343384 C272.055093,103.505243 281.832916,101.240143 290.640268,96.7470687 C307.39803,88.136842 317.930719,70.8991332 317.930719,52.0837521 C317.930719,33.2683709 307.39803,16.0306622 290.640268,7.42043551 C272.679444,-1.37478007 251.6521,-1.37478007 233.691275,7.42043551 C216.933514,16.0306622 206.400825,33.2683709 206.400825,52.0837521 C206.400825,70.8991332 216.933514,88.136842 233.691275,96.7470687 C242.498549,101.240356 252.276426,103.505469 262.165772,103.343384 Z M262.165772,76.5896147 C258.241074,76.6444244 254.37899,75.6042634 251.01443,73.5862647 C247.638253,71.5148519 244.896819,68.5574815 243.089262,65.0368509 C239.161815,56.8465153 239.161815,47.3209889 243.089262,39.1306533 C244.896819,35.6100227 247.638253,32.6526523 251.01443,30.5812395 C257.907583,26.5767392 266.42396,26.5767392 273.317114,30.5812395 C276.692866,32.653168 279.434177,35.6104051 281.242282,39.1306533 C285.169729,47.3209889 285.169729,56.8465153 281.242282,65.0368509 C279.434177,68.5570991 276.692866,71.5143361 273.317114,73.5862647 C269.95236,75.6038097 266.090408,76.6439351 262.165772,76.5896147 Z M384.620134,103.343384 C394.509456,103.505243 404.287279,101.240143 413.094631,96.7470687 C429.852392,88.136842 440.385081,70.8991332 440.385081,52.0837521 C440.385081,33.2683709 429.852392,16.0306622 413.094631,7.42043551 C395.133806,-1.37478007 374.106463,-1.37478007 356.145638,7.42043551 C339.387877,16.0306622 328.855187,33.2683709 328.855187,52.0837521 C328.855187,70.8991332 339.387877,88.136842 356.145638,96.7470687 C364.952911,101.240356 374.730789,103.505469 384.620134,103.343384 Z M384.620134,76.5896147 C380.695437,76.6444244 376.833353,75.6042634 373.468792,73.5862647 C370.092615,71.5148519 367.351181,68.5574815 365.543624,65.0368509 C361.616177,56.8465153 361.616177,47.3209889 365.543624,39.1306533 C367.351181,35.6100227 370.092615,32.6526523 373.468792,30.5812395 C380.361946,26.5767392 388.878323,26.5767392 395.771477,30.5812395 C399.147229,32.653168 401.88854,35.6104051 403.696644,39.1306533 C407.624091,47.3209889 407.624091,56.8465153 403.696644,65.0368509 C401.88854,68.5570991 399.147229,71.5143361 395.771477,73.5862647 C392.406723,75.6038097 388.54477,76.6439351 384.620134,76.5896147 Z M502.864597,3.0720268 L455.594128,3.0720268 L455.594128,101.095477 L488.697483,101.095477 L488.697483,77.0134003 L502.864597,77.0134003 C510.993393,77.1961644 519.069866,75.6707085 526.569966,72.5360134 C539.623691,66.9948024 548.098426,54.2037291 548.098426,40.0427136 C548.098426,25.881698 539.623691,13.0906247 526.569966,7.54941374 C519.069866,4.41471862 510.993393,2.8892627 502.864597,3.0720268 Z M500.76057,51.5309883 L488.697483,51.5309883 L488.697483,28.5544389 L500.76057,28.5544389 C504.385238,28.2825345 507.982532,29.3588652 510.859899,31.5762144 C515.348339,36.3312191 515.348339,43.754208 510.859899,48.5092127 C507.982532,50.726562 504.385238,51.8028926 500.76057,51.5309883 Z" id="SCOOP" fill="#29282E"></path>
                <path d="M126.808,254.304 C118.071956,254.304 109.864038,253.368009 102.184,251.496 C94.5039616,249.623991 88.168025,247.152015 83.176,244.08 L96.28,219.024 C107.128054,225.264031 118.455941,228.384 130.264,228.384 C134.584022,228.384 137.895988,227.856005 140.2,226.8 C142.504012,225.743995 143.656,224.304009 143.656,222.48 C143.656,220.751991 142.480012,219.360005 140.128,218.304 C137.775988,217.247995 134.056025,216.096006 128.968,214.848 C122.247966,213.119991 116.680022,211.368009 112.264,209.592 C107.847978,207.815991 103.984017,205.080018 100.672,201.384 C97.3599834,197.687982 95.704,192.81603 95.704,186.768 C95.704,179.183962 97.7439796,172.536029 101.824,166.824 C105.90402,161.111971 111.783962,156.696016 119.464,153.576 C127.144038,150.455984 136.215948,148.896 146.68,148.896 C154.168037,148.896 161.151968,149.639993 167.632,151.128 C174.112032,152.616007 179.703976,154.751986 184.408,157.536 L172.168,182.304 C168.23198,179.807988 163.888024,177.936006 159.136,176.688 C154.383976,175.439994 149.512025,174.816 144.52,174.816 C139.815976,174.816 136.168013,175.487993 133.576,176.832 C130.983987,178.176007 129.688,179.759991 129.688,181.584 C129.688,183.408009 130.863988,184.847995 133.216,185.904 C135.568012,186.960005 139.431973,188.111994 144.808,189.36 C151.336033,190.896008 156.831978,192.527991 161.296,194.256 C165.760022,195.984009 169.623984,198.671982 172.888,202.32 C176.152016,205.968018 177.784,210.76797 177.784,216.72 C177.784,224.208037 175.720021,230.783972 171.592,236.448 C167.463979,242.112028 161.560038,246.503984 153.88,249.624 C146.199962,252.744016 137.176052,254.304 126.808,254.304 Z M226.664,177.552 L197.144,177.552 L202.472,151.2 L295.496,151.2 L290.168,177.552 L260.648,177.552 L245.816,252 L211.832,252 L226.664,177.552 Z M314.28,151.2 L348.264,151.2 L328.104,252 L294.12,252 L314.28,151.2 Z M461.8,184.32 C461.8,193.248045 459.424024,201.047967 454.672,207.72 C449.919976,214.392033 443.224043,219.359984 434.584,222.624 L451.432,252 L416.152,252 L401.896,226.656 L393.544,226.656 L388.504,252 L354.52,252 L374.68,151.2 L419.896,151.2 C433.144066,151.2 443.439963,154.103971 450.784,159.912 C458.128037,165.720029 461.8,173.855948 461.8,184.32 Z M427.384,187.632 C427.384,180.815966 423.160042,177.408 414.712,177.408 L403.336,177.408 L398.584,201.024 L412.552,201.024 C417.256024,201.024 420.903987,199.848012 423.496,197.496 C426.088013,195.143988 427.384,191.856021 427.384,187.632 Z" id="STIR" fill="#ED1C24"></path>
                <path d="M0.829026846,384.579564 L42.8541946,384.579564 C51.5197229,384.757702 60.115083,382.994793 68.0083893,379.420436 C74.9685005,376.238369 80.8513645,371.104127 84.9402685,364.643216 C92.9796906,350.626504 92.9796906,333.406996 84.9402685,319.390285 C80.8503469,312.934725 74.9672622,307.806692 68.0083893,304.631491 C60.1165508,301.050797 51.5211282,299.281578 42.8541946,299.453936 L0.829026846,299.453936 L0.829026846,384.579564 Z M29.5766779,362.211055 L29.5766779,321.822446 L41.6360738,321.822446 C47.0801354,321.555299 52.4063986,323.465006 56.4362416,327.128978 C60.1275168,330.648241 61.9731544,335.610832 61.9731544,342.01675 C61.9731544,348.428811 60.1275168,353.38526 56.4362416,356.922948 C52.3995308,360.573678 47.0764226,362.475628 41.6360738,362.211055 L29.5766779,362.211055 Z M132.747819,362.929648 L132.747819,351.745394 L168.804195,351.745394 L168.804195,331.072027 L132.75151,331.072027 L132.75151,321.103853 L173.802181,321.103853 L173.802181,299.453936 L104.491107,299.453936 L104.491107,384.579564 L175.385738,384.579564 L175.385738,362.929648 L132.75151,362.929648 L132.747819,362.929648 Z M258.821477,321.103853 L258.821477,299.453936 L189.514094,299.453936 L189.514094,384.579564 L218.261745,384.579564 L218.261745,357.346734 L253.830872,357.346734 L253.830872,335.696817 L218.261745,335.696817 L218.261745,321.103853 L258.825168,321.103853 L258.821477,321.103853 Z M299.263087,362.929648 L299.263087,351.745394 L335.319463,351.745394 L335.319463,331.072027 L299.266779,331.072027 L299.266779,321.103853 L340.31745,321.103853 L340.31745,299.453936 L271.006376,299.453936 L271.006376,384.579564 L341.901007,384.579564 L341.901007,362.929648 L299.266779,362.929648 L299.263087,362.929648 Z M412.059228,299.453936 L412.059228,338.128978 L379.662752,299.453936 L356.038591,299.453936 L356.038591,384.579564 L384.055369,384.579564 L384.055369,345.904523 L416.457383,384.579564 L440.081544,384.579564 L440.081544,299.453936 L412.064765,299.453936 L412.059228,299.453936 Z M457.00604,384.579564 L499.031208,384.579564 C507.696736,384.757702 516.292096,382.994793 524.185403,379.420436 C531.145164,376.237829 537.027888,371.103708 541.117282,364.643216 C549.156704,350.626504 549.156704,333.406996 541.117282,319.390285 C537.02687,312.935144 531.143925,307.807234 524.185403,304.631491 C516.293564,301.050797 507.698142,299.281578 499.031208,299.453936 L457.00604,299.453936 L457.00604,384.579564 Z M485.753691,362.211055 L485.753691,321.822446 L497.813087,321.822446 C503.257149,321.555299 508.583412,323.465006 512.613255,327.128978 C516.30453,330.648241 518.150168,335.610832 518.150168,342.01675 C518.150168,348.428811 516.30453,353.38526 512.613255,356.922948 C508.576226,360.573148 503.253345,362.475016 497.813087,362.211055 L485.753691,362.211055 Z" id="Defend" fill="#29282E"></path>
            </g>
            <rect id="Прямоугольник_1" fill="#29282E" fill-rule="nonzero" x="500" y="241" width="50" height="10"></rect>
            <rect id="Прямоугольник_1_копия" fill="#29282E" fill-rule="nonzero" x="0" y="241" width="50" height="10"></rect>
            <g id="elipses" fill="#ED1C24" fill-rule="nonzero">
                <ellipse id="elipse_копия" cx="6.78415254" cy="6.2761194" rx="5.91525424" ry="6.04477612"></ellipse>
                <ellipse id="elipse_копия_2" cx="44.8708898" cy="6.2761194" rx="5.87088983" ry="5.9994403"></ellipse>
                <ellipse id="elipse_копия-2" cx="83.9152542" cy="6.2761194" rx="5.91525424" ry="6.04477612"></ellipse>
                <ellipse id="elipse_копия_9" cx="159.915254" cy="6.05223881" rx="5.91525424" ry="6.04477612"></ellipse>
                <ellipse id="elipse_копия_13" cx="121.915254" cy="6.05223881" rx="5.91525424" ry="6.04477612"></ellipse>
                <ellipse id="elipse_копия_8" cx="198.915254" cy="6.05223881" rx="5.91525424" ry="6.04477612"></ellipse>
                <ellipse id="elipse_копия" cx="236.915254" cy="6.2761194" rx="5.91525424" ry="6.04477612"></ellipse>
                <ellipse id="elipse_копия_2" cx="274.87089" cy="6.2761194" rx="5.87088983" ry="5.9994403"></ellipse>
                <ellipse id="elipse_копия-2" cx="313.915254" cy="6.2761194" rx="5.91525424" ry="6.04477612"></ellipse>
                <ellipse id="elipse_копия_9" cx="389.915254" cy="6.05223881" rx="5.91525424" ry="6.04477612"></ellipse>
                <ellipse id="elipse_копия_13" cx="351.915254" cy="6.05223881" rx="5.91525424" ry="6.04477612"></ellipse>
                <ellipse id="elipse_копия_8" cx="428.915254" cy="6.05223881" rx="5.91525424" ry="6.04477612"></ellipse>
                <ellipse id="elipse_копия_9" cx="505.915254" cy="6.05223881" rx="5.91525424" ry="6.04477612"></ellipse>
                <ellipse id="elipse_копия_13" cx="466.915254" cy="6.05223881" rx="5.91525424" ry="6.04477612"></ellipse>
                <ellipse id="elipse_копия_8" cx="543.915254" cy="6.04477612" rx="5.91525424" ry="6.04477612"></ellipse>
            </g>
            <g id="elipses" transform="translate(0.000000, 468.000000)" fill="#ED1C24" fill-rule="nonzero">
                <ellipse id="elipse_копия" cx="6.78415254" cy="6.2761194" rx="5.91525424" ry="6.04477612"></ellipse>
                <ellipse id="elipse_копия_2" cx="44.8708898" cy="6.2761194" rx="5.87088983" ry="5.9994403"></ellipse>
                <ellipse id="elipse_копия-2" cx="83.9152542" cy="6.2761194" rx="5.91525424" ry="6.04477612"></ellipse>
                <ellipse id="elipse_копия_9" cx="159.915254" cy="6.05223881" rx="5.91525424" ry="6.04477612"></ellipse>
                <ellipse id="elipse_копия_13" cx="121.915254" cy="6.05223881" rx="5.91525424" ry="6.04477612"></ellipse>
                <ellipse id="elipse_копия_8" cx="198.915254" cy="6.05223881" rx="5.91525424" ry="6.04477612"></ellipse>
                <ellipse id="elipse_копия" cx="236.915254" cy="6.2761194" rx="5.91525424" ry="6.04477612"></ellipse>
                <ellipse id="elipse_копия_2" cx="274.87089" cy="6.2761194" rx="5.87088983" ry="5.9994403"></ellipse>
                <ellipse id="elipse_копия-2" cx="313.915254" cy="6.2761194" rx="5.91525424" ry="6.04477612"></ellipse>
                <ellipse id="elipse_копия_9" cx="389.915254" cy="6.05223881" rx="5.91525424" ry="6.04477612"></ellipse>
                <ellipse id="elipse_копия_13" cx="351.915254" cy="6.05223881" rx="5.91525424" ry="6.04477612"></ellipse>
                <ellipse id="elipse_копия_8" cx="428.915254" cy="6.05223881" rx="5.91525424" ry="6.04477612"></ellipse>
                <ellipse id="elipse_копия_9" cx="505.915254" cy="6.05223881" rx="5.91525424" ry="6.04477612"></ellipse>
                <ellipse id="elipse_копия_13" cx="466.915254" cy="6.05223881" rx="5.91525424" ry="6.04477612"></ellipse>
                <ellipse id="elipse_копия_8" cx="543.915254" cy="6.04477612" rx="5.91525424" ry="6.04477612"></ellipse>
            </g>
        </g>
    </g>
</svg>