<?xml version="1.0" encoding="UTF-8"?>
<svg width="550px" height="550px" viewBox="0 0 550 550" version="1.1" xmlns="http://www.w3.org/2000/svg" xmlns:xlink="http://www.w3.org/1999/xlink">
    <!-- Generator: Sketch 50.2 (55047) - http://www.bohemiancoding.com/sketch -->
    <title>9</title>
    <desc>Created with Sketch.</desc>
    <defs></defs>
    <g id="9" stroke="none" stroke-width="1" fill="none" fill-rule="evenodd">
        <g id="scoop-2" transform="translate(0.000000, 26.000000)">
            <g id="elipses" transform="translate(474.328859, 256.624791)" fill="#FFFFFF" fill-rule="nonzero">
                <ellipse id="Ellipse_3_copy_5" cx="5.07550336" cy="4.55108878" rx="3.69127517" ry="3.68509213"></ellipse>
                <ellipse id="Ellipse_3_copy_7" cx="38.2969799" cy="4.55108878" rx="3.69127517" ry="3.68509213"></ellipse>
                <ellipse id="Ellipse_3_copy_9" cx="71.5184564" cy="4.55108878" rx="3.69127517" ry="3.68509213"></ellipse>
            </g>
            <g id="elipses-2" transform="translate(1.845638, 256.624791)" fill="#FFFFFF" fill-rule="nonzero">
                <ellipse id="Oval" cx="5.07550336" cy="4.55108878" rx="3.69127517" ry="3.68509213"></ellipse>
                <ellipse id="Ellipse_3_copy_2" cx="38.2969799" cy="4.55108878" rx="3.69127517" ry="3.68509213"></ellipse>
                <ellipse id="Ellipse_3_copy_4" cx="71.5184564" cy="4.55108878" rx="3.69127517" ry="3.68509213"></ellipse>
            </g>
            <g id="Группа_1_копия_2" transform="translate(4.000000, 48.000000)">
                <path d="M42.8736577,103.343384 C51.4332593,103.574301 59.9508723,102.069949 67.9115772,98.921273 C74.1109234,96.511355 79.4903326,92.3812629 83.4149329,87.0184255 C86.8452159,82.1159901 88.6593476,76.2679373 88.6048658,70.2881072 C88.6048658,63.1943049 86.7112416,57.5929648 82.9239933,53.4840871 C79.2629186,49.4593604 74.6608456,46.4019369 69.5283557,44.5845896 C63.3461928,42.5045693 57.0163206,40.8908767 50.5921141,39.7571189 C46.3536783,39.0391666 42.1792013,37.9855891 38.1082215,36.6063652 C35.5833893,35.6298157 34.3209732,34.1557789 34.3209732,32.2026801 C34.3209732,28.0938023 38.575783,26.0362926 47.0854027,26.0301508 C56.6510486,26.2789888 66.022709,28.7789626 74.4377517,33.3266332 L84.4041946,9.37353434 C79.0217089,6.41657741 73.231769,4.26838885 67.2213087,2.99832496 C60.7045372,1.55312505 54.0489441,0.824052644 47.3733221,0.824120603 C38.8208676,0.598713625 30.3091577,2.07696718 22.3354027,5.17252931 C16.1178185,7.5500543 10.7299696,11.6866261 6.83204698,17.0753769 C3.40751138,22.0083078 1.59473004,27.8777506 1.64211409,33.879397 C1.64211409,40.9731993 3.51236018,46.5991066 7.25285235,50.7571189 C10.8310042,54.7932067 15.3636679,57.8715726 20.4380872,59.7118928 C26.6251144,61.8505696 32.952115,63.5620314 39.3743289,64.8341709 C43.6879249,65.6151204 47.9326702,66.7364487 52.0686242,68.1876047 C54.6395973,69.2194305 55.9260067,70.7487437 55.9260067,72.8123953 C55.8940959,74.6324983 54.7077171,76.2314269 52.9729866,76.7922948 C49.8197049,77.8775618 46.4837485,78.3345484 43.1541946,78.1373534 C37.5042424,78.0850549 31.8880801,77.2605321 26.4622483,75.6867672 C20.973259,74.1760664 15.6954725,71.9847989 10.7521812,69.1641541 L0.0917785235,93.2462312 C5.98614769,96.7119257 12.4070562,99.1950822 19.1018456,100.59799 C26.8929305,102.434035 34.8721481,103.355407 42.877349,103.343384 L42.8736577,103.343384 Z M152.703859,103.343384 C161.476218,103.491434 170.179357,101.770305 178.232718,98.2948074 C185.533661,95.0763914 191.902337,90.0695868 196.748154,83.7386935 L175.857383,65.1105528 C169.777852,72.7571189 162.624161,76.5834729 154.396309,76.5896147 C148.135281,76.8589804 142.058665,74.4375035 137.704362,69.9380235 C133.496309,65.4974874 131.392282,59.5460637 131.392282,52.0837521 C131.392282,44.6214405 133.496309,38.6700168 137.704362,34.2294807 C142.058665,29.7300007 148.135281,27.3085238 154.396309,27.5778894 C162.624161,27.5778894 169.777852,31.4042434 175.857383,39.0569514 L196.757383,20.4288107 C191.911566,14.0979174 185.54289,9.09111278 178.241946,5.87269682 C170.188585,2.39719916 161.485446,0.676070152 152.713087,0.824120603 C142.96821,0.674764399 133.335438,2.9144286 124.659396,7.34673367 C116.563577,11.4723707 109.786529,17.7785103 105.095638,25.5510888 C95.6508686,41.9829891 95.6508686,62.1845151 105.095638,78.6164154 C109.786529,86.3889939 116.563577,92.6951335 124.659396,96.8207705 C133.335438,101.253076 142.96821,103.49274 152.713087,103.343384 L152.703859,103.343384 Z M259.165772,103.343384 C269.055093,103.505243 278.832916,101.240143 287.640268,96.7470687 C304.39803,88.136842 314.930719,70.8991332 314.930719,52.0837521 C314.930719,33.2683709 304.39803,16.0306622 287.640268,7.42043551 C269.679444,-1.37478007 248.6521,-1.37478007 230.691275,7.42043551 C213.933514,16.0306622 203.400825,33.2683709 203.400825,52.0837521 C203.400825,70.8991332 213.933514,88.136842 230.691275,96.7470687 C239.498549,101.240356 249.276426,103.505469 259.165772,103.343384 Z M259.165772,76.5896147 C255.241074,76.6444244 251.37899,75.6042634 248.01443,73.5862647 C244.638253,71.5148519 241.896819,68.5574815 240.089262,65.0368509 C236.161815,56.8465153 236.161815,47.3209889 240.089262,39.1306533 C241.896819,35.6100227 244.638253,32.6526523 248.01443,30.5812395 C254.907583,26.5767392 263.42396,26.5767392 270.317114,30.5812395 C273.692866,32.653168 276.434177,35.6104051 278.242282,39.1306533 C282.169729,47.3209889 282.169729,56.8465153 278.242282,65.0368509 C276.434177,68.5570991 273.692866,71.5143361 270.317114,73.5862647 C266.95236,75.6038097 263.090408,76.6439351 259.165772,76.5896147 Z M381.620134,103.343384 C391.509456,103.505243 401.287279,101.240143 410.094631,96.7470687 C426.852392,88.136842 437.385081,70.8991332 437.385081,52.0837521 C437.385081,33.2683709 426.852392,16.0306622 410.094631,7.42043551 C392.133806,-1.37478007 371.106463,-1.37478007 353.145638,7.42043551 C336.387877,16.0306622 325.855187,33.2683709 325.855187,52.0837521 C325.855187,70.8991332 336.387877,88.136842 353.145638,96.7470687 C361.952911,101.240356 371.730789,103.505469 381.620134,103.343384 Z M381.620134,76.5896147 C377.695437,76.6444244 373.833353,75.6042634 370.468792,73.5862647 C367.092615,71.5148519 364.351181,68.5574815 362.543624,65.0368509 C358.616177,56.8465153 358.616177,47.3209889 362.543624,39.1306533 C364.351181,35.6100227 367.092615,32.6526523 370.468792,30.5812395 C377.361946,26.5767392 385.878323,26.5767392 392.771477,30.5812395 C396.147229,32.653168 398.88854,35.6104051 400.696644,39.1306533 C404.624091,47.3209889 404.624091,56.8465153 400.696644,65.0368509 C398.88854,68.5570991 396.147229,71.5143361 392.771477,73.5862647 C389.406723,75.6038097 385.54477,76.6439351 381.620134,76.5896147 Z M499.864597,3.0720268 L452.594128,3.0720268 L452.594128,101.095477 L485.697483,101.095477 L485.697483,77.0134003 L499.864597,77.0134003 C507.993393,77.1961644 516.069866,75.6707085 523.569966,72.5360134 C536.623691,66.9948024 545.098426,54.2037291 545.098426,40.0427136 C545.098426,25.881698 536.623691,13.0906247 523.569966,7.54941374 C516.069866,4.41471862 507.993393,2.8892627 499.864597,3.0720268 Z M497.76057,51.5309883 L485.697483,51.5309883 L485.697483,28.5544389 L497.76057,28.5544389 C501.385238,28.2825345 504.982532,29.3588652 507.859899,31.5762144 C512.348339,36.3312191 512.348339,43.754208 507.859899,48.5092127 C504.982532,50.726562 501.385238,51.8028926 497.76057,51.5309883 Z" id="SCOOP" fill="#29282E"></path>
                <path d="M123.808,254.304 C115.071956,254.304 106.864038,253.368009 99.184,251.496 C91.5039616,249.623991 85.168025,247.152015 80.176,244.08 L93.28,219.024 C104.128054,225.264031 115.455941,228.384 127.264,228.384 C131.584022,228.384 134.895988,227.856005 137.2,226.8 C139.504012,225.743995 140.656,224.304009 140.656,222.48 C140.656,220.751991 139.480012,219.360005 137.128,218.304 C134.775988,217.247995 131.056025,216.096006 125.968,214.848 C119.247966,213.119991 113.680022,211.368009 109.264,209.592 C104.847978,207.815991 100.984017,205.080018 97.672,201.384 C94.3599834,197.687982 92.704,192.81603 92.704,186.768 C92.704,179.183962 94.7439796,172.536029 98.824,166.824 C102.90402,161.111971 108.783962,156.696016 116.464,153.576 C124.144038,150.455984 133.215948,148.896 143.68,148.896 C151.168037,148.896 158.151968,149.639993 164.632,151.128 C171.112032,152.616007 176.703976,154.751986 181.408,157.536 L169.168,182.304 C165.23198,179.807988 160.888024,177.936006 156.136,176.688 C151.383976,175.439994 146.512025,174.816 141.52,174.816 C136.815976,174.816 133.168013,175.487993 130.576,176.832 C127.983987,178.176007 126.688,179.759991 126.688,181.584 C126.688,183.408009 127.863988,184.847995 130.216,185.904 C132.568012,186.960005 136.431973,188.111994 141.808,189.36 C148.336033,190.896008 153.831978,192.527991 158.296,194.256 C162.760022,195.984009 166.623984,198.671982 169.888,202.32 C173.152016,205.968018 174.784,210.76797 174.784,216.72 C174.784,224.208037 172.720021,230.783972 168.592,236.448 C164.463979,242.112028 158.560038,246.503984 150.88,249.624 C143.199962,252.744016 134.176052,254.304 123.808,254.304 Z M223.664,177.552 L194.144,177.552 L199.472,151.2 L292.496,151.2 L287.168,177.552 L257.648,177.552 L242.816,252 L208.832,252 L223.664,177.552 Z M311.28,151.2 L345.264,151.2 L325.104,252 L291.12,252 L311.28,151.2 Z M458.8,184.32 C458.8,193.248045 456.424024,201.047967 451.672,207.72 C446.919976,214.392033 440.224043,219.359984 431.584,222.624 L448.432,252 L413.152,252 L398.896,226.656 L390.544,226.656 L385.504,252 L351.52,252 L371.68,151.2 L416.896,151.2 C430.144066,151.2 440.439963,154.103971 447.784,159.912 C455.128037,165.720029 458.8,173.855948 458.8,184.32 Z M424.384,187.632 C424.384,180.815966 420.160042,177.408 411.712,177.408 L400.336,177.408 L395.584,201.024 L409.552,201.024 C414.256024,201.024 417.903987,199.848012 420.496,197.496 C423.088013,195.143988 424.384,191.856021 424.384,187.632 Z" id="STIR" fill="#ED1C24"></path>
            </g>
            <rect id="Прямоугольник_1" fill="#29282E" fill-rule="nonzero" x="500" y="241" width="50" height="10"></rect>
            <rect id="Прямоугольник_1_копия" fill="#29282E" fill-rule="nonzero" x="0" y="241" width="50" height="10"></rect>
            <g id="elipses" fill="#ED1C24" fill-rule="nonzero">
                <ellipse id="elipse_копия" cx="6.78415254" cy="6.2761194" rx="5.91525424" ry="6.04477612"></ellipse>
                <ellipse id="elipse_копия_2" cx="44.8708898" cy="6.2761194" rx="5.87088983" ry="5.9994403"></ellipse>
                <ellipse id="elipse_копия-2" cx="83.9152542" cy="6.2761194" rx="5.91525424" ry="6.04477612"></ellipse>
                <ellipse id="elipse_копия_9" cx="159.915254" cy="6.05223881" rx="5.91525424" ry="6.04477612"></ellipse>
                <ellipse id="elipse_копия_13" cx="121.915254" cy="6.05223881" rx="5.91525424" ry="6.04477612"></ellipse>
                <ellipse id="elipse_копия_8" cx="198.915254" cy="6.05223881" rx="5.91525424" ry="6.04477612"></ellipse>
                <ellipse id="elipse_копия" cx="236.915254" cy="6.2761194" rx="5.91525424" ry="6.04477612"></ellipse>
                <ellipse id="elipse_копия_2" cx="274.87089" cy="6.2761194" rx="5.87088983" ry="5.9994403"></ellipse>
                <ellipse id="elipse_копия-2" cx="313.915254" cy="6.2761194" rx="5.91525424" ry="6.04477612"></ellipse>
                <ellipse id="elipse_копия_9" cx="389.915254" cy="6.05223881" rx="5.91525424" ry="6.04477612"></ellipse>
                <ellipse id="elipse_копия_13" cx="351.915254" cy="6.05223881" rx="5.91525424" ry="6.04477612"></ellipse>
                <ellipse id="elipse_копия_8" cx="428.915254" cy="6.05223881" rx="5.91525424" ry="6.04477612"></ellipse>
                <ellipse id="elipse_копия_9" cx="505.915254" cy="6.05223881" rx="5.91525424" ry="6.04477612"></ellipse>
                <ellipse id="elipse_копия_13" cx="466.915254" cy="6.05223881" rx="5.91525424" ry="6.04477612"></ellipse>
                <ellipse id="elipse_копия_8" cx="543.915254" cy="6.04477612" rx="5.91525424" ry="6.04477612"></ellipse>
            </g>
            <g id="elipses" transform="translate(0.000000, 486.000000)" fill="#ED1C24" fill-rule="nonzero">
                <ellipse id="elipse_копия" cx="6.78415254" cy="6.2761194" rx="5.91525424" ry="6.04477612"></ellipse>
                <ellipse id="elipse_копия_2" cx="44.8708898" cy="6.2761194" rx="5.87088983" ry="5.9994403"></ellipse>
                <ellipse id="elipse_копия-2" cx="83.9152542" cy="6.2761194" rx="5.91525424" ry="6.04477612"></ellipse>
                <ellipse id="elipse_копия_9" cx="159.915254" cy="6.05223881" rx="5.91525424" ry="6.04477612"></ellipse>
                <ellipse id="elipse_копия_13" cx="121.915254" cy="6.05223881" rx="5.91525424" ry="6.04477612"></ellipse>
                <ellipse id="elipse_копия_8" cx="198.915254" cy="6.05223881" rx="5.91525424" ry="6.04477612"></ellipse>
                <ellipse id="elipse_копия" cx="236.915254" cy="6.2761194" rx="5.91525424" ry="6.04477612"></ellipse>
                <ellipse id="elipse_копия_2" cx="274.87089" cy="6.2761194" rx="5.87088983" ry="5.9994403"></ellipse>
                <ellipse id="elipse_копия-2" cx="313.915254" cy="6.2761194" rx="5.91525424" ry="6.04477612"></ellipse>
                <ellipse id="elipse_копия_9" cx="389.915254" cy="6.05223881" rx="5.91525424" ry="6.04477612"></ellipse>
                <ellipse id="elipse_копия_13" cx="351.915254" cy="6.05223881" rx="5.91525424" ry="6.04477612"></ellipse>
                <ellipse id="elipse_копия_8" cx="428.915254" cy="6.05223881" rx="5.91525424" ry="6.04477612"></ellipse>
                <ellipse id="elipse_копия_9" cx="505.915254" cy="6.05223881" rx="5.91525424" ry="6.04477612"></ellipse>
                <ellipse id="elipse_копия_13" cx="466.915254" cy="6.05223881" rx="5.91525424" ry="6.04477612"></ellipse>
                <ellipse id="elipse_копия_8" cx="543.915254" cy="6.04477612" rx="5.91525424" ry="6.04477612"></ellipse>
            </g>
            <path d="M-3.67705866e-13,351.120032 L47.9556878,351.120032 C58.7978976,351.120032 68.3657725,353.089207 76.6595996,357.027617 C84.9534267,360.966026 91.393788,366.595551 95.9808767,373.916359 C100.567965,381.237167 102.861475,389.855205 102.861475,399.77073 C102.861475,409.686255 100.567965,418.304292 95.9808767,425.625101 C91.393788,432.945909 84.9534267,438.575433 76.6595996,442.513843 C68.3657725,446.452252 58.7978976,448.421428 47.9556878,448.421428 L-3.67705866e-13,448.421428 L-3.67705866e-13,351.120032 Z M46.5656679,422.845061 C53.6084708,422.845061 59.2379953,420.829552 63.4544102,416.798474 C67.670825,412.767396 69.7790009,407.091538 69.7790009,399.77073 C69.7790009,392.449921 67.670825,386.774063 63.4544102,382.742985 C59.2379953,378.711908 53.6084708,376.696399 46.5656679,376.696399 L32.8044705,376.696399 L32.8044705,422.845061 L46.5656679,422.845061 Z M205.367723,423.679073 L205.367723,448.421428 L124.468563,448.421428 L124.468563,351.120032 L203.560698,351.120032 L203.560698,375.862387 L156.717026,375.862387 L156.717026,387.26055 L197.861616,387.26055 L197.861616,410.890889 L156.717026,410.890889 L156.717026,423.679073 L205.367723,423.679073 Z M248.798124,376.557397 L220.302715,376.557397 L220.302715,351.120032 L310.098003,351.120032 L310.098003,376.557397 L281.602595,376.557397 L281.602595,448.421428 L248.798124,448.421428 L248.798124,376.557397 Z M377.853753,450.645459 C367.382217,450.645459 357.97651,448.467783 349.636348,444.112366 C341.296187,439.756948 334.763159,433.710422 330.037067,425.972606 C325.310976,418.234789 322.947966,409.500918 322.947966,399.77073 C322.947966,390.040542 325.310976,381.30667 330.037067,373.568854 C334.763159,365.831038 341.296187,359.784511 349.636348,355.429094 C357.97651,351.073676 367.382217,348.896 377.853753,348.896 C388.325289,348.896 397.730996,351.073676 406.071158,355.429094 C414.411319,359.784511 420.944347,365.831038 425.670439,373.568854 C430.39653,381.30667 432.759541,390.040542 432.759541,399.77073 C432.759541,409.500918 430.39653,418.234789 425.670439,425.972606 C420.944347,433.710422 414.411319,439.756948 406.071158,444.112366 C397.730996,448.467783 388.325289,450.645459 377.853753,450.645459 Z M377.853753,424.096079 C381.931165,424.096079 385.614681,423.099908 388.904412,421.107536 C392.194142,419.115164 394.811987,416.288818 396.758024,412.628414 C398.704062,408.96801 399.677066,404.682158 399.677066,399.77073 C399.677066,394.859301 398.704062,390.573449 396.758024,386.913045 C394.811987,383.252641 392.194142,380.426296 388.904412,378.433924 C385.614681,376.441552 381.931165,375.445381 377.853753,375.445381 C373.776341,375.445381 370.092825,376.441552 366.803095,378.433924 C363.513364,380.426296 360.89552,383.252641 358.949482,386.913045 C357.003444,390.573449 356.03044,394.859301 356.03044,399.77073 C356.03044,404.682158 357.003444,408.96801 358.949482,412.628414 C360.89552,416.288818 363.513364,419.115164 366.803095,421.107536 C370.092825,423.099908 373.776341,424.096079 377.853753,424.096079 Z M512.469462,448.421428 L495.65022,422.428055 L479.247985,448.421428 L441.856449,448.421428 L477.023953,399.353724 L443.107467,351.120032 L479.942995,351.120032 L496.484232,375.584383 L512.608464,351.120032 L547.91497,351.120032 L514.137486,398.102706 L550,448.421428 L512.469462,448.421428 Z" id="DETOX" fill="#29282E"></path>
        </g>
    </g>
</svg>