<?xml version="1.0" encoding="UTF-8"?>
<!-- Generator: Adobe Illustrator 21.0.0, SVG Export Plug-In . SVG Version: 6.00 Build 0)  -->
<svg version="1.1" id="Layer_1" xmlns="http://www.w3.org/2000/svg" xmlns:xlink="http://www.w3.org/1999/xlink" x="0px" y="0px" viewBox="0 0 50 50" style="enable-background:new 0 0 50 50;" xml:space="preserve">
<style type="text/css">
	.st0{fill:#EB212E;}
	.st1{fill:#FFFFFF;}
</style>
<title>ic_ready</title>
<desc>Created with Sketch.</desc>
<g>
	<g>
		<g>
			<path class="st1" d="M36.2,16.1c0-0.2-0.1-0.4-0.2-0.5l-5.4-5.4c0,0,0,0,0,0c-0.1-0.1-0.3-0.2-0.5-0.2H15.2     c-0.8,0-1.5,0.7-1.5,1.5v27c0,0.8,0.7,1.5,1.5,1.5h19.5c0.8,0,1.5-0.7,1.5-1.5L36.2,16.1C36.2,16.1,36.2,16.1,36.2,16.1z      M30.9,12.4l3,3h-2.9c0,0-0.1,0-0.1-0.1L30.9,12.4L30.9,12.4z M34.8,38.5C34.8,38.6,34.8,38.6,34.8,38.5l-19.6,0.1     c0,0-0.1,0-0.1-0.1v-27c0,0,0-0.1,0.1-0.1h14.2v3.9c0,0.8,0.7,1.5,1.5,1.5h3.9L34.8,38.5L34.8,38.5z"/>
		</g>
	</g>
	<g>
		<g>
			<path class="st1" d="M31.2,19.6H18.8c-0.4,0-0.7,0.3-0.7,0.7c0,0.4,0.3,0.7,0.7,0.7h12.4c0.4,0,0.7-0.3,0.7-0.7     C31.9,19.9,31.6,19.6,31.2,19.6z"/>
		</g>
	</g>
	<g>
		<g>
			<path class="st1" d="M31.2,23.8H18.8c-0.4,0-0.7,0.3-0.7,0.7c0,0.4,0.3,0.7,0.7,0.7h12.4c0.4,0,0.7-0.3,0.7-0.7     C31.9,24.2,31.6,23.8,31.2,23.8z"/>
		</g>
	</g>
	<g>
		<g>
			<path class="st1" d="M31.2,28.1H18.8c-0.4,0-0.7,0.3-0.7,0.7c0,0.4,0.3,0.7,0.7,0.7h12.4c0.4,0,0.7-0.3,0.7-0.7     C31.9,28.4,31.6,28.1,31.2,28.1z"/>
		</g>
	</g>
	<g>
		<g>
			<path class="st1" d="M28.1,32.3h-6.2c-0.4,0-0.7,0.3-0.7,0.7c0,0.4,0.3,0.7,0.7,0.7h6.2c0.4,0,0.7-0.3,0.7-0.7     S28.5,32.3,28.1,32.3z"/>
		</g>
	</g>
</g>
</svg>