<?xml version="1.0" encoding="UTF-8"?>
<!-- Generator: Adobe Illustrator 21.0.0, SVG Export Plug-In . SVG Version: 6.00 Build 0)  -->
<svg version="1.1" id="Layer_1" xmlns="http://www.w3.org/2000/svg" xmlns:xlink="http://www.w3.org/1999/xlink" x="0px" y="0px" viewBox="0 0 50 50" style="enable-background:new 0 0 50 50;" xml:space="preserve">
<style type="text/css">
	.st0{fill:#EAEAEA;}
</style>
<title>ic_ready</title>
<desc>Created with Sketch.</desc>
<g>
	<g>
		<g>
			<path class="st0" d="M36.2,16.1c0-0.2-0.1-0.4-0.2-0.5l-5.4-5.4l0,0c-0.1-0.1-0.3-0.2-0.5-0.2H15.2c-0.8,0-1.5,0.7-1.5,1.5v27     c0,0.8,0.7,1.5,1.5,1.5h19.5c0.8,0,1.5-0.7,1.5-1.5V16.1C36.3,16.1,36.2,16.1,36.2,16.1z M30.9,12.4l3,3H31c0,0-0.1,0-0.1-0.1     L30.9,12.4L30.9,12.4z M34.8,38.5C34.8,38.6,34.8,38.6,34.8,38.5l-19.6,0.1c0,0-0.1,0-0.1-0.1v-27c0,0,0-0.1,0.1-0.1h14.2v3.9     c0,0.8,0.7,1.5,1.5,1.5h3.9V38.5L34.8,38.5z"/>
		</g>
	</g>
	<g>
		<g>
			<g>
				<path class="st0" d="M29.9,21.2c-0.2-0.2-0.5-0.2-0.7,0l-6,6.5l-2.3-2.5c-0.2-0.2-0.5-0.2-0.7,0s-0.2,0.6,0,0.8l2.7,2.9      c0.2,0.2,0.5,0.2,0.7,0l6.3-6.9C30,21.7,30,21.4,29.9,21.2z"/>
				<path class="st0" d="M23.2,29.2c-0.2,0-0.3-0.1-0.5-0.2l-2.7-2.9c-0.1-0.1-0.2-0.3-0.2-0.5c0-0.2,0.1-0.4,0.2-0.5      c0.2-0.2,0.7-0.2,0.9,0l2.2,2.4l5.9-6.4c0.3-0.3,0.7-0.3,0.9,0l0,0c0.1,0.2,0.1,0.6,0,0.9l0,0.1L23.7,29      C23.6,29.1,23.4,29.2,23.2,29.2z M20.6,25.2c-0.1,0-0.2,0-0.2,0.1c-0.1,0.1-0.1,0.2-0.1,0.3c0,0.1,0,0.2,0.1,0.3l2.7,2.9      c0.1,0.1,0.3,0.1,0.5,0l6.3-6.9c0.1-0.2,0.1-0.5,0-0.6c-0.1-0.1-0.3-0.1-0.5,0l-6.1,6.6l-2.4-2.6C20.7,25.2,20.6,25.2,20.6,25.2      z"/>
			</g>
		</g>
	</g>
</g>
</svg>