<?xml version="1.0" encoding="UTF-8"?>
<!-- Generator: Adobe Illustrator 21.0.0, SVG Export Plug-In . SVG Version: 6.00 Build 0)  -->
<svg version="1.1" id="Layer_1" xmlns="http://www.w3.org/2000/svg" xmlns:xlink="http://www.w3.org/1999/xlink" x="0px" y="0px" viewBox="0 0 50 50" style="enable-background:new 0 0 50 50;" xml:space="preserve">
<style type="text/css">
	.st0{fill:#EAEAEA;}
</style>
<title>ic_ready</title>
<desc>Created with Sketch.</desc>
<g>
	<g>
		<g>
			<g>
				<path class="st0" d="M37.5,20.3h-3.1V16c0-1.4-1.1-2.5-2.5-2.5H12.5c-1.4,0-2.5,1.1-2.5,2.5v11.2c0,1.4,1.1,2.5,2.5,2.5h3.1V34      c0,1.4,1.1,2.5,2.5,2.5h19.4c1.4,0,2.5-1.1,2.5-2.5V22.8C40,21.4,38.9,20.3,37.5,20.3z M11.4,16c0-0.6,0.5-1.1,1.1-1.1h19.4      c0.6,0,1.1,0.5,1.1,1.1v1H11.4V16z M15.6,22.8v5.5h-3.1c-0.6,0-1.1-0.5-1.1-1.1v-5.5h4.4C15.6,22,15.6,22.4,15.6,22.8z       M11.4,20.3v-1.9H33v1.9H18.1c0,0-0.1,0-0.1,0H11.4z M37.5,35.1H18.1c-0.6,0-1.1-0.5-1.1-1.1V22.8c0-0.6,0.4-1,1-1.1h15.8      c0,0,0.1,0,0.1,0h3.7c0.6,0,1.1,0.5,1.1,1.1V34h0C38.6,34.6,38.1,35.1,37.5,35.1z"/>
			</g>
		</g>
		<g>
			<g>
				<path class="st0" d="M29.9,25c-0.8,0-1.6,0.3-2.2,0.8c-0.6-0.5-1.4-0.8-2.2-0.8c-1.9,0-3.4,1.5-3.4,3.4s1.5,3.4,3.4,3.4      c0.8,0,1.6-0.3,2.2-0.8c0.6,0.5,1.3,0.8,2.2,0.8c1.9,0,3.4-1.5,3.4-3.4C33.4,26.5,31.8,25,29.9,25z M26.9,30      c-0.4,0.3-0.8,0.4-1.2,0.4c-1.1,0-2-0.9-2-2c0-1.1,0.9-2,2-2c0.5,0,0.9,0.2,1.2,0.4c-0.2,0.5-0.4,1-0.4,1.6      C26.5,29,26.6,29.5,26.9,30z M29.9,30.4c-1.1,0-2-0.9-2-2c0-1.1,0.9-2,2-2c1.1,0,2,0.9,2,2C32,29.5,31,30.4,29.9,30.4z"/>
			</g>
		</g>
	</g>
</g>
</svg>