<svg xmlns="http://www.w3.org/2000/svg" xmlns:xlink="http://www.w3.org/1999/xlink" width="90" height="90" viewBox="0 0 90 90">
  <defs>
    <style>
      .cls-1 {
        filter: url(#filter);
      }

      .cls-2 {
        fill: none;
        stroke: #fff;
        stroke-width: 2px;
      }

      .cls-3 {
        fill-rule: evenodd;
      }
    </style>
    <filter id="filter" filterUnits="userSpaceOnUse">
      <feFlood result="flood" flood-color="#29282e"/>
      <feComposite result="composite" operator="in" in2="SourceGraphic"/>
      <feBlend result="blend" in2="SourceGraphic"/>
    </filter>
  </defs>
  <g id="Enhance" class="cls-1">
    <circle id="elipse" class="cls-2" cx="45" cy="45" r="44"/>
    <path id="Фигура_8" data-name="Фигура 8" class="cls-3" d="M542.627,1190.92c0.031-.67.057-1.14,0.075-1.38a26.172,26.172,0,0,0,0-3.88c-0.008-.07-0.021-0.18-0.039-0.32-0.15-1.19-.605-4.8.54-6.88,1.485-2.7,3.3-3.66,5.6-4.89,0.622-.33,1.265-0.67,1.95-1.07a27.45,27.45,0,0,0,3.852-3.52c0.474-.49.882-0.91,1.137-1.14a2.294,2.294,0,0,1,1.524-.69,1.516,1.516,0,0,1,.984.36,1.314,1.314,0,0,1,.477.93,2.325,2.325,0,0,1-.555,1.67c-0.344.42-.952,1-1.539,1.57a12.893,12.893,0,0,0-1.55,1.62l-0.11.18a14.619,14.619,0,0,1-1.316,1.88l-0.229.26,0.345-.05a21.8,21.8,0,0,0,2.963-.64,3.28,3.28,0,0,0,1.734-1.45c0.112-.16.226-0.32,0.354-0.48,0.634-.8,2.254-3.33,2.786-4.17a4.889,4.889,0,0,0,.7-2.64c0.008-.13.016-0.26,0.025-0.4l0.024-.33c0.063-.91.118-1.69,0.252-3.04s0.834-1.85,1.39-1.85c0.038,0,.076.01,0.113,0.01,0.606,0.07,1.229.6,1.157,1.91-0.033.59-.094,1.59-0.158,2.65-0.085,1.39-.175,2.88-0.217,3.69a5.307,5.307,0,0,1-.7,2.65l-0.117.25c-0.53,1.13-2.26,4.02-3.092,5.41l-0.28.47a6.288,6.288,0,0,1-2.8,2.74c-0.472.22-1.094,0.52-1.757,0.83-1.334.62-2.847,1.33-3.652,1.74a5.61,5.61,0,0,0-2.465,2.63,10.574,10.574,0,0,0-.61,3.37c0,0.35.014,1.02,0.04,2h-6.84Zm-11.4,0c0.027-.99.04-1.66,0.04-2a10.574,10.574,0,0,0-.61-3.37,5.6,5.6,0,0,0-2.465-2.63c-0.8-.41-2.312-1.11-3.644-1.74-0.666-.31-1.29-0.6-1.765-0.83a6.28,6.28,0,0,1-2.8-2.74l-0.282-.47c-0.832-1.39-2.562-4.28-3.091-5.41l-0.116-.25a5.247,5.247,0,0,1-.7-2.65c-0.042-.8-0.132-2.28-0.215-3.65-0.066-1.08-.128-2.1-0.161-2.69-0.072-1.31.551-1.84,1.157-1.91,0.038,0,.076-0.01.113-0.01,0.556,0,1.254.49,1.39,1.85,0.133,1.34.188,2.12,0.251,3.03l0.025,0.34c0.009,0.14.017,0.27,0.025,0.4a4.9,4.9,0,0,0,.706,2.64c0.532,0.84,2.152,3.37,2.786,4.17,0.128,0.16.241,0.32,0.352,0.48a3.29,3.29,0,0,0,1.735,1.45,21.836,21.836,0,0,0,2.963.64l0.345,0.05-0.229-.26a14.362,14.362,0,0,1-1.312-1.87l-0.115-.19a12.792,12.792,0,0,0-1.549-1.62c-0.587-.57-1.194-1.15-1.539-1.57a2.315,2.315,0,0,1-.554-1.66,1.31,1.31,0,0,1,.477-0.94,1.511,1.511,0,0,1,.983-0.36,2.294,2.294,0,0,1,1.524.69c0.254,0.23.663,0.65,1.137,1.14a27.45,27.45,0,0,0,3.852,3.52c0.686,0.4,1.329.74,1.95,1.07,2.3,1.23,4.111,2.19,5.6,4.89,1.146,2.08.69,5.69,0.54,6.88-0.017.14-.031,0.25-0.039,0.32a26.172,26.172,0,0,0,0,3.88q0.029,0.375.075,1.38h-6.84Zm8.051-14.77a2,2,0,0,1-1.52-.93,0.389,0.389,0,0,1,.021-0.44,15,15,0,0,0,2.96-5.88c0.2-.93.362-1.82,0.488-2.66a44.618,44.618,0,0,0,.446-5.97,33.968,33.968,0,0,1,.682-6.85c0.156-.73.361-1.51,0.559-2.27,0.135-.52.276-1.06,0.4-1.56a1.14,1.14,0,0,0,.1-0.88l-0.04-.05-0.071-.01c-0.117,0-.209,0-0.983,2.13a33.918,33.918,0,0,0-2.129,10.35,26.734,26.734,0,0,1-1.264,7.13,10.06,10.06,0,0,1-6.8-5.13,9.608,9.608,0,0,1-.215-8.19c1.272-3.06,4.321-5.85,7.549-8.81a45.157,45.157,0,0,0,6.606-6.93,0.477,0.477,0,0,1,.295-0.25,0.048,0.048,0,0,1,.043.02,0.579,0.579,0,0,1,.062.41c-0.342,3.41,1.328,6.35,3.1,9.46,2.055,3.61,4.18,7.36,3.145,12.08a11.04,11.04,0,0,1-10.124,8.22h0c-0.118,0-.236,0-0.353-0.01h0c-0.131,0-.135.01-0.485,1.14a59.023,59.023,0,0,1-2,5.62A0.452,0.452,0,0,1,539.273,1176.15Z" transform="translate(-495 -1120)"/>
  </g>
</svg>
