<svg xmlns="http://www.w3.org/2000/svg" xmlns:xlink="http://www.w3.org/1999/xlink" width="90" height="90" viewBox="0 0 90 90">
  <defs>
    <style>
      .cls-1 {
        filter: url(#filter);
      }

      .cls-2 {
        fill: none;
        stroke: #fff;
        stroke-width: 2px;
      }

      .cls-3 {
        fill: #c6dda3;
        fill-rule: evenodd;
      }
    </style>
    <filter id="filter" filterUnits="userSpaceOnUse">
      <feFlood result="flood" flood-color="#29282e"/>
      <feComposite result="composite" operator="in" in2="SourceGraphic"/>
      <feBlend result="blend" in2="SourceGraphic"/>
    </filter>
  </defs>
  <g id="Jump-start" class="cls-1">
    <circle id="elipse" class="cls-2" cx="45" cy="45" r="44"/>
    <path id="Фигура_9" data-name="Фигура 9" class="cls-3" d="M765.6,1185.91H755.519l-0.04-.04-13-13.02a1.9,1.9,0,0,0-.855-0.49,17.44,17.44,0,0,1-1.675,3.43c-0.1.16-.2,0.3-0.3,0.44-1.444,2-5.336,6.88-10.263,9.19l-0.136.06-0.143.05a7.961,7.961,0,0,1-2.319.37l-0.011.01h-15.6a1.893,1.893,0,0,0-1.887,1.89v1.22a1.893,1.893,0,0,0,1.887,1.89H765.6a1.893,1.893,0,0,0,1.886-1.89v-1.22A1.893,1.893,0,0,0,765.6,1185.91Zm-40.741-27.69c1.012,2.93,3.724,9,1.292,15.67a37.587,37.587,0,0,0-2.049,5.24c-0.615,2.72.554,4.11,1.93,4.47a4.555,4.555,0,0,0,2.426-.18c3.833-1.79,7.293-5.56,9.412-8.48a21.093,21.093,0,0,0,3.143-11.22c-0.029-3.41-.082-5.16,2.413-8.78s3.349-6.13,2.315-7.3c-4.75-3.76-9.331-4.62-10.317-3.48-1.077,1.24,2.172,3.67-.888,7.94-1.784,2.49-5.009,2.57-7.24,3.43C725.7,1156.15,724.51,1157.23,724.854,1158.22Zm9.527,14.65a16.749,16.749,0,0,0-3.347.63c0.354-1.22.431-2.25,0.514-2.27a13.324,13.324,0,0,1,3.144-.55c0.24-.01.484-0.02,0.734-0.01A10.4,10.4,0,0,1,734.381,1172.87Zm1.474-3.94a6.3,6.3,0,0,0-.751-0.02,11.7,11.7,0,0,0-3.432.57,21.355,21.355,0,0,0,.013-2.26l0.238-.06a13.764,13.764,0,0,1,3.164-.42,11.356,11.356,0,0,1,1.284.07A18.8,18.8,0,0,1,735.855,1168.93Zm0.737-3.81a9.629,9.629,0,0,0-1.31-.07,12.691,12.691,0,0,0-3.02.39c-0.274.07-.51,0.13-0.709,0.19-0.087-.74-0.206-1.46-0.347-2.15,0.141-.04.291-0.08,0.457-0.12a15.5,15.5,0,0,1,3.6-.48,12.829,12.829,0,0,1,1.367.07c0,0.19,0,.39.008,0.59l0,0.13C736.651,1164.16,736.632,1164.64,736.592,1165.12Zm-5.286-5.51a20.064,20.064,0,0,1,4.548-.6c0.329,0,.665.01,1,0.03a17.177,17.177,0,0,0-.207,2.16,6.807,6.807,0,0,0-.781-0.02,17.354,17.354,0,0,0-3.991.52c-0.4.1-.75,0.2-1.024,0.29-0.2-.74-0.408-1.44-0.62-2.08C730.529,1159.82,730.888,1159.72,731.306,1159.61Zm-6.115-18.95a37.529,37.529,0,0,0,3.516,3.83,21.412,21.412,0,0,0,3.4,2.68,11.155,11.155,0,0,0,1.544.8,7.385,7.385,0,0,0-.309-1.3,7.5,7.5,0,0,1-.343-1.54c-0.3-.2-0.608-0.41-0.91-0.64a29.1,29.1,0,0,1-3.622-3.38c-0.477-.52-0.866-0.98-1.135-1.3-0.134-.16-0.238-0.29-0.307-0.38l-0.078-.09-0.019-.03h0a1.1,1.1,0,1,0-1.738,1.35h0Zm-6.539,8.8a0.313,0.313,0,0,0,.07.04c0.343,0.21,1.952,1.15,4.017,2.46,0.9,0.57,1.9,1.22,2.909,1.9,0.272-.14.554-0.27,0.852-0.39a17.231,17.231,0,0,1,1.719-.53c-1.646-1.14-3.306-2.21-4.716-3.1-2.164-1.36-3.735-2.28-3.743-2.28A1.1,1.1,0,0,0,718.652,1149.46Z" transform="translate(-693 -1120)"/>
  </g>
</svg>
