<svg id="text_копия_2" data-name="text копия 2" xmlns="http://www.w3.org/2000/svg" xmlns:xlink="http://www.w3.org/1999/xlink" width="296.75" height="197.41" viewBox="0 0 296.75 197.41">
  <defs>
    <style>
      .cls-1 {
        filter: url(#filter);
      }

      .cls-2 {
        fill: #fff;
      }

      .cls-3 {
        fill: #29282e;
      }

      .cls-3, .cls-4 {
        fill-rule: evenodd;
      }

      .cls-4 {
        fill: #ed1c24;
      }
    </style>
    <filter id="filter" filterUnits="userSpaceOnUse">
      <feFlood result="flood" flood-color="#29282e"/>
      <feComposite result="composite" operator="in" in2="SourceGraphic"/>
      <feBlend result="blend" in2="SourceGraphic"/>
    </filter>
  </defs>
  <g id="elipses" class="cls-1">
    <circle id="Ellipse_3_copy_5" data-name="Ellipse 3 copy 5" class="cls-2" cx="258.75" cy="105.47" r="2"/>
    <circle id="Ellipse_3_copy_7" data-name="Ellipse 3 copy 7" class="cls-2" cx="276.75" cy="105.47" r="2"/>
    <circle id="Ellipse_3_copy_9" data-name="Ellipse 3 copy 9" class="cls-2" cx="294.75" cy="105.47" r="2"/>
  </g>
  <g id="elipses-2" data-name="elipses" class="cls-1">
    <circle class="cls-2" cx="2.75" cy="105.47" r="2"/>
    <circle id="Ellipse_3_copy_2" data-name="Ellipse 3 copy 2" class="cls-2" cx="20.75" cy="105.47" r="2"/>
    <circle id="Ellipse_3_copy_4" data-name="Ellipse 3 copy 4" class="cls-2" cx="38.75" cy="105.47" r="2"/>
  </g>
  <g id="Группа_1_копия_2" data-name="Группа 1 копия 2">
    <path id="SCOOP" class="cls-3" d="M481.647,2194.16a34.314,34.314,0,0,0,13.566-2.4,18.893,18.893,0,0,0,8.4-6.46,15.608,15.608,0,0,0,2.812-9.08q0-5.775-3.078-9.12a17.876,17.876,0,0,0-7.258-4.83,70.617,70.617,0,0,0-10.26-2.62,43.9,43.9,0,0,1-6.764-1.71c-1.368-.53-2.052-1.33-2.052-2.39q0-3.345,6.916-3.35a32.933,32.933,0,0,1,14.82,3.96l5.4-13a33.85,33.85,0,0,0-9.31-3.46,49.589,49.589,0,0,0-10.754-1.18,34.89,34.89,0,0,0-13.566,2.36,18.542,18.542,0,0,0-8.4,6.46,15.792,15.792,0,0,0-2.812,9.12q0,5.775,3.04,9.16a17.536,17.536,0,0,0,7.144,4.86,77.393,77.393,0,0,0,10.26,2.78,44.915,44.915,0,0,1,6.878,1.82c1.393,0.56,2.09,1.39,2.09,2.51a2.313,2.313,0,0,1-1.6,2.16,13.813,13.813,0,0,1-5.32.73,33.53,33.53,0,0,1-9.044-1.33,36.936,36.936,0,0,1-8.512-3.54l-5.776,13.07a34.1,34.1,0,0,0,10.3,3.99,55.707,55.707,0,0,0,12.882,1.49h0Zm59.508,0a33.435,33.435,0,0,0,13.832-2.74,25.681,25.681,0,0,0,10.032-7.9L553.7,2173.41q-4.941,6.225-11.628,6.23a11.865,11.865,0,0,1-9.044-3.61q-3.42-3.615-3.42-9.69t3.42-9.69a11.865,11.865,0,0,1,9.044-3.61q6.687,0,11.628,6.23l11.324-10.11a25.681,25.681,0,0,0-10.032-7.9,33.435,33.435,0,0,0-13.832-2.74,32.279,32.279,0,0,0-15.2,3.54,26.375,26.375,0,0,0-10.6,9.88,28.933,28.933,0,0,0,0,28.8,26.375,26.375,0,0,0,10.6,9.88,32.279,32.279,0,0,0,15.2,3.54h0Zm57.683,0a32.726,32.726,0,0,0,15.428-3.58,27.262,27.262,0,0,0,0-48.48,35.033,35.033,0,0,0-30.856,0,27.262,27.262,0,0,0,0,48.48,32.723,32.723,0,0,0,15.428,3.58h0Zm0-14.52a11.422,11.422,0,0,1-6.042-1.63,11.722,11.722,0,0,1-4.294-4.64,16.281,16.281,0,0,1,0-14.06,11.722,11.722,0,0,1,4.294-4.64,12.013,12.013,0,0,1,12.084,0,11.729,11.729,0,0,1,4.294,4.64,16.281,16.281,0,0,1,0,14.06,11.729,11.729,0,0,1-4.294,4.64,11.427,11.427,0,0,1-6.042,1.63h0Zm66.348,14.52a32.726,32.726,0,0,0,15.428-3.58,27.262,27.262,0,0,0,0-48.48,35.033,35.033,0,0,0-30.856,0,27.262,27.262,0,0,0,0,48.48,32.723,32.723,0,0,0,15.428,3.58h0Zm0-14.52a11.422,11.422,0,0,1-6.042-1.63,11.722,11.722,0,0,1-4.294-4.64,16.281,16.281,0,0,1,0-14.06,11.722,11.722,0,0,1,4.294-4.64,12.013,12.013,0,0,1,12.084,0,11.729,11.729,0,0,1,4.294,4.64,16.281,16.281,0,0,1,0,14.06,11.729,11.729,0,0,1-4.294,4.64,11.427,11.427,0,0,1-6.042,1.63h0Zm64.067-39.9H703.641v53.2h17.936v-13.07h7.676a31.427,31.427,0,0,0,12.844-2.43,19.163,19.163,0,0,0,0-35.27,31.427,31.427,0,0,0-12.844-2.43h0Zm-1.14,26.3h-6.536v-12.47h6.536a7.977,7.977,0,0,1,5.472,1.64,6.7,6.7,0,0,1,0,9.19,7.977,7.977,0,0,1-5.472,1.64h0Z" transform="translate(-457.25 -2138.53)"/>
    <path id="STIR" class="cls-4" d="M535.647,2269.16a34.314,34.314,0,0,0,13.566-2.4,18.893,18.893,0,0,0,8.4-6.46,15.608,15.608,0,0,0,2.812-9.08q0-5.775-3.078-9.12a17.876,17.876,0,0,0-7.258-4.83,70.617,70.617,0,0,0-10.26-2.62,43.9,43.9,0,0,1-6.764-1.71c-1.368-.53-2.052-1.33-2.052-2.39q0-3.345,6.916-3.35a32.933,32.933,0,0,1,14.82,3.96l5.4-13a33.85,33.85,0,0,0-9.31-3.46,49.589,49.589,0,0,0-10.754-1.18,34.89,34.89,0,0,0-13.566,2.36,18.542,18.542,0,0,0-8.4,6.46,15.792,15.792,0,0,0-2.812,9.12q0,5.775,3.04,9.16a17.536,17.536,0,0,0,7.144,4.86,77.393,77.393,0,0,0,10.26,2.78,44.915,44.915,0,0,1,6.878,1.82c1.393,0.56,2.09,1.39,2.09,2.51a2.313,2.313,0,0,1-1.6,2.16,13.813,13.813,0,0,1-5.32.73,33.53,33.53,0,0,1-9.044-1.33,36.936,36.936,0,0,1-8.512-3.54l-5.776,13.07a34.1,34.1,0,0,0,10.3,3.99,55.707,55.707,0,0,0,12.882,1.49h0Zm42.789-1.22h17.936v-39.29h15.58v-13.91h-49.1v13.91h15.58v39.29Zm40.051,0h17.936v-53.2H618.487v53.2Zm60.343,0h19.152l-11.172-16.42a18.212,18.212,0,0,0,7.448-6.76,18.833,18.833,0,0,0,2.584-9.96,18.4,18.4,0,0,0-11.4-17.63,31.427,31.427,0,0,0-12.844-2.43H646.986v53.2h17.936v-13.38h4.864Zm-0.076-33.14a5.853,5.853,0,0,1-1.824,4.6,7.977,7.977,0,0,1-5.472,1.64h-6.536v-12.47h6.536a7.977,7.977,0,0,1,5.472,1.64,5.846,5.846,0,0,1,1.824,4.59h0Z" transform="translate(-457.25 -2138.53)"/>
    <path id="Defend" class="cls-3" d="M457.241,2335.94h22.77a31.427,31.427,0,0,0,13.629-2.8,21.383,21.383,0,0,0,9.174-8.02,24.713,24.713,0,0,0,0-24.56,21.362,21.362,0,0,0-9.174-8.01,31.427,31.427,0,0,0-13.629-2.81h-22.77v46.2Zm15.576-12.14v-21.92h6.534a11.1,11.1,0,0,1,8.019,2.88q3,2.865,3,8.08c0,3.48-1,6.17-3,8.09a11.137,11.137,0,0,1-8.019,2.87h-6.534Zm55.9,0.39v-6.07h19.536V2306.9H528.719v-5.41h22.242v-11.75H513.407v46.2h38.412v-11.75h-23.1Zm68.309-22.7v-11.75H559.474v46.2H575.05v-14.78h19.272v-11.75H575.05v-7.92h21.978Zm21.912,22.7v-6.07h19.536V2306.9H618.94v-5.41h22.242v-11.75H603.628v46.2H642.04v-11.75h-23.1Zm61.115-34.45v20.99L662.5,2289.74H649.7v46.2h15.18v-20.99l17.556,20.99h12.8v-46.2h-15.18Zm24.353,46.2h22.77a31.427,31.427,0,0,0,13.629-2.8,21.389,21.389,0,0,0,9.174-8.02,24.713,24.713,0,0,0,0-24.56,21.368,21.368,0,0,0-9.174-8.01,31.427,31.427,0,0,0-13.629-2.81h-22.77v46.2Zm15.576-12.14v-21.92h6.534a11.1,11.1,0,0,1,8.019,2.88q3,2.865,3,8.08c0,3.48-1,6.17-3,8.09a11.14,11.14,0,0,1-8.019,2.87h-6.534Z" transform="translate(-457.25 -2138.53)"/>
  </g>
</svg>
