<svg id="lettering" xmlns="http://www.w3.org/2000/svg" xmlns:xlink="http://www.w3.org/1999/xlink" width="235.688" height="133.063" viewBox="0 0 235.688 133.063">
  <defs>
    <style>
      .cls-1 {
        fill: #29282e;
      }

      .cls-1, .cls-3 {
        fill-rule: evenodd;
      }

      .cls-2 {
        fill: #23232a;
      }

      .cls-3 {
        fill: #ed1c24;
      }

      .cls-4 {
        filter: url(#filter);
      }

      .cls-5 {
        fill: #fff;
      }
    </style>
    <filter id="filter" filterUnits="userSpaceOnUse">
      <feFlood result="flood" flood-color="#29282e"/>
      <feComposite result="composite" operator="in" in2="SourceGraphic"/>
      <feBlend result="blend" in2="SourceGraphic"/>
    </filter>
  </defs>
  <path id="get_your" data-name="get your" class="cls-1" d="M144.774,146.619a6.307,6.307,0,0,1-3.024.72,5.723,5.723,0,0,1-2.82-.684A4.91,4.91,0,0,1,137,144.747a5.964,5.964,0,0,1,0-5.592,4.809,4.809,0,0,1,1.944-1.9,5.924,5.924,0,0,1,2.856-.672,5.774,5.774,0,0,1,4.344,1.9l2.5-2.3a7.942,7.942,0,0,0-3.024-2.16,10.4,10.4,0,0,0-4.008-.744,10.008,10.008,0,0,0-4.752,1.116,8.261,8.261,0,0,0-3.3,3.1,9.026,9.026,0,0,0,0,8.952,8.308,8.308,0,0,0,3.276,3.1,9.818,9.818,0,0,0,4.7,1.116,12.3,12.3,0,0,0,3.624-.552,10.148,10.148,0,0,0,3.168-1.584V141.7h-3.552v4.92Zm12.216,0.624v-3.888h7.8v-3.024h-7.8v-3.648h8.832v-3.12h-12.7v16.8h13.008v-3.12H156.99Zm16.919,3.12H177.8V136.731h5.376v-3.168h-14.64v3.168h5.376v13.632Zm35.136-16.8h-3.816l-4.488,7.464-4.488-7.464h-4.128l6.5,10.8v6h3.888v-5.952Zm10.248,17.088a9.736,9.736,0,0,0,4.7-1.128,8.569,8.569,0,0,0,0-15.12,10.4,10.4,0,0,0-9.42,0,8.372,8.372,0,0,0-3.288,3.108,8.936,8.936,0,0,0,0,8.9,8.372,8.372,0,0,0,3.288,3.108,9.806,9.806,0,0,0,4.716,1.128h0Zm0-3.312a5.331,5.331,0,0,1-2.688-.684,4.908,4.908,0,0,1-1.884-1.908,6.008,6.008,0,0,1,0-5.568,4.908,4.908,0,0,1,1.884-1.908,5.624,5.624,0,0,1,5.376,0,4.908,4.908,0,0,1,1.884,1.908,6.008,6.008,0,0,1,0,5.568,4.908,4.908,0,0,1-1.884,1.908,5.331,5.331,0,0,1-2.688.684h0Zm20.784,3.312a6.953,6.953,0,0,0,7.608-7.68v-9.408h-3.84v9.264a5.1,5.1,0,0,1-.96,3.42,3.511,3.511,0,0,1-2.784,1.092q-3.744,0-3.744-4.512v-9.264h-3.888v9.408a6.953,6.953,0,0,0,7.608,7.68h0Zm27.528-.288-3.768-5.4a5.473,5.473,0,0,0,3.456-5.3,5.559,5.559,0,0,0-3.42-5.352,9.336,9.336,0,0,0-3.876-.744h-7.272v16.8h3.888v-4.68h3.576l3.24,4.68h4.176Zm-4.248-10.7a2.672,2.672,0,0,1-.912,2.16,4.042,4.042,0,0,1-2.664.768h-3.168v-5.856h3.168a4.087,4.087,0,0,1,2.664.756,2.664,2.664,0,0,1,.912,2.172h0Z" transform="translate(-82.313 -133.281)"/>
  <rect id="Прямоугольник_1" data-name="Прямоугольник 1" class="cls-2" x="190.688" y="6.719" width="45" height="4"/>
  <rect id="Прямоугольник_1_копия" data-name="Прямоугольник 1 копия" class="cls-2" x="0.688" y="6.719" width="45" height="4"/>
  <path id="weight_" data-name="weight " class="cls-3" d="M131.33,165.387l-6.45,20.15-6.1-20.15H107.93l-6.45,19.9-6.1-19.9H83.23l11.2,35h12.65l5.95-18.7,5.65,18.7h12.65l11.2-35h-11.2Zm27.9,26.1v-4.6h14.8v-8.5h-14.8v-4.1h16.85v-8.9h-28.45v35h29.1v-8.9h-17.5Zm24.55,8.9h11.8v-35h-11.8v35Zm43.149-9.6a11.112,11.112,0,0,1-4.3.85,7.978,7.978,0,0,1-6.075-2.4,8.848,8.848,0,0,1-2.275-6.35,8.758,8.758,0,0,1,2.3-6.4,8.281,8.281,0,0,1,6.2-2.35,10.033,10.033,0,0,1,7.85,3.85l7.55-6.65a17.326,17.326,0,0,0-6.775-5.025,23.465,23.465,0,0,0-9.225-1.725,22.048,22.048,0,0,0-10.225,2.325,17.265,17.265,0,0,0-7.05,6.5,19.04,19.04,0,0,0,0,18.95,17.373,17.373,0,0,0,6.975,6.5,21.377,21.377,0,0,0,10.05,2.325,29.709,29.709,0,0,0,8.05-1.15,23.777,23.777,0,0,0,7.2-3.3v-14.8h-10.25v8.85Zm40.5-25.4v12.4h-10.9v-12.4h-11.8v35h11.8v-12.9h10.9v12.9h11.8v-35h-11.8Zm27.6,35h11.8v-25.85h10.25v-9.15h-32.3v9.15h10.25v25.85Z" transform="translate(-82.313 -133.281)"/>
  <path id="loss" class="cls-1" d="M165.12,232.43h12.9v-2.86H168.5V214.23h-3.38v18.2Zm25.038,0.26a10.379,10.379,0,0,0,5.018-1.209,8.98,8.98,0,0,0,3.51-3.341,9.717,9.717,0,0,0,0-9.62,8.98,8.98,0,0,0-3.51-3.341,11.018,11.018,0,0,0-10.036,0,8.949,8.949,0,0,0-3.51,3.354,9.668,9.668,0,0,0,0,9.594,8.949,8.949,0,0,0,3.51,3.354,10.379,10.379,0,0,0,5.018,1.209h0Zm0-2.964a6.567,6.567,0,0,1-3.276-.819,5.926,5.926,0,0,1-2.288-2.288,6.917,6.917,0,0,1,0-6.578,5.926,5.926,0,0,1,2.288-2.288,6.961,6.961,0,0,1,6.552,0,5.926,5.926,0,0,1,2.288,2.288,6.917,6.917,0,0,1,0,6.578,5.926,5.926,0,0,1-2.288,2.288,6.567,6.567,0,0,1-3.276.819h0Zm20.332,2.964a10.105,10.105,0,0,0,4.056-.728,5.568,5.568,0,0,0,2.483-1.95,4.8,4.8,0,0,0,.819-2.73,4.078,4.078,0,0,0-.923-2.808,5.7,5.7,0,0,0-2.223-1.547,24.638,24.638,0,0,0-3.328-.975q-1.482-.364-2.34-0.65a4.052,4.052,0,0,1-1.417-.78,1.621,1.621,0,0,1-.559-1.274,2.086,2.086,0,0,1,.975-1.794,5.265,5.265,0,0,1,2.977-.676,9.324,9.324,0,0,1,2.522.364,10.518,10.518,0,0,1,2.5,1.066l1.066-2.626a9.044,9.044,0,0,0-2.782-1.2,13.078,13.078,0,0,0-3.276-.416,10.012,10.012,0,0,0-4.043.728,5.54,5.54,0,0,0-2.47,1.963,4.856,4.856,0,0,0-.819,2.743,4.169,4.169,0,0,0,.923,2.847,5.535,5.535,0,0,0,2.21,1.547,27.259,27.259,0,0,0,3.367.988q1.482,0.364,2.34.65a3.932,3.932,0,0,1,1.417.793,1.66,1.66,0,0,1,.559,1.287,1.969,1.969,0,0,1-1,1.716,5.641,5.641,0,0,1-3.029.65,9.964,9.964,0,0,1-3.263-.559,9.232,9.232,0,0,1-2.743-1.443l-1.17,2.626a8.492,8.492,0,0,0,3.107,1.586,13.876,13.876,0,0,0,4.069.6h0Zm17.654,0a10.105,10.105,0,0,0,4.056-.728,5.568,5.568,0,0,0,2.483-1.95,4.8,4.8,0,0,0,.819-2.73,4.078,4.078,0,0,0-.923-2.808,5.7,5.7,0,0,0-2.223-1.547,24.638,24.638,0,0,0-3.328-.975q-1.482-.364-2.34-0.65a4.052,4.052,0,0,1-1.417-.78,1.621,1.621,0,0,1-.559-1.274,2.086,2.086,0,0,1,.975-1.794,5.265,5.265,0,0,1,2.977-.676,9.324,9.324,0,0,1,2.522.364,10.518,10.518,0,0,1,2.5,1.066l1.066-2.626a9.044,9.044,0,0,0-2.782-1.2,13.078,13.078,0,0,0-3.276-.416,10.012,10.012,0,0,0-4.043.728,5.54,5.54,0,0,0-2.47,1.963,4.856,4.856,0,0,0-.819,2.743,4.169,4.169,0,0,0,.923,2.847,5.535,5.535,0,0,0,2.21,1.547,27.259,27.259,0,0,0,3.367.988q1.482,0.364,2.34.65a3.932,3.932,0,0,1,1.417.793,1.66,1.66,0,0,1,.559,1.287,1.969,1.969,0,0,1-1,1.716,5.641,5.641,0,0,1-3.029.65,9.964,9.964,0,0,1-3.263-.559,9.232,9.232,0,0,1-2.743-1.443l-1.17,2.626a8.492,8.492,0,0,0,3.107,1.586,13.876,13.876,0,0,0,4.069.6h0Z" transform="translate(-82.313 -133.281)"/>
  <g id="elipses_копия_2" data-name="elipses копия 2" class="cls-4">
    <circle id="Ellipse_3_copy_3" data-name="Ellipse 3 copy 3" class="cls-5" cx="178.281" cy="88.828" r="2"/>
    <circle id="Ellipse_3_copy_5" data-name="Ellipse 3 copy 5" class="cls-5" cx="196.313" cy="88.828" r="2"/>
    <circle id="Ellipse_3_copy_7" data-name="Ellipse 3 copy 7" class="cls-5" cx="214.344" cy="88.828" r="2"/>
    <circle id="Ellipse_3_copy_9" data-name="Ellipse 3 copy 9" class="cls-5" cx="232.375" cy="88.828" r="2"/>
  </g>
  <g id="elipses_копия" data-name="elipses копия" class="cls-4">
    <circle class="cls-5" cx="2" cy="88.828" r="2"/>
    <circle id="Ellipse_3_copy_2" data-name="Ellipse 3 copy 2" class="cls-5" cx="20.031" cy="88.828" r="2"/>
    <circle id="Ellipse_3_copy_4" data-name="Ellipse 3 copy 4" class="cls-5" cx="38.063" cy="88.828" r="2"/>
    <circle id="Ellipse_3_copy_6" data-name="Ellipse 3 copy 6" class="cls-5" cx="56.094" cy="88.828" r="2"/>
  </g>
  <path id="bundle_today" data-name="bundle today" class="cls-3" d="M99.724,256.206a5.846,5.846,0,0,0,2.483-1.877,4.648,4.648,0,0,0,.891-2.848,3.731,3.731,0,0,0-1.687-3.281,8.648,8.648,0,0,0-4.873-1.147H86.98l-3.78,18.9H93.595a11.529,11.529,0,0,0,6.264-1.526,4.965,4.965,0,0,0,2.4-4.468,3.872,3.872,0,0,0-.661-2.255,4.369,4.369,0,0,0-1.876-1.5h0Zm-4.455-5.292q2.241,0,2.241,1.485a1.88,1.88,0,0,1-.742,1.606,3.6,3.6,0,0,1-2.173.554H90.76l0.729-3.645h3.78Zm-1.377,11.178H89.248L90,258.258h4.725a2.915,2.915,0,0,1,1.62.391,1.34,1.34,0,0,1,.594,1.2,1.912,1.912,0,0,1-.81,1.674,3.857,3.857,0,0,1-2.241.567h0Zm19.547,4.239q8.288,0,10.016-8.559l2.133-10.719h-5.265l-2.079,10.395a7,7,0,0,1-1.471,3.415,3.524,3.524,0,0,1-2.686,1.04q-3.132,0-3.132-2.97a7.62,7.62,0,0,1,.162-1.485l2.079-10.395H107.85l-2.106,10.476a10.839,10.839,0,0,0-.216,2,6.776,6.776,0,0,0,.945,3.618,6.11,6.11,0,0,0,2.727,2.362,10.033,10.033,0,0,0,4.239.824h0Zm28.78-19.278-2.052,10.341L133.9,247.053h-4.4l-3.78,18.9h5.238l2.079-10.368,6.236,10.368h4.4l3.78-18.9h-5.238Zm5.535,18.9h9.665a13.413,13.413,0,0,0,6.129-1.35,10.05,10.05,0,0,0,4.171-3.834,10.967,10.967,0,0,0,1.5-5.778,7.678,7.678,0,0,0-1.148-4.226,7.355,7.355,0,0,0-3.28-2.754,12.238,12.238,0,0,0-5.049-.958h-8.207Zm6.209-4.266,2.052-10.368h3.132a5.145,5.145,0,0,1,3.483,1.039,3.72,3.72,0,0,1,1.188,2.957,7.178,7.178,0,0,1-.729,3.28,5.381,5.381,0,0,1-2.146,2.268,6.578,6.578,0,0,1-3.362.824h-3.618Zm16.361,4.266h14.363l0.864-4.239h-9.017l2.916-14.661H174.1ZM204.8,251.184l0.837-4.131h-14.8l-3.78,18.9h15.146l0.864-4.131h-9.908l0.675-3.456h8.423l0.783-4h-8.4l0.621-3.186H204.8Zm12.8,14.769h5.345l2.943-14.661h5.778l0.864-4.239H215.6l-0.864,4.239h5.805Zm23.354,0.378a12.614,12.614,0,0,0,6.115-1.458,10.536,10.536,0,0,0,4.184-4.05,11.439,11.439,0,0,0,1.5-5.832,8.158,8.158,0,0,0-1.148-4.32,7.757,7.757,0,0,0-3.266-2.943,11.076,11.076,0,0,0-4.982-1.053,12.611,12.611,0,0,0-6.115,1.458,10.539,10.539,0,0,0-4.185,4.05,11.448,11.448,0,0,0-1.5,5.832,8.157,8.157,0,0,0,1.147,4.32,7.754,7.754,0,0,0,3.267,2.943,11.07,11.07,0,0,0,4.982,1.053h0Zm0.459-4.428a4.5,4.5,0,0,1-3.281-1.148,4.087,4.087,0,0,1-1.174-3.064,7.461,7.461,0,0,1,.729-3.308,5.883,5.883,0,0,1,2.079-2.389,5.549,5.549,0,0,1,3.131-.891,4.5,4.5,0,0,1,3.281,1.147,4.09,4.09,0,0,1,1.174,3.065,7.457,7.457,0,0,1-.729,3.307,5.893,5.893,0,0,1-2.079,2.39,5.554,5.554,0,0,1-3.131.891h0Zm12.446,4.05h9.665a13.413,13.413,0,0,0,6.129-1.35,10.05,10.05,0,0,0,4.171-3.834,10.967,10.967,0,0,0,1.5-5.778,7.678,7.678,0,0,0-1.148-4.226,7.355,7.355,0,0,0-3.28-2.754,12.238,12.238,0,0,0-5.049-.958h-8.208Zm6.209-4.266,2.052-10.368h3.132a5.145,5.145,0,0,1,3.483,1.039,3.72,3.72,0,0,1,1.188,2.957,7.178,7.178,0,0,1-.729,3.28,5.377,5.377,0,0,1-2.147,2.268,6.575,6.575,0,0,1-3.361.824h-3.618Zm30.455,4.266h5.318l-4.563-18.9h-5.264l-12.123,18.9h5.643l2.187-3.672h8.046Zm-6.453-7.614,3.618-6.129,1.269,6.129h-4.887ZM317.6,247.053h-5.427l-6.047,7.533-2.97-7.533h-5.373l4.806,12.069-1.35,6.831h5.346l1.323-6.7Z" transform="translate(-82.313 -133.281)"/>
</svg>
