<svg id="Layer_1" data-name="Layer 1" xmlns="http://www.w3.org/2000/svg" width="88" height="88" viewBox="0 0 88 88"><defs><style>.cls-1{fill:#fff;}</style></defs><title>menu-guide</title><path class="cls-1" d="M44,88A44,44,0,1,1,88,44,44,44,0,0,1,44,88ZM44,2A42,42,0,1,0,86,44,42,42,0,0,0,44,2Z" transform="translate(0 0)"/><path class="cls-1" d="M69.47,19.76h0a7.42,7.42,0,0,0-10.46.9l-.1.12L46.57,36A3.32,3.32,0,0,0,47,40.6l2.12,1.78L44.5,48.09,39.2,41a7.05,7.05,0,0,0,.4-8.89L29.53,18.56a1.4,1.4,0,0,0-2-.29h0a1.42,1.42,0,0,0-.29,2l7,9.4L32,31.31l-7-9.39a1.4,1.4,0,1,0-2.25,1.68l7,9.39L27.5,34.66l-7-9.38A1.4,1.4,0,1,0,18.26,27L28.32,40.48a7,7,0,0,0,8.62,2.16l5.73,7.71L28.77,67.48a1.57,1.57,0,0,0,.13,2.15A1.48,1.48,0,0,0,31,69.51h0l0,0L44.53,52.84,56.87,69.42a1.39,1.39,0,0,0,1.94.31l0,0a1.4,1.4,0,0,0,.3-2h0L46.35,50.59,69.66,21.86a1.49,1.49,0,0,0-.19-2.11Z" transform="translate(0 0)"/></svg>