<svg id="Layer_1" data-name="Layer 1" xmlns="http://www.w3.org/2000/svg" width="88" height="88" viewBox="0 0 88 88"><defs><style>.cls-1{fill:#fff;}</style></defs><title>places-to-eat</title><path class="cls-1" d="M44.33,88a44,44,0,1,1,44-44A44,44,0,0,1,44.33,88Zm0-86a42,42,0,1,0,42,42A42,42,0,0,0,44.33,2Z" transform="translate(-0.33 0)"/><path class="cls-1" d="M68.83,35h-10L46.41,16a2.36,2.36,0,0,0,.13-.75A2.2,2.2,0,0,0,44.71,13l0,0,0,0h-.06l0,0v0l-.22,0a2.2,2.2,0,0,0-2.2,2.19,2.13,2.13,0,0,0,.33,1.18L30.83,35h-11l-4,4.13V65l4,4h49l4-4V39.14ZM43.05,17a2.12,2.12,0,0,0,1.28.43,2.19,2.19,0,0,0,1.53-.62L57.83,35h-26ZM28.83,57a5,5,0,1,1,5-5A5,5,0,0,1,28.83,57Zm14-4a4.92,4.92,0,0,1-3,1h-2v3h-2V47c1.15,0,2.3,0,3.45,0a5.59,5.59,0,0,1,3.08.72,3.55,3.55,0,0,1,1.54,3.1A3.09,3.09,0,0,1,42.84,53Zm10-4h-5v2h4v2h-4v2h5v2h-7V47h7Zm11,8h-2l-5-7v7h-2V47h2l5,7V47h2Z" transform="translate(-0.33 0)"/><path class="cls-1" d="M41.1,49.22A4.65,4.65,0,0,0,39.28,49H37.83v3h2a2.78,2.78,0,0,0,1.52-.41A1.26,1.26,0,0,0,41.83,50,1.39,1.39,0,0,0,41.1,49.22Z" transform="translate(-0.33 0)"/><path class="cls-1" d="M28.83,48.51h0A3.5,3.5,0,1,0,32.33,52,3.51,3.51,0,0,0,28.82,48.51Z" transform="translate(-0.33 0)"/></svg>