<svg id="Layer_1" data-name="Layer 1" xmlns="http://www.w3.org/2000/svg" width="88" height="88" viewBox="0 0 88 88"><defs><style>.cls-1{fill:#fff;}</style></defs><title>user-friendly</title><path class="cls-1" d="M44,88A44,44,0,1,1,88,44,44,44,0,0,1,44,88ZM44,2A42,42,0,1,0,86,44,42,42,0,0,0,44,2Z" transform="translate(0)"/><path id="icon" class="cls-1" d="M55,40.5s-12.2,7-22,0c0,0-14,15-13,31H68S69,55.5,55,40.5Zm-6.5,21.86c-.4.35-.77.69-1.11,1-.13.12-.88.8-1.62,1.44a5.44,5.44,0,0,1-1.7,1.28.27.27,0,0,1-.17-.1h0c-.66-.52-6.1-4.87-7.58-7.33a6.44,6.44,0,0,1-.66-5.07A4.16,4.16,0,0,1,38,51a4.49,4.49,0,0,1,4.32.32,4.77,4.77,0,0,1,1.84,2.46,8.23,8.23,0,0,1,.53-1,4.4,4.4,0,0,1,3.81-2.22h0a4.25,4.25,0,0,1,4.12,3C54.07,57.46,51,60.18,48.52,62.36ZM44.26,65.6ZM58,26.5a14,14,0,1,1-14-14A14,14,0,0,1,58,26.5Z" transform="translate(0)"/></svg>