<svg xmlns="http://www.w3.org/2000/svg" xmlns:xlink="http://www.w3.org/1999/xlink" width="50" height="54" viewBox="0 0 50 54"><defs><path id="dke2a" d="M967.37 1520.43v35.67l-16.51-.03-.06-.63c-.23-1.8-1.6-3.23-3.4-3.23h-3.97a3.29 3.29 0 0 0-3.28 3.29l-.08 7.57h-4.77l.02-42.64h7.79v4.2h16.52v-4.2zm-29.45 9.14c0 .48.39.87.87.87h11.26c.48 0 .86-.4.86-.87a.87.87 0 0 0-.86-.87h-11.26a.87.87 0 0 0-.87.87zm26.85 15.66a.87.87 0 0 0-.86-.87h-25.12a.87.87 0 0 0-.87.87c0 .48.39.87.87.87h25.12c.48 0 .86-.39.86-.87zm-25.98-4.35h12.12c.48 0 .87-.39.87-.87a.87.87 0 0 0-.87-.87H938.8a.87.87 0 0 0-.87.87c0 .48.39.87.87.87zm14.97-.25a.9.9 0 0 0 1.23 0 .9.9 0 0 0 .25-.62.86.86 0 0 0-.25-.62.9.9 0 0 0-1.23 0 .86.86 0 0 0-.25.62c0 .23.1.45.25.62zm11.01-.62a.87.87 0 0 0-.86-.87h-6.07a.87.87 0 0 0-.86.87c0 .48.38.87.86.87h6.07c.48 0 .86-.39.86-.87zm0-5.22a.87.87 0 0 0-.86-.87h-25.12a.87.87 0 0 0-.87.87c0 .48.39.87.87.87h25.12c.48 0 .86-.39.86-.87zm12.42 19.14h3.76c1.03 0 1.87.89 1.87 1.98v11.69c0 1.1-.84 1.98-1.87 1.98h-3.76c-1.03 0-1.87-.89-1.87-1.98v-2h-25.97v2c0 1.1-.84 1.98-1.87 1.98h-3.76c-1.03 0-1.87-.89-1.87-1.98v-11.69c0-1.1.84-1.98 1.87-1.98h3.76c1.03 0 1.87.89 1.87 1.98v1.99h25.97v-1.99c0-1.1.85-1.98 1.87-1.98zm-19.38-30.91h-13v-4.4l13 .02z"/></defs><g><g transform="translate(-934 -1517)"><use fill="#ee1d24" xlink:href="#dke2a"/></g></g></svg>