<svg xmlns="http://www.w3.org/2000/svg" xmlns:xlink="http://www.w3.org/1999/xlink" width="56" height="59" viewBox="0 0 56 59"><defs><path id="iboua" d="M774.27 1776.94l-1 1.15c-2.29-1.87-5.58-2.16-8.73-.86l-.43.14c-1 .43-2.3 1.01-3.58 1.01a8.28 8.28 0 0 1-5.3-2.02c-1-.57-2-1.15-3-1.44-2.58-.72-5.45.58-7.17 1.88l-.86-1.16c2-1.44 5.3-2.88 8.45-2.02 1.3.44 2.3 1.01 3.3 1.59 1.43.86 2.86 1.59 4.58 1.59a7.9 7.9 0 0 0 3.15-.87l.43-.14c3.72-1.45 7.44-1.16 10.16 1.15zm7.74-1.87l.28.72c-.14 0-1.14.43-2.29.43-1 0-2.15-.29-2.86-1.3-1.15-1.73-3.87-.43-4.01-.72l-.29-.58c1.15-.57 3.58-1 4.87.72 1.15 1.88 4.3.73 4.3.73zm5.44 1.3c0 3.02-1.15 6.34-2.3 9.08-1.28 2.88-2.86 6.05-5 8.36a27.62 27.62 0 0 1-4.87 4.33c-4.16 2.74-8.74 3.46-13.6 3.46-3.3 0-6.6-.58-9.89-1.88-.71-.29-1.43-.57-2-.86-.57-.3-1.15-.58-1.72-.87-.57-.29-1-.72-1.57-1-.43-.44-1-.73-1.44-1.16-.43-.43-.86-.72-1.29-1.15a9.3 9.3 0 0 1-1.28-1.16c-.43-.43-.86-.86-1.15-1.3-.29-.43-.72-.86-1-1.3l-.86-1.3-.86-1.29c-.29-.43-.43-.86-.72-1.3-.14-.43-.43-.86-.57-1.3-.29-.43-.43-.86-.57-1.3a9.98 9.98 0 0 1-.43-1.15c-.14-.43-.29-.72-.43-1.15-.14-.43-.14-.72-.29-1.15-.14-.3-.14-.72-.28-1.01 0-.44-.15-.72-.15-1.01 0-.29-.14-.58-.14-.87-.14-.29-.14-.43-.14-.72-.15-.14-.15-.43-.15-.57-.14-.58-.14-1.01 0-1.6 0-.28.29-.57.43-.86.15-.28.43-.43.58-.72l.71-.72c.29-.29.57-.57.86-.72.29-.14.72-.43 1-.58.43-.14.72-.43 1.15-.57.43-.3.86-.44 1.29-.58.43-.14 1-.29 1.43-.43.57-.15 1-.3 1.57-.43l1.72-.44c.72 0 1.3-.14 1.86-.29.72-.14 1.3-.14 2-.28.73-.15 1.44-.15 2.16-.3.71 0 1.43-.14 2.14-.14.72 0 1.58-.14 2.3-.14.71-.14 1.57-.14 2.43-.14h7.73l5.73-20.34a2.75 2.75 0 0 1 2.58-2.02h.86c.86 0 1.57.44 2 1.01.43.58.57 1.45.43 2.17l-5.44 19.75 4.44.87c1.29.29 2.58.72 3.86 1.15 1 .43 2 .87 2.87 1.3.57.43 1.29.86 1.86 1.3.86.57 1.43 1.3 1.72 2.16 0 .14.14.29.14.43 0 .29 0 .72.29.72zm-1.58-.87c-.71-.87-3.86-4.18-13.89-5.48l-.57 1.87-1.43-.43 6.44-23.07c.15-.29 0-.58-.14-.87-.29-.29-.57-.43-.86-.43h-.86c-.57 0-1.14.43-1.29 1.01l-6.58 23.22-1.44-.44.43-1.44h-4.72c-10.03.15-22.2 1.44-24.63 6.49 1.57 1.3 9.02 6.34 26.63 5.77 19.62-.72 21.91-4.62 22.77-5.91 0-.15.14-.15.14-.3zm-35.65-21.06a3.22 3.22 0 0 1 .14-2.3c.29-.87 1-1.59 1.86-1.88l.43 1.3c-.57.14-.86.58-1.14 1.01a1.6 1.6 0 0 0 0 1.15c.14.44.28.72.57 1.16a5.6 5.6 0 0 1 .72 5.34c-.15.28-.3.71-.43 1-.29.43-.43.72-.58 1.16 0 .43 0 .86.15 1.15.14.29.43.43.71.58l-.28 1.44c-.72-.15-1.44-.58-1.72-1.16a3.17 3.17 0 0 1-.15-2.3c.15-.58.3-1.01.58-1.44l.43-.87c.43-1.01.43-2.02 0-3.03a4.32 4.32 0 0 0-.58-1.15c-.28-.43-.43-.87-.71-1.16zm4 0a3.22 3.22 0 0 1 .15-2.3c.29-.87 1-1.59 1.86-1.88l.43 1.3c-.57.14-.86.58-1.14 1.01a1.6 1.6 0 0 0 0 1.15c.14.44.28.72.57 1.16a5.6 5.6 0 0 1 .72 5.34c-.15.28-.3.71-.43 1-.3.43-.43.72-.58 1.16 0 .43 0 .86.15 1.15.14.29.43.43.71.58l-.28 1.44c-.72-.15-1.44-.58-1.72-1.16a3.17 3.17 0 0 1-.15-2.3c.15-.58.29-1.01.58-1.44l.43-.87c.43-1.01.43-2.02 0-3.03a4.32 4.32 0 0 0-.58-1.15 3.14 3.14 0 0 0-.71-1.16z"/></defs><g><g transform="translate(-733 -1744)"><use fill="#ee1d24" xlink:href="#iboua"/></g></g></svg>