<?xml version="1.0" encoding="utf-8"?>
<!-- Generator: Adobe Illustrator 21.1.0, SVG Export Plug-In . SVG Version: 6.00 Build 0)  -->
<svg version="1.1" id="Слой_1" xmlns="http://www.w3.org/2000/svg" xmlns:xlink="http://www.w3.org/1999/xlink" x="0px" y="0px"
	 viewBox="0 0 91 91" style="enable-background:new 0 0 91 91;" xml:space="preserve">
<style type="text/css">
	.st0{fill:#29282E;}
</style>
<g>
	<g transform="translate(-599 -1525)">
		<g>
			<path id="_x33_ccgc" class="st0" d="M611.2,1585.6v-9.7h12.2v9.7H611.2z M637.2,1562.3h-11.8v-9.7h11.8V1562.3z M625.4,1576h11.8
				v9.7h-11.8V1576z M623.4,1562.3h-12.2v-9.7h12.2L623.4,1562.3z M611.2,1574v-9.7h12.2v9.7H611.2z M677.8,1564.3v9.7h-11.2v-9.7
				H677.8z M666.6,1576h11.2v9.7h-11.2V1576z M677.8,1552.7v9.7h-11.2v-9.7H677.8z M639.2,1576H651v9.7h-11.8V1576z M653,1587.6
				h11.5v10H653V1587.6z M664.5,1562.3H653v-9.7h11.5V1562.3z M623.4,1597.6h-7.8c-2.4,0-4.4-1.9-4.4-4.3c0,0,0,0,0,0v-5.6h12.2
				V1597.6z M677.8,1587.6v5.6c0,2.4-2,4.4-4.4,4.4c0,0,0,0,0,0h-6.8v-10H677.8z M639.2,1564.3H651v9.7h-11.8V1564.3z M639.2,1587.6
				H651v10h-11.8V1587.6z M653,1564.3h11.5v9.7H653V1564.3z M651,1552.7v9.7h-11.8v-9.7H651z M646,1557.5l2.4-2.4l-0.9-0.9l-2.4,2.4
				l-2.4-2.4l-0.9,0.9l2.4,2.4l-2.4,2.4l0.9,0.9l2.4-2.4l2.4,2.4l0.9-0.9L646,1557.5z M637.2,1564.3v9.7h-11.8v-9.7H637.2z
				 M632.2,1569.2l2.4-2.4l-0.9-0.9l-2.4,2.4l-2.4-2.4l-0.9,0.9l2.4,2.4l-2.4,2.4l0.9,0.9l2.4-2.4l2.4,2.4l0.9-0.9L632.2,1569.2z
				 M664.5,1576v9.7H653v-9.7H664.5z M659.7,1580.8l2.4-2.4l-0.9-0.9l-2.4,2.4l-2.4-2.4l-0.9,0.9l2.4,2.4l-2.4,2.4l0.9,0.9l2.4-2.4
				l2.4,2.4l0.9-0.9L659.7,1580.8z M637.2,1587.6v10h-11.8v-10H637.2z M632.2,1592.6l2.4-2.4l-0.9-0.9l-2.4,2.4l-2.4-2.4l-0.9,0.9
				l2.4,2.4l-2.4,2.4l0.9,0.9l2.4-2.4l2.4,2.4l0.9-0.9L632.2,1592.6z M677.8,1547.8v2.9h-66.6v-2.9c0-2.4,2-4.4,4.4-4.4c0,0,0,0,0,0
				h8v1.8c-1,0.3-1.6,1.3-1.3,2.3c0.2,0.8,1,1.4,1.8,1.4c1,0.3,2.1-0.3,2.4-1.3c0.3-1-0.3-2.1-1.3-2.4c-0.2,0-0.3-0.1-0.5-0.1v-1.8
				h40.4v1.8c-1,0.3-1.6,1.4-1.3,2.4c0.2,0.8,1,1.4,1.8,1.4c1,0.3,2.1-0.3,2.3-1.3c0.3-1-0.3-2.1-1.3-2.3c-0.2,0-0.3-0.1-0.5-0.1
				v-1.8h7.3C675.8,1543.4,677.8,1545.3,677.8,1547.8L677.8,1547.8L677.8,1547.8z"/>
		</g>
	</g>
</g>
</svg>
