<svg xmlns="http://www.w3.org/2000/svg" xmlns:xlink="http://www.w3.org/1999/xlink" width="54" height="44" viewBox="0 0 54 44"><defs><path id="9laca" d="M499.85 1553.55v-7.31h9.2v7.31zm19.66-17.64h-8.95v-7.31h8.95zm-8.95 10.33h8.95v7.31h-8.95zm-1.5-10.33h-9.21v-7.31h9.2zm-9.21 8.82v-7.31h9.2v7.31zm50.4-7.31v7.31h-8.5v-7.31zm-8.5 8.82h8.5v7.31h-8.5zm8.5-17.64v7.31h-8.5v-7.31zm-29.22 17.64h8.95v7.31h-8.95zm10.46 8.82h8.74v7.55h-8.74zm8.74-19.15h-8.74v-7.31h8.74zm-31.18 26.7h-5.89a3.3 3.3 0 0 1-3.31-3.3v-4.25h9.2zm41.2-7.55v4.25a3.3 3.3 0 0 1-3.32 3.3h-5.18v-7.55zm-29.22-17.64h8.95v7.31h-8.95zm0 17.64h8.95v7.55h-8.95zm10.46-17.64h8.74v7.31h-8.74zm-1.51-8.82v7.31h-8.95v-7.31zm-3.79 3.65l1.8-1.8-.68-.68-1.8 1.8-1.81-1.8-.69.69 1.8 1.8-1.8 1.79.69.68 1.8-1.8 1.81 1.8.69-.68zm-6.68 5.17v7.31h-8.95v-7.31zm-3.78 3.65l1.8-1.8-.68-.68-1.81 1.8-1.8-1.8-.7.69 1.81 1.8-1.8 1.8.68.67 1.8-1.8 1.82 1.8.68-.68zm24.5 5.17v7.31h-8.74v-7.31zm-3.68 3.66l1.8-1.8-.68-.68-1.8 1.8-1.81-1.8-.69.68 1.8 1.8-1.8 1.8.69.67 1.8-1.8 1.8 1.8.7-.68zm-17.04 5.16v7.55h-8.95v-7.55zm-3.78 3.77l1.8-1.8-.68-.68-1.81 1.8-1.8-1.8-.7.69 1.81 1.8-1.8 1.8.68.67 1.8-1.8 1.82 1.8.68-.68zm34.52-33.96v2.22h-50.4v-2.22a3.3 3.3 0 0 1 3.31-3.3h6.08v1.36a1.44 1.44 0 0 0 .36 2.84 1.44 1.44 0 1 0 .44-2.82v-1.38h30.6v1.38a1.44 1.44 0 0 0 .4 2.82 1.44 1.44 0 1 0 .4-2.83v-1.37h5.5a3.3 3.3 0 0 1 3.3 3.3z"/></defs><g><g transform="translate(-498 -1520)"><use fill="#ee1d24" xlink:href="#9laca"/><use fill="#ee1d24" xlink:href="#9laca"/></g></g></svg>