<?xml version="1.0" encoding="utf-8"?>
<!-- Generator: Adobe Illustrator 21.1.0, SVG Export Plug-In . SVG Version: 6.00 Build 0)  -->
<svg version="1.1" id="Layer_1" xmlns="http://www.w3.org/2000/svg" xmlns:xlink="http://www.w3.org/1999/xlink" x="0px" y="0px"
	 viewBox="0 0 88 88" style="enable-background:new 0 0 88 88;" xml:space="preserve">
<style type="text/css">
	.st0{fill:#29282E;}
</style>
<title>absorption</title>
<path id="icon" class="st0" d="M27.1,42.9C30.3,35.1,36.4,29,44,25.7c3.8-1.6,7.8-2.5,11.9-2.5C52.6,9,38.5,0.3,24.4,3.5h-0.1
	C10,7,1.4,21.4,4.9,35.7c2.4,9.6,10,17.2,19.6,19.5C24.5,50.9,25.4,46.7,27.1,42.9z M28.3,22.8L28.3,22.8c-0.3,0-0.4-0.1-0.4-0.3
	L21.7,8c-0.1-0.1,0-0.3,0-0.4c0,0,0,0,0.1,0l0,0c1.1-0.4,2.3-0.8,3.5-1.1h0.1c0.1,0,0.3,0.1,0.4,0.3l2.8,15.5
	C28.6,22.6,28.5,22.8,28.3,22.8z M23.8,27.8L23.8,27.8c0,0.1-0.1,0.3-0.4,0.3L7.9,26.4c-0.1,0-0.1,0-0.3-0.1
	c-0.1-0.1-0.1-0.1-0.1-0.3c0.1-1.3,0.4-2.4,0.8-3.5c0-0.1,0.1-0.3,0.3-0.3h0.1l14.7,5.2C23.8,27.4,23.8,27.6,23.8,27.8z M13.7,44.9
	l11.7-10.4c0.1-0.1,0.1-0.1,0.3-0.1s0.1,0,0.3,0.1l0,0c0.1,0.1,0.1,0.3,0,0.4l0,0l-9,12.8c0,0.1-0.1,0.1-0.3,0.1h-0.3
	c-1-0.7-1.8-1.6-2.7-2.5c-0.1,0-0.1-0.1-0.1-0.3L13.7,44.9z M34.7,23.8l9-12.8c0.1-0.1,0.1-0.1,0.3-0.1h0.3c1,0.7,1.8,1.6,2.7,2.4
	c0,0.1,0.1,0.1,0.1,0.3s0,0.1-0.1,0.3L35.2,24.3c-0.1,0.1-0.3,0.1-0.4,0l0,0l0,0C34.7,24.1,34.5,24,34.7,23.8z M31,26.4
	c1.7,0.3,2.7,2,2.4,3.5c-0.3,1.7-2,2.7-3.5,2.4h-0.1c-1.7-0.4-2.7-2-2.3-3.7l0,0C27.8,27.1,29.3,25.9,31,26.4L31,26.4z M58.2,25.5
	c-16.5-1.1-30.8,11.1-31.9,27.7C25.2,69.5,37.5,83.9,54,85.1c16.4,1.1,30.8-11.1,31.9-27.7v-0.1c0.7-10.4-4.1-20.5-12.6-26.5
	C68.8,27.6,63.6,25.8,58.2,25.5z M63.7,55.4L63.7,55.4c0-0.1,0.1-0.4,0.3-0.4c0,0,0,0,0.1,0l17.5-2.1l0,0c0.1,0,0.4,0.1,0.4,0.3
	c0,0,0,0,0,0.1c0.1,1.4,0.1,2.8,0,4.2c0,0.3-0.3,0.4-0.6,0.4l0,0L64,56C63.9,55.9,63.7,55.7,63.7,55.4z M59.9,61.9h0.3
	c0.1,0,0.3,0,0.4,0.1l10.3,14.5c0.1,0.1,0.1,0.3,0.1,0.4c0,0.1,0,0.1-0.1,0.3c-1.1,0.8-2.4,1.4-3.7,2h-0.1c-0.1,0-0.4-0.1-0.4-0.3
	l-6.8-16.5c-0.1,0-0.3-0.3-0.1-0.4C59.8,62.1,59.8,61.9,59.9,61.9z M70.9,34.1L60.5,48.7c-0.1,0.1-0.3,0.1-0.4,0.1h-0.3
	c-0.1-0.1-0.3-0.4-0.1-0.6l6.9-16.5c0-0.1,0.3-0.3,0.4-0.3h0.1c1.3,0.6,2.4,1.3,3.7,2c0.1,0.1,0.1,0.1,0.1,0.3
	C70.9,33.8,70.9,34.1,70.9,34.1z M41.6,76.6L52,62.1c0.1-0.1,0.4-0.3,0.6-0.1l0,0c0.1,0,0.3,0.3,0.1,0.4v0.1L45.8,79
	c0,0.3-0.1,0.3-0.3,0.3h-0.1c-1.3-0.6-2.4-1.3-3.5-2C41.5,77.2,41.5,76.9,41.6,76.6z M30.9,57.8c-0.3,0-0.6-0.1-0.6-0.4l0,0v-4.1
	c0-0.3,0.1-0.4,0.4-0.4l0,0L40,54l2,0.3l1.8,0.3l4.4,0.6c0.3,0,0.4,0.1,0.4,0.4l0,0c0,0.1-0.1,0.4-0.3,0.4c0,0,0,0-0.1,0l-11.1,1.3
	L30.9,57.8z M41.6,33.8c0-0.1,0-0.1,0.1-0.3c0-0.1,0-0.1,0.1-0.1c1.1-0.7,2.3-1.4,3.4-2h0.1c0.1,0,0.4,0.1,0.4,0.3l1.6,3.5l4,9.6
	l0.4,1.1l0.4,1.1l0.4,1c0.1,0.3,0,0.4-0.1,0.6h-0.3c-0.1,0-0.3-0.1-0.4-0.1L51.3,48l-0.7-0.8l-0.6-0.8l-8.7-12.1
	C41.6,34.1,41.6,34,41.6,33.8z M56.3,58.8c-2,0.1-3.5-1.4-3.7-3.4s1.4-3.5,3.4-3.7c2-0.1,3.5,1.4,3.7,3.4v0.1l0,0
	C59.7,57.3,58.2,58.8,56.3,58.8z"/>
</svg>
