<?xml version="1.0" encoding="utf-8"?>
<!-- Generator: Adobe Illustrator 21.1.0, SVG Export Plug-In . SVG Version: 6.00 Build 0)  -->
<svg version="1.1" id="Layer_1" xmlns="http://www.w3.org/2000/svg" xmlns:xlink="http://www.w3.org/1999/xlink" x="0px" y="0px"
	 viewBox="0 0 88 88" style="enable-background:new 0 0 88 88;" xml:space="preserve">
<style type="text/css">
	.st0{fill:#29282E;}
</style>
<title>improved-complexion</title>
<path id="icon" class="st0" d="M44,4.1C27.7,4.3,14.7,17.6,14.7,33.9v45.6c0,2.4,2,4.4,4.4,4.4H32c0.7,0,1.3-0.6,1.3-1.3l0,0v-6.9
	l0.3,0.3h0.1l1.3,0.9l1.5,1.1c2.1,1.6,4.4,3.2,7.4,3.2c3.1,0,5.3-1.6,7.4-3.2l1.5-1.1l1.3-0.9l0,0l0.4-0.3v6.9
	c0,0.7,0.5,1.3,1.2,1.3c0.1,0,0.1,0,0.2,0h12.9c2.4,0,4.4-2,4.4-4.4V33.9C73.3,17.6,60.3,4.3,44,4.1z M58.8,69.1
	c-1.2,1.1-2.5,2.2-3.9,3.2l-2.1,1.5l-1.3,0.9l-1.6,1.2c-1.9,1.5-3.6,2.7-5.9,2.7s-4-1.3-5.9-2.7l-1.6-1.2l-1.2-0.8l-2.1-1.5
	c-1.4-1-2.7-2-3.9-3.2c-6.1-6-6.6-15-6.6-23.1c0-5,2.3-9.6,6.1-12.8c2.9-2.3,6-4.2,9.3-5.9c6.9,15.8,22.6,19.3,27.1,19.8
	C65.3,55.2,64.5,63.5,58.8,69.1z"/>
</svg>
