<?xml version="1.0" encoding="utf-8"?>
<!-- Generator: Adobe Illustrator 21.1.0, SVG Export Plug-In . SVG Version: 6.00 Build 0)  -->
<svg version="1.1" id="Layer_1" xmlns="http://www.w3.org/2000/svg" xmlns:xlink="http://www.w3.org/1999/xlink" x="0px" y="0px"
	 viewBox="0 0 88 88" style="enable-background:new 0 0 88 88;" xml:space="preserve">
<style type="text/css">
	.st0{fill:#29282E;}
</style>
<title>improve-digestion</title>
<path id="icon" class="st0" d="M64,77.7c0.8,0.8,3.2-0.3,4-1.1l1.4-1.4c0.8-0.8,1.9-3.2,1.1-4L50.2,52.3l-5.3,5.4L64,77.7z
	 M30.4,33.6c2.6-4.6,1.2-10.1-2.9-14.1C22.7,14.7,12,10,7.2,14.8S7.1,30.2,12,35c4,4,9.5,5.4,14,3l9.5,10l5.1-4.7L30.4,33.6z
	 M55.4,33.3L15.4,71.2c-0.8,0.8,0.3,3.2,1.1,4l1.4,1.4c0.9,0.8,2,1.3,3.2,1.4c0.3,0,0.6-0.1,0.8-0.3l38.3-40c1,0.5,2.2,0.8,3.3,1
	c3.7,0.2,7.3-1.3,9.8-4c9.7-9.5,11.3-11.6,8.4-15.3L70.4,30.2c-0.2,0.3-0.6,0.4-1,0.4c-0.3,0-0.6-0.2-0.8-0.4l-0.3-0.3
	c-0.2-0.2-0.4-0.5-0.4-0.8c0-0.4,0.1-0.7,0.4-1l10.4-12L78,15.4l-1.2-1.2L64.6,24.3c-0.2,0.3-0.6,0.4-1,0.4c-0.3,0-0.6-0.2-0.8-0.4
	l-0.3-0.3c-0.2-0.2-0.4-0.5-0.4-0.8c0-0.4,0.1-0.7,0.4-1l10.9-11.2c-3.5-2.5-5.7-0.4-14.9,8.8c-3,2.7-4.5,6.7-3.9,10.6
	C54.5,31.6,54.8,32.5,55.4,33.3z"/>
</svg>
