<?xml version="1.0" encoding="utf-8"?>
<!-- Generator: Adobe Illustrator 21.1.0, SVG Export Plug-In . SVG Version: 6.00 Build 0)  -->
<svg version="1.1" id="Layer_1" xmlns="http://www.w3.org/2000/svg" xmlns:xlink="http://www.w3.org/1999/xlink" x="0px" y="0px"
	 viewBox="0 0 88 88" style="enable-background:new 0 0 88 88;" xml:space="preserve">
<style type="text/css">
	.st0{fill:#29282E;}
</style>
<title>increased-energy</title>
<path id="icon" class="st0" d="M25.8,84c0.7-0.4,1.2-0.9,1.7-1.6c0.8-0.8,1.6-1.6,2.4-2.3l4.3-4.3c1.6-1.6,3.2-3.2,5-4.8l4.8-4.8
	c1.3-1.3,2.8-2.7,4.2-4.2l2.8-2.8l0.8-0.8c0.7-0.7,0.7-1.6,0.1-2.3c-0.7-0.1-1.3-0.3-2-0.1h-1.3c-0.9-0.1-1.7-0.9-1.7-1.9
	c0-0.4,0.1-0.8,0.4-1.1l13.6-17.1c0.5-0.7,0.4-1.7-0.3-2.3c-0.3-0.3-0.8-0.5-1.2-0.5h-6.7c-0.8,0.1-1.5-0.5-1.6-1.3v-0.1
	c0-0.4,0.1-0.8,0.4-1.1l17.3-23c0.5-0.7,0.4-1.6-0.3-2.1c0,0-0.1,0-0.1-0.1C68,5,67.8,4.9,67.4,4.9H40.7c-2.4,0-2.6,1.6-3.4,3.1
	c-1.3,2.6-1.5,3-2.8,5.6l-6.9,13.7c-0.5,0.9-0.9,1.9-1.5,3c-0.5,1.1-1.1,2.1-1.3,3.4c-0.1,2.3,2.3,2,3.9,2h3.6
	c0.9,0,1.7,0.3,1.7,1.2c0,0.3,0,0.5-0.1,0.8L24.9,56c-0.4,0.8-0.1,1.9,0.8,2.3l0,0c0.3,0.1,0.4,0.1,0.7,0.1h5.8
	c0.8,0,1.6,0.7,1.6,1.5v0.1c0,0.3,0,0.5-0.1,0.7c0,0-10.3,21.2-10.3,21.4c-0.1,0.5,0,1.2,0.5,1.6C24.3,84.3,25.1,84.4,25.8,84z"/>
</svg>
