<svg xmlns="http://www.w3.org/2000/svg" xmlns:xlink="http://www.w3.org/1999/xlink" width="90" height="91" viewBox="0 0 90 91"><defs><path id="5dm7a" d="M1120 1944a44 44 0 1 1 0 88 44 44 0 0 1 0-88z"/><path id="5dm7c" d="M1144.77 2008.17a2 2 0 0 1-.05 2.86l-1.33 1.27c-.9.86-2.35.85-3.24-.05l-16.52-16.64-2.79 1.48c-1.52.81-3.42.4-4.45-.98l-20.4-26.97a3.2 3.2 0 0 1 .34-4.25l1.12-1.08a2.8 2.8 0 0 1 3.91.06zm-29-10.32l-2.22 2.2 1.03 1.01-11.18 11.05c-.88.89-2.33.9-3.24.04l-1.33-1.27a2 2 0 0 1-.04-2.86l11.46-11.25 1.38 1.36 2.2-2.18zm9.19-12.73a.12.12 0 0 1 0-.16l2.95-2.92c.04-.04.05-.1.01-.15a8.5 8.5 0 0 1-1.6-6.61 7.41 7.41 0 0 1 2.14-3.94l8.58-8.5 1.55 1.54-9 8.9a.85.85 0 0 0 0 1.21l.59.59a.9.9 0 0 0 1.26 0l8.97-8.88 1.55 1.54-8.98 8.87a.87.87 0 0 0 0 1.24l.77.76c.35.35.93.35 1.28 0l8.96-8.86 1.55 1.53-8.97 8.87a.87.87 0 0 0 0 1.25l.61.6a.9.9 0 0 0 1.27 0l9-8.89 1.54 1.53-8.63 8.5a7.79 7.79 0 0 1-5.44 2.24c-1.82 0-3.5-.56-4.9-1.5a.11.11 0 0 0-.15.02l-2.99 2.96a.12.12 0 0 1-.17 0z"/><clipPath id="5dm7b"><use fill="#fff" xlink:href="#5dm7a"/></clipPath></defs><g><g transform="translate(-1075 -1943)"><use fill="#fff" fill-opacity="0" stroke="#111" stroke-miterlimit="50" stroke-width="4" clip-path="url(&quot;#5dm7b&quot;)" xlink:href="#5dm7a"/></g><g transform="translate(-1075 -1943)"><use fill="#29282e" xlink:href="#5dm7c"/></g></g></svg>