<svg xmlns="http://www.w3.org/2000/svg" xmlns:xlink="http://www.w3.org/1999/xlink" width="90" height="91" viewBox="0 0 90 91"><defs><path id="u1b9a" d="M1120 1796a44 44 0 1 1 0 88 44 44 0 0 1 0-88z"/><path id="u1b9c" d="M1139 1814v27c-.7 0-.9.12-1.9.12l-.1-25.12h-8v2h-17v-2h-9v48h24v2h-26v-52h11v-2h17v2zm-5 10l-27.99.02v-1l27.99-.02zm-6 5h-22l.01-.96 21.99-.04zm-1 15h-21v-1h21zm-2 5h-19v-1h19zm-3 5h-16v-1h16zm2 5h-18v-1h18zm10-20h-28v-1h28zm-3-5h-25v-1h25zm15 22.03c0 5.49-3.91 13.9-9.9 11.3-5.7 2.52-9.9-5.82-9.9-11.3 0-5.25 4.51-8.27 9.27-6.12 1.53-4 2.84-5.88 2.84-5.88.16-.22.5-.3.75-.19l1.77.83c.25.12.27.35.05.52 0 0-1.46 1.1-2.2 1.96a20.11 20.11 0 0 0-2.02 2.8c5.27-2.33 9.34.78 9.34 6.08zm-14.04-9.16c-1.5-1.5-1.31-3.65-1.31-3.65a.61.61 0 0 1 .54-.54s2.13-.18 3.63 1.32c1.49 1.5 1.31 3.64 1.31 3.64a.61.61 0 0 1-.54.54s-2.14.18-3.63-1.31z"/><clipPath id="u1b9b"><use fill="#fff" xlink:href="#u1b9a"/></clipPath></defs><g><g transform="translate(-1075 -1795)"><use fill="#fff" fill-opacity="0" stroke="#111" stroke-miterlimit="50" stroke-width="4" clip-path="url(&quot;#u1b9b&quot;)" xlink:href="#u1b9a"/></g><g transform="translate(-1075 -1795)"><use fill="#29282e" xlink:href="#u1b9c"/></g></g></svg>